<svg width="315" height="81" viewBox="0 0 315 81" fill="none" xmlns="http://www.w3.org/2000/svg">
<path d="M23.1504 59.2231H61.1837V74.1057C61.1837 77.7588 58.2223 80.7202 54.5692 80.7202H29.7649C26.1118 80.7202 23.1504 77.7588 23.1504 74.1057V59.2231Z" fill="white"/>
<path fill-rule="evenodd" clip-rule="evenodd" d="M33.0508 0.831552C23.9947 2.67514 16.0148 7.47936 10.166 14.1895C10.1658 14.1894 10.1662 14.1897 10.166 14.1895C3.83494 21.4527 0 30.9487 0 41.3405V42.7829C0.000325477 42.7823 0.000650998 42.7817 0.000976562 42.781V44.297C0.000976562 44.6227 0.000976562 44.7855 0.0042548 44.9232C0.151296 51.1002 5.12385 56.0728 11.3009 56.2198C11.4386 56.2231 11.6014 56.2231 11.9271 56.2231H70.7559C71.0816 56.2231 71.2444 56.2231 71.3821 56.2198C77.5592 56.0728 82.5317 51.1002 82.6787 44.9232C82.682 44.7855 82.682 44.6227 82.682 44.297V41.3405C82.682 18.5088 64.1732 0 41.3415 0C38.5023 0 35.729 0.286408 33.0508 0.831552C33.0508 0.831618 33.0508 0.831487 33.0508 0.831552ZM32.8457 4.2597C31.6134 11.2365 25.5209 16.5361 18.1905 16.5361C16.4597 16.5361 14.7979 16.2406 13.2528 15.6974C18.3818 10.0824 25.172 6.01059 32.8457 4.2597ZM53.3521 5.24258C54.958 11.7282 60.817 16.5361 67.799 16.5361C68.5573 16.5361 69.3024 16.4794 70.0302 16.3699C65.6137 11.3001 59.8753 7.41194 53.3521 5.24258ZM79.2643 38.4191C76.6446 36.1198 73.2107 34.7258 69.4512 34.7258C61.2318 34.7258 54.5686 41.389 54.5686 49.6084C54.5686 50.7452 54.6961 51.8522 54.9374 52.9159H70.7559C71.1006 52.9159 71.215 52.9156 71.3034 52.9135C75.7156 52.8085 79.2674 49.2567 79.3724 44.8445C79.3745 44.7561 79.3748 44.6417 79.3748 44.297V41.3405C79.3748 40.3576 79.3375 39.3833 79.2643 38.4191ZM27.7424 52.9159C27.9838 51.8522 28.1112 50.7452 28.1112 49.6084C28.1112 41.389 21.448 34.7258 13.2286 34.7258C9.47076 34.7258 6.0382 36.1186 3.41898 38.4161C3.34559 39.3813 3.30822 40.3565 3.30822 41.3405V44.297C3.30822 44.6417 3.30845 44.7561 3.31056 44.8445C3.41559 49.2567 6.96741 52.8085 11.3796 52.9135C11.468 52.9156 11.5824 52.9159 11.9271 52.9159H27.7424ZM56.2234 28.1115C56.2234 36.3309 49.5602 42.9941 41.3408 42.9941C33.1214 42.9941 26.4582 36.3309 26.4582 28.1115C26.4582 19.892 33.1214 13.2289 41.3408 13.2289C49.5602 13.2289 56.2234 19.892 56.2234 28.1115Z" fill="white"/>
<path d="M107.397 62V13.2905H116.057V62H107.397Z" fill="white"/>
<path d="M137.827 62.8118C134.444 62.8118 131.445 62.0902 128.829 60.6469C126.213 59.2037 124.161 57.1741 122.673 54.5582C121.184 51.9424 120.44 48.9206 120.44 45.4929C120.44 42.0201 121.162 38.9306 122.605 36.2246C124.093 33.5185 126.123 31.4213 128.694 29.9329C131.309 28.3995 134.376 27.6327 137.894 27.6327C141.187 27.6327 144.096 28.3544 146.621 29.7976C149.147 31.2409 151.109 33.2253 152.507 35.751C153.95 38.2316 154.672 41.0053 154.672 44.0722C154.672 44.5683 154.649 45.087 154.604 45.6282C154.604 46.1694 154.582 46.7332 154.537 47.3195H129.032C129.212 49.9354 130.114 51.9875 131.738 53.4758C133.407 54.9641 135.414 55.7083 137.759 55.7083C139.518 55.7083 140.984 55.325 142.156 54.5582C143.374 53.7464 144.276 52.7091 144.862 51.4462H153.657C153.026 53.566 151.966 55.5054 150.478 57.2643C149.034 58.9782 147.23 60.3312 145.065 61.3234C142.946 62.3157 140.533 62.8118 137.827 62.8118ZM137.894 34.6686C135.774 34.6686 133.903 35.2774 132.279 36.4952C130.655 37.6678 129.618 39.4718 129.167 41.9073H145.877C145.742 39.6974 144.93 37.9384 143.442 36.6305C141.953 35.3225 140.104 34.6686 137.894 34.6686Z" fill="white"/>
<path d="M166.317 62L154.004 28.4446H163.069L171.593 53.8141L180.118 28.4446H189.183L176.803 62H166.317Z" fill="white"/>
<path d="M205.915 62.8118C202.532 62.8118 199.533 62.0902 196.917 60.6469C194.301 59.2037 192.249 57.1741 190.761 54.5582C189.272 51.9424 188.528 48.9206 188.528 45.4929C188.528 42.0201 189.25 38.9306 190.693 36.2246C192.181 33.5185 194.211 31.4213 196.782 29.9329C199.397 28.3995 202.464 27.6327 205.982 27.6327C209.275 27.6327 212.184 28.3544 214.709 29.7976C217.235 31.2409 219.197 33.2253 220.595 35.751C222.038 38.2316 222.76 41.0053 222.76 44.0722C222.76 44.5683 222.737 45.087 222.692 45.6282C222.692 46.1694 222.67 46.7332 222.625 47.3195H197.12C197.3 49.9354 198.202 51.9875 199.826 53.4758C201.495 54.9641 203.502 55.7083 205.847 55.7083C207.606 55.7083 209.072 55.325 210.244 54.5582C211.462 53.7464 212.364 52.7091 212.95 51.4462H221.745C221.114 53.566 220.054 55.5054 218.566 57.2643C217.122 58.9782 215.318 60.3312 213.153 61.3234C211.034 62.3157 208.621 62.8118 205.915 62.8118ZM205.982 34.6686C203.863 34.6686 201.991 35.2774 200.367 36.4952C198.743 37.6678 197.706 39.4718 197.255 41.9073H213.965C213.83 39.6974 213.018 37.9384 211.53 36.6305C210.041 35.3225 208.192 34.6686 205.982 34.6686Z" fill="white"/>
<path d="M226.661 62V13.2905H235.32V62H226.661Z" fill="white"/>
<path d="M253.369 62.8118C249.174 62.8118 245.927 61.5038 243.627 58.888C241.372 56.2721 240.244 52.4385 240.244 47.3871V28.4446H248.836V46.5753C248.836 49.4618 249.422 51.6718 250.595 53.2052C251.768 54.7386 253.617 55.5054 256.143 55.5054C258.533 55.5054 260.495 54.6484 262.028 52.9346C263.607 51.2207 264.396 48.8304 264.396 45.7635V28.4446H273.055V62H265.411L264.734 56.3172C263.697 58.3017 262.186 59.8802 260.202 61.0528C258.262 62.2255 255.985 62.8118 253.369 62.8118Z" fill="white"/>
<path d="M278.562 76.8834V28.4446H286.275L287.222 33.2479C288.304 31.7595 289.725 30.4516 291.484 29.324C293.288 28.1965 295.611 27.6327 298.452 27.6327C301.609 27.6327 304.428 28.3995 306.908 29.9329C309.389 31.4664 311.351 33.5636 312.794 36.2246C314.237 38.8855 314.959 41.9073 314.959 45.2899C314.959 48.6725 314.237 51.6943 312.794 54.3553C311.351 56.9712 309.389 59.0458 306.908 60.5793C304.428 62.0676 301.609 62.8118 298.452 62.8118C295.926 62.8118 293.716 62.3382 291.822 61.3911C289.928 60.444 288.394 59.1135 287.222 57.3996V76.8834H278.562ZM296.625 55.2348C299.377 55.2348 301.654 54.3102 303.458 52.461C305.262 50.6119 306.164 48.2215 306.164 45.2899C306.164 42.3583 305.262 39.9454 303.458 38.0512C301.654 36.1569 299.377 35.2098 296.625 35.2098C293.829 35.2098 291.529 36.1569 289.725 38.0512C287.966 39.9003 287.086 42.2907 287.086 45.2223C287.086 48.1539 287.966 50.5668 289.725 52.461C291.529 54.3102 293.829 55.2348 296.625 55.2348Z" fill="white"/>
</svg>
