<svg width="387" height="96" viewBox="0 0 387 96" fill="none" xmlns="http://www.w3.org/2000/svg">
<path fill-rule="evenodd" clip-rule="evenodd" d="M96.5399 44.2759C98.4316 53.2996 97.5564 61.6928 94.4995 68.692L94.6614 68.6894C92.0407 75.8619 83.3235 90.8688 62.7993 95.1722C62.0184 95.3359 61.2386 95.4657 60.4606 95.5631C58.5025 95.851 56.4713 95.9999 54.3747 95.9999C30.0683 95.9999 6.16958 75.9917 0.995382 51.3103C-1.46924 39.5538 0.759094 28.8576 6.39569 20.879C9.01381 15.8393 22.7494 3.61682 33.8339 1.24179C34.134 1.1775 34.4225 1.12711 34.6999 1.09005C37.6295 0.376613 40.7543 0 44.044 0C67.9104 0 91.4136 19.823 96.5399 44.2759ZM88.1848 42.2069C92.2092 61.4035 80.2761 76.9655 61.5314 76.9655C42.7867 76.9655 24.3287 61.4035 20.3044 42.2069C16.28 23.0102 28.2131 7.44824 46.9578 7.44824C65.7025 7.44824 84.1605 23.0102 88.1848 42.2069ZM60.3879 66.2069C74.2621 66.2069 83.1522 54.9627 80.2444 41.0922C77.3366 27.2218 63.7321 15.9775 49.8578 15.9775C35.9836 15.9775 27.0936 27.2218 30.0014 41.0922C32.9092 54.9627 46.5137 66.2069 60.3879 66.2069ZM72.7469 40.0514C74.571 48.7526 68.8427 55.8064 59.9523 55.8064C51.0619 55.8064 42.376 48.7526 40.5519 40.0514C38.7278 31.3501 44.4561 24.2964 53.3465 24.2964C62.2369 24.2964 70.9228 31.3501 72.7469 40.0514ZM64.5948 40.0516C65.4951 44.346 62.6679 47.8273 58.2801 47.8273C53.8924 47.8273 49.6056 44.346 48.7053 40.0516C47.805 35.7572 50.6322 32.2759 55.0199 32.2759C59.4077 32.2759 63.6945 35.7572 64.5948 40.0516Z" fill="white"/>
<path d="M160.853 69.9996C160.853 70.5519 161.301 70.9996 161.853 70.9996H169.455C170.007 70.9996 170.455 70.5519 170.455 69.9996V33.4906H161.853C161.301 33.4906 160.853 33.9383 160.853 34.4906V69.9996Z" fill="white"/>
<path d="M161.163 27.5499C162.084 28.517 163.488 29.0005 165.376 29.0005C167.264 29.0005 168.646 28.517 169.521 27.5499C170.396 26.5368 170.833 25.2934 170.833 23.8197C170.833 22.254 170.396 20.9875 169.521 20.0205C168.646 19.0534 167.264 18.5698 165.376 18.5698C163.488 18.5698 162.084 19.0534 161.163 20.0205C160.288 20.9875 159.85 22.254 159.85 23.8197C159.85 25.2934 160.288 26.5368 161.163 27.5499Z" fill="white"/>
<path fill-rule="evenodd" clip-rule="evenodd" d="M145.718 53.454C142.77 54.8355 139.178 55.5263 134.942 55.5263H127.343V69.9996C127.343 70.5519 126.895 70.9996 126.343 70.9996H118.534C117.982 70.9996 117.534 70.5519 117.534 69.9996V21.2277C117.534 20.6754 117.982 20.2277 118.534 20.2277H126.343C126.451 20.2277 126.555 20.2448 126.652 20.2764C126.75 20.2448 126.854 20.2277 126.962 20.2277H134.942C139.178 20.2277 142.77 20.9185 145.718 22.3C148.711 23.6816 150.991 25.6618 152.556 28.2407C154.122 30.7735 154.905 33.7899 154.905 37.2898V38.3951C154.905 41.895 154.122 44.9344 152.556 47.5133C150.991 50.0461 148.711 52.0264 145.718 53.454ZM140.744 29.8985C139.409 29.1157 137.751 28.7242 135.771 28.7242H127.343V47.0298H135.771C137.751 47.0298 139.409 46.6383 140.744 45.8554C142.126 45.0726 143.162 43.9903 143.853 42.6088C144.59 41.2272 144.958 39.6385 144.958 37.8424C144.958 36.0464 144.59 34.4576 143.853 33.0761C143.162 31.6945 142.126 30.6354 140.744 29.8985Z" fill="white"/>
<path d="M179.067 70.9996C178.515 70.9996 178.067 70.5519 178.067 69.9996V34.4906C178.067 33.9383 178.515 33.4906 179.067 33.4906H184.666C185.218 33.4906 185.666 33.9383 185.666 34.4906V42.7338C185.888 41.7718 186.164 40.8781 186.495 40.0529C187.508 37.474 189.004 35.5399 190.985 34.2504C193.011 32.961 195.521 32.3162 198.514 32.3162H198.928C203.396 32.3162 206.78 33.7669 209.083 36.6681C211.385 39.5233 212.537 43.8061 212.537 49.5165V69.9996C212.537 70.5519 212.089 70.9996 211.537 70.9996H203.935C203.383 70.9996 202.935 70.5519 202.935 69.9996V48.6876C202.935 46.385 202.267 44.5199 200.932 43.0923C199.642 41.6647 197.846 40.9509 195.544 40.9509C193.195 40.9509 191.284 41.6878 189.81 43.1614C188.383 44.589 187.669 46.5232 187.669 48.9639V69.9996C187.669 70.5519 187.221 70.9996 186.669 70.9996H179.067Z" fill="white"/>
<path fill-rule="evenodd" clip-rule="evenodd" d="M248.349 53.454C245.402 54.8355 241.81 55.5263 237.573 55.5263H229.975V69.9996C229.975 70.5519 229.527 70.9996 228.975 70.9996H221.165C220.613 70.9996 220.165 70.5519 220.165 69.9996V21.2277C220.165 20.6754 220.613 20.2277 221.165 20.2277H228.975C229.082 20.2277 229.186 20.2448 229.284 20.2764C229.381 20.2448 229.485 20.2277 229.593 20.2277H237.573C241.81 20.2277 245.402 20.9185 248.349 22.3C251.342 23.6816 253.622 25.6618 255.188 28.2407C256.754 30.7735 257.536 33.7899 257.536 37.2898V38.3951C257.536 41.895 256.754 44.9344 255.188 47.5133C253.622 50.0461 251.342 52.0264 248.349 53.454ZM243.376 29.8985C242.04 29.1157 240.382 28.7242 238.402 28.7242H229.975V47.0298H238.402C240.382 47.0298 242.04 46.6383 243.376 45.8554C244.757 45.0726 245.793 43.9903 246.484 42.6088C247.221 41.2272 247.589 39.6385 247.589 37.8424C247.589 36.0464 247.221 34.4576 246.484 33.0761C245.793 31.6945 244.757 30.6354 243.376 29.8985Z" fill="white"/>
<path fill-rule="evenodd" clip-rule="evenodd" d="M278.908 72.3121C275.593 72.3121 272.668 71.7825 270.135 70.7233C267.603 69.6641 265.461 68.2365 263.711 66.4405C261.961 64.5985 260.626 62.5261 259.705 60.2235C258.83 57.921 258.392 55.5263 258.392 53.0395V51.5889C258.392 49.01 258.853 46.5692 259.774 44.2666C260.741 41.918 262.099 39.8457 263.849 38.0497C265.645 36.2076 267.81 34.78 270.343 33.7669C272.876 32.7077 275.731 32.1781 278.908 32.1781C282.086 32.1781 284.941 32.7077 287.474 33.7669C290.007 34.78 292.148 36.2076 293.898 38.0497C295.694 39.8457 297.053 41.918 297.974 44.2666C298.895 46.5692 299.355 49.01 299.355 51.5889V53.0395C299.355 55.5263 298.895 57.921 297.974 60.2235C297.099 62.5261 295.786 64.5985 294.036 66.4405C292.286 68.2365 290.145 69.6641 287.612 70.7233C285.079 71.7825 282.178 72.3121 278.908 72.3121ZM278.908 64.0919C281.257 64.0919 283.237 63.5853 284.849 62.5722C286.461 61.513 287.681 60.1084 288.51 58.3585C289.339 56.5624 289.753 54.5362 289.753 52.2796C289.753 49.9771 289.316 47.9508 288.441 46.2008C287.612 44.4048 286.369 43.0002 284.711 41.9871C283.099 40.9279 281.165 40.3983 278.908 40.3983C276.652 40.3983 274.695 40.9279 273.037 41.9871C271.425 43.0002 270.182 44.4048 269.307 46.2008C268.432 47.9508 267.994 49.9771 267.994 52.2796C267.994 54.5362 268.409 56.5624 269.237 58.3585C270.112 60.1084 271.356 61.513 272.968 62.5722C274.579 63.5853 276.56 64.0919 278.908 64.0919Z" fill="white"/>
<path d="M306.105 69.9996C306.105 70.5519 306.553 70.9996 307.105 70.9996H314.707C315.259 70.9996 315.707 70.5519 315.707 69.9996V33.4906H307.105C306.553 33.4906 306.105 33.9383 306.105 34.4906V69.9996Z" fill="white"/>
<path d="M306.414 27.5499C307.335 28.517 308.74 29.0005 310.628 29.0005C312.516 29.0005 313.897 28.517 314.772 27.5499C315.647 26.5368 316.085 25.2934 316.085 23.8197C316.085 22.254 315.647 20.9875 314.772 20.0205C313.897 19.0534 312.516 18.5698 310.628 18.5698C308.74 18.5698 307.335 19.0534 306.414 20.0205C305.539 20.9875 305.102 22.254 305.102 23.8197C305.102 25.2934 305.539 26.5368 306.414 27.5499Z" fill="white"/>
<path d="M324.319 70.9996C323.766 70.9996 323.319 70.5519 323.319 69.9996V34.4906C323.319 33.9383 323.766 33.4906 324.319 33.4906H329.917C330.469 33.4906 330.917 33.9383 330.917 34.4906V42.7338C331.14 41.7717 331.416 40.8781 331.746 40.0529C332.759 37.474 334.256 35.5399 336.236 34.2504C338.262 32.961 340.772 32.3162 343.766 32.3162H344.18C348.647 32.3162 352.032 33.7669 354.334 36.6681C356.637 39.5233 357.788 43.8061 357.788 49.5165V69.9996C357.788 70.5519 357.341 70.9996 356.788 70.9996H349.187C348.634 70.9996 348.187 70.5519 348.187 69.9996V48.6876C348.187 46.385 347.519 44.5199 346.183 43.0923C344.894 41.6647 343.098 40.9509 340.795 40.9509C338.447 40.9509 336.535 41.6878 335.062 43.1614C333.634 44.589 332.92 46.5232 332.92 48.9639V69.9996C332.92 70.5519 332.473 70.9996 331.92 70.9996H324.319Z" fill="white"/>
<path d="M372.394 70.1707C374.65 71.0457 377.506 71.4832 380.96 71.4832H385.348C385.9 71.4832 386.348 71.0355 386.348 70.4832V64.263C386.348 63.7107 385.9 63.263 385.348 63.263H380.476C378.634 63.263 377.206 62.7794 376.193 61.8123C375.226 60.7992 374.743 59.3716 374.743 57.5295L374.776 40.5365H385.348C385.9 40.5365 386.348 40.0887 386.348 39.5365V34.4906C386.348 33.9383 385.9 33.4906 385.348 33.4906H374.79L374.81 23.9237C374.811 23.3706 374.363 22.9217 373.81 22.9217H366.83C366.278 22.9217 365.831 23.3682 365.83 23.9197L365.81 33.4906H360.822C360.27 33.4906 359.822 33.9383 359.822 34.4906V39.5365C359.822 40.0887 360.27 40.5365 360.822 40.5365H365.796L365.762 56.9078C365.762 60.5459 366.315 63.4472 367.42 65.6116C368.526 67.73 370.183 69.2497 372.394 70.1707Z" fill="white"/>
</svg>
