<svg width="307" height="60" viewBox="0 0 307 60" fill="none" xmlns="http://www.w3.org/2000/svg">
<path d="M7.55292 6.60799C11.7279 2.62194 17.397 0.295263 23.1428 0.00590526C25.1093 0.00590526 27.0816 0.0177158 29.0481 0C28.9477 2.10818 29.0481 4.22226 28.989 6.33044C28.7115 11.0428 26.9694 15.6489 24.0345 19.3456C20.2197 24.3179 14.3853 27.6543 8.19069 28.5165C5.48608 28.9535 2.74013 28.6759 0.0178071 28.7527C0.0650492 26.4319 -0.0825823 24.1053 0.100481 21.7904C0.631954 16.0505 3.34247 10.5527 7.55292 6.60799Z" fill="white"/>
<path d="M30.8691 0C32.9773 0.023621 35.0855 -0.0118105 37.1996 0.0118105C42.4612 0.383842 47.6519 2.40344 51.6143 5.90526C55.9842 9.6551 58.9782 15.0171 59.7459 20.7452C60.0825 23.4025 59.8699 26.0894 59.9998 28.7586C58.1573 28.7527 56.3208 28.7468 54.4784 28.7586C49.949 28.6346 45.4965 27.1701 41.7053 24.7017C39.9573 23.4498 38.1621 22.1802 36.8512 20.444C33.9753 17.2316 32.0207 13.1983 31.2825 8.94647C30.7274 5.99384 30.9518 2.98216 30.8691 0Z" fill="white"/>
<path d="M0.0218289 30.4473C1.8938 30.5536 3.77167 30.3587 5.63773 30.5654C13.6275 30.7366 21.3812 35.2246 25.5207 42.057C27.8947 45.8836 29.1702 50.4189 29.0049 54.9246C28.9989 56.4009 29.0226 57.8713 28.9812 59.3417C26.0168 59.2531 23.0228 59.4952 20.0879 58.9224C13.5685 57.8241 7.57466 53.9443 3.96654 48.4052C1.23241 44.3778 -0.131708 39.4587 0.0100184 34.5987C0.0100184 33.2109 0.0100184 31.8291 0.0218289 30.4473Z" fill="white"/>
<path d="M50.0221 31.073C53.2346 30.3584 56.5475 30.4765 59.8131 30.4765L59.9548 30.6183C59.8839 33.7067 60.126 36.8306 59.506 39.8836C58.2009 46.7337 53.6657 52.8516 47.5656 56.2117C43.7685 58.3257 39.4104 59.3651 35.07 59.3178C33.6823 59.3237 32.2886 59.2942 30.9009 59.3355C30.9009 56.7786 30.7946 54.2098 31.084 51.6646C31.7572 45.5054 35.0877 39.7714 39.8769 35.8976C42.8413 33.5591 46.3254 31.8643 50.0221 31.073Z" fill="white"/>
<path d="M84.1973 47.9042C84.1973 48.9438 83.8375 49.8235 83.1177 50.5432C82.438 51.223 81.5783 51.5628 80.5387 51.5628C79.5391 51.5628 78.6994 51.223 78.0196 50.5432C77.3399 49.8235 77 48.9438 77 47.9042V10.8378C77 9.79823 77.3399 8.93855 78.0196 8.2588C78.7394 7.53907 79.619 7.1792 80.6587 7.1792C81.6983 7.1792 82.538 7.53907 83.1777 8.2588C83.8575 8.93855 84.1973 9.79823 84.1973 10.8378V47.9042Z" fill="white"/>
<path d="M113.086 19.4747C114.125 19.4747 114.985 19.8345 115.665 20.5543C116.344 21.234 116.684 22.0937 116.684 23.1333V38.3677C116.684 42.6061 115.505 45.9649 113.146 48.444C110.786 50.9231 107.388 52.1626 102.949 52.1626C98.511 52.1626 95.1122 50.9231 92.7531 48.444C90.434 45.9649 89.2744 42.6061 89.2744 38.3677V23.1333C89.2744 22.0937 89.6143 21.234 90.294 20.5543C90.9738 19.8345 91.8334 19.4747 92.8731 19.4747C93.9127 19.4747 94.7724 19.8345 95.4521 20.5543C96.1318 21.234 96.4717 22.0937 96.4717 23.1333V38.3677C96.4717 40.8068 97.0115 42.6261 98.0911 43.8257C99.1707 44.9853 100.79 45.565 102.949 45.565C105.149 45.565 106.788 44.9853 107.868 43.8257C108.947 42.6261 109.487 40.8068 109.487 38.3677V23.1333C109.487 22.0937 109.827 21.234 110.507 20.5543C111.186 19.8345 112.046 19.4747 113.086 19.4747Z" fill="white"/>
<path d="M138.331 18.8749C141.53 18.8749 143.889 19.6546 145.409 21.214C146.928 22.7335 147.928 24.7127 148.407 27.1518L147.388 26.612L147.868 25.6524C148.347 24.7327 149.087 23.7531 150.087 22.7135C151.086 21.6339 152.286 20.7342 153.685 20.0145C155.125 19.2547 156.724 18.8749 158.484 18.8749C161.363 18.8749 163.542 19.4947 165.021 20.7342C166.541 21.9737 167.58 23.6331 168.14 25.7124C168.7 27.7516 168.98 30.0308 168.98 32.5498V47.9042C168.98 48.9438 168.64 49.8235 167.96 50.5432C167.28 51.223 166.421 51.5628 165.381 51.5628C164.342 51.5628 163.482 51.223 162.802 50.5432C162.122 49.8235 161.782 48.9438 161.782 47.9042V32.5498C161.782 31.2303 161.623 30.0508 161.303 29.0111C160.983 27.9315 160.403 27.0719 159.563 26.4321C158.724 25.7923 157.524 25.4725 155.965 25.4725C154.445 25.4725 153.146 25.7923 152.066 26.4321C150.986 27.0719 150.167 27.9315 149.607 29.0111C149.087 30.0508 148.827 31.2303 148.827 32.5498V47.9042C148.827 48.9438 148.487 49.8235 147.808 50.5432C147.128 51.223 146.268 51.5628 145.229 51.5628C144.189 51.5628 143.329 51.223 142.65 50.5432C141.97 49.8235 141.63 48.9438 141.63 47.9042V32.5498C141.63 31.2303 141.47 30.0508 141.15 29.0111C140.83 27.9315 140.25 27.0719 139.411 26.4321C138.571 25.7923 137.371 25.4725 135.812 25.4725C134.293 25.4725 132.993 25.7923 131.913 26.4321C130.834 27.0719 130.014 27.9315 129.454 29.0111C128.935 30.0508 128.675 31.2303 128.675 32.5498V47.9042C128.675 48.9438 128.335 49.8235 127.655 50.5432C126.975 51.223 126.116 51.5628 125.076 51.5628C124.036 51.5628 123.177 51.223 122.497 50.5432C121.817 49.8235 121.477 48.9438 121.477 47.9042V23.1333C121.477 22.0937 121.817 21.234 122.497 20.5543C123.177 19.8345 124.036 19.4747 125.076 19.4747C126.116 19.4747 126.975 19.8345 127.655 20.5543C128.335 21.234 128.675 22.0937 128.675 23.1333V25.7124L127.775 25.5324C128.135 24.8527 128.635 24.1329 129.274 23.3732C129.914 22.5735 130.694 21.8338 131.614 21.154C132.533 20.4743 133.553 19.9345 134.672 19.5346C135.792 19.0948 137.012 18.8749 138.331 18.8749Z" fill="white"/>
<path d="M180.548 47.9042C180.548 48.9438 180.208 49.8235 179.528 50.5432C178.849 51.223 177.989 51.5628 176.949 51.5628C175.91 51.5628 175.05 51.223 174.37 50.5432C173.691 49.8235 173.351 48.9438 173.351 47.9042V23.1333C173.351 22.0937 173.691 21.234 174.37 20.5543C175.05 19.8345 175.91 19.4747 176.949 19.4747C177.989 19.4747 178.849 19.8345 179.528 20.5543C180.208 21.234 180.548 22.0937 180.548 23.1333V47.9042ZM176.889 15.5761C175.53 15.5761 174.57 15.3562 174.01 14.9163C173.451 14.4765 173.171 13.6968 173.171 12.5772V11.4376C173.171 10.2781 173.471 9.49834 174.07 9.09849C174.71 8.65865 175.67 8.43873 176.949 8.43873C178.349 8.43873 179.329 8.65865 179.888 9.09849C180.448 9.53833 180.728 10.318 180.728 11.4376V12.5772C180.728 13.7368 180.428 14.5365 179.828 14.9763C179.229 15.3762 178.249 15.5761 176.889 15.5761Z" fill="white"/>
<path d="M202.1 18.8749C205.059 18.8749 207.298 19.4947 208.817 20.7342C210.377 21.9737 211.436 23.6331 211.996 25.7124C212.596 27.7516 212.896 30.0308 212.896 32.5498V47.9042C212.896 48.9438 212.556 49.8235 211.876 50.5432C211.196 51.223 210.337 51.5628 209.297 51.5628C208.258 51.5628 207.398 51.223 206.718 50.5432C206.038 49.8235 205.698 48.9438 205.698 47.9042V32.5498C205.698 31.2303 205.519 30.0508 205.159 29.0111C204.839 27.9315 204.239 27.0719 203.359 26.4321C202.48 25.7923 201.22 25.4725 199.581 25.4725C197.981 25.4725 196.622 25.7923 195.502 26.4321C194.423 27.0719 193.583 27.9315 192.983 29.0111C192.423 30.0508 192.143 31.2303 192.143 32.5498V47.9042C192.143 48.9438 191.804 49.8235 191.124 50.5432C190.444 51.223 189.584 51.5628 188.545 51.5628C187.505 51.5628 186.645 51.223 185.966 50.5432C185.286 49.8235 184.946 48.9438 184.946 47.9042V23.1333C184.946 22.0937 185.286 21.234 185.966 20.5543C186.645 19.8345 187.505 19.4747 188.545 19.4747C189.584 19.4747 190.444 19.8345 191.124 20.5543C191.804 21.234 192.143 22.0937 192.143 23.1333V25.7124L191.244 25.5324C191.604 24.8527 192.123 24.1329 192.803 23.3732C193.483 22.5735 194.283 21.8338 195.202 21.154C196.122 20.4743 197.162 19.9345 198.321 19.5346C199.481 19.0948 200.74 18.8749 202.1 18.8749Z" fill="white"/>
<path d="M248.505 35.5487C248.505 38.8275 247.765 41.7265 246.286 44.2455C244.846 46.7246 242.887 48.6639 240.408 50.0634C237.969 51.4629 235.23 52.1626 232.191 52.1626C229.152 52.1626 226.393 51.4629 223.914 50.0634C221.475 48.6639 219.516 46.7246 218.036 44.2455C216.597 41.7265 215.877 38.8275 215.877 35.5487C215.877 32.2699 216.597 29.391 218.036 26.9119C219.516 24.3928 221.475 22.4336 223.914 21.0341C226.393 19.5946 229.152 18.8749 232.191 18.8749C235.23 18.8749 237.969 19.5946 240.408 21.0341C242.887 22.4336 244.846 24.3928 246.286 26.9119C247.765 29.391 248.505 32.2699 248.505 35.5487ZM241.308 35.5487C241.308 33.5095 240.888 31.7501 240.048 30.2707C239.248 28.7512 238.149 27.5717 236.749 26.732C235.39 25.8923 233.87 25.4725 232.191 25.4725C230.512 25.4725 228.972 25.8923 227.573 26.732C226.213 27.5717 225.113 28.7512 224.274 30.2707C223.474 31.7501 223.074 33.5095 223.074 35.5487C223.074 37.548 223.474 39.3074 224.274 40.8268C225.113 42.3062 226.213 43.4658 227.573 44.3055C228.972 45.1452 230.512 45.565 232.191 45.565C233.87 45.565 235.39 45.1452 236.749 44.3055C238.149 43.4658 239.248 42.3062 240.048 40.8268C240.888 39.3074 241.308 37.548 241.308 35.5487Z" fill="white"/>
<path d="M275.33 19.4747C276.37 19.4747 277.23 19.8345 277.91 20.5543C278.589 21.234 278.929 22.0937 278.929 23.1333V38.3677C278.929 42.6061 277.75 45.9649 275.39 48.444C273.031 50.9231 269.633 52.1626 265.194 52.1626C260.756 52.1626 257.357 50.9231 254.998 48.444C252.679 45.9649 251.519 42.6061 251.519 38.3677V23.1333C251.519 22.0937 251.859 21.234 252.539 20.5543C253.219 19.8345 254.078 19.4747 255.118 19.4747C256.158 19.4747 257.017 19.8345 257.697 20.5543C258.377 21.234 258.717 22.0937 258.717 23.1333V38.3677C258.717 40.8068 259.256 42.6261 260.336 43.8257C261.416 44.9853 263.035 45.565 265.194 45.565C267.393 45.565 269.033 44.9853 270.112 43.8257C271.192 42.6261 271.732 40.8068 271.732 38.3677V23.1333C271.732 22.0937 272.072 21.234 272.751 20.5543C273.431 19.8345 274.291 19.4747 275.33 19.4747Z" fill="white"/>
<path d="M281.863 46.5847C281.463 46.0249 281.283 45.3051 281.323 44.4255C281.363 43.5458 281.883 42.7861 282.883 42.1463C283.522 41.7464 284.202 41.5865 284.922 41.6665C285.641 41.7065 286.341 42.0663 287.021 42.7461C288.181 43.9057 289.4 44.8053 290.68 45.4451C291.959 46.0848 293.559 46.4047 295.478 46.4047C296.078 46.3647 296.737 46.2848 297.457 46.1648C298.177 46.0049 298.797 45.685 299.316 45.2052C299.876 44.6854 300.156 43.9057 300.156 42.866C300.156 41.9864 299.856 41.2866 299.256 40.7668C298.657 40.247 297.857 39.8072 296.857 39.4473C295.898 39.0874 294.818 38.7476 293.619 38.4277C292.379 38.0678 291.099 37.668 289.78 37.2281C288.5 36.7883 287.321 36.2285 286.241 35.5487C285.162 34.829 284.282 33.8893 283.602 32.7298C282.923 31.5702 282.583 30.1107 282.583 28.3514C282.583 26.3521 283.142 24.6528 284.262 23.2533C285.382 21.8538 286.821 20.7742 288.58 20.0145C290.38 19.2547 292.259 18.8749 294.218 18.8749C295.458 18.8749 296.757 19.0348 298.117 19.3547C299.476 19.6346 300.776 20.1144 302.015 20.7942C303.255 21.4339 304.295 22.2936 305.134 23.3732C305.574 23.973 305.834 24.6927 305.914 25.5324C305.994 26.3721 305.614 27.1318 304.774 27.8116C304.175 28.2914 303.475 28.5113 302.675 28.4713C301.876 28.3914 301.216 28.1115 300.696 27.6317C300.016 26.752 299.097 26.0522 297.937 25.5324C296.817 25.0126 295.518 24.7527 294.038 24.7527C293.439 24.7527 292.779 24.8327 292.059 24.9926C291.379 25.1126 290.78 25.4125 290.26 25.8923C289.74 26.3321 289.48 27.0519 289.48 28.0515C289.48 28.9712 289.78 29.7109 290.38 30.2707C290.98 30.7905 291.779 31.2303 292.779 31.5902C293.818 31.9101 294.918 32.23 296.078 32.5498C297.277 32.8697 298.497 33.2496 299.736 33.6894C300.976 34.1293 302.115 34.709 303.155 35.4288C304.195 36.1485 305.034 37.0882 305.674 38.2477C306.314 39.3673 306.634 40.8068 306.634 42.5661C306.634 44.6054 306.034 46.3448 304.834 47.7842C303.635 49.2237 302.135 50.3233 300.336 51.083C298.537 51.8027 296.697 52.1626 294.818 52.1626C292.459 52.1626 290.1 51.7628 287.741 50.9631C285.382 50.1234 283.422 48.6639 281.863 46.5847Z" fill="white"/>
</svg>
