<svg width="350" height="108" viewBox="0 0 350 108" fill="none" xmlns="http://www.w3.org/2000/svg">
<path fill-rule="evenodd" clip-rule="evenodd" d="M54 108C83.8234 108 108 83.8234 108 54C108 24.1766 83.8234 0 54 0C24.1766 0 0 24.1766 0 54C0 83.8234 24.1766 108 54 108ZM57.6573 25.6228C62.1159 23.6187 67.2386 23.7212 71.6135 25.9022C78.086 29.1291 77.9511 38.4104 71.3874 41.4477L56.8254 48.1862C55.435 48.8296 53.8263 48.8 52.4605 48.106L38.771 41.1495C37.3479 40.4263 35.608 40.9937 34.8849 42.4168C34.1617 43.8399 34.7291 45.5797 36.1522 46.3029L52.0047 54.3585C53.5838 55.161 55.4436 55.1952 57.0511 54.4513L73.8151 46.6939C84.7781 41.6208 85.0035 26.1185 74.1926 20.7289C68.2664 17.7744 61.3271 17.6355 55.2873 20.3504L25.5015 33.7393C23.4259 34.6722 22.0908 36.7361 22.0908 39.0117V48.5216C22.0908 50.7136 23.3306 52.717 25.2923 53.695L51.9853 67.0025C53.6094 67.8122 55.5195 67.8122 57.1436 67.0025L78.6202 56.2956C79.8326 55.6912 81.2575 56.573 81.2575 57.9277C81.2575 58.6192 80.8663 59.2512 80.2475 59.5597L56.7953 71.2516C55.3905 71.9519 53.7384 71.9519 52.3336 71.2516L30.4506 60.342C26.6074 58.4261 22.0908 61.2211 22.0908 65.5154V70.6443C22.0908 72.8363 23.3306 74.8397 25.2923 75.8177L51.9951 89.1301C53.6082 89.9342 55.504 89.94 57.1219 89.1457L77.5635 79.1096C78.9964 78.4061 79.5877 76.6742 78.8842 75.2413C78.1807 73.8084 76.4488 73.2171 75.0159 73.9206L56.7948 82.8665C55.3954 83.5535 53.7556 83.5485 52.3604 82.853L29.1425 71.278C28.3637 70.8897 27.8715 70.0943 27.8715 69.224C27.8715 67.5191 29.6647 66.4094 31.1905 67.1701L51.9853 77.5371C53.6094 78.3468 55.5195 78.3468 57.1436 77.5371L83.8366 64.2296C85.7983 63.2516 87.0381 61.2482 87.0381 59.0562V54.9808C87.0381 50.6865 82.5215 47.8915 78.6783 49.8074L56.7953 60.717C55.3905 61.4173 53.7384 61.4173 52.3336 60.717L30.6406 49.9022C28.9438 49.0563 27.8715 47.3234 27.8715 45.4274V42.2461C27.8715 40.2778 29.0263 38.4927 30.8215 37.6857L57.6573 25.6228Z" fill="white"/>
<path d="M141.749 38.5151V50.0276H157.209V57.3298H141.749V69.5002H159.182V76.9997H132.539V31.0156H159.182V38.5151H141.749Z" fill="white"/>
<path d="M174.13 45.8831C175.315 44.1288 176.937 42.7035 178.999 41.6071C181.104 40.5106 183.494 39.9624 186.169 39.9624C189.283 39.9624 192.09 40.7299 194.59 42.2649C197.134 43.7999 199.129 45.9928 200.576 48.8435C202.067 51.6503 202.813 54.9177 202.813 58.6455C202.813 62.3734 202.067 65.6846 200.576 68.5792C199.129 71.4299 197.134 73.6447 194.59 75.2235C192.09 76.8024 189.283 77.5918 186.169 77.5918C183.45 77.5918 181.06 77.0655 178.999 76.013C176.981 74.9165 175.358 73.5131 174.13 71.8027V76.9997H164.921V28.3184H174.13V45.8831ZM193.406 58.6455C193.406 56.4527 192.945 54.5668 192.024 52.988C191.147 51.3653 189.963 50.1373 188.472 49.304C187.024 48.4707 185.446 48.0541 183.735 48.0541C182.069 48.0541 180.49 48.4926 178.999 49.3698C177.551 50.2031 176.367 51.431 175.446 53.0538C174.569 54.6765 174.13 56.5843 174.13 58.7771C174.13 60.97 174.569 62.8778 175.446 64.5005C176.367 66.1232 177.551 67.3731 178.999 68.2502C180.49 69.0835 182.069 69.5002 183.735 69.5002C185.446 69.5002 187.024 69.0616 188.472 68.1845C189.963 67.3073 191.147 66.0574 192.024 64.4347C192.945 62.812 193.406 60.8823 193.406 58.6455Z" fill="white"/>
<path d="M223.058 77.5918C219.549 77.5918 216.391 76.8243 213.584 75.2893C210.778 73.7105 208.563 71.4957 206.94 68.645C205.361 65.7943 204.572 62.505 204.572 58.7771C204.572 55.0493 205.383 51.76 207.006 48.9093C208.672 46.0586 210.931 43.8657 213.782 42.3307C216.632 40.7518 219.812 39.9624 223.321 39.9624C226.829 39.9624 230.009 40.7518 232.86 42.3307C235.71 43.8657 237.947 46.0586 239.57 48.9093C241.236 51.76 242.07 55.0493 242.07 58.7771C242.07 62.505 241.214 65.7943 239.504 68.645C237.837 71.4957 235.557 73.7105 232.662 75.2893C229.812 76.8243 226.61 77.5918 223.058 77.5918ZM223.058 69.566C224.724 69.566 226.281 69.1712 227.728 68.3818C229.219 67.5485 230.404 66.3205 231.281 64.6978C232.158 63.0751 232.596 61.1015 232.596 58.7771C232.596 55.3124 231.675 52.659 229.833 50.817C228.035 48.9312 225.821 47.9883 223.189 47.9883C220.558 47.9883 218.343 48.9312 216.545 50.817C214.79 52.659 213.913 55.3124 213.913 58.7771C213.913 62.2418 214.769 64.9171 216.479 66.803C218.233 68.645 220.426 69.566 223.058 69.566Z" fill="white"/>
<path d="M262.377 77.5918C258.869 77.5918 255.711 76.8243 252.904 75.2893C250.097 73.7105 247.883 71.4957 246.26 68.645C244.681 65.7943 243.892 62.505 243.892 58.7771C243.892 55.0493 244.703 51.76 246.326 48.9093C247.992 46.0586 250.251 43.8657 253.102 42.3307C255.952 40.7518 259.132 39.9624 262.64 39.9624C266.149 39.9624 269.329 40.7518 272.179 42.3307C275.03 43.8657 277.267 46.0586 278.89 48.9093C280.556 51.76 281.389 55.0493 281.389 58.7771C281.389 62.505 280.534 65.7943 278.824 68.645C277.157 71.4957 274.877 73.7105 271.982 75.2893C269.131 76.8243 265.93 77.5918 262.377 77.5918ZM262.377 69.566C264.044 69.566 265.601 69.1712 267.048 68.3818C268.539 67.5485 269.723 66.3205 270.601 64.6978C271.478 63.0751 271.916 61.1015 271.916 58.7771C271.916 55.3124 270.995 52.659 269.153 50.817C267.355 48.9312 265.14 47.9883 262.509 47.9883C259.877 47.9883 257.663 48.9312 255.865 50.817C254.11 52.659 253.233 55.3124 253.233 58.7771C253.233 62.2418 254.088 64.9171 255.799 66.803C257.553 68.645 259.746 69.566 262.377 69.566Z" fill="white"/>
<path d="M307.092 76.9997L294.724 61.4743V76.9997H285.514V28.3184H294.724V56.0141L306.96 40.5545H318.933L302.881 58.8429L319.064 76.9997H307.092Z" fill="white"/>
<path d="M335.247 77.5918C332.264 77.5918 329.589 77.0655 327.221 76.013C324.853 74.9165 322.967 73.4473 321.563 71.6053C320.204 69.7633 319.458 67.724 319.327 65.4872H328.602C328.778 66.8907 329.458 68.0529 330.642 68.9739C331.87 69.8949 333.383 70.3554 335.181 70.3554C336.935 70.3554 338.295 70.0045 339.26 69.3028C340.268 68.6011 340.773 67.702 340.773 66.6056C340.773 65.4215 340.159 64.5443 338.931 63.9742C337.747 63.3602 335.839 62.7023 333.207 62.0006C330.488 61.3428 328.252 60.663 326.497 59.9613C324.787 59.2595 323.296 58.185 322.024 56.7378C320.796 55.2905 320.182 53.3388 320.182 50.8828C320.182 48.8654 320.752 47.0234 321.892 45.3568C323.076 43.6903 324.743 42.3746 326.892 41.4097C329.085 40.4448 331.65 39.9624 334.589 39.9624C338.931 39.9624 342.395 41.0588 344.983 43.2517C347.571 45.4007 348.996 48.3172 349.259 52.0012H340.444C340.312 50.5539 339.698 49.4136 338.602 48.5803C337.549 47.7032 336.124 47.2646 334.326 47.2646C332.659 47.2646 331.365 47.5716 330.444 48.1856C329.567 48.7996 329.129 49.6548 329.129 50.7513C329.129 51.9793 329.743 52.9222 330.971 53.58C332.199 54.194 334.106 54.83 336.694 55.4878C339.325 56.1457 341.496 56.8255 343.207 57.5272C344.917 58.2289 346.386 59.3253 347.614 60.8165C348.886 62.2638 349.544 64.1935 349.588 66.6056C349.588 68.7107 348.996 70.5966 347.812 72.2632C346.672 73.9297 345.005 75.2455 342.812 76.2103C340.663 77.1313 338.141 77.5918 335.247 77.5918Z" fill="white"/>
</svg>
