<svg width="257" height="80" viewBox="0 0 257 80" fill="none" xmlns="http://www.w3.org/2000/svg">
<path d="M48.587 61.3933C48.9833 66.1258 47.3818 70.9958 43.7766 74.633C40.1713 78.2702 35.3157 79.9145 30.5799 79.5601C30.1837 74.8276 31.7851 69.9576 35.3904 66.3204C38.9956 62.6832 43.8513 61.0389 48.587 61.3933Z" fill="white"/>
<path d="M40.0089 54.8171C35.2826 59.8714 28.4548 62.9013 21.0004 62.5609C13.5468 62.2205 7.02424 58.5815 2.77832 53.1184C7.5046 48.0641 14.3324 45.0341 21.7868 45.3746C29.2404 45.715 35.763 49.354 40.0089 54.8171Z" fill="white"/>
<path d="M0 38.5511C0.987296 26.7161 6.9583 15.3713 17.359 7.89841C27.7594 0.425838 40.4158 -1.61354 51.9469 1.22636C50.9596 13.0614 44.9886 24.4062 34.5879 31.8791C24.1876 39.3517 11.5311 41.391 0 38.5511Z" fill="white"/>
<path d="M191.719 24.0378V31.2446H196.043V68.9219H203.73V31.2446H213.82V24.0378H203.73V16.6632C203.73 14.5491 203.922 12.8517 204.307 11.5703C204.691 10.2891 205.204 9.39234 205.844 8.87966C206.549 8.30325 207.382 8.01504 208.343 8.01504C209.111 8.01504 209.912 8.17522 210.745 8.49529C211.642 8.75163 212.41 9.42421 213.051 10.5133L217.279 4.17134C216.831 3.53063 216.19 2.92207 215.357 2.34565C214.589 1.76895 213.66 1.28842 212.571 0.904051C211.482 0.519681 210.232 0.327637 208.823 0.327637C206.132 0.327637 203.826 0.904051 201.904 2.05716C200.047 3.14626 198.605 4.81177 197.58 7.05397C196.555 9.29618 196.043 12.1788 196.043 15.7022V24.0378H191.719Z" fill="white"/>
<path d="M71 9.34504L71 68.9219H105.593V61.2345H79.1677V9.34504H71Z" fill="white"/>
<path fill-rule="evenodd" clip-rule="evenodd" d="M126.079 69.8827C130.82 69.8827 134.92 68.9538 138.379 67.0959C141.902 65.1744 144.817 62.3554 147.123 58.64L140.877 54.7002C139.276 57.3908 137.322 59.4088 135.016 60.7539C132.71 62.0351 130.051 62.6758 127.04 62.6758C124.029 62.6758 121.467 62.0351 119.353 60.7539C117.239 59.4728 115.637 57.6149 114.548 55.1807C113.721 53.3307 113.207 51.1847 113.009 48.7426H147.796V47.8777C147.86 47.3653 147.892 46.8847 147.892 46.4363C147.892 41.7599 147.059 37.7241 145.394 34.3288C143.728 30.9335 141.326 28.3391 138.187 26.5452C135.112 24.6877 131.396 23.7588 127.04 23.7588C122.684 23.7588 118.84 24.7196 115.509 26.6414C112.242 28.5633 109.68 31.2539 107.822 34.7132C106.028 38.1725 105.131 42.2083 105.131 46.8207C105.131 51.3691 105.996 55.3727 107.726 58.8321C109.519 62.2914 111.986 65.0142 115.125 67.0001C118.328 68.9219 121.979 69.8827 126.079 69.8827ZM114.644 37.7882C114.03 39.0885 113.579 40.5619 113.291 42.2083H139.489C139.341 40.1031 138.811 38.2456 137.898 36.635C136.873 34.7132 135.432 33.2079 133.574 32.1188C131.717 31.0297 129.538 30.4851 127.04 30.4851C124.093 30.4851 121.563 31.1258 119.449 32.407C117.399 33.6241 115.797 35.4179 114.644 37.7882Z" fill="white"/>
<path fill-rule="evenodd" clip-rule="evenodd" d="M179.184 44.6871C177.976 43.8946 176.438 43.1967 174.572 42.5926C172.458 41.8239 169.799 41.4395 166.596 41.4395C161.151 41.4395 156.891 42.7528 153.816 45.3794C150.805 47.9417 149.3 51.3691 149.3 55.6612C149.3 58.6719 150.004 61.2345 151.413 63.3484C152.823 65.4625 154.681 67.0959 156.987 68.2491C159.357 69.3382 161.888 69.8827 164.578 69.8827C167.012 69.8827 169.447 69.4343 171.881 68.5376C174.38 67.6405 176.462 66.2632 178.127 64.4057C178.525 63.9779 178.877 63.5246 179.184 63.046V68.9219H186.871V37.2115C186.871 34.3288 186.135 31.8946 184.661 29.9087C183.252 27.9228 181.234 26.4172 178.608 25.3924C176.045 24.3033 173.034 23.7588 169.575 23.7588C165.475 23.7588 161.952 24.3673 159.005 25.5845C156.122 26.8016 153.848 28.0187 152.182 29.2358L155.93 34.9052C156.634 34.3928 157.596 33.7843 158.813 33.0795C160.03 32.3748 161.503 31.7663 163.233 31.2539C165.027 30.7415 167.012 30.4851 169.191 30.4851C170.536 30.4851 171.817 30.6131 173.034 30.8695C174.251 31.1258 175.308 31.5421 176.205 32.1188C177.166 32.6952 177.903 33.4961 178.415 34.5209C178.928 35.4819 179.184 36.7312 179.184 38.2687V44.6871ZM158.236 51.1449C157.467 52.2981 157.083 53.6754 157.083 55.2769C157.083 56.9424 157.467 58.3837 158.236 59.6008C159.069 60.8179 160.19 61.7469 161.599 62.3876C163.073 62.964 164.738 63.2525 166.596 63.2525C168.966 63.2525 171.08 62.7719 172.938 61.8109C174.86 60.8501 176.365 59.5046 177.454 57.7751C178.608 55.9813 179.184 53.9314 179.184 51.6252V49.9628C177.953 49.3638 176.704 48.8929 175.436 48.5502C173.066 47.8458 170.536 47.4933 167.845 47.4933C165.347 47.4933 163.297 47.8136 161.695 48.4544C160.158 49.0948 159.005 49.9918 158.236 51.1449Z" fill="white"/>
<path fill-rule="evenodd" clip-rule="evenodd" d="M247.176 67.0959C243.717 68.9538 239.617 69.8827 234.877 69.8827C230.777 69.8827 227.125 68.9219 223.922 67.0001C220.783 65.0142 218.317 62.2914 216.523 58.8321C214.793 55.3727 213.929 51.3691 213.929 46.8207C213.929 42.2083 214.826 38.1725 216.619 34.7132C218.477 31.2539 221.039 28.5633 224.306 26.6414C227.638 24.7196 231.481 23.7588 235.838 23.7588C240.194 23.7588 243.909 24.6877 246.984 26.5452C250.123 28.3391 252.525 30.9335 254.191 34.3288C255.857 37.7241 256.689 41.7599 256.689 46.4363C256.689 46.8847 256.657 47.3653 256.593 47.8777V48.7426H221.806C222.005 51.1847 222.518 53.3307 223.346 55.1807C224.435 57.6149 226.036 59.4728 228.15 60.7539C230.264 62.0351 232.827 62.6758 235.838 62.6758C238.848 62.6758 241.507 62.0351 243.813 60.7539C246.119 59.4088 248.073 57.3908 249.675 54.7002L255.921 58.64C253.614 62.3554 250.7 65.1744 247.176 67.0959ZM222.089 42.2083C222.377 40.5619 222.828 39.0885 223.442 37.7882C224.595 35.4179 226.196 33.6241 228.246 32.407C230.36 31.1258 232.891 30.4851 235.838 30.4851C238.336 30.4851 240.514 31.0297 242.372 32.1188C244.229 33.2079 245.671 34.7132 246.696 36.635C247.608 38.2456 248.139 40.1031 248.287 42.2083H222.089Z" fill="white"/>
</svg>
