<svg width="421" height="87" viewBox="0 0 421 87" fill="none" xmlns="http://www.w3.org/2000/svg">
<path fill-rule="evenodd" clip-rule="evenodd" d="M238.942 83.259C234.437 83.259 230.674 82.2097 227.652 80.1113C227.322 79.8817 227 79.643 226.687 79.3953V81.9999H216.614V5.25908H228.114V38.1348C230.935 36.3209 234.349 35.4139 238.355 35.4139C242.691 35.4139 246.469 36.4492 249.686 38.5196C252.904 40.5901 255.394 43.4301 257.157 47.0395C258.948 50.6208 259.843 54.7198 259.843 59.3365C259.843 63.8692 258.962 67.9401 257.199 71.5495C255.464 75.1589 253.03 78.0128 249.896 80.1113C246.762 82.2097 243.111 83.259 238.942 83.259ZM227.694 52.1178C227.023 54.1882 226.687 56.5945 226.687 59.3365C226.687 62.0785 227.023 64.4847 227.694 66.5552C228.366 68.6257 229.457 70.2345 230.968 71.3816C232.507 72.5288 234.549 73.1024 237.096 73.1024C239.558 73.1024 241.572 72.4868 243.139 71.2557C244.706 70.0246 245.867 68.3738 246.623 66.3033C247.378 64.2049 247.756 61.8826 247.756 59.3365C247.756 56.8183 247.364 54.524 246.581 52.4535C245.797 50.355 244.58 48.6902 242.929 47.4591C241.306 46.2001 239.222 45.5705 236.676 45.5705C234.298 45.5705 232.367 46.1441 230.884 47.2913C229.429 48.4384 228.366 50.0473 227.694 52.1178Z" fill="white"/>
<path d="M196.426 48.2566C197.853 49.9074 198.566 52.2297 198.566 55.2235V81.9999H209.982V52.2017C209.982 47.2493 208.653 43.2482 205.995 40.1984C203.365 37.1207 199.462 35.5818 194.285 35.5818C191.264 35.5818 188.508 36.2533 186.017 37.5963C183.738 38.814 181.877 40.4874 180.437 42.6167C179.363 40.6843 177.88 39.0948 175.987 37.8481C173.72 36.3372 170.81 35.5818 167.257 35.5818C164.151 35.5818 161.339 36.2673 158.821 37.6383C156.918 38.686 155.309 40.0196 153.995 41.6391V36.673H143.922V81.9999H155.422V54.552C155.422 51.9499 156.135 49.8374 157.562 48.2146C159.017 46.5638 160.934 45.7384 163.312 45.7384C165.802 45.7384 167.747 46.5778 169.146 48.2566C170.573 49.9074 171.286 52.2297 171.286 55.2235V81.9999H182.702V54.552C182.702 52.8172 183.024 51.2924 183.667 49.9773C184.339 48.6343 185.262 47.599 186.437 46.8716C187.612 46.1161 188.997 45.7384 190.592 45.7384C193.082 45.7384 195.027 46.5778 196.426 48.2566Z" fill="white"/>
<path d="M103.023 81.5382C105.262 82.7413 108.158 83.3429 111.711 83.3429C116.16 83.3429 119.839 82.3776 122.749 80.447C124.13 79.5396 125.347 78.4992 126.4 77.3259V81.9999H136.473V36.673H124.973V59.6722C124.973 62.4702 124.652 64.7365 124.008 66.4712C123.393 68.178 122.595 69.479 121.616 70.3744C120.637 71.2417 119.587 71.8293 118.468 72.1371C117.349 72.4449 116.3 72.5987 115.32 72.5987C112.886 72.5987 110.998 72.0532 109.655 70.9619C108.34 69.8707 107.388 68.5137 106.801 66.8909C106.213 65.2681 105.863 63.6593 105.751 62.0645C105.64 60.4417 105.584 59.1127 105.584 58.0774V36.673H94V62.1064C94 62.8619 94.056 64.065 94.1679 65.7158C94.2798 67.3666 94.6016 69.1992 95.1332 71.2138C95.6648 73.2003 96.5461 75.1169 97.7773 76.9636C99.0363 78.8102 100.785 80.3351 103.023 81.5382Z" fill="white"/>
<path d="M276.213 42.0451C275.749 42.6544 275.33 43.295 274.954 43.967V36.673H264.881V81.9999H276.381V58.8329C276.381 57.0981 276.619 55.5453 277.094 54.1743C277.57 52.7753 278.27 51.5722 279.193 50.5649C280.116 49.5296 281.249 48.7042 282.592 48.0887C283.935 47.4452 285.432 47.0674 287.083 46.9555C288.762 46.8156 290.231 46.9415 291.49 47.3332V36.673C290.119 36.5051 288.748 36.4771 287.377 36.5891C286.006 36.673 284.677 36.9108 283.39 37.3025C282.103 37.6663 280.914 38.1839 279.822 38.8554C278.395 39.6948 277.192 40.758 276.213 42.0451Z" fill="white"/>
<path fill-rule="evenodd" clip-rule="evenodd" d="M315.525 83.259C310.881 83.259 306.782 82.2657 303.228 80.2791C299.703 78.2646 296.933 75.5086 294.918 72.0112C292.932 68.4857 291.938 64.4568 291.938 59.9241C291.938 54.9717 292.918 50.6628 294.876 46.9975C296.835 43.3321 299.535 40.4922 302.976 38.4777C306.418 36.4352 310.377 35.4139 314.854 35.4139C319.61 35.4139 323.653 36.5331 326.983 38.7715C330.313 41.0098 332.775 44.1575 334.37 48.2146C335.964 52.2716 336.524 57.0421 336.048 62.5261H304.221C304.578 65.2465 305.422 67.4569 306.754 69.1573C308.6 71.4516 311.3 72.5987 314.854 72.5987C317.092 72.5987 319.009 72.1091 320.604 71.1298C322.198 70.1505 323.416 68.7376 324.255 66.8909L335.671 70.1645C333.964 74.3055 331.264 77.5231 327.571 79.8175C323.905 82.1118 319.89 83.259 315.525 83.259ZM322.534 48.3825C323.51 49.7079 324.165 51.5965 324.498 54.0484H304.522C304.967 51.9548 305.711 50.2341 306.754 48.8861C308.6 46.5078 311.468 45.3187 315.357 45.3187C318.687 45.3187 321.079 46.34 322.534 48.3825Z" fill="white"/>
<path fill-rule="evenodd" clip-rule="evenodd" d="M386.932 81.4123C389.198 82.6434 391.954 83.259 395.2 83.259C399.117 83.259 402.348 82.5875 404.895 81.2444C406.924 80.1634 408.841 78.5605 410.644 76.4358V81.9999H420.633V54.3002C420.633 52.2297 420.549 50.355 420.381 48.6763C420.213 46.9975 419.682 45.3187 418.787 43.6399C417.192 40.6181 414.841 38.4917 411.736 37.2606C408.63 36.0295 405.077 35.4139 401.075 35.4139C395.619 35.4139 391.311 36.5891 388.149 38.9394C384.987 41.2896 382.833 44.3394 381.686 48.0887L392.01 51.3623C392.737 49.2918 394.011 47.8509 395.829 47.0395C397.648 46.228 399.397 45.8223 401.075 45.8223C404.097 45.8223 406.252 46.4519 407.539 47.711C408.549 48.6997 409.163 50.1284 409.38 51.9971C407.448 52.2897 405.617 52.5677 403.887 52.8312C400.949 53.2509 398.319 53.6986 395.997 54.1743C393.675 54.6499 391.674 55.1955 389.995 55.8111C387.561 56.7064 385.617 57.8256 384.162 59.1686C382.735 60.4837 381.699 62.0085 381.056 63.7432C380.412 65.478 380.091 67.3945 380.091 69.493C380.091 72.0112 380.664 74.3195 381.811 76.418C382.987 78.4884 384.693 80.1532 386.932 81.4123ZM402.922 73.1863C401.495 73.9138 399.732 74.2775 397.634 74.2775C396.319 74.2775 395.186 74.0817 394.234 73.6899C393.283 73.2982 392.542 72.7386 392.01 72.0112C391.506 71.2557 391.255 70.3604 391.255 69.3251C391.255 68.5697 391.408 67.8842 391.716 67.2686C392.052 66.6531 392.556 66.0935 393.227 65.5899C393.927 65.0583 394.836 64.5686 395.955 64.1209C396.934 63.7572 398.068 63.4215 399.355 63.1137C400.642 62.8059 402.334 62.4702 404.433 62.1064C405.781 61.8547 407.396 61.5683 409.276 61.2473C409.249 62.0453 409.202 62.9473 409.134 63.9531C409.05 65.5759 408.714 67.0028 408.126 68.2339C407.819 68.8775 407.231 69.6749 406.364 70.6262C405.524 71.5775 404.377 72.4309 402.922 73.1863Z" fill="white"/>
<path d="M342.167 4V81.9999H353.583V4H342.167Z" fill="white"/>
<path d="M362.808 81.9999V4H374.223V81.9999H362.808Z" fill="white"/>
<path fill-rule="evenodd" clip-rule="evenodd" d="M31 37H0V50.5C0 70.6584 16.3416 87 36.5 87C56.6584 87 73 70.6584 73 50.5V37H41L41 15.5C41 6.93959 34.0604 0 25.5 0C16.9396 -2.10343e-06 10 6.93958 10 15.5L20 15.5C20 12.4624 22.4624 10 25.5 10C28.5376 10 31 12.4624 31 15.5L31 37ZM31 47L31 66L41 66L41 47H63V50.5C63 65.1355 51.1355 77 36.5 77C21.8645 77 10 65.1355 10 50.5V47H31Z" fill="white"/>
</svg>
