<svg width="290" height="60" viewBox="0 0 290 60" fill="none" xmlns="http://www.w3.org/2000/svg">
<path d="M11.2885 0H1C0.447716 0 0 0.447715 0 1V20.387L11.2885 0Z" fill="white"/>
<path d="M0 26.6227C0.0325404 26.6241 0.0653426 26.6249 0.0983962 26.6249H15.7842C17.012 26.6249 17.9767 27.6738 17.872 28.895L16.5147 44.7247C16.3218 46.9741 19.3423 47.8909 20.4364 45.915L36.7355 16.4787C37.5074 15.0846 36.4973 13.3751 34.9016 13.3751H19.2158C17.988 13.3751 17.0233 12.3262 17.128 11.1051L18.0802 0H33.9091C48.4953 0 55.0336 18.3465 43.7528 27.6212L34.934 34.8716C34.3564 35.3465 34.2427 36.1883 34.6734 36.8003L49.8912 58.4245C50.3575 59.087 49.8836 60 49.0735 60H1C0.447715 60 0 59.5523 0 59V26.6227Z" fill="white"/>
<path d="M171.356 32.4805V47.6416H179.73V30.6196C179.73 28.6128 179.293 26.8613 178.417 25.3652C177.578 23.8325 176.374 22.6465 174.805 21.8076C173.235 20.9316 171.411 20.4937 169.331 20.4937C167.288 20.4937 165.481 20.9316 163.913 21.8076C163.496 22.0303 163.104 22.2793 162.736 22.5537C162.537 22.7017 162.346 22.8574 162.161 23.0205V9H153.787V47.6416H162.161V32.4805C162.161 31.5684 162.362 30.7656 162.764 30.0723C163.165 29.3423 163.712 28.7949 164.405 28.4302C165.099 28.0288 165.901 27.8281 166.813 27.8281C168.127 27.8281 169.204 28.2661 170.043 29.1416C170.919 29.981 171.356 31.0938 171.356 32.4805Z" fill="white"/>
<path fill-rule="evenodd" clip-rule="evenodd" d="M78.3145 31.7144V47.6416H69.7217V9H85.4844C88.0391 9 90.2832 9.49268 92.2168 10.4775C94.1504 11.4263 95.665 12.7583 96.7598 14.4731C97.8545 16.188 98.4014 18.1587 98.4014 20.3843C98.4014 22.6465 97.8545 24.6353 96.7598 26.3501C95.665 28.0288 94.1328 29.3423 92.1621 30.291C91.0625 30.8203 89.8564 31.2021 88.541 31.436L100.92 47.6416H90.7393L79.2139 31.7144H78.3145ZM78.3145 25.3652H84.4453C86.1602 25.3652 87.4736 24.9272 88.3857 24.0513C89.334 23.1758 89.8086 21.9897 89.8086 20.4937C89.8086 19.1074 89.3525 17.958 88.4404 17.0459C87.5283 16.1333 86.2148 15.6772 84.5 15.6772H78.3145V25.3652Z" fill="white"/>
<path fill-rule="evenodd" clip-rule="evenodd" d="M106.446 46.4922C108.709 47.6597 111.281 48.2437 114.163 48.2437C116.39 48.2437 118.433 47.8604 120.294 47.0942C122.154 46.3276 123.742 45.1782 125.056 43.646L120.458 39.0483C119.655 39.9604 118.725 40.6538 117.666 41.1284C116.608 41.5659 115.423 41.7852 114.108 41.7852C112.686 41.7852 111.445 41.4932 110.387 40.9092C109.365 40.2891 108.562 39.4316 107.979 38.3369C107.795 37.957 107.643 37.5527 107.521 37.1235L126.588 37.0781C126.734 36.3848 126.825 35.7827 126.861 35.272C126.887 35.0811 126.907 34.895 126.924 34.7129C126.933 34.6226 126.939 34.5337 126.945 34.4458C126.954 34.3135 126.961 34.1836 126.965 34.0562L126.969 33.9155L126.971 33.7393C126.971 31.1484 126.388 28.8496 125.22 26.8428C124.089 24.8359 122.52 23.2671 120.513 22.1357C118.506 21.0049 116.188 20.439 113.562 20.439C110.861 20.439 108.435 21.041 106.282 22.2451C104.129 23.4492 102.414 25.1099 101.137 27.2261C99.8965 29.3057 99.2764 31.6777 99.2764 34.3413C99.2764 37.0049 99.915 39.395 101.191 41.5112C102.469 43.6274 104.221 45.2881 106.446 46.4922ZM107.523 31.375C107.564 31.2324 107.608 31.0928 107.655 30.9561C107.735 30.7256 107.824 30.5034 107.924 30.291C108.472 29.1963 109.22 28.3569 110.168 27.7734C111.153 27.1528 112.303 26.8428 113.616 26.8428C114.856 26.8428 115.896 27.1167 116.736 27.6641L116.849 27.7314L116.961 27.8032C117.056 27.8662 117.147 27.9326 117.236 28.002C117.323 28.0698 117.408 28.1411 117.49 28.2153C117.999 28.6763 118.404 29.2588 118.706 29.9629C118.89 30.375 119.038 30.8345 119.151 31.3418L107.523 31.375Z" fill="white"/>
<path d="M141.687 48.2437C138.949 48.2437 136.468 47.6416 134.242 46.4375C132.017 45.2334 130.266 43.5728 128.988 41.4565C127.711 39.3403 127.072 36.9683 127.072 34.3413C127.072 31.6777 127.711 29.3057 128.988 27.2261C130.302 25.1099 132.071 23.4492 134.297 22.2451C136.523 21.041 139.022 20.439 141.796 20.439C143.875 20.439 145.772 20.8042 147.488 21.5337C148.362 21.8799 149.187 22.3169 149.961 22.8447C150.737 23.3745 151.464 23.9956 152.14 24.7085L146.776 30.0723C146.156 29.3789 145.426 28.8682 144.587 28.5396C144.208 28.3848 143.802 28.2666 143.366 28.1846C143.167 28.147 142.963 28.1172 142.753 28.0952C142.536 28.0723 142.312 28.0576 142.083 28.0513C141.988 28.0483 141.893 28.0469 141.796 28.0469C141.5 28.0469 141.212 28.0635 140.932 28.0962L140.781 28.1157L140.688 28.1294C140.59 28.1445 140.493 28.1621 140.397 28.1812C139.741 28.313 139.131 28.542 138.566 28.8682C137.654 29.3789 136.925 30.1084 136.377 31.0571C135.866 31.9697 135.61 33.0459 135.61 34.2866C135.61 35.5273 135.866 36.6221 136.377 37.5703C136.925 38.519 137.673 39.2671 138.621 39.8145C139.569 40.3618 140.628 40.6357 141.796 40.6357C142.891 40.6357 143.857 40.4531 144.696 40.0884C145.572 39.687 146.32 39.1396 146.94 38.4463L152.25 43.8101C150.863 45.2695 149.294 46.3823 147.543 47.1489C145.791 47.8784 143.839 48.2437 141.687 48.2437Z" fill="white"/>
<path fill-rule="evenodd" clip-rule="evenodd" d="M194.03 48.189C191.586 48.189 189.396 47.5869 187.463 46.3823C185.565 45.1782 184.051 43.5366 182.92 41.4565C181.825 39.377 181.277 37.0049 181.277 34.3413C181.277 31.6777 181.825 29.3057 182.92 27.2261C184.051 25.146 185.565 23.5044 187.463 22.2998C189.396 21.0957 191.586 20.4937 194.03 20.4937C195.818 20.4937 197.424 20.8403 198.847 21.5337C199.804 21.9883 200.643 22.5605 201.364 23.25V21.041H209.574V47.6416H201.364V45.4863C200.871 45.9526 200.317 46.3657 199.703 46.7256C199.591 46.7915 199.476 46.856 199.359 46.9185C199.21 46.998 199.057 47.0747 198.901 47.1489C197.442 47.8423 195.818 48.189 194.03 48.189ZM195.728 40.6357C197.516 40.6357 198.956 40.0518 200.051 38.8843C201.146 37.6802 201.693 36.1655 201.693 34.3413C201.693 33.7207 201.629 33.1367 201.501 32.5894C201.373 32.042 201.182 31.5312 200.927 31.0571C200.452 30.1084 199.759 29.3789 198.847 28.8682C198.354 28.5601 197.815 28.3389 197.23 28.2041C196.775 28.0991 196.293 28.0469 195.782 28.0469C195.199 28.0469 194.647 28.1152 194.128 28.252C193.811 28.3354 193.505 28.4443 193.212 28.5786C193.024 28.6646 192.841 28.7612 192.662 28.8682C191.786 29.3789 191.075 30.1084 190.527 31.0571C190.017 32.0059 189.762 33.1006 189.762 34.3413C189.762 35.5454 190.017 36.6221 190.527 37.5703C191.038 38.519 191.75 39.2671 192.662 39.8145C193.574 40.3618 194.596 40.6357 195.728 40.6357Z" fill="white"/>
<path d="M221.655 21.041H213.281V47.6416H221.655V33.0278C221.655 31.3125 222.057 30.0356 222.859 29.1963C223.699 28.3208 224.812 27.8828 226.198 27.8828C226.892 27.8828 227.512 27.9922 228.06 28.2114C228.606 28.4302 229.062 28.7402 229.428 29.1416L234.408 22.8472C233.679 22.0444 232.821 21.4609 231.836 21.0957C230.888 20.6943 229.774 20.4937 228.497 20.4937C225.578 20.4937 223.298 21.3516 221.655 23.0664V21.041Z" fill="white"/>
<path fill-rule="evenodd" clip-rule="evenodd" d="M244.977 59.5732C242.058 59.5732 239.485 59.0625 237.26 58.0405C235.07 57.0557 233.337 55.6509 232.06 53.8262L237.204 48.6812C238.153 49.8125 239.212 50.6699 240.379 51.2539C241.583 51.8374 243.024 52.1294 244.703 52.1294C246.783 52.1294 248.406 51.6187 249.574 50.5972C250.778 49.5752 251.381 48.1338 251.381 46.2729V44.5928C250.811 45.0488 250.172 45.4443 249.465 45.7803C248.005 46.4736 246.382 46.8203 244.594 46.8203C242.148 46.8203 239.978 46.2368 238.08 45.0688C236.183 43.9014 234.687 42.314 233.592 40.3071C232.497 38.3003 231.95 36.0747 231.95 33.6299C231.95 31.1484 232.497 28.9229 233.592 26.9521C234.687 24.9453 236.183 23.3765 238.08 22.2451C239.978 21.0776 242.148 20.4937 244.594 20.4937C246.418 20.4937 248.042 20.8403 249.465 21.5337C249.596 21.5923 249.724 21.6533 249.85 21.7168C250.471 22.0303 251.036 22.4009 251.545 22.8286V21.041H259.755V46.0542C259.755 48.791 259.116 51.1626 257.839 53.1694C256.562 55.1763 254.811 56.7451 252.585 57.8765C250.358 59.0078 247.823 59.5732 244.977 59.5732ZM246.181 39.377C247.349 39.377 248.352 39.1211 249.191 38.6104C249.406 38.4849 249.608 38.3491 249.797 38.2036C250.376 37.7578 250.831 37.2183 251.161 36.5854C251.303 36.3247 251.423 36.0547 251.521 35.7749C251.65 35.4121 251.744 35.0327 251.802 34.6372C251.85 34.3125 251.873 33.9766 251.873 33.6299C251.873 32.5352 251.636 31.5498 251.161 30.6743C250.724 29.7983 250.066 29.105 249.191 28.5942C248.352 28.0835 247.349 27.8281 246.181 27.8281C245.836 27.8281 245.504 27.8521 245.183 27.8994L245.015 27.9268L244.867 27.9541C244.549 28.0181 244.243 28.1064 243.95 28.2192C243.786 28.2822 243.626 28.353 243.471 28.4312C243.369 28.4824 243.27 28.5366 243.171 28.5942C242.295 29.105 241.62 29.7983 241.146 30.6743C240.898 31.1304 240.715 31.6162 240.597 32.1318C240.488 32.606 240.434 33.1055 240.434 33.6299C240.434 34.6514 240.671 35.6182 241.146 36.5308C241.62 37.4062 242.276 38.0996 243.116 38.6104C243.586 38.8848 244.099 39.0859 244.654 39.2129C245.132 39.3223 245.641 39.377 246.181 39.377Z" fill="white"/>
<path fill-rule="evenodd" clip-rule="evenodd" d="M268.895 46.4922C271.156 47.6597 273.729 48.2437 276.611 48.2437C278.837 48.2437 280.881 47.8604 282.741 47.0942C284.603 46.3276 286.189 45.1782 287.503 43.646L282.905 39.0483C282.103 39.9604 281.173 40.6538 280.114 41.1284C279.057 41.5659 277.87 41.7852 276.557 41.7852C275.134 41.7852 273.893 41.4932 272.835 40.9092C272.105 40.4668 271.488 39.9033 270.982 39.2188C270.901 39.1099 270.824 38.9976 270.749 38.8823C270.635 38.708 270.527 38.5259 270.427 38.3369C270.243 37.957 270.09 37.5527 269.968 37.1235L289.036 37.0781C289.108 36.7358 289.167 36.4155 289.212 36.1177C289.259 35.812 289.291 35.5303 289.31 35.272C289.335 35.0791 289.356 34.8906 289.373 34.707C289.403 34.3691 289.419 34.0464 289.419 33.7393C289.419 31.1484 288.835 28.8496 287.668 26.8428C286.536 24.8359 284.968 23.2671 282.961 22.1357C280.953 21.0049 278.637 20.439 276.01 20.439C273.31 20.439 270.883 21.041 268.729 22.2451C266.577 23.4492 264.862 25.1099 263.585 27.2261C262.345 29.3057 261.724 31.6777 261.724 34.3413C261.724 37.0049 262.362 39.395 263.64 41.5112C264.917 43.6274 266.668 45.2881 268.895 46.4922ZM269.972 31.375C270.081 30.9912 270.214 30.6294 270.372 30.291C270.685 29.666 271.062 29.1245 271.505 28.6665C271.66 28.5059 271.824 28.3555 271.996 28.2153C272.192 28.0547 272.398 27.9072 272.616 27.7734C273.602 27.1528 274.751 26.8428 276.064 26.8428C277.305 26.8428 278.345 27.1167 279.184 27.6641C279.519 27.8594 279.821 28.0918 280.092 28.3618C280.529 28.7979 280.884 29.3315 281.154 29.9629C281.337 30.375 281.485 30.8345 281.599 31.3418L269.972 31.375Z" fill="white"/>
</svg>
