<svg width="578" height="130" viewBox="0 0 578 130" fill="none" xmlns="http://www.w3.org/2000/svg">
<path d="M155.933 107.03L162.417 105.408V36.2422L155.933 34.6211V33H185.112C196.063 33 204.097 34.7652 209.212 38.2955C214.4 41.7539 216.993 46.2929 216.993 51.9127C216.993 55.8033 215.877 58.9374 213.643 61.3149C211.41 63.6925 208.564 65.4577 205.106 66.6105C201.431 67.9074 197.468 68.5918 193.218 68.6639V69.2042C198.477 69.4204 203.052 70.2129 206.943 71.5818C210.905 72.8787 214.184 74.896 216.777 77.6339C219.443 80.3717 220.776 83.866 220.776 88.1169C220.776 94.5292 218.146 99.5725 212.887 103.247C207.627 106.849 199.089 108.651 187.274 108.651H155.933V107.03ZM185.112 67.5831C187.49 67.5831 189.687 66.9347 191.705 65.6378C193.794 64.2689 195.451 62.3957 196.676 60.0181C197.973 57.5684 198.621 54.8666 198.621 51.9127C198.621 48.7425 197.973 45.9327 196.676 43.483C195.451 41.0334 193.794 39.1241 191.705 37.7552C189.687 36.3863 187.49 35.7018 185.112 35.7018H180.249V67.5831H185.112ZM187.274 105.949C191.741 105.949 195.379 104.364 198.189 101.194C200.999 98.0235 202.404 93.6646 202.404 88.1169C202.404 82.5692 200.999 78.2103 198.189 75.0401C195.379 71.87 191.741 70.285 187.274 70.285H180.249V105.949H187.274Z" fill="white"/>
<path d="M222.904 107.03L229.388 105.408V36.2422L222.904 34.6211V33H236.953C243.437 33 246.68 36.2422 246.68 42.7265V105.408L253.164 107.03V108.651H222.904V107.03Z" fill="white"/>
<path d="M282.867 110.272C273.933 110.272 266.908 107.75 261.793 102.707C256.749 97.5912 254.228 90.5665 254.228 81.6325C254.228 72.6986 256.749 65.7099 261.793 60.6665C266.908 55.5511 273.933 52.9934 282.867 52.9934C291.801 52.9934 298.79 55.5511 303.833 60.6665C308.948 65.7099 311.506 72.6986 311.506 81.6325C311.506 90.5665 308.948 97.5912 303.833 102.707C298.79 107.75 291.801 110.272 282.867 110.272ZM282.867 108.11C285.749 108.11 288.162 106.093 290.108 102.058C292.125 98.0235 293.134 91.215 293.134 81.6325C293.134 72.0501 292.125 65.2416 290.108 61.2069C288.162 57.1722 285.749 55.1548 282.867 55.1548C279.985 55.1548 277.535 57.1722 275.518 61.2069C273.573 65.2416 272.6 72.0501 272.6 81.6325C272.6 91.215 273.573 98.0235 275.518 102.058C277.535 106.093 279.985 108.11 282.867 108.11Z" fill="white"/>
<path d="M340.183 110.272C335.716 110.272 331.718 109.299 328.187 107.354C326.458 106.417 325.053 105.408 323.972 104.328C322.82 105.913 321.559 107.138 320.19 108.002C319.541 108.434 318.821 108.831 318.028 109.191H315.327V90.8187H319.649C320.586 93.8447 321.955 96.6546 323.756 99.2483C327.575 104.796 332.33 107.57 338.022 107.57C341.048 107.57 343.317 106.849 344.83 105.408C346.415 103.895 347.208 101.734 347.208 98.9241C347.208 96.5465 346.127 94.5652 343.966 92.9801C341.876 91.323 338.562 89.3057 334.023 86.9281C330.133 84.9828 326.962 83.2536 324.513 81.7406C322.135 80.1556 320.082 78.2103 318.353 75.9047C316.696 73.5271 315.867 70.7533 315.867 67.5831C315.867 63.2602 317.704 59.7659 321.379 57.1001C325.125 54.3623 330.853 52.9934 338.562 52.9934C342.381 52.9934 345.911 54.0021 349.153 56.0194C350.738 56.956 352.107 57.9287 353.26 58.9374C354.197 57.6405 355.457 56.4157 357.043 55.2629C358.267 54.5424 358.988 54.1462 359.204 54.0741H361.906V72.4464H357.583C356.502 69.3483 355.169 66.5745 353.584 64.1248C349.982 58.5051 345.695 55.6952 340.724 55.6952C338.778 55.6952 337.121 56.4157 335.752 57.8566C334.383 59.2976 333.699 61.0988 333.699 63.2602C333.699 65.9981 334.852 68.3036 337.157 70.1769C339.463 71.9781 342.957 74.0675 347.64 76.4451C351.459 78.3904 354.485 80.1195 356.718 81.6325C359.024 83.0735 360.969 84.8747 362.554 87.0362C364.211 89.1976 365.04 91.7193 365.04 94.6012C365.04 105.048 356.754 110.272 340.183 110.272Z" fill="white"/>
<path d="M393.143 110.272C388.676 110.272 384.677 109.299 381.147 107.354C379.418 106.417 378.013 105.408 376.932 104.328C375.779 105.913 374.518 107.138 373.149 108.002C372.501 108.434 371.781 108.831 370.988 109.191H368.286V90.8187H372.609C373.546 93.8447 374.915 96.6546 376.716 99.2483C380.534 104.796 385.29 107.57 390.981 107.57C394.007 107.57 396.277 106.849 397.79 105.408C399.375 103.895 400.168 101.734 400.168 98.9241C400.168 96.5465 399.087 94.5652 396.925 92.9801C394.836 91.323 391.522 89.3057 386.983 86.9281C383.092 84.9828 379.922 83.2536 377.472 81.7406C375.095 80.1556 373.041 78.2103 371.312 75.9047C369.655 73.5271 368.827 70.7533 368.827 67.5831C368.827 63.2602 370.664 59.7659 374.338 57.1001C378.085 54.3623 383.813 52.9934 391.522 52.9934C395.34 52.9934 398.871 54.0021 402.113 56.0194C403.698 56.956 405.067 57.9287 406.22 58.9374C407.156 57.6405 408.417 56.4157 410.002 55.2629C411.227 54.5424 411.947 54.1462 412.164 54.0741H414.865V72.4464H410.543C409.462 69.3483 408.129 66.5745 406.544 64.1248C402.941 58.5051 398.655 55.6952 393.683 55.6952C391.738 55.6952 390.081 56.4157 388.712 57.8566C387.343 59.2976 386.659 61.0988 386.659 63.2602C386.659 65.9981 387.811 68.3036 390.117 70.1769C392.422 71.9781 395.917 74.0675 400.6 76.4451C404.418 78.3904 407.444 80.1195 409.678 81.6325C411.983 83.0735 413.929 84.8747 415.514 87.0362C417.171 89.1976 417.999 91.7193 417.999 94.6012C417.999 105.048 409.714 110.272 393.143 110.272Z" fill="white"/>
<path d="M449.345 110.272C440.411 110.272 433.386 107.75 428.271 102.707C423.227 97.5912 420.706 90.5665 420.706 81.6325C420.706 72.6986 423.227 65.7099 428.271 60.6665C433.386 55.5511 440.411 52.9934 449.345 52.9934C458.279 52.9934 465.267 55.5511 470.311 60.6665C475.426 65.7099 477.984 72.6986 477.984 81.6325C477.984 90.5665 475.426 97.5912 470.311 102.707C465.267 107.75 458.279 110.272 449.345 110.272ZM449.345 108.11C452.227 108.11 454.64 106.093 456.586 102.058C458.603 98.0235 459.612 91.215 459.612 81.6325C459.612 72.0501 458.603 65.2416 456.586 61.2069C454.64 57.1722 452.227 55.1548 449.345 55.1548C446.463 55.1548 444.013 57.1722 441.996 61.2069C440.05 65.2416 439.078 72.0501 439.078 81.6325C439.078 91.215 440.05 98.0235 441.996 102.058C444.013 106.093 446.463 108.11 449.345 108.11Z" fill="white"/>
<path d="M481.264 107.03L487.748 105.408V57.8566L481.264 56.2355V54.6145H490.991C495.241 54.6145 498.592 55.9834 501.041 58.7212C501.978 59.8019 502.77 61.1348 503.419 62.7199C504.5 60.7025 505.652 59.0815 506.877 57.8566C510.119 54.6145 513.83 52.9934 518.009 52.9934C522.187 52.9934 525.862 53.93 529.032 55.8033C532.202 57.6045 534.652 60.0901 536.381 63.2602C537.462 61.1708 538.614 59.4777 539.839 58.1808C543.153 54.7225 546.864 52.9934 550.971 52.9934C554.789 52.9934 558.211 53.7859 561.237 55.371C564.336 56.956 566.713 59.1175 568.37 61.8553C570.099 64.5931 570.964 67.5831 570.964 70.8253V105.408L577.448 107.03V108.651H563.399C556.915 108.651 553.672 105.408 553.672 98.9241V70.8253C553.672 66.1422 552.952 62.6478 551.511 60.3423C550.07 57.9647 548.449 56.7759 546.648 56.7759C544.558 56.7759 542.433 58.2169 540.271 61.0988C539.407 62.4677 538.65 63.9087 538.002 65.4217V105.408L544.486 107.03V108.651H514.226V107.03L520.71 105.408V70.8253C520.71 66.1422 519.99 62.6478 518.549 60.3423C517.108 57.9647 515.487 56.7759 513.686 56.7759C511.596 56.7759 509.471 58.2169 507.309 61.0988C506.445 62.4677 505.688 63.9087 505.04 65.4217V105.408L511.524 107.03V108.651H481.264V107.03Z" fill="white"/>
<path fill-rule="evenodd" clip-rule="evenodd" d="M67.9664 129.286C67.2693 129.424 66.5462 129.469 65.8136 129.414C43.1755 127.696 21.7483 115.192 9.54004 94.0462C-2.66842 72.9005 -2.78375 48.0913 7.04822 27.6272C8.47563 24.6562 11.5699 22.8697 14.8566 23.1191C23.2928 23.7592 31.5608 25.8972 39.2462 29.4222C45.0454 18.1146 53.6252 8.46843 64.0831 1.38618C66.8122 -0.46206 70.3818 -0.462061 73.111 1.38618C83.4268 8.37227 91.9153 17.8532 97.7101 28.9625C105.104 25.711 113.013 23.7308 121.076 23.1191C124.363 22.8697 127.457 24.6562 128.885 27.6272C138.717 48.0913 138.601 72.9005 126.393 94.0462C114.185 115.192 92.7573 127.696 70.1192 129.414C69.3866 129.469 68.6636 129.424 67.9664 129.286ZM84.5527 116.468C98.1222 111.853 110.124 102.487 117.847 89.112C128.126 71.3084 128.46 50.4896 120.537 33.0702C114.03 33.7015 107.662 35.3656 101.687 37.993C104.602 46.0099 106.191 54.6629 106.191 63.6873C106.191 84.2544 97.9336 102.893 84.5527 116.468ZM88.9734 33.5512C84.1322 24.2572 77.1187 16.2706 68.597 10.2616C59.8928 16.3993 52.7621 24.6002 47.9126 34.1502C55.631 39.0861 62.4879 45.579 67.9664 53.4905C73.6694 45.2549 80.8661 38.5563 88.9734 33.5512ZM73.5576 63.0618C78.516 54.6036 85.1947 47.769 92.8965 42.7484C95.1191 49.3222 96.3232 56.3643 96.3232 63.6873C96.3232 80.5934 89.9055 96.0023 79.3541 107.609C82.209 92.9473 80.4823 77.3314 73.5576 63.0618ZM62.3753 63.0618C57.6399 54.984 51.3354 48.387 44.0691 43.4367C41.9926 49.8129 40.8708 56.6193 40.8708 63.6873C40.8708 79.7264 46.6472 94.418 56.2495 105.794C53.8749 91.6639 55.7357 76.744 62.3753 63.0618ZM67.9664 112.432C71.6709 100.652 71.8233 87.8002 67.9664 75.617C64.1096 87.8002 64.262 100.652 67.9664 112.432ZM18.0862 89.112C26.1592 103.095 38.91 112.695 53.2388 117.067C39.5066 103.444 31.0026 84.5588 31.0026 63.6873C31.0026 54.8464 32.5284 46.3619 35.3311 38.4827C29.0448 35.5717 22.2983 33.7398 15.3963 33.0702C7.47259 50.4896 7.80728 71.3084 18.0862 89.112Z" fill="white"/>
</svg>
