<svg width="355" height="94" viewBox="0 0 355 94" fill="none" xmlns="http://www.w3.org/2000/svg">
<path d="M131.876 75.3871C126.25 75.3871 121.336 74.1086 117.131 71.5518C112.926 68.995 109.659 65.4438 107.33 60.8983C105 56.2959 103.835 50.955 103.835 44.8754C103.835 38.7389 105.029 33.3411 107.415 28.682C109.858 23.966 113.296 20.3012 117.728 17.6876C122.216 15.0171 127.529 13.6818 133.665 13.6818C140.654 13.6818 146.45 15.358 151.052 18.7103C155.654 22.0626 158.637 26.6933 160.001 32.6025H147.813C146.904 29.8184 145.256 27.6593 142.87 26.1251C140.484 24.5342 137.415 23.7388 133.665 23.7388C127.699 23.7388 123.097 25.6422 119.858 29.4491C116.62 33.1991 115 38.3696 115 44.9606C115 51.5516 116.591 56.6653 119.773 60.3017C123.012 63.8813 127.387 65.671 132.898 65.671C138.296 65.671 142.359 64.2222 145.086 61.3244C147.87 58.3698 149.546 54.5062 150.114 49.7334H135.029V41.5515H161.109V74.3643H151.052L150.2 66.5233C148.268 69.3643 145.853 71.5518 142.955 73.0859C140.057 74.62 136.364 75.3871 131.876 75.3871Z" fill="white"/>
<path d="M167.197 74.3643V13H178.107V74.3643H167.197Z" fill="white"/>
<path d="M205.276 75.3871C201.185 75.3871 197.492 74.4496 194.197 72.5745C190.958 70.6995 188.373 68.1143 186.441 64.8188C184.566 61.4665 183.628 57.6028 183.628 53.2277C183.628 48.8527 184.594 45.0174 186.526 41.7219C188.458 38.3696 191.043 35.7559 194.282 33.8809C197.577 32.0059 201.271 31.0684 205.362 31.0684C209.396 31.0684 213.032 32.0059 216.271 33.8809C219.566 35.7559 222.152 38.3696 224.027 41.7219C225.958 45.0174 226.924 48.8527 226.924 53.2277C226.924 57.6028 225.958 61.4665 224.027 64.8188C222.152 68.1143 219.566 70.6995 216.271 72.5745C212.975 74.4496 209.31 75.3871 205.276 75.3871ZM205.276 65.9267C208.117 65.9267 210.589 64.8756 212.691 62.7733C214.794 60.6142 215.845 57.4323 215.845 53.2277C215.845 49.0231 214.794 45.8697 212.691 43.7674C210.589 41.6083 208.146 40.5287 205.362 40.5287C202.464 40.5287 199.964 41.6083 197.861 43.7674C195.816 45.8697 194.793 49.0231 194.793 53.2277C194.793 57.4323 195.816 60.6142 197.861 62.7733C199.964 64.8756 202.435 65.9267 205.276 65.9267Z" fill="white"/>
<path d="M249.889 75.3871C246.139 75.3871 242.843 74.7905 240.002 73.5973C237.161 72.3473 234.889 70.6427 233.184 68.4836C231.479 66.3245 230.457 63.8244 230.116 60.9835H241.11C241.451 62.6312 242.36 64.0517 243.837 65.2449C245.372 66.3813 247.332 66.9495 249.718 66.9495C252.105 66.9495 253.838 66.4665 254.917 65.5006C256.054 64.5347 256.622 63.4267 256.622 62.1767C256.622 60.3585 255.826 59.1369 254.235 58.5119C252.644 57.83 250.428 57.1766 247.588 56.5516C245.769 56.1539 243.923 55.6709 242.048 55.1027C240.173 54.5346 238.44 53.8243 236.849 52.972C235.315 52.0629 234.065 50.9266 233.099 49.5629C232.133 48.1424 231.65 46.4095 231.65 44.364C231.65 40.6139 233.127 37.4605 236.082 34.9037C239.093 32.3468 243.298 31.0684 248.695 31.0684C253.696 31.0684 257.673 32.2332 260.627 34.5627C263.639 36.8923 265.429 40.1026 265.997 44.1935H255.684C255.059 41.0685 252.701 39.506 248.61 39.506C246.565 39.506 244.974 39.9037 243.837 40.6992C242.758 41.4946 242.218 42.489 242.218 43.6822C242.218 44.9322 243.042 45.9265 244.69 46.6652C246.338 47.4038 248.525 48.0856 251.252 48.7106C254.207 49.3925 256.906 50.1595 259.349 51.0118C261.849 51.8073 263.838 53.0289 265.315 54.6766C266.792 56.2675 267.531 58.5687 267.531 61.5801C267.588 64.1938 266.906 66.5517 265.485 68.654C264.065 70.7563 262.02 72.4041 259.349 73.5973C256.679 74.7905 253.525 75.3871 249.889 75.3871Z" fill="white"/>
<path d="M290.405 75.3871C286.655 75.3871 283.36 74.7905 280.519 73.5973C277.678 72.3473 275.405 70.6427 273.701 68.4836C271.996 66.3245 270.973 63.8244 270.632 60.9835H281.627C281.968 62.6312 282.877 64.0517 284.354 65.2449C285.888 66.3813 287.849 66.9495 290.235 66.9495C292.621 66.9495 294.354 66.4665 295.434 65.5006C296.57 64.5347 297.138 63.4267 297.138 62.1767C297.138 60.3585 296.343 59.1369 294.752 58.5119C293.161 57.83 290.945 57.1766 288.104 56.5516C286.286 56.1539 284.439 55.6709 282.564 55.1027C280.689 54.5346 278.956 53.8243 277.365 52.972C275.831 52.0629 274.581 50.9266 273.615 49.5629C272.649 48.1424 272.167 46.4095 272.167 44.364C272.167 40.6139 273.644 37.4605 276.598 34.9037C279.61 32.3468 283.814 31.0684 289.212 31.0684C294.212 31.0684 298.19 32.2332 301.144 34.5627C304.156 36.8923 305.945 40.1026 306.514 44.1935H296.201C295.576 41.0685 293.218 39.506 289.127 39.506C287.081 39.506 285.491 39.9037 284.354 40.6992C283.275 41.4946 282.735 42.489 282.735 43.6822C282.735 44.9322 283.559 45.9265 285.206 46.6652C286.854 47.4038 289.042 48.0856 291.769 48.7106C294.724 49.3925 297.423 50.1595 299.866 51.0118C302.366 51.8073 304.354 53.0289 305.832 54.6766C307.309 56.2675 308.048 58.5687 308.048 61.5801C308.104 64.1938 307.423 66.5517 306.002 68.654C304.582 70.7563 302.536 72.4041 299.866 73.5973C297.195 74.7905 294.042 75.3871 290.405 75.3871Z" fill="white"/>
<path d="M316.487 93.1145L326.288 71.5518H323.732L307.283 32.0911H319.129L330.976 61.8358L343.334 32.0911H354.925L328.078 93.1145H316.487Z" fill="white"/>
<path d="M23.5354 67.5354L66.5354 24.5354L59.4644 17.4644L16.4644 60.4644L23.5354 67.5354Z" fill="white"/>
<path d="M40.5354 24.5354L23.5354 41.5354L16.4644 34.4644L33.4644 17.4644L40.5354 24.5354Z" fill="white"/>
<path d="M49.5354 67.5354L66.5354 50.5354L59.4644 43.4644L42.4644 60.4644L49.5354 67.5354Z" fill="white"/>
<path fill-rule="evenodd" clip-rule="evenodd" d="M0 84V0H84V84H0ZM10 10H74V74H10V10Z" fill="white"/>
</svg>
