<svg width="506" height="91" viewBox="0 0 506 91" fill="none" xmlns="http://www.w3.org/2000/svg">
<path d="M86.0553 61.6646C104.891 51.097 128.723 57.6404 139.522 76.3447L123.271 85.7276C104.348 96.6525 80.1473 90.0327 69.4199 70.9976L86.0553 61.6646Z" fill="white"/>
<path d="M79.1645 54.2564C89.9248 35.619 113.756 29.2333 132.394 39.9936L122.652 56.8666C111.892 75.504 88.0602 81.8896 69.4229 71.1293L79.1645 54.2564Z" fill="white" fill-opacity="0.8"/>
<path d="M68.5801 52.4508C68.5801 29.8473 86.9039 11.5234 109.507 11.5234V30.6228C109.507 53.2264 91.1836 71.5502 68.5801 71.5502V52.4508Z" fill="white" fill-opacity="0.8"/>
<path d="M58.9243 53.2292C48.164 34.5919 54.5496 10.7603 73.187 0L82.9286 16.873C93.6889 35.5104 87.3033 59.3419 68.6659 70.1022L58.9243 53.2292Z" fill="white" fill-opacity="0.8"/>
<path d="M68.5807 49.7223C68.5807 28.6257 51.4785 11.5234 30.3818 11.5234V33.3513C30.3818 54.448 47.4841 71.5502 68.5807 71.5502V49.7223Z" fill="white" fill-opacity="0.8"/>
<path d="M60.3581 54.2564C49.5978 35.619 25.7663 29.2333 7.12891 39.9936L16.8705 56.8666C27.6308 75.504 51.4624 81.8896 70.0998 71.1293L60.3581 54.2564Z" fill="white" fill-opacity="0.8"/>
<path d="M53.4668 61.6646C34.6308 51.097 10.7989 57.6404 0 76.3447L16.2516 85.7276C35.174 96.6525 59.3749 90.0327 70.1022 70.9976L53.4668 61.6646Z" fill="white"/>
<path d="M208.973 26.2117V68.5115H200.489V40.9985L189.156 68.5115H182.733L171.34 40.9985V68.5115H162.855V26.2117H172.491L185.945 57.6638L199.398 26.2117H208.973Z" fill="white"/>
<path d="M219.24 30.9386C217.745 30.9386 216.493 30.474 215.483 29.5448C214.513 28.5752 214.028 27.3833 214.028 25.9693C214.028 24.5553 214.513 23.3837 215.483 22.4544C216.493 21.4848 217.745 21 219.24 21C220.735 21 221.967 21.4848 222.937 22.4544C223.947 23.3837 224.452 24.5553 224.452 25.9693C224.452 27.3833 223.947 28.5752 222.937 29.5448C221.967 30.474 220.735 30.9386 219.24 30.9386ZM223.421 34.9383V68.5115H214.937V34.9383H223.421Z" fill="white"/>
<path d="M247.984 34.4535C251.984 34.4535 255.216 35.7261 257.681 38.2714C260.145 40.7763 261.377 44.2911 261.377 48.816V68.5115H252.893V49.9675C252.893 47.301 252.226 45.2608 250.893 43.8467C249.56 42.3923 247.742 41.6651 245.439 41.6651C243.096 41.6651 241.237 42.3923 239.864 43.8467C238.53 45.2608 237.864 47.301 237.864 49.9675V68.5115H229.38V34.9383H237.864V39.1198C238.995 37.6654 240.429 36.5342 242.167 35.7261C243.944 34.8777 245.883 34.4535 247.984 34.4535Z" fill="white"/>
<path d="M264.84 51.6037C264.84 48.21 265.506 45.2002 266.839 42.5741C268.213 39.948 270.071 37.928 272.415 36.514C274.758 35.0999 277.364 34.3929 280.232 34.3929C282.414 34.3929 284.495 34.8777 286.474 35.8473C288.454 36.7766 290.03 38.029 291.201 39.6046V23.6665H299.807V68.5115H291.201V63.5422C290.151 65.1986 288.676 66.5318 286.777 67.5419C284.878 68.5519 282.677 69.0569 280.172 69.0569C277.344 69.0569 274.758 68.3297 272.415 66.8752C270.071 65.4208 268.213 63.3806 266.839 60.7545C265.506 58.088 264.84 55.0378 264.84 51.6037ZM291.262 51.7249C291.262 49.6645 290.858 47.907 290.05 46.4526C289.242 44.9577 288.151 43.8265 286.777 43.0589C285.404 42.2509 283.929 41.8469 282.353 41.8469C280.778 41.8469 279.323 42.2307 277.99 42.9983C276.657 43.7659 275.566 44.8971 274.718 46.392C273.91 47.8464 273.506 49.5837 273.506 51.6037C273.506 53.6237 273.91 55.4014 274.718 56.9366C275.566 58.4315 276.657 59.5829 277.99 60.3909C279.364 61.1989 280.818 61.6029 282.353 61.6029C283.929 61.6029 285.404 61.2191 286.777 60.4515C288.151 59.6435 289.242 58.5123 290.05 57.0578C290.858 55.563 291.262 53.7853 291.262 51.7249Z" fill="white"/>
<path d="M321.062 41.9075H315.183V68.5115H306.578V41.9075H302.76V34.9383H306.578V33.2415C306.578 29.1206 307.749 26.0905 310.093 24.1513C312.436 22.212 315.971 21.303 320.698 21.4242V28.5752C318.637 28.5348 317.203 28.8782 316.395 29.6054C315.587 30.3326 315.183 31.6456 315.183 33.5445V34.9383H321.062V41.9075Z" fill="white"/>
<path d="M355.83 34.9383V68.5115H347.285V64.2694C346.195 65.7238 344.76 66.8752 342.983 67.7237C341.245 68.5317 339.347 68.9357 337.286 68.9357C334.66 68.9357 332.337 68.3903 330.317 67.2995C328.297 66.1682 326.701 64.532 325.529 62.3907C324.398 60.2091 323.833 57.6234 323.833 54.6338V34.9383H332.317V53.4217C332.317 56.0882 332.983 58.1486 334.317 59.6031C335.65 61.0171 337.468 61.7241 339.771 61.7241C342.114 61.7241 343.952 61.0171 345.286 59.6031C346.619 58.1486 347.285 56.0882 347.285 53.4217V34.9383H355.83Z" fill="white"/>
<path d="M370.261 23.6665V68.5115H361.777V23.6665H370.261Z" fill="white"/>
<path d="M394.824 34.4535C398.824 34.4535 402.056 35.7261 404.521 38.2714C406.985 40.7763 408.217 44.2911 408.217 48.816V68.5115H399.733V49.9675C399.733 47.301 399.066 45.2608 397.733 43.8467C396.4 42.3923 394.582 41.6651 392.279 41.6651C389.936 41.6651 388.077 42.3923 386.704 43.8467C385.37 45.2608 384.704 47.301 384.704 49.9675V68.5115H376.22V34.9383H384.704V39.1198C385.835 37.6654 387.269 36.5342 389.007 35.7261C390.784 34.8777 392.723 34.4535 394.824 34.4535Z" fill="white"/>
<path d="M445.071 50.9977C445.071 52.2097 444.99 53.3005 444.828 54.2702H420.285C420.487 56.6942 421.335 58.5931 422.83 59.9667C424.325 61.3403 426.163 62.0271 428.345 62.0271C431.496 62.0271 433.738 60.6737 435.072 57.9668H444.222C443.253 61.1989 441.394 63.8654 438.647 65.9662C435.9 68.0267 432.526 69.0569 428.527 69.0569C425.295 69.0569 422.386 68.3499 419.8 66.9358C417.255 65.4814 415.255 63.4412 413.801 60.8151C412.387 58.189 411.68 55.159 411.68 51.7249C411.68 48.2504 412.387 45.2002 413.801 42.5741C415.215 39.948 417.194 37.928 419.74 36.514C422.285 35.0999 425.214 34.3929 428.527 34.3929C431.718 34.3929 434.567 35.0797 437.072 36.4534C439.617 37.827 441.576 39.7864 442.95 42.3317C444.364 44.8365 445.071 47.7252 445.071 50.9977ZM436.284 48.5736C436.243 46.392 435.455 44.6547 433.92 43.3619C432.385 42.0287 430.506 41.3621 428.284 41.3621C426.183 41.3621 424.406 42.0085 422.951 43.3013C421.537 44.5537 420.669 46.3112 420.346 48.5736H436.284Z" fill="white"/>
<path d="M461.687 69.0569C458.94 69.0569 456.475 68.5721 454.294 67.6025C452.112 66.5924 450.375 65.239 449.082 63.5422C447.829 61.8453 447.143 59.9667 447.021 57.9062H455.566C455.728 59.1991 456.354 60.2697 457.445 61.1181C458.576 61.9665 459.97 62.3907 461.626 62.3907C463.242 62.3907 464.495 62.0675 465.384 61.4211C466.313 60.7747 466.778 59.9465 466.778 58.9365C466.778 57.8456 466.212 57.0376 465.081 56.5124C463.99 55.9468 462.232 55.3408 459.808 54.6944C457.303 54.0884 455.243 53.4621 453.627 52.8157C452.051 52.1693 450.678 51.1795 449.506 49.8463C448.375 48.513 447.809 46.7152 447.809 44.4527C447.809 42.5943 448.335 40.8975 449.385 39.3622C450.476 37.827 452.011 36.615 453.991 35.7261C456.011 34.8373 458.374 34.3929 461.081 34.3929C465.081 34.3929 468.272 35.4029 470.656 37.423C473.04 39.4026 474.353 42.0893 474.595 45.483H466.475C466.353 44.1497 465.788 43.0993 464.778 42.3317C463.808 41.5237 462.495 41.1197 460.839 41.1197C459.303 41.1197 458.112 41.4025 457.263 41.9681C456.455 42.5337 456.051 43.3215 456.051 44.3315C456.051 45.4628 456.617 46.3314 457.748 46.9374C458.879 47.503 460.637 48.0888 463.02 48.6948C465.444 49.3008 467.444 49.9271 469.02 50.5735C470.595 51.2199 471.949 52.2299 473.08 53.6035C474.252 54.9368 474.858 56.7144 474.898 58.9365C474.898 60.8757 474.353 62.6129 473.262 64.1482C472.211 65.6834 470.676 66.8954 468.656 67.7843C466.677 68.6327 464.353 69.0569 461.687 69.0569Z" fill="white"/>
<path d="M492.286 69.0569C489.539 69.0569 487.074 68.5721 484.893 67.6025C482.711 66.5924 480.974 65.239 479.681 63.5422C478.428 61.8453 477.742 59.9667 477.62 57.9062H486.165C486.327 59.1991 486.953 60.2697 488.044 61.1181C489.175 61.9665 490.569 62.3907 492.225 62.3907C493.841 62.3907 495.094 62.0675 495.983 61.4211C496.912 60.7747 497.376 59.9465 497.376 58.9365C497.376 57.8456 496.811 57.0376 495.68 56.5124C494.589 55.9468 492.831 55.3408 490.407 54.6944C487.902 54.0884 485.842 53.4621 484.226 52.8157C482.65 52.1693 481.277 51.1795 480.105 49.8463C478.974 48.513 478.408 46.7152 478.408 44.4527C478.408 42.5943 478.934 40.8975 479.984 39.3622C481.075 37.827 482.61 36.615 484.59 35.7261C486.61 34.8373 488.973 34.3929 491.68 34.3929C495.68 34.3929 498.871 35.4029 501.255 37.423C503.639 39.4026 504.952 42.0893 505.194 45.483H497.073C496.952 44.1497 496.387 43.0993 495.377 42.3317C494.407 41.5237 493.094 41.1197 491.438 41.1197C489.902 41.1197 488.711 41.4025 487.862 41.9681C487.054 42.5337 486.65 43.3215 486.65 44.3315C486.65 45.4628 487.216 46.3314 488.347 46.9374C489.478 47.503 491.236 48.0888 493.619 48.6948C496.043 49.3008 498.043 49.9271 499.619 50.5735C501.194 51.2199 502.548 52.2299 503.679 53.6035C504.851 54.9368 505.457 56.7144 505.497 58.9365C505.497 60.8757 504.952 62.6129 503.861 64.1482C502.81 65.6834 501.275 66.8954 499.255 67.7843C497.276 68.6327 494.952 69.0569 492.286 69.0569Z" fill="white"/>
</svg>
