<svg width="375" height="84" viewBox="0 0 375 84" fill="none" xmlns="http://www.w3.org/2000/svg">
<path fill-rule="evenodd" clip-rule="evenodd" d="M41.0545 3.19706C35.9552 1.08637 30.4899 0 24.9705 0L0 2.50397e-06V84H24.9705C30.4899 84 35.9552 82.9136 41.0545 80.8029C46.1537 78.6922 50.787 75.5985 54.6898 71.6985C58.5926 67.7984 61.6885 63.1684 63.8007 58.0727C65.9129 52.977 67 47.5155 67 42C67 36.4845 65.9129 31.023 63.8007 25.9273C61.6885 20.8316 58.5926 16.2016 54.6898 12.3015C50.787 8.40145 46.1537 5.30776 41.0545 3.19706ZM21.7571 20.2586H38.0744V33.6435L51.3277 33.564L51.4246 49.6845L38.0744 49.7646V63.2468H21.7571V49.8625L8.59158 49.9415L8.49474 33.8209L21.7571 33.7414V20.2586Z" fill="white"/>
<path d="M341.377 15H352.903V36.1309H374.034V47.6568H352.903V68.7878H341.377V47.6569H320.246V36.1309H341.377V15Z" fill="white"/>
<path fill-rule="evenodd" clip-rule="evenodd" d="M114.177 19.2778C110.103 17.1671 105.366 16.1117 99.9663 16.1117H82V67.507H99.9663C105.366 67.507 110.103 66.4516 114.177 64.3409C118.301 62.2301 121.467 59.2602 123.676 55.4313C125.934 51.5534 127.063 47.0372 127.063 41.883C127.063 36.7287 125.934 32.2126 123.676 28.3346C121.467 24.4076 118.301 21.3886 114.177 19.2778ZM112.116 54.3269C109.17 57.2721 104.998 58.7448 99.5981 58.7448H92.3085V24.8003H99.5981C104.998 24.8003 109.17 26.322 112.116 29.3655C115.061 32.3599 116.534 36.5324 116.534 41.883C116.534 47.2336 115.061 51.3816 112.116 54.3269Z" fill="white"/>
<path fill-rule="evenodd" clip-rule="evenodd" d="M139.345 65.5926C142.486 67.3107 146.021 68.1697 149.948 68.1697C153.924 68.1697 157.507 67.3107 160.698 65.5926C163.938 63.8254 166.49 61.3465 168.356 58.1557C170.27 54.965 171.227 51.2834 171.227 47.1109C171.227 42.9384 170.295 39.2568 168.429 36.066C166.613 32.8753 164.11 30.4209 160.919 28.7028C157.728 26.9356 154.169 26.052 150.242 26.052C146.315 26.052 142.756 26.9356 139.566 28.7028C136.375 30.4209 133.847 32.8753 131.981 36.066C130.165 39.2568 129.257 42.9384 129.257 47.1109C129.257 51.2834 130.141 54.965 131.908 58.1557C133.724 61.3465 136.203 63.8254 139.345 65.5926ZM155.176 57.8612C153.556 58.7448 151.813 59.1866 149.948 59.1866C147.002 59.1866 144.548 58.1557 142.584 56.094C140.67 53.9832 139.713 50.9888 139.713 47.1109C139.713 43.2329 140.695 40.2631 142.658 38.2014C144.671 36.0906 147.15 35.0352 150.095 35.0352C153.04 35.0352 155.519 36.0906 157.532 38.2014C159.594 40.2631 160.624 43.2329 160.624 47.1109C160.624 49.7126 160.134 51.9215 159.152 53.7378C158.17 55.5541 156.845 56.9285 155.176 57.8612Z" fill="white"/>
<path d="M173.193 47.1109C173.193 42.8893 174.052 39.2077 175.77 36.066C177.488 32.8753 179.869 30.4209 182.913 28.7028C185.956 26.9356 189.441 26.052 193.368 26.052C198.424 26.052 202.597 27.3283 205.886 29.8809C209.224 32.3844 211.457 35.9188 212.586 40.484H201.468C200.879 38.7168 199.873 37.3423 198.449 36.3606C197.075 35.3297 195.356 34.8143 193.295 34.8143C190.349 34.8143 188.018 35.8942 186.3 38.0541C184.582 40.1649 183.723 43.1838 183.723 47.1109C183.723 50.9888 184.582 54.0078 186.3 56.1677C188.018 58.2785 190.349 59.3338 193.295 59.3338C197.467 59.3338 200.192 57.4685 201.468 53.7378H212.586C211.457 58.1557 209.224 61.6655 205.886 64.2672C202.548 66.8689 198.375 68.1697 193.368 68.1697C189.441 68.1697 185.956 67.3107 182.913 65.5926C179.869 63.8254 177.488 61.371 175.77 58.2294C174.052 55.0386 173.193 51.3325 173.193 47.1109Z" fill="white"/>
<path d="M229.195 54.9159V35.1824H238.326V26.7147H229.195V16.6271H218.813V26.7147H213.953V35.1824H218.813V54.8423C218.813 63.2855 223.157 67.507 231.846 67.507H238.326V58.8184H233.539C231.969 58.8184 230.84 58.5239 230.152 57.9348C229.514 57.2967 229.195 56.2904 229.195 54.9159Z" fill="white"/>
<path fill-rule="evenodd" clip-rule="evenodd" d="M260.908 68.1697C256.981 68.1697 253.447 67.3107 250.305 65.5926C247.163 63.8254 244.685 61.3465 242.868 58.1557C241.101 54.965 240.217 51.2834 240.217 47.1109C240.217 42.9384 241.126 39.2568 242.942 36.066C244.807 32.8753 247.335 30.4209 250.526 28.7028C253.717 26.9356 257.276 26.052 261.203 26.052C265.13 26.052 268.689 26.9356 271.879 28.7028C275.07 30.4209 277.574 32.8753 279.39 36.066C281.255 39.2568 282.188 42.9384 282.188 47.1109C282.188 51.2834 281.231 54.965 279.316 58.1557C277.451 61.3465 274.898 63.8254 271.659 65.5926C268.468 67.3107 264.884 68.1697 260.908 68.1697ZM260.908 59.1866C262.774 59.1866 264.516 58.7448 266.136 57.8612C267.805 56.9285 269.13 55.5541 270.112 53.7378C271.094 51.9215 271.585 49.7126 271.585 47.1109C271.585 43.2329 270.554 40.2631 268.492 38.2014C266.48 36.0906 264.001 35.0352 261.055 35.0352C258.11 35.0352 255.631 36.0906 253.619 38.2014C251.655 40.2631 250.673 43.2329 250.673 47.1109C250.673 50.9888 251.631 53.9832 253.545 56.094C255.508 58.1557 257.963 59.1866 260.908 59.1866Z" fill="white"/>
<path d="M302.267 27.9665C300.156 29.1937 298.438 30.8872 297.113 33.0471V26.7147H286.804V67.507H297.113V47.1845C297.113 43.4047 297.923 40.754 299.543 39.2322C301.212 37.7105 303.666 36.9496 306.906 36.9496H309.63V26.1257C306.881 26.1257 304.427 26.7393 302.267 27.9665Z" fill="white"/>
</svg>
