<svg width="321" height="71" viewBox="0 0 321 71" fill="none" xmlns="http://www.w3.org/2000/svg">
<path d="M109.888 67.9028C102.457 67.9028 96.6619 65.8472 92.501 61.7358C88.3897 57.6244 86.334 51.7546 86.334 44.1263V15H98.3709V43.6805C98.3709 52.993 102.235 57.6492 109.962 57.6492C113.727 57.6492 116.6 56.5347 118.581 54.3056C120.562 52.027 121.553 48.4853 121.553 43.6805V15H133.441V44.1263C133.441 51.7546 131.361 57.6244 127.2 61.7358C123.089 65.8472 117.318 67.9028 109.888 67.9028Z" fill="white"/>
<path d="M139.318 41.4514H160.345V50.7391H139.318V41.4514Z" fill="white"/>
<path d="M174.656 24.8078H158.013V15H203.337V24.8078H186.693V67.0112H174.656V24.8078Z" fill="white"/>
<path d="M244.681 27.0369V67.0112H233.685V62.2559C232.149 63.9896 230.316 65.327 228.186 66.2682C226.056 67.1598 223.753 67.6056 221.276 67.6056C216.026 67.6056 211.865 66.0948 208.794 63.0732C205.723 60.0516 204.187 55.5688 204.187 49.6246V27.0369H215.778V47.9157C215.778 54.3552 218.478 57.5749 223.877 57.5749C226.651 57.5749 228.88 56.6833 230.564 54.9C232.248 53.0673 233.09 50.3676 233.09 46.8011V27.0369H244.681Z" fill="white"/>
<path d="M262.776 32.3123C264.163 30.3805 266.02 28.9192 268.348 27.9285C270.726 26.9378 273.45 26.4425 276.521 26.4425V37.1419C275.234 37.0429 274.367 36.9933 273.921 36.9933C270.602 36.9933 268.002 37.9345 266.119 39.8168C264.237 41.6496 263.296 44.4235 263.296 48.1386V67.0112H251.705V27.0369H262.776V32.3123Z" fill="white"/>
<path d="M303.995 26.4425C308.949 26.4425 312.936 27.9285 315.958 30.9006C319.029 33.8726 320.564 38.2812 320.564 44.1263V67.0112H308.973V45.9095C308.973 42.7393 308.28 40.3864 306.893 38.8509C305.506 37.2658 303.5 36.4732 300.874 36.4732C297.952 36.4732 295.624 37.3896 293.89 39.2224C292.156 41.0056 291.29 43.6805 291.29 47.247V67.0112H279.698V27.0369H290.769V31.7179C292.305 30.0337 294.212 28.7458 296.491 27.8542C298.769 26.913 301.271 26.4425 303.995 26.4425Z" fill="white"/>
<path fill-rule="evenodd" clip-rule="evenodd" d="M34.5516 1.48251C36.5283 -0.494169 39.7331 -0.494169 41.7098 1.48251L60.2204 19.9931L41.6256 37.7427C39.6035 39.6729 36.3995 39.5984 34.4693 37.5763C32.5392 35.5542 32.6137 32.3502 34.6358 30.4201L40.3448 24.9705H28.0075C18.1303 24.9705 10.1232 32.9776 10.1232 42.8548C10.1232 52.732 18.1303 60.7391 28.0075 60.7391H52.978C55.7734 60.7391 58.0396 63.0053 58.0396 65.8007C58.0396 68.5962 55.7734 70.8623 52.978 70.8623H28.0075C12.5394 70.8623 0 58.3229 0 42.8548C0 27.3867 12.5394 14.8473 28.0075 14.8473H40.7582L34.5516 8.64068C32.5749 6.66401 32.5749 3.45918 34.5516 1.48251Z" fill="white"/>
</svg>
