<svg width="344" height="95" viewBox="0 0 344 95" fill="none" xmlns="http://www.w3.org/2000/svg">
<path opacity="0.8" d="M50.1617 37.4717H74.9415L50.1617 -0.000263214H25.3818L50.1617 37.4717Z" fill="white"/>
<path opacity="0.9" d="M24.7836 37.4717H0.00381088L24.7836 -0.000263214H49.5635L24.7836 37.4717Z" fill="white"/>
<path opacity="0.6" d="M50.165 74.9443L50.165 37.4724L74.9449 37.4724L74.9449 74.9443L50.165 74.9443Z" fill="white"/>
<path d="M4.52337e-07 74.9443L0 37.4724L24.7798 37.4724L24.7798 74.9443L4.52337e-07 74.9443Z" fill="white"/>
<path d="M138.298 24V74.992H128.071V53.2948H106.228V74.992H96V24H106.228V44.9666H128.071V24H138.298Z" fill="white"/>
<path d="M163.414 75.6495C159.518 75.6495 156.012 74.7972 152.895 73.0926C149.778 71.3392 147.318 68.8797 145.516 65.7141C143.763 62.5484 142.886 58.8956 142.886 54.7559C142.886 50.6161 143.787 46.9634 145.589 43.7977C147.44 40.6321 149.948 38.1969 153.114 36.4923C156.279 34.739 159.81 33.8623 163.707 33.8623C167.603 33.8623 171.134 34.739 174.299 36.4923C177.465 38.1969 179.949 40.6321 181.751 43.7977C183.602 46.9634 184.527 50.6161 184.527 54.7559C184.527 58.8956 183.577 62.5484 181.678 65.7141C179.827 68.8797 177.295 71.3392 174.08 73.0926C170.915 74.7972 167.359 75.6495 163.414 75.6495ZM163.414 66.7368C165.265 66.7368 166.994 66.2985 168.601 65.4218C170.257 64.4965 171.572 63.1328 172.546 61.3308C173.52 59.5288 174.007 57.3372 174.007 54.7559C174.007 50.9084 172.984 47.9618 170.939 45.9163C168.942 43.8221 166.483 42.775 163.56 42.775C160.638 42.775 158.179 43.8221 156.182 45.9163C154.234 47.9618 153.26 50.9084 153.26 54.7559C153.26 58.6034 154.209 61.5743 156.109 63.6685C158.057 65.7141 160.492 66.7368 163.414 66.7368Z" fill="white"/>
<path d="M239.369 33.9354C244.336 33.9354 248.33 35.4695 251.35 38.5378C254.418 41.5574 255.952 45.7946 255.952 51.2493V74.992H245.724V52.6373C245.724 49.4716 244.921 47.0608 243.314 45.4049C241.706 43.7003 239.515 42.848 236.739 42.848C233.963 42.848 231.747 43.7003 230.091 45.4049C228.484 47.0608 227.68 49.4716 227.68 52.6373V74.992H217.452V52.6373C217.452 49.4716 216.649 47.0608 215.042 45.4049C213.434 43.7003 211.243 42.848 208.467 42.848C205.642 42.848 203.402 43.7003 201.746 45.4049C200.138 47.0608 199.335 49.4716 199.335 52.6373V74.992H189.107V34.5198H199.335V39.4145C200.65 37.7099 202.33 36.3705 204.376 35.3965C206.47 34.4224 208.759 33.9354 211.243 33.9354C214.408 33.9354 217.233 34.6172 219.717 35.9809C222.201 37.2959 224.125 39.1953 225.488 41.6792C226.803 39.3414 228.703 37.4664 231.187 36.054C233.719 34.6416 236.446 33.9354 239.369 33.9354Z" fill="white"/>
<path d="M300.358 53.8792C300.358 55.3403 300.261 56.6553 300.066 57.8242H270.479C270.723 60.7464 271.745 63.0354 273.547 64.6913C275.349 66.3472 277.565 67.1751 280.195 67.1751C283.994 67.1751 286.697 65.5436 288.304 62.2805H299.335C298.167 66.1767 295.926 69.3911 292.614 71.9237C289.303 74.4075 285.236 75.6495 280.414 75.6495C276.518 75.6495 273.012 74.7972 269.895 73.0926C266.826 71.3392 264.415 68.8797 262.662 65.7141C260.958 62.5484 260.105 58.8956 260.105 54.7559C260.105 50.5674 260.958 46.8904 262.662 43.7247C264.367 40.559 266.753 38.1238 269.821 36.4192C272.89 34.7146 276.421 33.8623 280.414 33.8623C284.262 33.8623 287.695 34.6903 290.715 36.3462C293.783 38.0021 296.145 40.3642 297.801 43.4325C299.506 46.452 300.358 49.9343 300.358 53.8792ZM289.765 50.9571C289.717 48.3271 288.767 46.2329 286.916 44.6744C285.066 43.0672 282.801 42.2636 280.122 42.2636C277.59 42.2636 275.447 43.0428 273.693 44.6013C271.989 46.1111 270.942 48.2297 270.552 50.9571H289.765Z" fill="white"/>
<path d="M343.62 34.5198L318.562 94.1322H307.677L316.444 73.9692L300.226 34.5198H311.695L322.142 62.7919L332.735 34.5198H343.62Z" fill="white"/>
</svg>
