<svg width="430" height="87" viewBox="0 0 430 87" fill="none" xmlns="http://www.w3.org/2000/svg">
<path d="M199.894 30.9976C205.802 30.9976 210.628 32.6712 214.339 36.0444C218.071 39.4371 219.904 44.6423 219.904 51.5864C219.904 58.538 217.985 63.9797 214.103 67.8618L214.102 67.8608C210.285 71.7327 205.402 73.6636 199.48 73.6636C193.626 73.6635 188.829 71.9891 185.119 68.6167C181.387 65.224 179.553 60.0188 179.553 53.0747C179.553 46.1245 181.444 40.6836 185.271 36.8013L185.272 36.7993C189.143 32.9287 194.026 30.9977 199.894 30.9976ZM122.111 14.6304C127.606 14.6304 133.181 15.5734 138.833 17.4575L139.172 17.5708L139.039 17.9028L138.708 18.73L138.585 19.0386L138.274 18.9194C133.291 17.0026 128.593 16.0484 124.178 16.0483C119.813 16.0483 116.449 16.9762 114.048 18.7905C111.659 20.5958 110.462 23.0831 110.462 26.2915C110.462 30.1628 112.461 33.1733 116.559 35.3315L117.264 35.6782C118.926 36.4797 120.716 37.2395 122.633 37.9585C124.902 38.7332 127.171 39.6191 129.438 40.6147C131.715 41.6141 133.8 42.7529 135.691 44.0327C137.617 45.3351 139.167 47.1437 140.347 49.4458C141.537 51.7137 142.122 54.6107 142.122 58.1167C142.122 61.6013 141.136 64.5987 139.155 67.0894C137.188 69.5623 134.791 71.2562 131.968 72.1597L131.964 72.1606C129.224 72.9994 126.021 73.4155 122.359 73.4155C115.523 73.4155 109.666 71.7194 104.807 68.312L104.545 68.1284L104.714 67.8579L105.127 67.1958L105.326 66.8774L105.622 67.1099C107.402 68.512 109.705 69.6808 112.544 70.6089C115.431 71.4797 118.372 71.9146 121.367 71.9146C125.778 71.9145 129.514 70.9078 132.591 68.9106C135.685 66.8827 137.231 63.9339 137.231 60.0181C137.231 55.7429 135.214 52.4019 131.115 49.9751C129.257 48.8819 127.204 47.8695 124.958 46.938L124.955 46.937C122.75 45.9997 120.516 45.0349 118.256 44.0425L118.249 44.0396C115.975 42.9858 113.893 41.8199 112.003 40.5415V40.5405C107.721 37.7221 105.572 33.7042 105.572 28.5239C105.572 24.4169 106.954 21.0713 109.731 18.521C112.518 15.907 116.666 14.6304 122.111 14.6304ZM163.165 30.9976C166.208 30.9976 168.695 31.3009 170.613 31.9194H170.614C172.579 32.4808 174.054 33.3064 174.995 34.4233L175 34.4292C176.436 36.2102 177.142 38.4946 177.142 41.2534V67.1274C177.142 68.6825 177.436 69.8424 177.984 70.646C178.539 71.3364 179.054 71.6942 179.525 71.8022L179.726 71.8335L179.741 71.8345L179.758 71.8374L180.635 71.9976H183.506V73.3335H178.127C175.823 73.3335 173.999 72.828 172.705 71.769L172.699 71.7642C171.509 70.7443 170.827 69.6745 170.764 68.5522L170.682 67.147L170.681 67.1372V41.1714C170.681 36.8554 169.56 34.2448 167.475 33.1226C166.377 32.6018 165 32.3325 163.33 32.3325C159.904 32.3326 156.818 33.6937 154.062 36.4497L154.061 36.4526C151.268 39.1904 149.945 41.5865 149.945 43.6509V73.3335H143.485V31.3276H149.945V39.5728C150.976 37.6653 152.533 35.8788 154.604 34.2124C157.193 32.0748 160.05 30.9976 163.165 30.9976ZM277.11 31.3638C277.282 31.4498 277.442 31.6016 277.591 31.7798C277.74 31.9588 277.897 32.1886 278.062 32.4634L278.206 32.6782C278.519 33.1667 278.718 33.6349 278.778 34.0796C278.891 34.5366 278.95 34.9725 278.95 35.3853C278.95 36.9242 278.608 38.4845 277.931 40.064L277.928 40.0708L262.883 73.1353L262.793 73.3335H261.516L261.434 73.1138L249.814 41.8882L235.604 73.1353L235.515 73.3335H234.237L234.155 73.1138L218.78 31.7827L218.611 31.3276H225.117L225.198 31.5483L237.563 65.0063L249.068 39.9985L246.058 31.7808L245.892 31.3276H252.396L252.478 31.5483L264.842 65.0073L276.488 39.7896L276.494 39.7769L276.501 39.7642C277.128 38.6672 277.449 37.3494 277.449 35.7983C277.449 34.262 277.026 33.1509 276.232 32.4067L275.979 32.1685L276.893 31.2544L277.11 31.3638ZM200.06 32.3325C195.992 32.3325 192.615 34.144 189.915 37.8159L189.914 37.8179C187.218 41.4309 185.848 46.5302 185.848 53.1567C185.848 59.7374 187.111 64.552 189.577 67.6616C192.046 70.7748 195.31 72.3286 199.398 72.3286C203.468 72.3285 206.844 70.5419 209.543 66.9253C212.24 63.2558 213.609 58.1558 213.609 51.5864C213.609 44.9499 212.346 40.1087 209.88 36.9995C207.411 33.8864 204.148 32.3326 200.06 32.3325Z" fill="white" stroke="white" stroke-width="0.674298"/>
<path d="M328.503 30.9976C331.358 30.9976 333.747 31.2536 335.659 31.7739C337.57 32.2938 339.029 33.0832 339.996 34.1675C341.472 35.8133 342.231 37.5715 342.231 39.4351V67.1274C342.232 68.682 342.526 69.8414 343.074 70.645C343.629 71.3357 344.144 71.6941 344.615 71.8022L344.815 71.8335L344.832 71.8345L344.848 71.8374L345.725 71.9976H348.597V73.3335H345.696C341.939 73.3334 339.257 72.6208 337.776 71.0903L337.543 70.8628C336.411 69.7286 335.771 68.672 335.771 67.7056V67.189C334.49 69.1699 332.903 70.7045 331.005 71.7808C328.782 73.0408 326.153 73.6636 323.13 73.6636C319.61 73.6635 316.806 72.8681 314.757 71.2349C312.704 69.5983 311.453 67.1552 310.976 63.9526V63.9517C310.863 63.2747 310.807 62.5972 310.807 61.9194C310.807 61.1687 310.923 60.3677 311.149 59.5181C311.394 58.6027 312.08 57.6411 313.145 56.6323C314.251 55.5841 315.988 54.7661 318.312 54.1538C320.641 53.54 323.593 53.124 327.159 52.9028C328.927 52.7373 330.56 52.6548 332.058 52.6548C333.405 52.6548 334.643 52.7022 335.771 52.7925V39.5571C335.754 39.5286 335.74 39.5007 335.729 39.4731C335.697 39.384 335.688 39.29 335.688 39.2075C335.689 39.044 335.723 38.8432 335.779 38.6177C335.867 38.224 335.787 37.6979 335.472 37.0142L335.465 37.0005L335.46 36.9858C335.195 36.2439 334.823 35.5261 334.343 34.8325C333.901 34.1943 333.089 33.6204 331.852 33.1362L331.841 33.1313C330.631 32.6054 329.028 32.3326 327.016 32.3325C325.017 32.3325 322.651 32.7117 319.914 33.478L319.91 33.479C317.217 34.1934 315.267 34.9006 314.038 35.5952L313.746 35.7612L313.579 35.4692L313.249 34.8911L313.066 34.5708L313.4 34.4175C318.346 32.1391 323.381 30.9976 328.503 30.9976ZM396.658 30.9976C401.25 30.9976 405.134 32.3717 408.288 35.1313C411.467 37.9131 413.032 42.0134 413.032 47.3706V48.5347H383.488C383.346 49.9167 383.273 51.3474 383.273 52.8267C383.273 59.6322 384.456 64.5579 386.76 67.6675L386.983 67.9546C389.315 70.877 392.312 72.3286 395.997 72.3286C401.474 72.3286 406.337 71.5064 410.59 69.8706L410.893 69.7544L411.021 70.0522L411.269 70.6313L411.406 70.9526L411.081 71.0786C406.627 72.8044 401.597 73.6636 395.997 73.6636C390.414 73.6635 385.835 71.9859 382.291 68.6108C378.728 65.2172 376.979 60.0145 376.979 53.0747C376.979 46.1273 378.814 40.6879 382.527 36.8052C386.233 32.9314 390.952 30.9976 396.658 30.9976ZM355.625 10.6626V51.2769L373.221 31.4409L373.321 31.3276H375.049L374.552 31.8882L361.252 46.9019L378.877 72.8062L379.235 73.3335H372.634L372.533 73.186L357.485 51.063L355.625 53.1997V73.3335H349.164V10.6626H355.625ZM331.562 53.9897C330.087 53.9897 328.612 54.071 327.137 54.2349L327.138 54.2358C325.058 54.4822 323.354 54.8365 322.021 55.2944C320.683 55.7536 319.743 56.3088 319.162 56.9399C317.967 58.2387 317.351 60.0497 317.351 62.4155C317.351 62.7358 317.365 63.0882 317.396 63.4731L317.432 63.8696V63.8745C317.677 66.7607 318.402 68.8728 319.565 70.2583C320.717 71.6298 322.331 72.3286 324.453 72.3286C327.289 72.3285 329.83 71.367 332.086 69.4331C334.423 67.4217 335.611 65.5453 335.771 63.8062V54.1343C334.392 54.0396 332.989 53.9897 331.562 53.9897ZM396.328 32.3325C393.301 32.3325 390.576 33.6538 388.148 36.3501L388.149 36.3511C385.844 38.9705 384.342 42.5779 383.659 47.1987H406.729C406.634 42.1143 405.625 38.4027 403.75 36.0063C401.828 33.5507 399.363 32.3326 396.328 32.3325ZM305.045 67.1274C305.045 68.6825 305.339 69.8424 305.888 70.646C306.442 71.3364 306.957 71.6942 307.429 71.8022L307.629 71.8335L307.645 71.8345L307.661 71.8374L308.538 71.9976H311.409V73.3335H308.51C303.628 73.3335 300.391 72.0591 299.033 69.3442C298.743 68.7638 298.584 68.2153 298.584 67.7056V67.7017L299.313 11.3472C295.821 11.5101 293.305 13.3521 291.754 15.73L291.752 15.7329C290.156 18.1264 289.329 22.1195 289.329 27.7798V31.3276H295.859V33.3374H289.329V73.3335H282.868V33.3374H281.133V31.3276H282.868V27.7798C282.868 21.7391 284.168 17.3554 286.854 14.7261C289.484 12.0983 293.666 10.7705 299.321 10.6685L299.322 10.6567L299.661 10.6626L304.713 10.7446L305.045 10.7505V67.1274Z" fill="white" stroke="white" stroke-width="0.674298"/>
<path d="M420.323 10.1319V12.3157H417.84V18.9598H415.483V12.3157H413V10.1319H420.323Z" fill="white"/>
<path d="M430 9.99951V18.9995H427.643V14.6319L425.916 16.6833H425.211L423.484 14.6319V18.9995H421.127V9.99951H421.959L425.563 13.8377L429.168 9.99951H430Z" fill="white"/>
<path fill-rule="evenodd" clip-rule="evenodd" d="M40.4814 58.6169L40.4454 86.9999L46.4454 87.0075L46.4815 58.4923L57.4268 84.8232L62.9672 82.5202L52.0971 56.3701L72.0964 76.4203L76.3445 72.183L56.2593 52.0468L82.5275 62.9485L84.8274 57.4068L58.5558 46.5037H87V40.5037H58.624L84.8516 29.6717L82.5612 24.126L56.4456 34.9118L76.5273 15.0354L72.3066 10.771L51.9757 30.894L62.9316 4.46952L57.3891 2.17153L46.5197 28.3874L46.5557 0.00760402L40.5557 0L40.5195 28.5179L29.5732 2.18436L24.0328 4.48739L34.9019 30.6351L14.9043 10.5867L10.6563 14.824L30.7417 34.9604L4.47266 24.0584L2.17277 29.6001L28.4456 40.5037H0V46.5037H28.3781L2.14926 57.3362L4.43962 62.8819L30.554 52.0966L10.4729 71.9723L14.6937 76.2367L35.0236 56.1148L24.0683 82.5377L29.6107 84.8357L40.4814 58.6169Z" fill="white"/>
</svg>
