<svg width="390" height="102" viewBox="0 0 390 102" fill="none" xmlns="http://www.w3.org/2000/svg">
<path d="M50.8333 0L0 61H45.75L40.6667 101.667L91.5 40.6667H45.75L50.8333 0Z" fill="white"/>
<path d="M163.468 42.5201V61.3372H136.326V87.1109H115V10.7021H169.17V29.5192H136.326V42.5201H163.468Z" fill="white"/>
<path d="M198.913 10.7021V87.1109H179.297V10.7021H198.913Z" fill="white"/>
<path d="M231.278 27.2384C234.319 27.2384 237.284 27.9226 240.173 29.2911C243.139 30.5836 245.571 32.2562 247.472 34.309V28.949H267.088V87.1109H247.472V77.4172C246.028 80.6104 243.823 83.3094 240.858 85.5143C237.893 87.7191 234.319 88.8215 230.138 88.8215C225.804 88.8215 221.736 87.7191 217.935 85.5143C214.134 83.3094 211.016 79.9262 208.584 75.3644C206.227 70.7267 205.048 64.9105 205.048 57.9159C205.048 51.3774 206.227 45.8273 208.584 41.2656C211.016 36.7039 214.21 33.2446 218.163 30.8877C222.193 28.4548 226.564 27.2384 231.278 27.2384ZM235.384 46.3976C232.571 46.3976 230.214 47.538 228.313 49.8188C226.488 52.0997 225.576 54.7987 225.576 57.9159C225.576 61.0331 226.526 63.656 228.427 65.7848C230.328 67.9136 232.837 68.978 235.954 68.978C237.626 68.978 239.337 68.5599 241.086 67.7236C242.834 66.8112 244.317 65.4807 245.533 63.7321C246.826 61.9074 247.472 59.5885 247.472 56.7755V51.1874C245.8 49.8188 243.899 48.6784 241.77 47.7661C239.717 46.8537 237.588 46.3976 235.384 46.3976Z" fill="white"/>
<path d="M297.514 27.2384C301.316 27.2384 304.813 27.8086 308.006 28.949C311.275 30.0134 313.898 31.496 315.875 33.3967V48.7925C313.898 47.576 311.655 46.4356 309.147 45.3712C306.638 44.2307 303.939 43.6605 301.049 43.6605C299.225 43.6605 297.59 44.0407 296.146 44.801C294.777 45.4852 294.093 46.5876 294.093 48.1082C294.093 49.1726 294.511 49.9709 295.347 50.5031C296.184 51.0353 297.818 51.6055 300.251 52.2137L303.786 53.1261C313.898 55.7111 318.954 61.1471 318.954 69.4342C318.954 73.2356 317.814 76.6189 315.533 79.584C313.328 82.4731 310.401 84.754 306.752 86.4266C303.178 88.0232 299.301 88.8215 295.119 88.8215C290.786 88.8215 286.756 88.2133 283.031 86.9968C279.305 85.7043 276.112 84.1457 273.451 82.3211V67.0393C276.188 68.7119 279.267 70.1185 282.689 71.2589C286.186 72.3993 289.303 72.9695 292.04 72.9695C294.245 72.9695 295.842 72.7034 296.83 72.1712C297.894 71.639 298.426 70.6887 298.426 69.3202C298.426 68.2558 297.818 67.4575 296.602 66.9253C295.385 66.317 293.637 65.6328 291.356 64.8725L285.54 63.0478C281.282 61.7553 278.165 59.7406 276.188 57.0035C274.211 54.1905 273.223 50.7692 273.223 46.7397C273.223 42.7102 274.287 39.2509 276.416 36.3618C278.545 33.4727 281.434 31.2299 285.083 29.6333C288.809 28.0367 292.952 27.2384 297.514 27.2384Z" fill="white"/>
<path d="M359.417 27.2384C365.347 27.2384 370.175 29.2531 373.9 33.2826C377.701 37.3121 379.602 43.2804 379.602 51.1874V87.1109H359.987L359.873 54.2665C359.873 51.3774 359.074 49.3627 357.478 48.2222C355.881 47.0058 354.095 46.3976 352.118 46.3976C349.989 46.3976 348.202 46.9678 346.758 48.1082C345.313 49.1726 344.059 50.4651 342.994 51.9857V87.1109H323.379V10.7021H342.994V36.4758C344.819 33.9669 347.024 31.8001 349.609 29.9754C352.27 28.1507 355.539 27.2384 359.417 27.2384Z" fill="white"/>
<path d="M378.615 11.1471V13.5735H375.694V20.9559H372.921V13.5735H370V11.1471H378.615Z" fill="white"/>
<path d="M390 11V21H387.227V16.1471L385.196 18.4265H384.365L382.334 16.1471V21H379.561V11H380.54L384.781 15.2647L389.021 11H390Z" fill="white"/>
</svg>
