<svg width="433" height="108" viewBox="0 0 433 108" fill="none" xmlns="http://www.w3.org/2000/svg">
<path d="M134.985 65.8945H119.001L116.357 73.5414H107.905L122.336 33.352H131.708L146.139 73.5414H137.63L134.985 65.8945ZM132.8 59.455L126.993 42.6663L121.186 59.455H132.8Z" fill="white"/>
<path d="M179.304 41.6888V73.5414H171.197V69.5167C170.162 70.8966 168.801 71.989 167.115 72.7939C165.467 73.5606 163.665 73.9439 161.71 73.9439C159.219 73.9439 157.015 73.4264 155.098 72.3915C153.182 71.3182 151.668 69.7658 150.556 67.7343C149.483 65.6645 148.946 63.2113 148.946 60.3749V41.6888H156.996V59.225C156.996 61.7548 157.628 63.7096 158.893 65.0895C160.158 66.4311 161.883 67.1019 164.068 67.1019C166.291 67.1019 168.035 66.4311 169.3 65.0895C170.565 63.7096 171.197 61.7548 171.197 59.225V41.6888H179.304Z" fill="white"/>
<path d="M194.318 48.3008V63.7096C194.318 64.7829 194.567 65.5687 195.065 66.067C195.602 66.5269 196.484 66.7569 197.71 66.7569H201.447V73.5414H196.388C189.603 73.5414 186.211 70.245 186.211 63.6521V48.3008H182.416V41.6888H186.211V33.8119H194.318V41.6888H201.447V48.3008H194.318Z" fill="white"/>
<path d="M219.081 74.0588C216.015 74.0588 213.255 73.3881 210.802 72.0465C208.349 70.6666 206.413 68.7309 204.995 66.2394C203.615 63.748 202.925 60.8732 202.925 57.6151C202.925 54.357 203.634 51.4822 205.052 48.9908C206.509 46.4993 208.483 44.5828 210.974 43.2412C213.466 41.8613 216.245 41.1714 219.311 41.1714C222.377 41.1714 225.156 41.8613 227.648 43.2412C230.139 44.5828 232.094 46.4993 233.512 48.9908C234.969 51.4822 235.697 54.357 235.697 57.6151C235.697 60.8732 234.95 63.748 233.455 66.2394C231.998 68.7309 230.005 70.6666 227.475 72.0465C224.984 73.3881 222.186 74.0588 219.081 74.0588ZM219.081 67.0444C220.538 67.0444 221.898 66.6994 223.163 66.0095C224.466 65.2812 225.501 64.2079 226.268 62.7897C227.035 61.3715 227.418 59.6466 227.418 57.6151C227.418 54.587 226.613 52.268 225.003 50.6581C223.432 49.0099 221.496 48.1858 219.196 48.1858C216.896 48.1858 214.961 49.0099 213.389 50.6581C211.856 52.268 211.089 54.587 211.089 57.6151C211.089 60.6432 211.837 62.9814 213.331 64.6296C214.865 66.2394 216.781 67.0444 219.081 67.0444Z" fill="white"/>
<path d="M278.859 41.2289C282.769 41.2289 285.912 42.4363 288.288 44.8511C290.703 47.2276 291.91 50.5623 291.91 54.8553V73.5414H283.861V55.9477C283.861 53.4563 283.229 51.5589 281.964 50.2557C280.699 48.9141 278.974 48.2433 276.789 48.2433C274.604 48.2433 272.86 48.9141 271.557 50.2557C270.292 51.5589 269.66 53.4563 269.66 55.9477V73.5414H261.61V55.9477C261.61 53.4563 260.978 51.5589 259.713 50.2557C258.448 48.9141 256.723 48.2433 254.538 48.2433C252.315 48.2433 250.552 48.9141 249.249 50.2557C247.984 51.5589 247.351 53.4563 247.351 55.9477V73.5414H239.302V41.6888H247.351V45.541C248.386 44.1995 249.709 43.1454 251.319 42.3788C252.967 41.6122 254.768 41.2289 256.723 41.2289C259.215 41.2289 261.438 41.7655 263.393 42.8387C265.347 43.8737 266.862 45.3685 267.935 47.3234C268.97 45.4835 270.465 44.0078 272.419 42.8962C274.413 41.7847 276.559 41.2289 278.859 41.2289Z" fill="white"/>
<path d="M295.179 57.5001C295.179 54.2804 295.812 51.4247 297.076 48.9333C298.38 46.4418 300.124 44.5253 302.309 43.1837C304.532 41.8422 307.004 41.1714 309.726 41.1714C312.102 41.1714 314.172 41.6505 315.935 42.6088C317.737 43.567 319.174 44.7744 320.247 46.231V41.6888H328.354V73.5414H320.247V68.8842C319.212 70.3791 317.775 71.6249 315.935 72.6215C314.134 73.5797 312.045 74.0588 309.668 74.0588C306.985 74.0588 304.532 73.3689 302.309 71.989C300.124 70.6091 298.38 68.6734 297.076 66.1819C295.812 63.6521 295.179 60.7582 295.179 57.5001ZM320.247 57.6151C320.247 55.6603 319.864 53.9929 319.097 52.613C318.331 51.1948 317.296 50.1215 315.993 49.3932C314.689 48.6266 313.29 48.2433 311.795 48.2433C310.3 48.2433 308.921 48.6075 307.656 49.3357C306.391 50.064 305.356 51.1373 304.551 52.5555C303.784 53.9354 303.401 55.5836 303.401 57.5001C303.401 59.4166 303.784 61.1032 304.551 62.5597C305.356 63.978 306.391 65.0704 307.656 65.837C308.959 66.6036 310.339 66.9869 311.795 66.9869C313.29 66.9869 314.689 66.6227 315.993 65.8945C317.296 65.1279 318.331 64.0546 319.097 62.6747C319.864 61.2565 320.247 59.57 320.247 57.6151Z" fill="white"/>
<path d="M343.288 48.3008V63.7096C343.288 64.7829 343.537 65.5687 344.035 66.067C344.572 66.5269 345.453 66.7569 346.68 66.7569H350.417V73.5414H345.358C338.573 73.5414 335.181 70.245 335.181 63.6521V48.3008H331.386V41.6888H335.181V33.8119H343.288V41.6888H350.417V48.3008H343.288Z" fill="white"/>
<path d="M357.989 37.8941C356.571 37.8941 355.383 37.4533 354.424 36.5717C353.504 35.6518 353.044 34.521 353.044 33.1795C353.044 31.8379 353.504 30.7263 354.424 29.8447C355.383 28.9248 356.571 28.4648 357.989 28.4648C359.407 28.4648 360.576 28.9248 361.496 29.8447C362.455 30.7263 362.934 31.8379 362.934 33.1795C362.934 34.521 362.455 35.6518 361.496 36.5717C360.576 37.4533 359.407 37.8941 357.989 37.8941ZM361.956 41.6888V73.5414H353.907V41.6888H361.956Z" fill="white"/>
<path d="M381.753 74.0588C378.687 74.0588 375.927 73.3881 373.474 72.0465C371.021 70.6666 369.085 68.7309 367.667 66.2394C366.287 63.748 365.597 60.8732 365.597 57.6151C365.597 54.357 366.306 51.4822 367.724 48.9908C369.181 46.4993 371.155 44.5828 373.646 43.2412C376.138 41.8613 378.917 41.1714 381.983 41.1714C385.05 41.1714 387.828 41.8613 390.32 43.2412C392.811 44.5828 394.766 46.4993 396.185 48.9908C397.641 51.4822 398.369 54.357 398.369 57.6151C398.369 60.8732 397.622 63.748 396.127 66.2394C394.671 68.7309 392.677 70.6666 390.147 72.0465C387.656 73.3881 384.858 74.0588 381.753 74.0588ZM381.753 67.0444C383.21 67.0444 384.57 66.6994 385.835 66.0095C387.139 65.2812 388.173 64.2079 388.94 62.7897C389.707 61.3715 390.09 59.6466 390.09 57.6151C390.09 54.587 389.285 52.268 387.675 50.6581C386.104 49.0099 384.168 48.1858 381.868 48.1858C379.568 48.1858 377.633 49.0099 376.061 50.6581C374.528 52.268 373.761 54.587 373.761 57.6151C373.761 60.6432 374.509 62.9814 376.004 64.6296C377.537 66.2394 379.453 67.0444 381.753 67.0444Z" fill="white"/>
<path d="M419.625 41.2289C423.42 41.2289 426.486 42.4363 428.824 44.8511C431.163 47.2276 432.332 50.5623 432.332 54.8553V73.5414H424.282V55.9477C424.282 53.4179 423.65 51.4822 422.385 50.1407C421.12 48.7608 419.395 48.0708 417.21 48.0708C414.987 48.0708 413.224 48.7608 411.921 50.1407C410.656 51.4822 410.023 53.4179 410.023 55.9477V73.5414H401.974V41.6888H410.023V45.656C411.097 44.2761 412.457 43.2029 414.106 42.4363C415.792 41.6313 417.632 41.2289 419.625 41.2289Z" fill="white"/>
<path d="M41.9482 40.8542V31.1702C30.1384 31.5766 20.6892 41.2785 20.6892 53.1873V54.729H0V53.1873C0 29.8516 18.7108 10.886 41.9482 10.4746V0L77.4066 20.8125L41.9482 40.8542Z" fill="white"/>
<path d="M60.1251 53.1875V54.7292C60.1251 66.6377 50.6765 76.3393 38.8672 76.7463V67.0628L3.40885 87.1045L38.8672 107.917V97.4419C62.1042 97.0299 80.8143 78.0645 80.8143 54.7292V53.1875H60.1251Z" fill="white"/>
</svg>
