<svg width="221" height="59" viewBox="0 0 221 59" fill="none" xmlns="http://www.w3.org/2000/svg">
<path d="M89.7433 54.3282C85.817 54.3282 82.4707 53.6143 79.7045 52.1866C76.9828 50.7588 74.6404 48.8403 72.6772 46.431L77.8975 41.5454C79.5483 43.5531 81.3553 45.0701 83.3184 46.0963C85.3262 47.1225 87.6017 47.6356 90.1449 47.6356C93.1342 47.6356 95.3874 46.9664 96.9044 45.6278C98.4214 44.2893 99.1799 42.4823 99.1799 40.2069C99.1799 38.3776 98.6445 36.9275 97.5736 35.8567C96.5028 34.7859 94.6066 33.9828 91.885 33.4473L87.7356 32.7112C83.1846 31.8634 79.7714 30.3688 77.4959 28.2271C75.2204 26.0855 74.0827 23.1408 74.0827 19.3929C74.0827 17.3405 74.4619 15.4889 75.2204 13.8381C76.0235 12.1426 77.1167 10.7372 78.4998 9.62177C79.9275 8.46172 81.6453 7.56937 83.6531 6.94473C85.6609 6.32009 87.914 6.00777 90.4126 6.00777C93.9373 6.00777 96.9936 6.63241 99.5814 7.88169C102.169 9.08636 104.378 10.8487 106.207 13.1688L100.92 17.8536C99.7153 16.292 98.2429 15.0428 96.5028 14.1058C94.7628 13.1688 92.5988 12.7004 90.011 12.7004C87.334 12.7004 85.2593 13.2358 83.7869 14.3066C82.3146 15.3774 81.5784 16.939 81.5784 18.9914C81.5784 20.9545 82.1807 22.4269 83.3854 23.4085C84.59 24.3454 86.464 25.0593 89.0071 25.5501L93.1565 26.4201C97.8413 27.3125 101.255 28.8295 103.396 30.9711C105.582 33.1127 106.676 36.0575 106.676 39.8053C106.676 41.9915 106.296 43.977 105.538 45.7617C104.779 47.5464 103.664 49.0857 102.192 50.3796C100.764 51.6289 99.0014 52.6104 96.9044 53.3243C94.8074 53.9936 92.4204 54.3282 89.7433 54.3282Z" fill="white"/>
<path d="M125.325 54.3282C122.826 54.3282 120.595 53.9043 118.632 53.0566C116.669 52.2089 115.018 51.0042 113.68 49.4426C112.341 47.8364 111.315 45.9179 110.601 43.687C109.887 41.4115 109.53 38.8906 109.53 36.1244C109.53 33.3581 109.887 30.8596 110.601 28.6287C111.315 26.3532 112.341 24.4347 113.68 22.8731C115.018 21.2669 116.669 20.0399 118.632 19.1922C120.595 18.3444 122.826 17.9206 125.325 17.9206C128.805 17.9206 131.66 18.7014 133.891 20.263C136.122 21.8246 137.751 23.8993 138.777 26.4871L132.754 29.298C132.263 27.6917 131.393 26.4201 130.143 25.4832C128.939 24.5016 127.333 24.0108 125.325 24.0108C122.648 24.0108 120.618 24.8585 119.235 26.554C117.896 28.2048 117.227 30.3688 117.227 33.0458V39.2699C117.227 41.9469 117.896 44.1332 119.235 45.8286C120.618 47.4795 122.648 48.3049 125.325 48.3049C127.466 48.3049 129.162 47.7918 130.411 46.7656C131.705 45.6948 132.731 44.2893 133.49 42.5493L139.045 45.494C137.885 48.3495 136.145 50.5357 133.824 52.0527C131.504 53.5697 128.671 54.3282 125.325 54.3282Z" fill="white"/>
<path d="M168.142 53.5251C166.223 53.5251 164.751 52.9897 163.725 51.9189C162.698 50.8034 162.074 49.398 161.851 47.7025H161.516C160.847 49.8888 159.62 51.5396 157.835 52.6551C156.05 53.7705 153.886 54.3282 151.343 54.3282C147.729 54.3282 144.941 53.3912 142.978 51.5173C141.059 49.6434 140.1 47.1225 140.1 43.9547C140.1 40.4746 141.349 37.8645 143.848 36.1244C146.391 34.3843 150.094 33.5143 154.957 33.5143H161.248V30.5695C161.248 28.4279 160.668 26.7771 159.508 25.617C158.348 24.457 156.541 23.877 154.087 23.877C152.035 23.877 150.362 24.3231 149.068 25.2155C147.774 26.1078 146.681 27.2456 145.788 28.6287L141.438 24.6801C142.598 22.7169 144.227 21.1107 146.324 19.8614C148.421 18.5675 151.165 17.9206 154.556 17.9206C159.062 17.9206 162.52 18.9691 164.929 21.0661C167.339 23.1631 168.543 26.1747 168.543 30.1011V47.5687H172.224V53.5251H168.142ZM153.418 48.7734C155.693 48.7734 157.567 48.2826 159.04 47.301C160.512 46.2748 161.248 44.914 161.248 43.2185V38.1991H155.091C150.049 38.1991 147.529 39.7607 147.529 42.8839V44.0886C147.529 45.6502 148.042 46.8325 149.068 47.6356C150.139 48.3941 151.589 48.7734 153.418 48.7734Z" fill="white"/>
<path d="M183.456 53.5251C180.958 53.5251 179.084 52.9005 177.834 51.6512C176.63 50.3573 176.027 48.5726 176.027 46.2971V4H183.322V47.5687H188.141V53.5251H183.456Z" fill="white"/>
<path d="M205.418 54.3282C202.92 54.3282 200.689 53.9043 198.726 53.0566C196.763 52.2089 195.089 51.0042 193.706 49.4426C192.323 47.8364 191.252 45.9179 190.494 43.687C189.78 41.4115 189.423 38.8906 189.423 36.1244C189.423 33.3581 189.78 30.8596 190.494 28.6287C191.252 26.3532 192.323 24.4347 193.706 22.8731C195.089 21.2669 196.763 20.0399 198.726 19.1922C200.689 18.3444 202.92 17.9206 205.418 17.9206C207.961 17.9206 210.192 18.3667 212.111 19.2591C214.074 20.1514 215.703 21.4007 216.996 23.0069C218.29 24.5685 219.25 26.3978 219.874 28.4948C220.544 30.5918 220.878 32.845 220.878 35.2543V37.9983H196.986V39.136C196.986 41.8131 197.766 44.0216 199.328 45.7617C200.934 47.4571 203.21 48.3049 206.154 48.3049C208.296 48.3049 210.103 47.8364 211.575 46.8994C213.048 45.9625 214.297 44.6909 215.323 43.0847L219.607 47.301C218.313 49.4426 216.439 51.1604 213.985 52.4543C211.531 53.7036 208.675 54.3282 205.418 54.3282ZM205.418 23.6093C204.169 23.6093 203.009 23.8323 201.938 24.2785C200.912 24.7247 200.02 25.3493 199.261 26.1524C198.547 26.9555 197.99 27.9148 197.588 29.0302C197.186 30.1457 196.986 31.3727 196.986 32.7112V33.1796H213.182V32.5104C213.182 29.8334 212.49 27.6917 211.107 26.0855C209.724 24.4347 207.828 23.6093 205.418 23.6093Z" fill="white"/>
<path d="M29 0H0V59H57V28H51V53H6V6H29V0Z" fill="white"/>
<path d="M36 6H46.7578L20 32.7578V22H14V43H35V37H24.2431L51 10.2431V21H57V0H36V6Z" fill="white"/>
</svg>
