<svg width="294" height="60" viewBox="0 0 294 60" fill="none" xmlns="http://www.w3.org/2000/svg">
<path d="M129.346 56.092C124.881 56.092 121.048 55.3028 117.845 53.7242C114.643 52.1457 112.027 50.0936 109.998 47.5679C108.013 45.0422 106.548 42.291 105.6 39.3143C104.653 36.3377 104.18 33.4737 104.18 30.7225V29.2342C104.18 26.1673 104.653 23.1455 105.6 20.1688C106.593 17.1921 108.104 14.4861 110.133 12.0506C112.163 9.61512 114.733 7.67576 117.845 6.23252C121.002 4.74417 124.723 4 129.008 4C133.473 4 137.352 4.81182 140.644 6.43547C143.982 8.01402 146.643 10.2691 148.627 13.2007C150.612 16.0872 151.807 19.4698 152.213 23.3485H142.538C142.178 21.0934 141.366 19.1991 140.103 17.6657C138.885 16.0872 137.329 14.9145 135.435 14.1478C133.541 13.336 131.398 12.9301 129.008 12.9301C126.572 12.9301 124.408 13.3585 122.513 14.2155C120.619 15.0273 119.041 16.1999 117.778 17.7334C116.515 19.2668 115.545 21.0709 114.869 23.1455C114.237 25.2202 113.922 27.5203 113.922 30.046C113.922 32.4815 114.237 34.7366 114.869 36.8112C115.545 38.8859 116.537 40.7125 117.845 42.291C119.153 43.8245 120.754 45.0197 122.649 45.8766C124.588 46.7335 126.821 47.162 129.346 47.162C133.045 47.162 136.157 46.2599 138.682 44.4559C141.253 42.6067 142.809 40.036 143.35 36.7436H153.024C152.573 40.2615 151.378 43.4862 149.439 46.4178C147.5 49.3494 144.839 51.6946 141.456 53.4536C138.073 55.2126 134.037 56.092 129.346 56.092Z" fill="white"/>
<path d="M157.478 54.8066V5.42069H166.881V54.8066H157.478ZM152.877 12.4565V5.42069H166.881V12.4565H152.877Z" fill="white"/>
<path d="M191.892 56.092C188.644 56.092 185.78 55.5734 183.3 54.536C180.819 53.4987 178.722 52.1006 177.008 50.3416C175.294 48.5376 173.986 46.508 173.084 44.2529C172.227 41.9979 171.799 39.6526 171.799 37.2171V35.7964C171.799 33.2708 172.25 30.8804 173.152 28.6253C174.099 26.3252 175.43 24.2956 177.143 22.5366C178.902 20.7326 181.022 19.3345 183.503 18.3422C185.983 17.3049 188.78 16.7862 191.892 16.7862C195.004 16.7862 197.8 17.3049 200.28 18.3422C202.761 19.3345 204.858 20.7326 206.572 22.5366C208.331 24.2956 209.661 26.3252 210.563 28.6253C211.466 30.8804 211.917 33.2708 211.917 35.7964V37.2171C211.917 39.6526 211.466 41.9979 210.563 44.2529C209.707 46.508 208.421 48.5376 206.707 50.3416C204.993 52.1006 202.896 53.4987 200.416 54.536C197.935 55.5734 195.094 56.092 191.892 56.092ZM191.892 48.0414C194.192 48.0414 196.131 47.5453 197.71 46.5531C199.288 45.5158 200.483 44.1402 201.295 42.4263C202.107 40.6674 202.513 38.6829 202.513 36.473C202.513 34.2179 202.084 32.2334 201.228 30.5196C200.416 28.7606 199.198 27.385 197.574 26.3928C195.996 25.3555 194.102 24.8368 191.892 24.8368C189.682 24.8368 187.765 25.3555 186.141 26.3928C184.563 27.385 183.345 28.7606 182.488 30.5196C181.631 32.2334 181.203 34.2179 181.203 36.473C181.203 38.6829 181.608 40.6674 182.42 42.4263C183.277 44.1402 184.495 45.5158 186.073 46.5531C187.652 47.5453 189.591 48.0414 191.892 48.0414Z" fill="white"/>
<path d="M229.284 55.9567C225.044 55.9567 221.752 54.5586 219.406 51.7623C217.106 48.966 215.956 44.8167 215.956 39.3143V18.004H225.36V40.1262C225.36 42.3812 225.991 44.1853 227.254 45.5383C228.517 46.8463 230.231 47.5002 232.396 47.5002C234.56 47.5002 236.319 46.8012 237.672 45.403C239.071 44.0049 239.77 42.1106 239.77 39.7203V18.004H249.173V54.8066H241.732V39.179H242.476C242.476 42.8773 242.002 45.9668 241.055 48.4474C240.108 50.9279 238.687 52.7996 236.793 54.0625C234.899 55.3253 232.531 55.9567 229.689 55.9567H229.284Z" fill="white"/>
<path d="M271.814 56.0244C269.244 56.0244 266.876 55.5508 264.711 54.6037C262.546 53.6566 260.674 52.3261 259.096 50.6122C257.517 48.8984 256.3 46.9139 255.443 44.6588C254.586 42.3587 254.157 39.8781 254.157 37.2171V35.7964C254.157 33.1806 254.563 30.7225 255.375 28.4224C256.232 26.1222 257.405 24.1152 258.893 22.4013C260.426 20.6875 262.253 19.357 264.373 18.4099C266.538 17.4176 268.928 16.9215 271.544 16.9215C274.43 16.9215 276.956 17.553 279.121 18.8158C281.331 20.0335 283.09 21.8827 284.398 24.3633C285.706 26.8438 286.427 29.9558 286.563 33.6992L283.789 30.4519V5.42069H293.192V54.8066H285.751V39.179H287.374C287.239 42.9224 286.472 46.057 285.074 48.5827C283.676 51.0632 281.827 52.9349 279.527 54.1978C277.272 55.4155 274.701 56.0244 271.814 56.0244ZM273.912 48.1091C275.761 48.1091 277.452 47.7032 278.986 46.8914C280.519 46.0344 281.737 44.8167 282.639 43.2382C283.586 41.6145 284.059 39.7202 284.059 37.5554V34.8493C284.059 32.6844 283.586 30.8804 282.639 29.4371C281.692 27.9488 280.451 26.8213 278.918 26.0546C277.384 25.2427 275.716 24.8368 273.912 24.8368C271.882 24.8368 270.078 25.3329 268.499 26.3252C266.966 27.2723 265.748 28.6253 264.846 30.3843C263.989 32.1432 263.561 34.1953 263.561 36.5406C263.561 38.8859 264.012 40.938 264.914 42.6969C265.816 44.4108 267.034 45.7413 268.567 46.6884C270.146 47.6355 271.927 48.1091 273.912 48.1091Z" fill="white"/>
<path d="M68.751 60C65.502 60 63.5 58.5 60.2295 56.7334C56.959 54.9668 47.5 47.854 47.5 39C47.5 32.9937 45.9517 28.1357 43.3149 24.2642C40.6978 20.4224 37.1523 17.7607 33.4639 15.8818C31.6865 14.9766 29.8369 14.2363 27.9951 13.6245C26.9214 13.2681 26.2983 12.1152 26.7642 11.0845C29.7168 4.54785 36.2925 0 43.9312 0C54.3291 0 62.7588 8.4292 62.7588 18.8276C62.7588 21.0522 62.373 23.187 61.6646 25.168C64.6655 23.1455 68.2812 21.9653 72.1724 21.9653C82.5703 21.9653 91 30.3945 91 40.793C91 53.311 80 60 68.751 60Z" fill="white"/>
<path d="M0 39.2241C0 49.1484 6.54297 57.4175 15.2109 59.2446C16.5488 59.7334 17.9932 60 19.5 60H48.7524C49.7334 60 50.1606 58.688 49.4116 58.0542C44.2993 53.7285 40.5 47.6323 40.5 39C40.5 34.2568 39.2988 30.8022 37.5293 28.2051C35.7397 25.5781 33.2227 23.6147 30.2866 22.1187C27.3232 20.6094 24.106 19.6479 21.0337 18.9663C20.3101 18.875 19.5737 18.8276 18.8276 18.8276C8.4292 18.8276 0 27.9595 0 39.2241Z" fill="white"/>
</svg>
