<svg width="315" height="82" viewBox="0 0 315 82" fill="none" xmlns="http://www.w3.org/2000/svg">
<path d="M79.6041 28.5475C81.9472 30.8907 81.9472 34.6897 79.6041 37.0328L37.0328 79.6041C34.6897 81.9472 30.8907 81.9472 28.5475 79.6041L1.75736 52.8139C-0.585788 50.4708 -0.585785 46.6718 1.75736 44.3286L44.3286 1.75736C46.6718 -0.585789 50.4708 -0.585784 52.8139 1.75736L79.6041 28.5475Z" fill="white"/>
<path d="M89.604 37.0328C91.9471 34.6897 91.9471 30.8907 89.604 28.5475L69.9051 8.8487L76.9965 1.75736C79.3396 -0.585789 83.1386 -0.585784 85.4818 1.75736L112.272 28.5475C114.615 30.8907 114.615 34.6897 112.272 37.0328L69.7007 79.6041C67.3575 81.9472 63.5585 81.9472 61.2154 79.6041L54.124 72.5127L89.604 37.0328Z" fill="white"/>
<path d="M159.25 43.6772C161.511 44.0988 163.37 45.2296 164.827 47.0694C166.283 48.9093 167.012 51.0175 167.012 53.3939C167.012 55.5404 166.475 57.4378 165.402 59.086C164.367 60.6959 162.853 61.9608 160.86 62.8807C158.866 63.8006 156.509 64.2606 153.788 64.2606H136.481V24.1287H153.04C155.762 24.1287 158.1 24.5695 160.055 25.4511C162.048 26.3327 163.543 27.5593 164.539 29.1308C165.574 30.7023 166.092 32.4847 166.092 34.4779C166.092 36.816 165.459 38.7709 164.194 40.3424C162.968 41.914 161.32 43.0256 159.25 43.6772ZM144.531 40.6874H151.89C153.807 40.6874 155.283 40.2658 156.317 39.4225C157.352 38.5409 157.87 37.2952 157.87 35.6853C157.87 34.0754 157.352 32.8297 156.317 31.9481C155.283 31.0665 153.807 30.6257 151.89 30.6257H144.531V40.6874ZM152.638 57.7061C154.593 57.7061 156.107 57.2461 157.18 56.3262C158.291 55.4063 158.847 54.103 158.847 52.4165C158.847 50.6916 158.272 49.3501 157.122 48.3918C155.972 47.3952 154.42 46.8969 152.465 46.8969H144.531V57.7061H152.638Z" fill="white"/>
<path d="M185.271 64.7781C182.205 64.7781 179.445 64.1073 176.992 62.7657C174.538 61.3858 172.603 59.4501 171.185 56.9587C169.805 54.4672 169.115 51.5924 169.115 48.3343C169.115 45.0762 169.824 42.2015 171.242 39.71C172.699 37.2185 174.673 35.302 177.164 33.9604C179.656 32.5805 182.434 31.8906 185.501 31.8906C188.567 31.8906 191.346 32.5805 193.838 33.9604C196.329 35.302 198.284 37.2185 199.702 39.71C201.159 42.2015 201.887 45.0762 201.887 48.3343C201.887 51.5924 201.14 54.4672 199.645 56.9587C198.188 59.4501 196.195 61.3858 193.665 62.7657C191.174 64.1073 188.376 64.7781 185.271 64.7781ZM185.271 57.7636C186.727 57.7636 188.088 57.4186 189.353 56.7287C190.656 56.0004 191.691 54.9272 192.458 53.5089C193.224 52.0907 193.608 50.3658 193.608 48.3343C193.608 45.3062 192.803 42.9872 191.193 41.3774C189.621 39.7292 187.686 38.905 185.386 38.905C183.086 38.905 181.15 39.7292 179.579 41.3774C178.046 42.9872 177.279 45.3062 177.279 48.3343C177.279 51.3624 178.026 53.7006 179.521 55.3488C181.055 56.9587 182.971 57.7636 185.271 57.7636Z" fill="white"/>
<path d="M213.541 37.3527C214.576 35.6661 215.918 34.3437 217.566 33.3855C219.252 32.4272 221.169 31.9481 223.316 31.9481V40.3999H221.188C218.658 40.3999 216.742 40.9941 215.439 42.1823C214.174 43.3705 213.541 45.4404 213.541 48.3918V64.2606H205.492V32.408H213.541V37.3527Z" fill="white"/>
<path d="M224.367 48.2193C224.367 44.9996 225 42.144 226.265 39.6525C227.568 37.161 229.331 35.2445 231.554 33.9029C233.778 32.5614 236.25 31.8906 238.971 31.8906C241.041 31.8906 243.015 32.3505 244.893 33.2705C246.772 34.1521 248.266 35.3403 249.378 36.8352V21.7139H257.542V64.2606H249.378V59.546C248.381 61.1175 246.982 62.3824 245.181 63.3407C243.379 64.2989 241.29 64.7781 238.914 64.7781C236.231 64.7781 233.778 64.0881 231.554 62.7082C229.331 61.3283 227.568 59.3926 226.265 56.9012C225 54.3714 224.367 51.4774 224.367 48.2193ZM249.436 48.3343C249.436 46.3795 249.052 44.7121 248.286 43.3322C247.519 41.914 246.484 40.8407 245.181 40.1125C243.878 39.3458 242.479 38.9625 240.984 38.9625C239.489 38.9625 238.109 39.3267 236.844 40.055C235.579 40.7832 234.544 41.8565 233.739 43.2747C232.973 44.6546 232.589 46.3028 232.589 48.2193C232.589 50.1358 232.973 51.8224 233.739 53.2789C234.544 54.6972 235.579 55.7896 236.844 56.5562C238.147 57.3228 239.527 57.7061 240.984 57.7061C242.479 57.7061 243.878 57.342 245.181 56.6137C246.484 55.8471 247.519 54.7738 248.286 53.3939C249.052 51.9757 249.436 50.2892 249.436 48.3343Z" fill="white"/>
<path d="M292.714 47.6444C292.714 48.7943 292.638 49.8292 292.484 50.7491H269.199C269.39 53.049 270.195 54.8505 271.614 56.1537C273.032 57.457 274.776 58.1086 276.846 58.1086C279.835 58.1086 281.963 56.8245 283.228 54.2564H291.91C290.99 57.3228 289.226 59.8526 286.62 61.8458C284.013 63.8006 280.813 64.7781 277.018 64.7781C273.952 64.7781 271.192 64.1073 268.739 62.7657C266.324 61.3858 264.427 59.4501 263.047 56.9587C261.705 54.4672 261.034 51.5924 261.034 48.3343C261.034 45.0379 261.705 42.144 263.047 39.6525C264.388 37.161 266.267 35.2445 268.681 33.9029C271.096 32.5614 273.875 31.8906 277.018 31.8906C280.046 31.8906 282.749 32.5422 285.125 33.8454C287.54 35.1487 289.399 37.0077 290.702 39.4225C292.044 41.799 292.714 44.5396 292.714 47.6444ZM284.378 45.3446C284.339 43.2747 283.592 41.6265 282.135 40.3999C280.679 39.135 278.896 38.5026 276.788 38.5026C274.795 38.5026 273.108 39.1159 271.729 40.3424C270.387 41.5307 269.563 43.198 269.256 45.3446H284.378Z" fill="white"/>
<path d="M304.339 37.3527C305.374 35.6661 306.716 34.3437 308.364 33.3855C310.051 32.4272 311.967 31.9481 314.114 31.9481V40.3999H311.986C309.456 40.3999 307.54 40.9941 306.237 42.1823C304.972 43.3705 304.339 45.4404 304.339 48.3918V64.2606H296.29V32.408H304.339V37.3527Z" fill="white"/>
</svg>
