<svg width="276" height="90" viewBox="0 0 276 90" fill="none" xmlns="http://www.w3.org/2000/svg">
<path d="M0 6.39267C3.20001 7.84944 6.22091 10.8917 7.84444 15.6359C12.2157 28.4094 26.1847 37.1135 38.2899 30.4989C43.086 27.8782 51.3604 30.7113 54.4789 39.8243C58.8502 52.5978 72.8192 61.3019 84.9244 54.6873C86.1606 54.0118 87.6279 53.6987 89.1784 53.762V62.8493C84.5218 61.3754 79.4497 61.5982 74.6684 64.2108C69.8723 66.8315 61.5979 63.9984 58.4793 54.8854C54.1081 42.1119 40.1391 33.4078 28.0339 40.0224C23.2378 42.6431 14.9634 39.81 11.8448 30.697C9.72223 24.4943 5.3365 19.2512 0 16.2557V6.39267Z" fill="white"/>
<path d="M8.52089 0C12.4519 3.0752 15.6052 7.42872 17.3058 12.3981C20.4243 21.5111 28.6987 24.3442 33.4948 21.7236C45.6 15.1089 59.569 23.8131 63.9403 36.5866C67.0588 45.6996 75.3332 48.5327 80.1293 45.912C83.0901 44.2941 86.1623 43.5927 89.1784 43.6431V0H8.52089Z" fill="white"/>
<path d="M0 29.2653V38.8986C2.72488 41.6926 4.89639 45.1547 6.20617 48.9821C9.32474 58.0951 17.5991 60.9282 22.3952 58.3075C34.5004 51.6929 48.4694 60.3971 52.8407 73.1705C55.9592 82.2835 64.2336 85.1166 69.0297 82.496C75.8358 78.7769 83.2311 79.9005 89.1784 83.8671V73.7983C85.852 71.7567 82.1229 71.5329 79.4635 72.9862C67.3582 79.6008 53.3892 70.8966 49.018 58.1232C45.8994 49.0102 37.625 46.1771 32.829 48.7977C20.7238 55.4124 6.75472 46.7082 2.38351 33.9347C1.76782 32.1356 0.951169 30.5812 0 29.2653Z" fill="white"/>
<path d="M52.6518 89.1784C48.4943 86.0874 45.1497 81.5816 43.3793 76.4083C40.2607 67.2953 31.9864 64.4622 27.1903 67.0829C17.2795 72.4984 6.11939 67.6457 0 58.6984V89.1784H52.6518Z" fill="white"/>
<path fill-rule="evenodd" clip-rule="evenodd" d="M127.291 19C131.851 19 135.834 19.668 139.241 21.0034C142.649 22.3389 145.481 24.1807 147.738 26.5293C149.994 28.832 151.676 31.48 152.78 34.4731C153.932 37.4209 154.508 40.4829 154.508 43.6606V45.1802C154.508 48.2197 153.932 51.2129 152.78 54.1606C151.676 57.1079 149.994 59.7788 147.738 62.1733C145.481 64.5679 142.649 66.4795 139.241 67.9067C135.834 69.3345 131.851 70.0483 127.291 70.0483H109.055V19H127.291ZM127.913 60.9302H118.863V28.1182H127.913C130.538 28.1182 132.863 28.4868 134.89 29.2236C136.962 29.9604 138.712 31.0425 140.14 32.4702C141.567 33.8979 142.649 35.6245 143.386 37.6509C144.169 39.6313 144.561 41.8877 144.561 44.4204C144.561 46.8613 144.169 49.0947 143.386 51.1211C142.649 53.1011 141.567 54.8281 140.14 56.3018C138.712 57.7754 136.962 58.9268 134.89 59.7559C132.863 60.5386 130.538 60.9302 127.913 60.9302Z" fill="white"/>
<path d="M161.771 66.6636C164.166 69.5186 167.528 70.9463 171.856 70.9463H172.271C175.173 70.9463 177.591 70.3018 179.524 69.0122C181.459 67.7227 182.909 65.8115 183.876 63.2788C184.144 62.5786 184.374 61.8311 184.567 61.0361V69.772H192.166V32.1938H182.563V54.3677C182.563 56.8086 181.851 58.7427 180.423 60.1704C179.041 61.5977 177.245 62.3115 175.034 62.3115C172.824 62.3115 171.074 61.644 169.784 60.3081C168.495 58.9268 167.851 57.0845 167.851 54.7822V32.1938H158.249V53.9531C158.249 59.5713 159.423 63.8081 161.771 66.6636Z" fill="white"/>
<path d="M199.741 69.772V32.2627H207.34V41.5078C207.562 40.5449 207.839 39.6509 208.169 38.8252C209.183 36.2466 210.679 34.312 212.659 33.0229C214.686 31.7334 217.195 31.0884 220.188 31.0884H220.603C225.07 31.0884 228.455 32.5391 230.758 35.4404C233.06 38.2954 234.211 42.5786 234.211 48.2891V69.772H224.609V47.46C224.609 45.1572 223.941 43.2925 222.606 41.8647C221.316 40.437 219.521 39.7231 217.218 39.7231C214.869 39.7231 212.958 40.46 211.484 41.9336C210.057 43.3613 209.344 45.2954 209.344 47.7363V69.772H199.741Z" fill="white"/>
<path fill-rule="evenodd" clip-rule="evenodd" d="M249.369 69.4268C251.811 70.5317 254.643 71.0845 257.866 71.0845C260.951 71.0845 263.691 70.5547 266.086 69.4956C268.527 68.4365 270.53 66.9399 272.096 65.0054C273.662 63.0713 274.721 60.8149 275.273 58.2358H266.432C266.017 59.6177 265.073 60.792 263.6 61.7588C262.126 62.6802 260.215 63.1406 257.866 63.1406C255.518 63.1406 253.583 62.6338 252.063 61.6206C250.544 60.5615 249.415 59.1338 248.679 57.3379C248.188 56.1143 247.861 54.7788 247.697 53.3315H275.896V49.8774C275.896 46.562 275.204 43.4766 273.823 40.6211C272.441 37.7202 270.369 35.3945 267.605 33.6445C264.889 31.8486 261.504 30.9502 257.451 30.9502C254.366 30.9502 251.649 31.5029 249.301 32.6084C246.952 33.6675 244.972 35.1182 243.359 36.96C241.794 38.7563 240.597 40.8286 239.768 43.1772C238.984 45.4795 238.594 47.8745 238.594 50.3613V51.6738C238.594 54.0684 238.984 56.417 239.768 58.7197C240.597 61.022 241.794 63.1177 243.359 65.0054C244.972 66.8477 246.975 68.3213 249.369 69.4268ZM247.861 47.46C248.046 46.4048 248.318 45.4375 248.679 44.5586C249.103 43.562 249.627 42.6938 250.253 41.9531C250.783 41.3247 251.387 40.7886 252.063 40.3447C253.537 39.3779 255.333 38.8945 257.451 38.8945C259.569 38.8945 261.319 39.355 262.701 40.2759C264.129 41.1968 265.188 42.5093 265.879 44.2134C266.053 44.6426 266.205 45.0938 266.335 45.5669C266.398 45.7959 266.456 46.0298 266.509 46.269C266.594 46.6528 266.665 47.0498 266.723 47.46H247.861Z" fill="white"/>
</svg>
