<svg width="412" height="104" viewBox="0 0 412 104" fill="none" xmlns="http://www.w3.org/2000/svg">
<path fill-rule="evenodd" clip-rule="evenodd" d="M103.471 2.47592C107.416 4.11051 111 6.50633 114.019 9.52651C117.039 12.5453 119.435 16.1295 121.07 20.0744C122.704 24.0194 123.545 28.2477 123.545 32.5179C123.545 36.7881 122.704 41.0164 121.07 44.9614C119.435 48.9063 117.039 52.4905 114.019 55.5093L68.9204 100.608C64.972 104.556 58.5703 104.556 54.6219 100.608L9.52335 55.5093C3.42565 49.4116 0 41.1413 0 32.5179C0 23.8945 3.42565 15.6242 9.52335 9.52651C15.621 3.42881 23.8913 0.00316078 32.5147 0.00316071C41.1382 0.00316065 49.4084 3.42881 55.5061 9.52651L61.7712 15.7915L68.0362 9.52651C71.0549 6.50633 74.6392 4.11051 78.5841 2.47592C82.529 0.841327 86.7574 0 91.0276 0C95.2977 0 99.5261 0.841327 103.471 2.47592ZM44.7909 35.3541C40.1799 42.2695 36.7588 49.2269 36.7588 56.7723C36.7588 67.8882 43.1235 78.3396 52.249 82.3939L55.369 77.9539C59.1358 73.6493 65.2451 73.6474 69.0137 77.9539L71.5628 80.8654C80.6883 76.8103 86.288 67.3048 86.288 56.7705C86.288 43.687 75.5445 35.1517 75.5445 35.1517C74.465 34.1293 73.5668 34.5383 73.5631 36.0098C73.5631 36.0098 74.24 48.7404 67.547 48.7404C64.1381 48.7404 64.0774 45.493 63.9892 40.7721C63.8772 34.7769 63.7208 26.4054 56.6064 19.2911C53.8032 16.8882 52.6772 15.923 52.1595 16.1806C50.9467 16.7839 53.0716 24.0967 44.7909 35.3541ZM74.3371 24.5853C71.9252 20.8644 67.2472 18.7234 65.1827 19.081C64.2904 19.2351 64.5559 19.529 65.244 20.2906C66.1481 21.2912 67.7817 23.0991 68.4778 26.4584C69.7057 32.3717 77.7051 29.9607 74.3371 24.5853Z" fill="white"/>
<path d="M209.797 36.748C208.066 33.5749 205.686 31.159 202.658 29.5003C199.629 27.8416 196.095 27.0122 192.056 27.0122C187.585 27.0122 183.619 28.0219 180.157 30.0411C176.695 32.0604 173.991 34.9451 172.044 38.6952C170.097 42.4453 169.123 46.7723 169.123 51.6762C169.123 56.7244 170.097 61.1235 172.044 64.8736C174.063 68.6237 176.84 71.5084 180.373 73.5276C183.907 75.5469 188.018 76.5565 192.705 76.5565C198.475 76.5565 203.198 75.0421 206.876 72.0132C210.554 68.9121 212.97 64.6212 214.124 59.1403H188.162V47.5655H229.052V60.7629C228.043 66.0275 225.879 70.8954 222.562 75.3666C219.244 79.8379 214.953 83.4437 209.689 86.1841C204.496 88.8525 198.655 90.1866 192.164 90.1866C184.881 90.1866 178.282 88.564 172.368 85.3187C166.527 82.0014 161.911 77.4219 158.522 71.5805C155.205 65.739 153.546 59.1043 153.546 51.6762C153.546 44.2482 155.205 37.6134 158.522 31.7719C161.911 25.8584 166.527 21.2789 172.368 18.0337C178.282 14.7163 184.845 13.0576 192.056 13.0576C200.566 13.0576 207.958 15.149 214.232 19.3318C220.506 23.4424 224.833 29.2479 227.213 36.748H209.797Z" fill="white"/>
<path d="M290.558 58.2749C290.558 60.4384 290.414 62.3856 290.126 64.1164H246.315C246.675 68.4434 248.19 71.8329 250.858 74.2849C253.526 76.7368 256.808 77.9628 260.702 77.9628C266.327 77.9628 270.33 75.5469 272.709 70.7151H289.044C287.313 76.4844 283.996 81.2441 279.092 84.9942C274.188 88.6722 268.166 90.5112 261.027 90.5112C255.257 90.5112 250.065 89.2491 245.449 86.725C240.906 84.1288 237.336 80.4869 234.74 75.7993C232.216 71.1117 230.954 65.7029 230.954 59.573C230.954 53.371 232.216 47.9261 234.74 43.2385C237.264 38.5509 240.798 34.9451 245.341 32.421C249.884 29.8969 255.113 28.6349 261.027 28.6349C266.724 28.6349 271.808 29.8609 276.279 32.3128C280.823 34.7648 284.32 38.2625 286.772 42.8058C289.296 47.2771 290.558 52.4334 290.558 58.2749ZM274.873 53.9479C274.801 50.0536 273.395 46.9526 270.654 44.6448C267.914 42.265 264.56 41.075 260.594 41.075C256.844 41.075 253.671 42.2289 251.074 44.5366C248.55 46.7723 247 49.9094 246.423 53.9479H274.873Z" fill="white"/>
<path d="M329.414 28.743C336.553 28.743 342.323 31.0147 346.722 35.5581C351.121 40.0293 353.32 46.3035 353.32 54.3806V89.5376H338.176V56.4359C338.176 51.6762 336.986 48.0343 334.606 45.5102C332.226 42.914 328.981 41.6159 324.87 41.6159C320.688 41.6159 317.37 42.914 314.918 45.5102C312.538 48.0343 311.348 51.6762 311.348 56.4359V89.5376H296.204V29.6084H311.348V37.0725C313.368 34.4763 315.928 32.4571 319.029 31.0147C322.202 29.5003 325.664 28.743 329.414 28.743Z" fill="white"/>
<path d="M377.782 76.7729H411.749V89.5376H360.258V77.8546L394.009 26.7959H360.258V14.0312H411.749V25.7141L377.782 76.7729Z" fill="white"/>
</svg>
