<svg width="344" height="72" viewBox="0 0 344 72" fill="none" xmlns="http://www.w3.org/2000/svg">
<path d="M82.9824 60.6593V50.4525H89.2022V12.0974H82.9824V1.89062H107.542V12.0974H101.323L101.163 50.4525H107.542V60.6593H82.9824Z" fill="white"/>
<path d="M113.14 60.6593V18.9551H125.421V25.4938L132.677 18.9551H147.269L156.121 27.886V60.6593H143.841V30.039L140.81 26.9291H134.511L125.421 35.3018V60.6593H113.14Z" fill="white"/>
<path d="M163.048 60.6593V51.5689H185.216L187.927 48.8577V46.7047L184.977 43.6746H169.188L160.895 35.7803V26.8494L169.108 19.0348H195.821V28.0455H175.408L172.936 30.6769V32.192L175.806 35.1424H191.755L200.048 42.9569V52.765L191.834 60.6593H163.048Z" fill="white"/>
<path d="M205.225 71.6151V18.1761H217.505V23.6782L223.406 18.0964H238.397L247.248 27.0273V50.9494L238.397 59.8006H223.486L217.505 54.2985V71.6151H205.225ZM225.16 51.8266H232.497L235.208 49.0356V28.9411L232.497 26.0704L225.16 26.1502L217.505 33.3268V44.6499L225.16 51.8266Z" fill="white"/>
<path d="M253.418 14.4099V3.88414H265.698V14.4099H253.418ZM253.418 60.6593V18.9551H265.698V60.6593H253.418Z" fill="white"/>
<path d="M272.87 60.6593V18.9551H285.15V25.8925L292.407 19.0348H301.258V30.5174H290.573L285.15 35.7005V60.6593H272.87Z" fill="white"/>
<path d="M313.819 60.6593L304.968 51.8081V27.886L313.819 19.0348H335.03L343.961 27.886V43.5151H317.248V48.2995L320.438 51.4891L343.244 51.4094V60.6593H313.819ZM317.169 35.4613H332.319V30.039L329.13 26.8494L320.438 26.9291L317.169 30.039V35.4613Z" fill="white"/>
<path d="M47.1143 7.56269H40.4872V0H60.0242V19.5369H52.4615V12.9108L5.70846 59.6638L0.360831 54.3162L47.1143 7.56269Z" fill="white"/>
<path d="M5.34763 4.25865L0 9.60627L19.0972 28.7034L24.4448 23.3558L5.34763 4.25865Z" fill="white"/>
<path d="M31.3203 40.9266L36.668 35.579L52.4615 51.3725V44.7459H60.0242V64.2828H40.4872V56.7201H47.1139L31.3203 40.9266Z" fill="white"/>
</svg>
