<svg width="397" height="109" viewBox="0 0 397 109" fill="none" xmlns="http://www.w3.org/2000/svg">
<path d="M49.1824 108.717H13.8062L49.1824 55.2211H84.5586L49.1824 108.717Z" fill="white"/>
<path d="M36.239 0H72.4781L36.239 55.2214H0L36.239 0Z" fill="white"/>
<path d="M156.728 46.538C156.728 49.8187 155.937 52.8943 154.355 55.7648C152.832 58.6354 150.401 60.9494 147.062 62.7069C143.781 64.4644 139.622 65.3431 134.584 65.3431H124.302V88.8935H112V27.5572H134.584C139.329 27.5572 143.371 28.3774 146.71 30.0177C150.05 31.658 152.539 33.9134 154.18 36.784C155.879 39.6546 156.728 42.9059 156.728 46.538ZM134.056 55.4133C137.454 55.4133 139.973 54.6518 141.614 53.1286C143.254 51.5469 144.074 49.35 144.074 46.538C144.074 40.5626 140.735 37.5749 134.056 37.5749H124.302V55.4133H134.056Z" fill="white"/>
<path d="M174.25 47.7683C175.832 45.1906 177.882 43.1695 180.401 41.705C182.979 40.2404 185.908 39.5081 189.189 39.5081V52.4256H185.937C182.071 52.4256 179.142 53.3337 177.15 55.1497C175.217 56.9658 174.25 60.1293 174.25 64.6402V88.8935H161.948V40.2111H174.25V47.7683Z" fill="white"/>
<path d="M215.577 89.6843C210.89 89.6843 206.672 88.6591 202.923 86.6087C199.174 84.4997 196.215 81.5413 194.048 77.7334C191.939 73.9255 190.884 69.5318 190.884 64.5523C190.884 59.5727 191.968 55.179 194.136 51.3711C196.362 47.5632 199.379 44.6341 203.187 42.5837C206.995 40.4747 211.242 39.4202 215.929 39.4202C220.615 39.4202 224.862 40.4747 228.67 42.5837C232.478 44.6341 235.466 47.5632 237.633 51.3711C239.86 55.179 240.973 59.5727 240.973 64.5523C240.973 69.5318 239.83 73.9255 237.546 77.7334C235.319 81.5413 232.273 84.4997 228.407 86.6087C224.599 88.6591 220.322 89.6843 215.577 89.6843ZM215.577 78.9637C217.803 78.9637 219.883 78.4364 221.816 77.3819C223.808 76.2689 225.39 74.6285 226.561 72.461C227.733 70.2934 228.319 67.6572 228.319 64.5523C228.319 59.9242 227.089 56.38 224.628 53.9195C222.226 51.4004 219.268 50.1409 215.753 50.1409C212.238 50.1409 209.279 51.4004 206.877 53.9195C204.534 56.38 203.363 59.9242 203.363 64.5523C203.363 69.1803 204.505 72.7539 206.79 75.2729C209.133 77.7334 212.062 78.9637 215.577 78.9637Z" fill="white"/>
<path d="M258.784 79.1394H271.996V88.8935H246.482V20H258.784V79.1394Z" fill="white"/>
<path d="M281.539 34.4114C279.371 34.4114 277.555 33.7377 276.091 32.3903C274.685 30.9843 273.982 29.2561 273.982 27.2057C273.982 25.1553 274.685 23.4564 276.091 22.109C277.555 20.703 279.371 20 281.539 20C283.707 20 285.493 20.703 286.899 22.109C288.364 23.4564 289.096 25.1553 289.096 27.2057C289.096 29.2561 288.364 30.9843 286.899 32.3903C285.493 33.7377 283.707 34.4114 281.539 34.4114ZM287.602 40.2111V88.8935H275.3V40.2111H287.602Z" fill="white"/>
<path d="M323.22 39.5081C329.019 39.5081 333.706 41.3535 337.28 45.0442C340.853 48.6763 342.64 53.773 342.64 60.3343V88.8935H330.337V62.0039C330.337 58.1375 329.371 55.179 327.438 53.1286C325.504 51.0196 322.868 49.9651 319.529 49.9651C316.131 49.9651 313.436 51.0196 311.444 53.1286C309.511 55.179 308.545 58.1375 308.545 62.0039V88.8935H296.242V40.2111H308.545V46.2744C310.185 44.1654 312.265 42.5251 314.784 41.3535C317.361 40.1232 320.173 39.5081 323.22 39.5081Z" fill="white"/>
<path d="M396.079 63.4978C396.079 65.2553 395.962 66.837 395.728 68.243H360.139C360.431 71.758 361.662 74.5114 363.829 76.5032C365.997 78.495 368.662 79.4909 371.826 79.4909C376.395 79.4909 379.647 77.5284 381.58 73.6033H394.849C393.443 78.29 390.748 82.1564 386.764 85.2027C382.781 88.1905 377.889 89.6843 372.089 89.6843C367.403 89.6843 363.185 88.6591 359.436 86.6087C355.745 84.4997 352.845 81.5413 350.736 77.7334C348.686 73.9255 347.66 69.5318 347.66 64.5523C347.66 59.5142 348.686 55.0911 350.736 51.2833C352.786 47.4754 355.657 44.5462 359.348 42.4958C363.038 40.4454 367.286 39.4202 372.089 39.4202C376.717 39.4202 380.848 40.4161 384.48 42.4079C388.17 44.3998 391.012 47.241 393.004 50.9318C395.054 54.5639 396.079 58.7526 396.079 63.4978ZM383.337 59.9828C383.279 56.8193 382.136 54.3003 379.91 52.4256C377.684 50.4924 374.96 49.5258 371.738 49.5258C368.692 49.5258 366.114 50.4631 364.005 52.3377C361.955 54.1538 360.695 56.7022 360.226 59.9828H383.337Z" fill="white"/>
</svg>
