<svg width="483" height="126" viewBox="0 0 483 126" fill="none" xmlns="http://www.w3.org/2000/svg">
<path fill-rule="evenodd" clip-rule="evenodd" d="M205.034 95.8869L179.023 54.9645H167.187V95.8869H158.562V0H188.986C192.24 0 195.294 0.62409 198.147 1.87227C201 3.07587 203.496 4.74754 205.636 6.88727C207.775 9.02701 209.447 11.5457 210.651 14.4432C211.899 17.2962 212.523 20.3498 212.523 23.604V31.3605C212.523 34.6147 211.899 37.6905 210.651 40.5881C209.447 43.4411 207.775 45.9374 205.636 48.0772C203.496 50.2169 201 51.9109 198.147 53.159C195.294 54.3627 192.24 54.9645 188.986 54.9645L214.997 95.8869H205.034ZM203.897 23.604C203.897 21.4642 203.496 19.4805 202.694 17.6528C201.891 15.7805 200.799 14.1535 199.417 12.7715C198.035 11.3451 196.408 10.2306 194.536 9.42821C192.708 8.62581 190.724 8.22461 188.585 8.22461H167.187V46.7398H188.585C190.724 46.7398 192.708 46.3386 194.536 45.5362C196.408 44.7338 198.035 43.6417 199.417 42.2598C200.799 40.8333 201.891 39.2062 202.694 37.3785C203.496 35.5062 203.897 33.5002 203.897 31.3605V23.604Z" fill="white"/>
<path fill-rule="evenodd" clip-rule="evenodd" d="M267.661 77.0973C267.661 79.8612 267.126 82.469 266.056 84.9208C265.031 87.3725 263.605 89.5123 261.777 91.34C259.949 93.1676 257.81 94.6164 255.358 95.6863C252.906 96.7116 250.298 97.2242 247.534 97.2242H242.051C239.287 97.2242 236.68 96.7116 234.228 95.6863C231.776 94.6164 229.636 93.1676 227.809 91.34C225.981 89.5123 224.532 87.3725 223.462 84.9208C222.437 82.469 221.924 79.8612 221.924 77.0973V46.2049C221.924 43.4411 222.437 40.8333 223.462 38.3815C224.532 35.9297 225.981 33.79 227.809 31.9623C229.636 30.1346 231.776 28.7081 234.228 27.6828C236.68 26.613 239.287 26.078 242.051 26.078H247.534C250.298 26.078 252.906 26.613 255.358 27.6828C257.81 28.7081 259.949 30.1346 261.777 31.9623C263.605 33.79 265.031 35.9297 266.056 38.3815C267.126 40.8333 267.661 43.4411 267.661 46.2049V77.0973ZM259.437 45.7368C259.437 44.0875 259.125 42.5495 258.501 41.123C257.876 39.652 257.029 38.3815 255.96 37.3116C254.89 36.2418 253.619 35.3948 252.148 34.7707C250.722 34.1466 249.184 33.8346 247.534 33.8346H242.051C240.402 33.8346 238.842 34.1466 237.371 34.7707C235.944 35.3948 234.696 36.2418 233.626 37.3116C232.556 38.3815 231.709 39.652 231.085 41.123C230.461 42.5495 230.149 44.0875 230.149 45.7368V77.5654C230.149 79.2148 230.461 80.775 231.085 82.2461C231.709 83.6726 232.556 84.9207 233.626 85.9906C234.696 87.0605 235.944 87.9075 237.371 88.5316C238.842 89.1556 240.402 89.4677 242.051 89.4677H247.534C249.184 89.4677 250.722 89.1556 252.148 88.5316C253.619 87.9075 254.89 87.0605 255.96 85.9906C257.029 84.9207 257.876 83.6726 258.501 82.2461C259.125 80.775 259.437 79.2148 259.437 77.5654V45.7368Z" fill="white"/>
<path fill-rule="evenodd" clip-rule="evenodd" d="M321.395 84.9208C322.465 82.469 323 79.8612 323 77.0973V46.2049C323 43.4411 322.465 40.8333 321.395 38.3815C320.37 35.9297 318.944 33.79 317.116 31.9623C315.288 30.1346 313.148 28.7081 310.697 27.6828C308.245 26.613 305.637 26.078 302.873 26.078H300.8C297.725 26.078 294.872 26.7021 292.241 27.9503C289.611 29.1985 287.36 30.937 285.488 33.1659V0H277.263V77.0973C277.263 79.8612 277.776 82.469 278.801 84.9208C279.871 87.3725 281.32 89.5123 283.148 91.34C284.975 93.1676 287.115 94.6164 289.567 95.6863C292.019 96.7116 294.626 97.2242 297.39 97.2242H302.873C305.637 97.2242 308.245 96.7116 310.697 95.6863C313.148 94.6164 315.288 93.1676 317.116 91.34C318.944 89.5123 320.37 87.3725 321.395 84.9208ZM313.839 41.123C314.464 42.5495 314.776 44.0875 314.776 45.7368V77.5654C314.776 79.2148 314.464 80.775 313.839 82.2461C313.215 83.6726 312.368 84.9207 311.299 85.9906C310.229 87.0605 308.958 87.9075 307.487 88.5316C306.061 89.1556 304.523 89.4677 302.873 89.4677H297.39C295.741 89.4677 294.181 89.1556 292.71 88.5316C291.283 87.9075 290.035 87.0605 288.965 85.9906C287.895 84.9207 287.048 83.6726 286.424 82.2461C285.8 80.775 285.488 79.2148 285.488 77.5654V45.7368C285.488 44.0875 285.8 42.5495 286.424 41.123C287.048 39.652 287.895 38.3815 288.965 37.3116C290.035 36.2418 291.283 35.3948 292.71 34.7707C294.181 34.1466 295.741 33.8346 297.39 33.8346H302.873C304.523 33.8346 306.061 34.1466 307.487 34.7707C308.958 35.3948 310.229 36.2418 311.299 37.3116C312.368 38.3815 313.215 39.652 313.839 41.123Z" fill="white"/>
<path fill-rule="evenodd" clip-rule="evenodd" d="M378.339 77.0973C378.339 79.8612 377.804 82.469 376.734 84.9208C375.709 87.3725 374.283 89.5123 372.455 91.34C370.627 93.1676 368.487 94.6164 366.036 95.6863C363.584 96.7116 360.976 97.2242 358.212 97.2242H352.729C349.965 97.2242 347.358 96.7116 344.906 95.6863C342.454 94.6164 340.314 93.1676 338.487 91.34C336.659 89.5123 335.21 87.3725 334.14 84.9208C333.115 82.469 332.602 79.8612 332.602 77.0973V46.2049C332.602 43.4411 333.115 40.8333 334.14 38.3815C335.21 35.9297 336.659 33.79 338.487 31.9623C340.314 30.1346 342.454 28.7081 344.906 27.6828C347.358 26.613 349.965 26.078 352.729 26.078H358.212C360.976 26.078 363.584 26.613 366.036 27.6828C368.487 28.7081 370.627 30.1346 372.455 31.9623C374.283 33.79 375.709 35.9297 376.734 38.3815C377.804 40.8333 378.339 43.4411 378.339 46.2049V77.0973ZM370.115 45.7368C370.115 44.0875 369.802 42.5495 369.178 41.123C368.554 39.652 367.707 38.3815 366.637 37.3116C365.568 36.2418 364.297 35.3948 362.826 34.7707C361.4 34.1466 359.862 33.8346 358.212 33.8346H352.729C351.08 33.8346 349.52 34.1466 348.048 34.7707C346.622 35.3948 345.374 36.2418 344.304 37.3116C343.234 38.3815 342.387 39.652 341.763 41.123C341.139 42.5495 340.827 44.0875 340.827 45.7368V77.5654C340.827 79.2148 341.139 80.775 341.763 82.2461C342.387 83.6726 343.234 84.9207 344.304 85.9906C345.374 87.0605 346.622 87.9075 348.048 88.5316C349.52 89.1556 351.08 89.4677 352.729 89.4677H358.212C359.862 89.4677 361.4 89.1556 362.826 88.5316C364.297 87.9075 365.568 87.0605 366.637 85.9906C367.707 84.9207 368.554 83.6726 369.178 82.2461C369.802 80.775 370.115 79.2148 370.115 77.5654V45.7368Z" fill="white"/>
<path d="M405.795 94.4827C408.023 95.4188 410.386 95.8869 412.882 95.8869H420.372V88.0635H412.882C411.501 88.0635 410.208 87.8183 409.004 87.3279C407.801 86.793 406.753 86.0798 405.861 85.1882C404.97 84.2967 404.257 83.2714 403.722 82.1124C403.231 80.9088 402.986 79.616 402.986 78.2341V35.2388H420.372V27.4154H402.986V9.62881L394.762 10.9661V27.4154H382.458V35.2388H394.762V77.8329C394.762 80.3292 395.23 82.6696 396.166 84.8539C397.146 87.0382 398.439 88.955 400.044 90.6044C401.693 92.2538 403.61 93.5466 405.795 94.4827Z" fill="white"/>
<path d="M453.645 56.0343L473.37 95.8869H482.665L458.258 46.6061L481.261 0H471.966L453.645 37.111L435.256 0H425.962L448.964 46.6061L424.558 95.8869H433.919L453.645 56.0343Z" fill="white"/>
<path fill-rule="evenodd" clip-rule="evenodd" d="M66.3083 0C49.9033 0 35.5585 6.43391 24.432 14.2176C13.3231 21.9889 5.10203 31.3237 0.836776 37.7366C-0.0643649 39.0915 -0.249836 40.8001 0.339599 42.3168L22.1771 98.507L9.17163 120.997L17.8284 126.003L32.0352 101.436C32.7946 100.122 32.9167 98.5354 32.3672 97.1214L10.6301 41.1894C14.5833 35.8418 21.3363 28.5872 30.1642 22.4116C40.1852 15.4013 52.5587 10 66.3083 10C79.3039 10 88.7519 13.3458 95.6529 18.4564C102.586 23.591 107.326 30.7881 110.392 39.0914C116.019 54.3321 115.762 72.6721 113.481 86.2921H69.798L62.3664 66.0667C67.5738 62.3633 71 56.3693 71 49.5C71 38.0297 61.4472 29 50 29C38.5528 29 29 38.0297 29 49.5C29 60.9703 38.5528 70 50 70C51.0434 70 52.071 69.925 53.0771 69.7799L61.6151 93.0166C62.3381 94.9844 64.2119 96.2921 66.3083 96.2921H117.626C119.99 96.2921 122.031 94.6359 122.518 92.3221C125.656 77.4161 126.854 54.8045 119.773 35.6277C116.201 25.9535 110.45 16.9708 101.604 10.4201C92.7258 3.84517 81.1057 0 66.3083 0ZM39 49.5C39 43.8495 43.774 39 50 39C56.226 39 61 43.8495 61 49.5C61 55.1505 56.226 60 50 60C43.774 60 39 55.1505 39 49.5Z" fill="white"/>
</svg>
