<svg width="404" height="104" viewBox="0 0 404 104" fill="none" xmlns="http://www.w3.org/2000/svg">
<path d="M137.311 80.4269C141.398 82.4419 146.292 83.4493 151.991 83.4493C157.978 83.4493 163.131 82.3267 167.449 80.0815C171.766 77.8363 175.163 74.8426 177.639 71.1006C180.114 67.3585 181.64 63.2423 182.215 58.7518H169.867C169.176 62.9544 167.19 66.2359 163.908 68.5963C160.684 70.8991 156.712 72.0505 151.991 72.0505C148.767 72.0505 145.918 71.5036 143.442 70.4097C141.024 69.3159 138.98 67.7903 137.311 65.8329C135.641 63.818 134.375 61.4864 133.511 58.8382C132.705 56.19 132.302 53.3115 132.302 50.2027C132.302 46.9788 132.705 44.0427 133.511 41.3945C134.375 38.7463 135.613 36.4435 137.225 34.4861C138.836 32.5287 140.851 31.0319 143.269 29.9956C145.687 28.9018 148.451 28.3549 151.559 28.3549C154.611 28.3549 157.345 28.873 159.763 29.9093C162.181 30.888 164.167 32.3848 165.722 34.3997C167.334 36.3571 168.37 38.7751 168.83 41.6536H181.179C180.661 36.7025 179.135 32.3848 176.602 28.7003C174.069 24.9583 170.673 22.0798 166.412 20.0648C162.21 17.9923 157.259 16.9561 151.559 16.9561C146.09 16.9561 141.341 17.906 137.311 19.8058C133.339 21.648 130.057 24.1235 127.466 27.2323C124.876 30.3411 122.947 33.7953 121.681 37.5949C120.472 41.3945 119.867 45.2517 119.867 49.1664V51.0662C119.867 54.578 120.472 58.2337 121.681 62.0333C122.89 65.8329 124.761 69.3447 127.294 72.5686C129.884 75.7925 133.223 78.412 137.311 80.4269Z" fill="white"/>
<path fill-rule="evenodd" clip-rule="evenodd" d="M214.238 76.1092C214.832 75.1029 215.321 73.9927 215.706 72.7783V81.8086H225.205V52.707C225.205 48.3317 224.371 44.7911 222.701 42.0853C221.089 39.3795 218.671 37.3934 215.447 36.1268C212.281 34.8603 208.28 34.227 203.444 34.227C201.89 34.227 200.22 34.2558 198.435 34.3134C196.708 34.3134 195.01 34.371 193.34 34.4861C191.671 34.6012 190.174 34.7164 188.85 34.8315V45.0214C190.462 44.9063 192.275 44.8199 194.29 44.7623C196.363 44.6472 198.407 44.5608 200.421 44.5033C202.436 44.4457 204.164 44.4169 205.603 44.4169C208.366 44.4169 210.41 45.079 211.734 46.4031C213.058 47.7272 213.72 49.7421 213.72 52.4479V52.8797H204.135C199.99 52.8797 196.363 53.4266 193.254 54.5204C190.203 55.6143 187.814 57.255 186.087 59.4427C184.417 61.6303 183.582 64.4513 183.582 67.9054C183.582 71.0718 184.273 73.7776 185.655 76.0228C187.094 78.268 189.08 79.9951 191.613 81.2041C194.204 82.4131 197.198 83.0176 200.594 83.0176C203.876 83.0176 206.639 82.4419 208.884 81.2905C211.187 80.0815 212.972 78.3544 214.238 76.1092ZM212.079 70.4961C213.058 68.9993 213.605 66.9843 213.72 64.4512V60.0472H203.962C201.199 60.0472 199.069 60.738 197.572 62.1197C196.133 63.4438 195.413 65.1709 195.413 67.301C195.413 69.4311 196.133 71.1581 197.572 72.4823C199.069 73.8064 201.199 74.4684 203.962 74.4684C205.632 74.4684 207.157 74.1806 208.539 73.6049C209.978 72.9716 211.158 71.9353 212.079 70.4961Z" fill="white"/>
<path d="M254.557 83.4493C250.469 83.4493 246.929 82.7585 243.935 81.3768C240.999 79.9951 238.523 78.1529 236.508 75.8501C234.551 73.5473 233.083 70.9567 232.104 68.0782C231.126 65.1997 230.636 62.2636 230.636 59.27V57.6292C230.636 54.4629 231.126 51.4404 232.104 48.562C233.141 45.6259 234.666 43.0352 236.681 40.79C238.696 38.4872 241.172 36.6738 244.108 35.3496C247.101 33.968 250.555 33.2771 254.47 33.2771C258.558 33.2771 262.213 34.0831 265.437 35.6951C268.661 37.2495 271.223 39.4371 273.123 42.258C275.08 45.079 276.174 48.3605 276.404 52.1025H264.746C264.459 49.6846 263.422 47.6696 261.638 46.0577C259.911 44.4457 257.521 43.6397 254.47 43.6397C251.822 43.6397 249.606 44.273 247.821 45.5395C246.094 46.8061 244.798 48.5619 243.935 50.8072C243.071 52.9948 242.64 55.5279 242.64 58.4064C242.64 61.1698 243.043 63.6741 243.849 65.9193C244.712 68.1645 246.007 69.9204 247.735 71.1869C249.519 72.4535 251.793 73.0867 254.557 73.0867C256.629 73.0867 258.414 72.7125 259.911 71.9641C261.407 71.2157 262.588 70.1795 263.451 68.8554C264.372 67.5312 264.948 66.0344 265.178 64.3649H276.836C276.606 68.1645 275.483 71.5036 273.468 74.3821C271.511 77.203 268.891 79.4194 265.61 81.0314C262.386 82.6434 258.702 83.4493 254.557 83.4493Z" fill="white"/>
<path d="M291.806 80.7723C294.627 81.8661 298.196 82.4131 302.514 82.4131H309.25V72.1368H301.909C299.607 72.1368 297.822 71.5324 296.555 70.3234C295.346 69.0569 294.742 67.2722 294.742 64.9694L294.784 43.7261H309.25V34.9179H294.802L294.828 21.7056H283.602L283.575 34.9179H276.089V43.7261H283.557L283.516 64.1922C283.516 68.7402 284.207 72.3671 285.588 75.0729C286.97 77.7211 289.043 79.6209 291.806 80.7723Z" fill="white"/>
<path d="M330.982 83.2766C325.57 83.2766 321.368 81.492 318.374 77.9226C315.438 74.3533 313.97 69.0568 313.97 62.0333V34.8315H325.973V63.0696C325.973 65.9481 326.779 68.2509 328.391 69.978C330.003 71.6475 332.191 72.4823 334.954 72.4823C337.718 72.4823 339.963 71.5899 341.69 69.8053C343.475 68.0206 344.367 65.6027 344.367 62.5514V34.8315H356.37V81.8086H346.871V70.8891C346.63 71.8825 346.342 72.8165 346.008 73.6912C344.799 76.8576 342.985 79.2467 340.567 80.8587C338.149 82.4706 335.127 83.2766 331.5 83.2766H330.982Z" fill="white"/>
<path d="M367.654 79.2179C371.339 81.9237 376.405 83.2766 382.853 83.2766C386.998 83.2766 390.596 82.6433 393.647 81.3768C396.698 80.1103 399.059 78.3544 400.728 76.1092C402.456 73.8064 403.319 71.1006 403.319 67.9918C403.319 63.7892 401.736 60.4501 398.57 57.9746C395.461 55.4991 391.143 53.9735 385.616 53.3978L381.471 52.966C378.938 52.6782 377.096 52.1313 375.945 51.3253C374.851 50.5193 374.304 49.3679 374.304 47.8711C374.304 46.3167 374.995 45.0502 376.376 44.0715C377.758 43.0928 379.715 42.6035 382.248 42.6035C385.069 42.6035 387.228 43.1792 388.725 44.3306C390.222 45.482 391.028 46.8636 391.143 48.4756H401.937C401.765 43.5821 399.894 39.8689 396.324 37.3358C392.755 34.8027 388.092 33.5362 382.335 33.5362C378.65 33.5362 375.369 34.1119 372.49 35.2633C369.669 36.3571 367.453 37.9979 365.841 40.1855C364.229 42.3732 363.423 45.079 363.423 48.3029C363.423 52.3328 364.834 55.5567 367.654 57.9746C370.475 60.3926 374.505 61.8894 379.744 62.4651L383.889 62.8969C386.998 63.1847 389.186 63.7892 390.452 64.7103C391.776 65.6314 392.438 66.8692 392.438 68.4236C392.438 70.2082 391.575 71.6187 389.848 72.655C388.178 73.6912 385.904 74.2094 383.026 74.2094C379.571 74.2094 377.038 73.5473 375.426 72.2232C373.814 70.8991 372.922 69.431 372.749 67.8191H361.955C362.128 72.655 364.028 76.4546 367.654 79.2179Z" fill="white"/>
<path fill-rule="evenodd" clip-rule="evenodd" d="M51.8086 0C23.1955 0 0 23.1955 0 51.8086C0 80.4217 23.1955 103.617 51.8086 103.617C80.4217 103.617 103.617 80.4217 103.617 51.8086C103.617 23.1955 80.4217 0 51.8086 0ZM11.6172 51.8086C11.6172 29.6115 29.6115 11.6172 51.8086 11.6172C74.0057 11.6172 92 29.6115 92 51.8086C92 72.0662 77.0129 88.8233 57.5218 91.597V82.7316L67.8376 78.9234C73.7994 76.7225 77.7588 71.0404 77.7588 64.6853V47.2295C77.7588 44.0215 75.1582 41.4209 71.9502 41.4209C68.7422 41.4209 66.1416 44.0215 66.1416 47.2295V64.6853C66.1416 66.176 65.2128 67.5088 63.8144 68.0251L57.5218 70.3481V24.3701C57.5218 21.1621 54.9212 18.5615 51.7132 18.5615C48.5051 18.5615 45.9045 21.1621 45.9045 24.3701V49.293L39.7999 47.0395C38.4014 46.5232 37.4727 45.1903 37.4727 43.6996V36.1747C37.4727 32.9667 34.8721 30.3661 31.6641 30.3661C28.4561 30.3661 25.8555 32.9667 25.8555 36.1747V43.6996C25.8555 50.0547 29.8148 55.7369 35.7767 57.9378L45.9045 61.6766V91.5694C26.5065 88.7138 11.6172 72 11.6172 51.8086Z" fill="white"/>
</svg>
