<svg width="230" height="72" viewBox="0 0 230 72" fill="none" xmlns="http://www.w3.org/2000/svg">
<path d="M57.0795 60.1057C57.3755 66.0498 51.7824 71.1589 44.5869 71.5172C37.3914 71.8755 31.3184 67.3474 31.0224 61.4033C30.7264 55.4592 36.3195 50.3501 43.515 49.9918C50.7104 49.6335 56.7835 54.1616 57.0795 60.1057Z" fill="white"/>
<path d="M31.4988 48.1563C31.6591 51.3742 30.0137 54.0711 27.8237 54.1802C25.6338 54.2893 23.7286 51.7691 23.5684 48.5512C23.4082 45.3334 25.0535 42.6364 27.2435 42.5273C29.4334 42.4183 31.3386 44.9385 31.4988 48.1563Z" fill="white"/>
<path d="M41.3728 41.1752C41.533 44.393 39.8876 47.09 37.6977 47.1991C35.5078 47.3081 33.6026 44.788 33.4423 41.5701C33.2821 38.3523 34.9275 35.6553 37.1174 35.5462C39.3073 35.4372 41.2125 37.9573 41.3728 41.1752Z" fill="white"/>
<path d="M51.571 40.6671C51.7312 43.8849 50.0858 46.5819 47.8959 46.6909C45.706 46.8 43.8008 44.2798 43.6406 41.062C43.4803 37.8441 45.1257 35.1471 47.3156 35.0381C49.5056 34.929 51.4107 37.4492 51.571 40.6671Z" fill="white"/>
<path d="M62.0902 46.6333C62.2505 49.8511 60.6051 52.5481 58.4151 52.6572C56.2252 52.7662 54.32 50.246 54.1598 47.0282C53.9996 43.8103 55.6449 41.1133 57.8349 41.0043C60.0248 40.8952 61.93 43.4154 62.0902 46.6333Z" fill="white"/>
<path d="M23.0872 32.6193C19.702 37.5141 12.1542 38.1601 6.22885 34.0621C0.303499 29.9641 -1.75563 22.674 1.62966 17.7792C5.01495 12.8843 12.5627 12.2383 18.4881 16.3363C24.4134 20.4343 26.4725 27.7244 23.0872 32.6193Z" fill="white"/>
<path d="M10.0755 7.56239C8.2429 10.2122 5.29534 11.3493 3.49197 10.1021C1.68861 8.85487 1.71233 5.69568 3.54497 3.04584C5.37761 0.395992 8.32517 -0.741068 10.1285 0.506143C11.9319 1.75335 11.9082 4.91254 10.0755 7.56239Z" fill="white"/>
<path d="M22.1573 8.03804C20.3246 10.6879 17.3771 11.8249 15.5737 10.5777C13.7703 9.33053 13.7941 6.17134 15.6267 3.52149C17.4593 0.871645 20.4069 -0.265415 22.2103 0.981797C24.0136 2.22901 23.9899 5.3882 22.1573 8.03804Z" fill="white"/>
<path d="M30.5561 13.8457C28.7234 16.4955 25.7759 17.6326 23.9725 16.3853C22.1691 15.1381 22.1929 11.9789 24.0255 9.3291C25.8581 6.67926 28.8057 5.5422 30.6091 6.78941C32.4124 8.03662 32.3887 11.1958 30.5561 13.8457Z" fill="white"/>
<path d="M35.2654 24.9836C33.4327 27.6334 30.4852 28.7705 28.6818 27.5233C26.8784 26.2761 26.9022 23.1169 28.7348 20.467C30.5674 17.8172 33.515 16.6801 35.3184 17.9273C37.1217 19.1745 37.098 22.3337 35.2654 24.9836Z" fill="white"/>
<path d="M81.7168 57.2036C78.8779 55.8042 76.5586 53.9849 74.7598 51.7456C72.96 49.4668 71.6211 47.0273 70.7412 44.4282C69.9014 41.7896 69.4814 39.2305 69.4814 36.7515V35.4316C69.4814 32.7129 69.9209 30.0337 70.8008 27.3945C71.6807 24.7158 73.0205 22.2964 74.8193 20.1372C76.6592 17.978 78.958 16.2588 81.7168 14.9795C84.5156 13.6597 87.8145 13 91.6133 13C95.5723 13 99.0703 13.7397 102.109 15.2192C105.148 16.6987 107.567 18.7578 109.367 21.397C111.206 23.9961 112.286 27.0547 112.605 30.5737H102.709C102.43 28.814 101.789 27.3149 100.79 26.0752C99.79 24.8354 98.4912 23.876 96.8916 23.1963C95.332 22.5166 93.5723 22.1768 91.6133 22.1768C89.6543 22.1768 87.915 22.5166 86.3955 23.1963C84.876 23.876 83.5967 24.8354 82.5566 26.0752C82.2246 26.4863 81.917 26.9238 81.6338 27.3877C81.5557 27.5156 81.4795 27.6455 81.4053 27.7773L81.3018 27.9634C81.2256 28.1045 81.1514 28.2476 81.0791 28.3926C80.9648 28.6216 80.8555 28.856 80.752 29.0962C80.6963 29.2256 80.6426 29.356 80.5898 29.4883C80.5469 29.5942 80.5049 29.7017 80.4639 29.8101C80.3779 30.04 80.2959 30.2744 80.2178 30.5137C79.6973 32.1929 79.4375 34.0723 79.4375 36.1514C79.4375 38.1909 79.6973 40.0698 80.2178 41.7896C80.2793 41.9731 80.3428 42.1543 80.4092 42.333L80.5117 42.5981C81.0459 43.9478 81.7471 45.1577 82.6162 46.2275C83.6963 47.4673 85.0156 48.4268 86.5752 49.1064C88.1348 49.7466 89.9141 50.0664 91.9131 50.0664C94.9521 50.0664 97.5107 49.3267 99.5908 47.8472C101.71 46.3677 102.989 44.3286 103.429 41.7295H113.266C112.905 44.9282 111.826 47.8672 110.026 50.5464C108.268 53.1851 105.848 55.3042 102.77 56.9038C99.7305 58.4634 96.1113 59.2432 91.9131 59.2432C87.9551 59.2432 84.5557 58.563 81.7168 57.2036Z" fill="white"/>
<path d="M116.672 58.1035V14.3193H126.329V58.1035H116.672Z" fill="white"/>
<path d="M134.961 55.4644C137 57.9033 139.919 59.123 143.718 59.123H144.138C146.617 59.123 149.223 59.1831 150.902 58.1035C152.059 57.3604 153.656 56.313 154.813 55.0146V58.1035H162.431V25.2354H152.835V44.5483C152.835 46.3877 152.295 47.8472 151.215 48.9268C150.136 50.0063 148.736 50.5464 147.017 50.5464C145.337 50.5464 143.998 50.0264 142.998 48.9868C141.999 47.9473 141.499 46.5479 141.499 44.7881V25.2354H131.902V44.3086C131.902 49.2666 132.922 52.9854 134.961 55.4644Z" fill="white"/>
<path fill-rule="evenodd" clip-rule="evenodd" d="M182.886 59.2432C180.087 59.2432 177.607 58.7632 175.448 57.8037C173.329 56.8438 171.55 55.5645 170.11 53.9648C168.711 52.3257 167.631 50.5063 166.871 48.5068C166.151 46.4678 165.792 44.3882 165.792 42.269V41.0698C165.792 38.8706 166.151 36.771 166.871 34.772C167.631 32.7329 168.711 30.9136 170.11 29.314C171.51 27.7144 173.249 26.4551 175.328 25.5352C177.447 24.5757 179.847 24.0957 182.525 24.0957C186.044 24.0957 189.003 24.8955 191.402 26.4951C193.842 28.0547 195.701 30.1138 196.98 32.6729C198.26 35.1919 198.899 37.9507 198.899 40.9497V44.1885H174.893C175.03 45.1626 175.256 46.0625 175.568 46.8877C176.128 48.3271 177.008 49.4468 178.207 50.2461C179.407 51.0459 180.966 51.4458 182.886 51.4458C184.645 51.4458 186.084 51.106 187.204 50.4263C187.729 50.1069 188.176 49.7524 188.543 49.3628C188.958 48.9224 189.271 48.4375 189.483 47.9072H198.3C197.82 50.1064 196.881 52.0654 195.48 53.7852C194.081 55.5044 192.322 56.8438 190.203 57.8037C188.084 58.7632 185.645 59.2432 182.886 59.2432ZM175.014 38.4756C174.997 38.5596 174.981 38.6445 174.967 38.7305H189.786C189.647 37.8086 189.426 36.9692 189.123 36.2114C188.563 34.812 187.724 33.7524 186.604 33.0327C185.524 32.2729 184.165 31.8931 182.525 31.8931C182.219 31.8931 181.92 31.9058 181.63 31.9312C181.343 31.9565 181.064 31.9941 180.794 32.0444C179.847 32.2202 179.005 32.5498 178.268 33.0327C177.107 33.7925 176.228 34.9121 175.628 36.3916C175.565 36.542 175.506 36.6963 175.449 36.854C175.391 37.0171 175.337 37.1841 175.286 37.355C175.181 37.7114 175.09 38.085 175.014 38.4756Z" fill="white"/>
<path d="M203.759 56.2441C206.398 58.1636 210.057 59.123 214.735 59.123C217.694 59.123 220.273 58.7031 222.473 57.8633C224.672 56.9839 226.371 55.7441 227.57 54.145C228.771 52.5054 229.37 50.5859 229.37 48.3867C229.37 45.3481 228.25 42.9292 226.011 41.1294C223.771 39.3301 220.633 38.2109 216.595 37.771L214.016 37.5308C212.296 37.3311 211.057 36.9912 210.297 36.5112C209.988 36.3164 209.742 36.0854 209.559 35.8179C209.291 35.4268 209.157 34.958 209.157 34.4121C209.157 33.4526 209.597 32.6929 210.477 32.1328C211.356 31.5732 212.536 31.2935 214.016 31.2935C215.895 31.2935 217.314 31.6733 218.273 32.4326C219.233 33.1523 219.793 34.0522 219.953 35.1318H228.47C228.351 31.6133 226.99 28.9341 224.392 27.0947C221.793 25.2153 218.374 24.2759 214.136 24.2759C211.496 24.2759 209.138 24.6758 207.058 25.4756C205.019 26.2749 203.419 27.4546 202.26 29.0142C201.101 30.5737 200.521 32.5127 200.521 34.832C200.521 37.6309 201.5 39.9302 203.459 41.7295C205.459 43.5288 208.438 44.6284 212.396 45.0283L214.976 45.2681C217.135 45.5078 218.634 45.9277 219.474 46.5278C220.313 47.0874 220.733 47.8472 220.733 48.8066C220.733 49.8862 220.173 50.7261 219.054 51.3257C217.974 51.8857 216.595 52.1655 214.915 52.1655C212.716 52.1655 211.057 51.7656 209.937 50.9658C208.857 50.1265 208.237 49.1865 208.078 48.147H199.561C199.721 51.626 201.12 54.3247 203.759 56.2441Z" fill="white"/>
</svg>
