<svg width="343" height="102" viewBox="0 0 343 102" fill="none" xmlns="http://www.w3.org/2000/svg">
<path d="M128 23H138.339V78.6714H128V23Z" fill="white"/>
<path d="M172.564 35.7249C177.919 35.7249 182.214 37.289 185.448 40.4172C188.682 43.5454 190.299 48.1847 190.299 54.3351V78.6714H180.358V55.6076C180.358 51.8961 179.483 49.1126 177.733 47.2568C175.984 45.3481 173.492 44.3937 170.257 44.3937C166.599 44.3937 163.709 45.5072 161.589 47.734C159.468 49.9079 158.407 53.0626 158.407 57.1982V78.6714H148.466V36.2021H157.93V41.6897C159.574 39.7279 161.642 38.2434 164.134 37.236C166.626 36.2286 169.436 35.7249 172.564 35.7249Z" fill="white"/>
<path d="M237.923 36.2021L219.71 78.6714H209.451L191.238 36.2021H201.577L214.779 67.6962L228.379 36.2021H237.923Z" fill="white"/>
<path d="M278.919 57.6754C278.919 58.3646 278.866 59.3455 278.76 60.618H245.436C246.02 63.7462 247.531 66.2382 249.97 68.0939C252.462 69.8966 255.537 70.7979 259.195 70.7979C263.861 70.7979 267.705 69.2603 270.727 66.1851L276.056 72.309C274.147 74.5889 271.734 76.312 268.818 77.4785C265.902 78.6449 262.615 79.2282 258.957 79.2282C254.291 79.2282 250.182 78.3003 246.629 76.4446C243.077 74.5889 240.32 72.0174 238.358 68.7301C236.449 65.3898 235.495 61.6254 235.495 57.4368C235.495 53.3012 236.423 49.5897 238.279 46.3025C240.187 42.9622 242.812 40.3642 246.152 38.5085C249.492 36.6528 253.257 35.7249 257.445 35.7249C261.581 35.7249 265.266 36.6528 268.5 38.5085C271.787 40.3112 274.332 42.8827 276.135 46.2229C277.991 49.5102 278.919 53.3277 278.919 57.6754ZM257.445 43.678C254.264 43.678 251.56 44.6323 249.333 46.5411C247.159 48.3968 245.834 50.8887 245.357 54.017H269.455C269.03 50.9418 267.731 48.4498 265.558 46.5411C263.384 44.6323 260.68 43.678 257.445 43.678Z" fill="white"/>
<path d="M293.956 42.4055C296.819 37.9518 301.856 36.5202 309.066 36.5202V44.4733C308.218 44.3142 307.449 44.2347 306.76 44.2347C302.89 44.2347 299.867 46.0904 297.694 48.3703C295.52 50.5971 294.433 53.8314 294.433 58.073V78.6714H284.491V36.2021H293.956V42.4055Z" fill="white"/>
<path d="M342.606 76.3651C341.439 77.3194 340.008 78.0352 338.311 78.5124C336.668 78.9896 334.918 79.2282 333.062 79.2282C328.396 79.2282 324.791 78.0087 322.246 75.5698C319.701 73.1308 318.429 69.5784 318.429 64.9126V44.4733H311.43V36.5202H318.429V26.8175H328.37V36.5202H339.743V44.4733H328.37V64.6741C328.37 66.7419 328.874 68.3325 329.881 69.4459C330.888 70.5063 332.346 71.0365 334.255 71.0365C336.482 71.0365 338.338 70.4533 339.822 69.2868L342.606 76.3651Z" fill="white"/>
<path fill-rule="evenodd" clip-rule="evenodd" d="M102 51C102 79.1665 79.1665 102 51 102C22.8335 102 0 79.1665 0 51C0 22.8335 22.8335 0 51 0C79.1665 0 102 22.8335 102 51ZM85.9721 51C85.9721 70.3142 70.3148 85.9715 51.0006 85.9715C49.6616 85.9715 48.3401 85.8962 47.0402 85.7497C64.6162 83.9026 78.3139 69.0367 78.3139 50.9714C78.3139 32.9963 64.7525 18.1886 47.3029 16.2218C48.518 16.0941 49.7517 16.0286 51.0006 16.0286C70.3148 16.0286 85.9721 31.6859 85.9721 51ZM39.707 75.6328C51.2334 73.5974 59.9999 63.3434 59.9999 51C59.9999 38.6566 51.2334 28.4026 39.707 26.3672C41.1018 26.1258 42.5361 26 43.9999 26C57.807 26 68.9999 37.1929 68.9999 51C68.9999 64.8071 57.807 76 43.9999 76C42.5361 76 41.1018 75.8742 39.707 75.6328Z" fill="white"/>
</svg>
