<svg width="554" height="91" viewBox="0 0 554 91" fill="none" xmlns="http://www.w3.org/2000/svg">
<path fill-rule="evenodd" clip-rule="evenodd" d="M56 2.24854C47.1634 2.24854 40 9.41198 40 18.2485C40 27.0851 47.1634 34.2485 56 34.2485C64.8366 34.2485 72 27.0851 72 18.2485C72 9.41198 64.8366 2.24854 56 2.24854ZM24.7164 33.3755C41.3715 33.3755 54.8731 46.8771 54.8731 63.5322V88.2486H39.8731V63.5322C39.8731 61.7585 39.5685 60.056 39.0086 58.4741L16.9757 80.507L6.3691 69.9004L27.6168 48.6527C26.678 48.4708 25.7083 48.3755 24.7164 48.3755H0V33.3755H24.7164ZM87.6567 33.3755C71.0016 33.3755 57.5 46.8771 57.5 63.5322V88.2486H72.5V63.5322C72.5 62.1428 72.687 60.797 73.0371 59.5187L96.0851 82.5667L106.692 71.9601L83.644 48.9124C84.9221 48.5624 86.2676 48.3755 87.6567 48.3755H112.373V33.3755H87.6567Z" fill="white"/>
<path d="M136.373 89.113V2.89491H160.791L186.971 76.7782H188.859V2.89491H202.83V89.113H178.916L152.106 15.1039H150.344V89.113H136.373Z" fill="white"/>
<path d="M258.801 77.7851L262.325 77.4075L262.577 87.6026C253.011 89.5326 244.536 90.4976 237.152 90.4976C227.838 90.4976 221.125 87.9383 217.014 82.8197C212.986 77.7012 210.972 69.5199 210.972 58.2759C210.972 35.9557 220.076 24.7956 238.285 24.7956C255.906 24.7956 264.717 34.4033 264.717 53.6189L263.836 63.4364H224.817C224.901 68.6389 226.034 72.4568 228.216 74.8902C230.397 77.3236 234.467 78.5403 240.425 78.5403C246.382 78.5403 252.508 78.2886 258.801 77.7851ZM251.249 52.8637C251.249 46.6543 250.242 42.3329 248.228 39.8995C246.299 37.3822 242.984 36.1235 238.285 36.1235C233.586 36.1235 230.146 37.4241 227.964 40.0253C225.866 42.6266 224.775 46.906 224.692 52.8637H251.249Z" fill="white"/>
<path d="M305.474 37.8856H288.104V65.5761C288.104 70.6947 288.482 74.093 289.237 75.7713C289.992 77.4495 291.922 78.2886 295.027 78.2886L305.348 77.911L305.977 88.8613C300.355 89.9521 296.076 90.4976 293.139 90.4976C286.007 90.4976 281.098 88.8613 278.413 85.5888C275.811 82.3163 274.511 76.1489 274.511 67.0865V37.8856H266.455V26.1801H274.511V7.92955H288.104V26.1801H305.474V37.8856Z" fill="white"/>
<path d="M305.524 26.1801H318.992L328.935 77.4075H331.452L343.41 27.4388H357.507L369.464 77.4075H371.981L381.799 26.1801H395.392L382.05 89.113H360.276L350.458 45.941L340.641 89.113H318.866L305.524 26.1801Z" fill="white"/>
<path d="M404.15 32.9769C408.513 27.5227 415.729 24.7956 425.799 24.7956C435.868 24.7956 443.042 27.5227 447.322 32.9769C451.685 38.431 453.867 46.6123 453.867 57.5207C453.867 68.4291 451.769 76.6523 447.573 82.1904C443.378 87.7285 436.12 90.4976 425.799 90.4976C415.478 90.4976 408.219 87.7285 404.024 82.1904C399.828 76.6523 397.731 68.4291 397.731 57.5207C397.731 46.6123 399.87 38.431 404.15 32.9769ZM414.471 73.8833C416.401 77.2397 420.177 78.9179 425.799 78.9179C431.421 78.9179 435.197 77.2397 437.127 73.8833C439.057 70.5268 440.022 65.0307 440.022 57.3948C440.022 49.759 438.973 44.3467 436.875 41.1581C434.861 37.9695 431.169 36.3752 425.799 36.3752C420.428 36.3752 416.694 37.9695 414.597 41.1581C412.583 44.3467 411.576 49.759 411.576 57.3948C411.576 65.0307 412.541 70.5268 414.471 73.8833Z" fill="white"/>
<path d="M461.201 89.113V26.1801H474.795V33.7321C481.927 29.117 489.06 26.1381 496.192 24.7956V38.515C488.976 39.9414 482.808 41.7875 477.69 44.0531L474.921 45.1858V89.113H461.201Z" fill="white"/>
<path d="M514.106 89.113H500.387V0H514.106V51.4791L521.91 50.7239L536.762 26.1801H552.118L533.993 55.6327L553.125 89.113H537.643L522.288 62.5553L514.106 63.4364V89.113Z" fill="white"/>
</svg>
