<svg width="362" height="89" viewBox="0 0 362 89" fill="none" xmlns="http://www.w3.org/2000/svg">
<path d="M163.873 67.5597C160.714 67.5597 157.774 67.0199 155.055 65.9402C152.376 64.8206 150.017 63.2611 147.977 61.2617C145.978 59.2623 144.419 56.943 143.299 54.3038C142.179 51.6246 141.619 48.7455 141.619 45.6664C141.619 42.5874 142.179 39.7282 143.299 37.089C144.419 34.4099 145.978 32.0906 147.977 30.1312C149.977 28.1718 152.316 26.6522 154.995 25.5726C157.715 24.4529 160.654 23.8931 163.813 23.8931C167.172 23.8931 170.151 24.4329 172.75 25.5126C174.981 26.4252 176.969 27.6234 178.714 29.1074C179.241 29.5557 179.249 30.354 178.762 30.8457L174.256 35.3939C173.762 35.8935 172.954 35.8757 172.419 35.419C171.5 34.6346 170.451 33.9916 169.271 33.4901C167.711 32.8103 165.892 32.4705 163.813 32.4705C161.973 32.4705 160.274 32.7904 158.714 33.4302C157.195 34.03 155.875 34.9097 154.755 36.0694C153.676 37.229 152.816 38.6286 152.176 40.2681C151.576 41.9076 151.276 43.707 151.276 45.6664C151.276 47.6658 151.576 49.4853 152.176 51.1248C152.816 52.7643 153.676 54.1638 154.755 55.3235C155.875 56.4831 157.195 57.3829 158.714 58.0227C160.274 58.6625 161.973 58.9824 163.813 58.9824C165.972 58.9824 167.851 58.6425 169.451 57.9627C170.646 57.4546 171.719 56.8013 172.669 56.0028C173.199 55.5573 173.991 55.5449 174.481 56.0345L179.035 60.5891C179.533 61.0869 179.518 61.9018 178.975 62.3492C177.174 63.8314 175.159 65.0284 172.93 65.9402C170.331 67.0199 167.312 67.5597 163.873 67.5597Z" fill="white"/>
<path d="M130.444 66.9C129.76 66.9 129.205 66.3453 129.205 65.6611V25.7917C129.205 25.1075 129.76 24.5529 130.444 24.5529H137.383C138.068 24.5529 138.622 25.1075 138.622 25.7917V65.6611C138.622 66.3453 138.068 66.9 137.383 66.9H130.444Z" fill="white"/>
<path d="M182.134 65.6611C182.134 66.3453 182.689 66.9 183.373 66.9H190.312C190.356 66.9 190.399 66.8977 190.442 66.8933C190.484 66.8977 190.527 66.9 190.571 66.9H211.306C211.99 66.9 212.545 66.3453 212.545 65.6611V59.9813C212.545 59.2971 211.99 58.7424 211.306 58.7424H191.551V49.2053H209.207C209.891 49.2053 210.446 48.6507 210.446 47.9665V42.5866C210.446 41.9024 209.891 41.3477 209.207 41.3477H191.551V32.6504H211.006C211.69 32.6504 212.245 32.0957 212.245 31.4115V25.7917C212.245 25.1075 211.69 24.5529 211.006 24.5529H190.571C190.527 24.5529 190.484 24.5551 190.442 24.5595C190.399 24.5551 190.356 24.5529 190.312 24.5529H183.373C182.689 24.5529 182.134 25.1075 182.134 25.7917V65.6611Z" fill="white"/>
<path fill-rule="evenodd" clip-rule="evenodd" d="M224.475 66.9C224.41 66.9 224.347 66.895 224.285 66.8856C224.224 66.895 224.161 66.9 224.096 66.9H217.277C216.593 66.9 216.038 66.3453 216.038 65.6611V25.7917C216.038 25.1075 216.593 24.5529 217.277 24.5529H224.096C224.161 24.5529 224.224 24.5578 224.285 24.5672C224.347 24.5578 224.41 24.5529 224.475 24.5529H234.212C236.932 24.5529 239.231 25.0527 241.11 26.0524C243.03 27.0521 244.489 28.3917 245.489 30.0712C246.489 31.7507 246.989 33.6101 246.989 35.6495C246.989 38.2487 246.149 40.448 244.469 42.2475C243.746 43.0227 242.874 43.694 241.853 44.2614C243.284 44.9625 244.496 45.8507 245.489 46.926C247.448 49.0054 248.428 51.5646 248.428 54.6037C248.428 56.923 247.848 59.0224 246.689 60.9018C245.569 62.7412 243.929 64.2008 241.77 65.2804C239.651 66.3601 237.092 66.9 234.092 66.9H224.475ZM225.335 59.5822H233.193C235.032 59.5822 236.472 59.0423 237.511 57.9627C238.551 56.883 239.071 55.5634 239.071 54.0039C239.071 52.9242 238.831 51.9645 238.351 51.1248C237.871 50.285 237.192 49.6252 236.312 49.1454C235.472 48.6655 234.432 48.4256 233.193 48.4256H225.335V59.5822ZM232.413 41.2878H225.335V31.8706H232.413C233.973 31.8706 235.232 32.2705 236.192 33.0703C237.152 33.83 237.631 34.9897 237.631 36.5492C237.631 38.1487 237.152 39.3484 236.192 40.1481C235.232 40.9079 233.973 41.2878 232.413 41.2878Z" fill="white"/>
<path d="M251.465 65.6611C251.465 66.3453 252.019 66.9 252.704 66.9H259.643C259.687 66.9 259.73 66.8977 259.772 66.8933C259.815 66.8977 259.858 66.9 259.901 66.9H280.637C281.321 66.9 281.875 66.3453 281.875 65.6611V59.9813C281.875 59.2971 281.321 58.7424 280.637 58.7424H260.882V49.2053H278.537C279.221 49.2053 279.776 48.6507 279.776 47.9665V42.5866C279.776 41.9024 279.221 41.3477 278.537 41.3477H260.882V32.6504H280.337C281.021 32.6504 281.575 32.0957 281.575 31.4115V25.7917C281.575 25.1075 281.021 24.5529 280.337 24.5529H259.901C259.858 24.5529 259.815 24.5551 259.772 24.5595C259.73 24.5551 259.687 24.5529 259.643 24.5529H252.704C252.019 24.5529 251.465 25.1075 251.465 25.7917V65.6611Z" fill="white"/>
<path fill-rule="evenodd" clip-rule="evenodd" d="M294.786 65.6611V49.4453H296.022C296.031 49.677 296.106 49.9106 296.257 50.1187L308.03 66.3874C308.263 66.7093 308.637 66.9 309.034 66.9H317.053C318.079 66.9 318.66 65.7243 318.037 64.909L305.992 49.1404C307.433 48.884 308.756 48.4658 309.961 47.8858C312.12 46.8461 313.8 45.4065 314.999 43.5671C316.199 41.6876 316.799 39.5083 316.799 37.0291C316.799 34.5898 316.199 32.4305 314.999 30.551C313.8 28.6716 312.14 27.2121 310.021 26.1724C307.902 25.0927 305.442 24.5529 302.643 24.5529H293.805C293.761 24.5529 293.718 24.5551 293.676 24.5595C293.633 24.5551 293.59 24.5529 293.547 24.5529H286.607C285.923 24.5529 285.368 25.1075 285.368 25.7917V65.6611C285.368 66.3453 285.923 66.9 286.607 66.9H293.547C294.231 66.9 294.786 66.3453 294.786 65.6611ZM301.503 42.4874H294.786V31.8706H301.563C303.443 31.8706 304.882 32.3705 305.882 33.3702C306.882 34.3699 307.382 35.6295 307.382 37.149C307.382 38.7885 306.862 40.0881 305.822 41.0478C304.822 42.0075 303.383 42.4874 301.503 42.4874Z" fill="white"/>
<path d="M331.779 65.8803C334.498 66.9999 337.397 67.5597 340.476 67.5597C344.675 67.5597 348.374 66.68 351.573 64.9206C354.812 63.1611 357.331 60.5619 359.13 57.1229C360.97 53.644 361.89 49.3653 361.89 44.2868V44.1462C361.89 43.4619 361.335 42.9073 360.651 42.9073H340.875C340.191 42.9073 339.636 43.4619 339.636 44.1462V49.6655C339.636 50.342 340.179 50.8935 340.856 50.9042L351.802 51.0779C351.569 51.9592 351.253 52.7746 350.853 53.524C349.933 55.2835 348.594 56.6431 346.834 57.6028C345.115 58.5225 343.015 58.9824 340.536 58.9824C338.097 58.9824 335.938 58.4225 334.058 57.3029C332.179 56.1832 330.699 54.6237 329.619 52.6243C328.54 50.6249 328 48.3056 328 45.6664C328 43.0272 328.54 40.7279 329.619 38.7685C330.739 36.7691 332.279 35.2296 334.238 34.1499C336.197 33.0303 338.417 32.4705 340.896 32.4705C343.215 32.4705 345.295 32.9103 347.134 33.79C348.578 34.4807 349.874 35.4424 351.023 36.6752C351.532 37.2216 352.4 37.2814 352.928 36.7533L357.545 32.1362C358.001 31.6809 358.034 30.9494 357.59 30.483C355.762 28.5637 353.536 27.0268 350.913 25.8725C347.954 24.5529 344.655 23.8931 341.016 23.8931C337.857 23.8931 334.898 24.4529 332.139 25.5726C329.38 26.6522 326.96 28.1918 324.881 30.1911C322.841 32.1505 321.242 34.4498 320.082 37.089C318.923 39.7282 318.343 42.5874 318.343 45.6664C318.343 48.7455 318.903 51.6246 320.022 54.3038C321.182 56.943 322.762 59.2623 324.761 61.2617C326.76 63.2211 329.1 64.7606 331.779 65.8803Z" fill="white"/>
<path d="M5.30546 9.46889C0 16.2153 0 26.0898 0 45.8387C0 65.5877 0 75.4622 5.30546 82.2086C6.523 83.7568 7.92066 85.1545 9.46889 86.372C10.0614 86.838 10.6781 87.2631 11.3235 87.6508L37.439 29.9932C38.5744 27.4866 41.4497 26.2787 44.0345 27.2223L60.6301 33.281C62.1977 33.8533 63.4008 35.1356 63.8722 36.7365L79.0707 88.3541C80.1954 87.7934 81.2346 87.138 82.2086 86.372C83.7568 85.1545 85.1545 83.7568 86.372 82.2086C91.6775 75.4622 91.6775 65.5877 91.6775 45.8387C91.6775 26.0898 91.6775 16.2153 86.372 9.46889C85.1545 7.92066 83.7568 6.523 82.2086 5.30546C75.4622 0 65.5877 0 45.8387 0C26.0898 0 16.2153 0 9.46889 5.30546C7.92066 6.523 6.523 7.92066 5.30546 9.46889Z" fill="white"/>
</svg>
