<svg width="310" height="85" viewBox="0 0 310 85" fill="none" xmlns="http://www.w3.org/2000/svg">
<path d="M174.245 64.0002V14.0571H183.295V64.0002H174.245Z" fill="white"/>
<path d="M97.6455 15.4387L116.78 64.0002H124.24L143.582 15.4387H133.566L120.623 49.5336L107.8 15.4387H97.6455Z" fill="white"/>
<path fill-rule="evenodd" clip-rule="evenodd" d="M144.933 62.4114C147.65 63.9311 150.69 64.6909 154.052 64.6909C157.413 64.6909 160.43 63.9311 163.101 62.4114C165.818 60.8456 167.959 58.7503 169.525 56.1253C171.091 53.4543 171.874 50.484 171.874 47.2143C171.874 43.9447 171.091 41.0204 169.525 38.4415C167.959 35.8165 165.818 33.7442 163.101 32.2245C160.43 30.6588 157.39 29.8759 153.983 29.8759C150.667 29.8759 147.65 30.6588 144.933 32.2245C142.216 33.7442 140.075 35.8165 138.509 38.4415C136.943 41.0204 136.161 43.9447 136.161 47.2143C136.161 50.484 136.943 53.4543 138.509 56.1253C140.121 58.7503 142.262 60.8456 144.933 62.4114ZM158.473 55.1582C157.183 55.8951 155.686 56.2635 153.983 56.2635C152.325 56.2635 150.851 55.8951 149.562 55.1582C148.272 54.3754 147.259 53.3162 146.522 51.9807C145.785 50.5991 145.417 49.0334 145.417 47.2834C145.417 45.5334 145.785 43.9907 146.522 42.6552C147.259 41.3197 148.272 40.2835 149.562 39.5467C150.851 38.7638 152.325 38.3724 153.983 38.3724C155.686 38.3724 157.183 38.7638 158.473 39.5467C159.762 40.2835 160.775 41.3197 161.512 42.6552C162.249 43.9907 162.617 45.5334 162.617 47.2834C162.617 49.0334 162.249 50.5991 161.512 51.9807C160.821 53.3162 159.808 54.3754 158.473 55.1582Z" fill="white"/>
<path d="M194.214 62.8258C196.516 64.0692 199.141 64.6909 202.089 64.6909C205.036 64.6909 207.638 64.0923 209.894 62.8949C212.197 61.6515 213.97 59.9246 215.213 57.7141C216.503 55.5036 217.147 52.9247 217.147 49.9774V30.6357H208.098V49.7702C208.098 51.8425 207.569 53.4543 206.509 54.6056C205.45 55.7569 203.977 56.3326 202.089 56.3326C200.845 56.3326 199.763 56.0793 198.842 55.5727C197.921 55.0661 197.23 54.3293 196.77 53.3622C196.309 52.3491 196.079 51.1517 196.079 49.7702V30.6357H186.961V49.9774C186.961 52.8787 187.605 55.4345 188.895 57.645C190.184 59.8555 191.957 61.5824 194.214 62.8258Z" fill="white"/>
<path d="M220.9 64.0002V30.6357H229.949V33.5305C230.758 32.7402 231.679 32.0746 232.712 31.5337C234.646 30.4745 236.834 29.945 239.274 29.945C241.577 29.945 243.672 30.4745 245.56 31.5337C247.143 32.3828 248.45 33.5391 249.483 35.0026C250.599 33.5782 251.962 32.445 253.573 31.6028C255.6 30.4976 257.856 29.945 260.343 29.945C262.83 29.945 265.063 30.4745 267.043 31.5337C269.024 32.5469 270.589 34.0205 271.741 35.9547C272.892 37.8889 273.468 40.1914 273.468 42.8624V64.0002H264.419V44.3131C264.419 42.3789 263.797 40.8822 262.553 39.823C261.356 38.7178 259.859 38.1652 258.063 38.1652C256.912 38.1652 255.83 38.4185 254.817 38.925C253.85 39.3855 253.09 40.0763 252.537 40.9973C251.985 41.9184 251.708 43.0236 251.708 44.3131V64.0002H242.659V44.3131C242.659 42.3789 242.037 40.8822 240.794 39.823C239.597 38.7178 238.1 38.1652 236.304 38.1652C235.107 38.1652 234.024 38.4185 233.057 38.925C232.09 39.3855 231.33 40.0763 230.778 40.9973C230.225 41.9184 229.949 43.0236 229.949 44.3131V64.0002H220.9Z" fill="white"/>
<path fill-rule="evenodd" clip-rule="evenodd" d="M283.98 62.4804C286.697 63.9541 289.806 64.6909 293.306 64.6909C296.023 64.6909 298.533 64.2074 300.835 63.2403C303.184 62.2732 305.164 60.8456 306.776 58.9575L301.457 53.6385C300.444 54.7898 299.247 55.6648 297.865 56.2635C296.483 56.8161 294.941 57.0924 293.237 57.0924C291.349 57.0924 289.691 56.701 288.263 55.9181C286.836 55.0892 285.73 53.9379 284.947 52.4642C284.653 51.8569 284.417 51.2092 284.241 50.5211L308.641 50.461C308.825 49.6781 308.94 48.9873 308.986 48.3886C309.079 47.7439 309.125 47.1222 309.125 46.5235C309.125 43.346 308.411 40.5138 306.983 38.027C305.602 35.4942 303.667 33.514 301.181 32.0864C298.74 30.6127 295.908 29.8759 292.684 29.8759C289.414 29.8759 286.444 30.6588 283.773 32.2245C281.102 33.7442 278.984 35.8165 277.418 38.4415C275.898 41.0204 275.138 43.9677 275.138 47.2834C275.138 50.6452 275.921 53.6385 277.487 56.2635C279.099 58.8884 281.263 60.9607 283.98 62.4804ZM284.249 43.7499C284.41 43.1391 284.62 42.567 284.878 42.0335C285.615 40.5599 286.651 39.4316 287.987 38.6487C289.322 37.8198 290.888 37.4053 292.684 37.4053C294.388 37.4053 295.816 37.7737 296.967 38.5106C298.164 39.2013 299.062 40.2145 299.661 41.55C299.971 42.1929 300.218 42.9106 300.4 43.703L284.249 43.7499Z" fill="white"/>
<path fill-rule="evenodd" clip-rule="evenodd" d="M42.0307 84.0615C65.2437 84.0615 84.0615 65.2437 84.0615 42.0307C84.0615 18.8178 65.2437 0 42.0307 0C18.8178 0 0 18.8178 0 42.0307C0 65.2437 18.8178 84.0615 42.0307 84.0615ZM59.4375 16.3047C59.9365 16.7265 60.2236 17.3467 60.2236 18L60.2227 26.4443L60.2236 27L60.2227 27.0664V55.3335C60.2227 60.2427 56.2432 64.2222 51.334 64.2222C46.4248 64.2222 42.4453 60.2427 42.4453 55.3335C42.4453 50.4243 46.4248 46.4443 51.334 46.4443C52.9531 46.4443 54.4707 46.8774 55.7783 47.6338V29.623L33.5557 33.3276V59.7778C33.5557 64.687 29.5762 68.6665 24.667 68.6665C19.7578 68.6665 15.7783 64.687 15.7783 59.7778C15.7783 54.8686 19.7578 50.8887 24.667 50.8887C26.2861 50.8887 27.8047 51.3218 29.1113 52.0781L29.1123 31.4443L29.1113 30.8887L29.1123 30.8223V22.4443C29.1123 21.3584 29.8975 20.4311 30.9697 20.2524L57.6357 15.8081C58.2803 15.7007 58.9395 15.8823 59.4375 16.3047Z" fill="white"/>
</svg>
