<svg width="391" height="91" viewBox="0 0 391 91" fill="none" xmlns="http://www.w3.org/2000/svg">
<path d="M115.604 24C119.323 24 122.541 24.6198 125.26 25.8593C128.019 27.0989 130.139 28.8582 131.618 31.1374C133.098 33.4165 133.837 36.1155 133.837 39.2344C133.837 42.3132 133.098 45.0123 131.618 47.3314C130.139 49.6106 128.019 51.3699 125.26 52.6094C122.541 53.809 119.323 54.4088 115.604 54.4088H107.147V65.9845H97.4307V24H115.604ZM115.064 46.4917C117.983 46.4917 120.202 45.8719 121.722 44.6324C123.241 43.3529 124.001 41.5535 124.001 39.2344C124.001 36.8753 123.241 35.0759 121.722 33.8364C120.202 32.5568 117.983 31.9171 115.064 31.9171H107.147V46.4917H115.064Z" fill="white"/>
<path d="M146.052 37.9748C147.172 36.4154 148.671 35.2359 150.55 34.4362C152.47 33.6364 154.669 33.2366 157.148 33.2366V41.8734C156.108 41.7934 155.409 41.7535 155.049 41.7535C152.37 41.7535 150.271 42.5132 148.751 44.0326C147.232 45.5121 146.472 47.7512 146.472 50.7501V65.9845H137.115V33.7164H146.052V37.9748Z" fill="white"/>
<path d="M174.774 66.4643C171.375 66.4643 168.316 65.7646 165.597 64.3651C162.918 62.9256 160.819 60.9464 159.3 58.4273C157.78 55.9082 157.021 53.0493 157.021 49.8505C157.021 46.6516 157.78 43.7927 159.3 41.2736C160.819 38.7546 162.918 36.7953 165.597 35.3958C168.316 33.9563 171.375 33.2366 174.774 33.2366C178.173 33.2366 181.212 33.9563 183.891 35.3958C186.57 36.7953 188.669 38.7546 190.188 41.2736C191.708 43.7927 192.467 46.6516 192.467 49.8505C192.467 53.0493 191.708 55.9082 190.188 58.4273C188.669 60.9464 186.57 62.9256 183.891 64.3651C181.212 65.7646 178.173 66.4643 174.774 66.4643ZM174.774 58.7872C177.173 58.7872 179.132 57.9875 180.652 56.3881C182.211 54.7487 182.991 52.5695 182.991 49.8505C182.991 47.1315 182.211 44.9723 180.652 43.3729C179.132 41.7335 177.173 40.9138 174.774 40.9138C172.375 40.9138 170.396 41.7335 168.836 43.3729C167.277 44.9723 166.497 47.1315 166.497 49.8505C166.497 52.5695 167.277 54.7487 168.836 56.3881C170.396 57.9875 172.375 58.7872 174.774 58.7872Z" fill="white"/>
<path d="M234.888 24V65.9845H226.911L205.979 40.4939V65.9845H196.382V24H204.419L225.292 49.4906V24H234.888Z" fill="white"/>
<path d="M254.178 33.2366C259.176 33.2366 263.015 34.4362 265.694 36.8353C268.373 39.1944 269.712 42.7731 269.712 47.5713V65.9845H260.956V61.966C259.196 64.9649 255.918 66.4643 251.119 66.4643C248.64 66.4643 246.481 66.0445 244.642 65.2048C242.842 64.3651 241.463 63.2055 240.503 61.7261C239.544 60.2466 239.064 58.5673 239.064 56.688C239.064 53.6891 240.183 51.3299 242.423 49.6106C244.702 47.8912 248.2 47.0315 252.919 47.0315H260.356C260.356 44.9923 259.736 43.4328 258.497 42.3532C257.257 41.2336 255.398 40.6739 252.919 40.6739C251.199 40.6739 249.5 40.9538 247.821 41.5135C246.181 42.0334 244.782 42.7531 243.622 43.6727L240.263 37.1352C242.023 35.8956 244.122 34.936 246.561 34.2562C249.04 33.5765 251.579 33.2366 254.178 33.2366ZM253.458 60.1667C255.058 60.1667 256.477 59.8068 257.717 59.0871C258.956 58.3273 259.836 57.2277 260.356 55.7883V52.4895H253.938C250.1 52.4895 248.18 53.749 248.18 56.2681C248.18 57.4677 248.64 58.4273 249.56 59.147C250.52 59.8268 251.819 60.1667 253.458 60.1667Z" fill="white"/>
<path d="M295.994 64.4251C295.074 65.1048 293.935 65.6247 292.575 65.9845C291.256 66.3044 289.856 66.4643 288.377 66.4643C284.538 66.4643 281.559 65.4847 279.44 63.5254C277.361 61.5662 276.321 58.6872 276.321 54.8886V41.6335H271.343V34.4362H276.321V26.5791H285.678V34.4362H293.715V41.6335H285.678V54.7687C285.678 56.1282 286.018 57.1878 286.697 57.9475C287.417 58.6672 288.417 59.0271 289.696 59.0271C291.176 59.0271 292.435 58.6272 293.475 57.8275L295.994 64.4251Z" fill="white"/>
<path d="M330.755 33.7164V65.9845H321.879V62.1459C320.639 63.5454 319.16 64.625 317.44 65.3847C315.721 66.1045 313.862 66.4643 311.862 66.4643C307.624 66.4643 304.265 65.2448 301.786 62.8057C299.307 60.3666 298.067 56.7479 298.067 51.9497V33.7164H307.424V50.5702C307.424 55.7683 309.603 58.3673 313.962 58.3673C316.201 58.3673 318 57.6476 319.36 56.2081C320.719 54.7287 321.399 52.5495 321.399 49.6705V33.7164H330.755Z" fill="white"/>
<path d="M345.361 37.9748C346.481 36.4154 347.98 35.2359 349.86 34.4362C351.779 33.6364 353.978 33.2366 356.457 33.2366V41.8734C355.418 41.7934 354.718 41.7535 354.358 41.7535C351.679 41.7535 349.58 42.5132 348.06 44.0326C346.541 45.5121 345.781 47.7512 345.781 50.7501V65.9845H336.425V33.7164H345.361V37.9748Z" fill="white"/>
<path d="M390.337 49.9704C390.337 50.0904 390.277 50.9301 390.157 52.4895H365.746C366.186 54.4888 367.226 56.0682 368.865 57.2277C370.505 58.3873 372.544 58.9671 374.983 58.9671C376.662 58.9671 378.142 58.7272 379.421 58.2474C380.741 57.7276 381.96 56.9279 383.08 55.8483L388.058 61.2463C385.019 64.725 380.581 66.4643 374.743 66.4643C371.104 66.4643 367.886 65.7646 365.087 64.3651C362.288 62.9256 360.128 60.9464 358.609 58.4273C357.09 55.9082 356.33 53.0493 356.33 49.8505C356.33 46.6916 357.07 43.8527 358.549 41.3336C360.069 38.7746 362.128 36.7953 364.727 35.3958C367.366 33.9563 370.305 33.2366 373.544 33.2366C376.702 33.2366 379.561 33.9163 382.12 35.2758C384.679 36.6353 386.679 38.5946 388.118 41.1537C389.598 43.6727 390.337 46.6117 390.337 49.9704ZM373.604 40.314C371.484 40.314 369.705 40.9138 368.265 42.1133C366.826 43.3129 365.946 44.9523 365.626 47.0315H381.521C381.201 44.9923 380.321 43.3729 378.882 42.1733C377.442 40.9338 375.683 40.314 373.604 40.314Z" fill="white"/>
<path fill-rule="evenodd" clip-rule="evenodd" d="M44.1456 0.618507C42.7199 -0.206169 40.9623 -0.206169 39.5367 0.618507C29.4108 6.47605 22.5813 17.4355 22.5813 29.9956C22.5813 31.7857 22.72 33.5433 22.9873 35.2583C16.0167 32.891 8.46914 33.7525 2.30444 37.3048C0.87744 38.127 -0.00137618 39.6492 1.6177e-06 41.2961C0.00726734 49.9848 4.52087 58.4529 12.6045 63.12C16.5702 65.4096 20.8986 66.4977 25.1683 66.4999C24.5187 68.3405 24.1653 70.3209 24.1653 72.3838C24.1653 82.1456 32.0788 90.059 41.8405 90.059C51.6022 90.059 59.5157 82.1456 59.5157 72.3838C59.5157 70.3163 59.1607 68.3318 58.5084 66.4877C62.5233 66.3611 66.5673 65.2705 70.2915 63.1203C78.3752 58.4533 82.8888 49.9851 82.896 41.2965C82.8974 39.6496 82.0186 38.1274 80.5916 37.3051C74.6697 33.8928 67.4718 32.9634 60.7351 34.9939C60.9761 33.3628 61.1009 31.6938 61.1009 29.9956C61.1009 17.4355 54.2715 6.47605 44.1456 0.618507ZM31.7857 29.9956C31.7857 21.8394 35.7349 14.6013 41.8411 10.0959C47.9473 14.6013 51.8966 21.8394 51.8966 29.9956C51.8966 38.1517 47.9473 45.3898 41.8411 49.8952C35.7349 45.3898 31.7857 38.1517 31.7857 29.9956ZM59.9916 45.2803C64.2417 42.8265 69.1525 42.541 73.4424 44.0937C72.6421 48.5852 69.9395 52.6953 65.6894 55.1491C61.4393 57.6029 56.5285 57.8884 52.2386 56.3357C53.0389 51.8442 55.7415 47.7341 59.9916 45.2803ZM9.45365 44.0933C13.7435 42.5406 18.6543 42.8261 22.9044 45.2799C27.1546 47.7337 29.8572 51.8438 30.6574 56.3353C26.3676 57.888 21.4568 57.6026 17.2067 55.1488C12.9565 52.695 10.2539 48.5848 9.45365 44.0933ZM33.3697 72.3838C33.3697 67.7055 37.1622 63.913 41.8405 63.913C46.5188 63.913 50.3113 67.7055 50.3113 72.3838C50.3113 77.0621 46.5188 80.8547 41.8405 80.8547C37.1622 80.8547 33.3697 77.0621 33.3697 72.3838Z" fill="white"/>
</svg>
