<svg width="378" height="100" viewBox="0 0 378 100" fill="none" xmlns="http://www.w3.org/2000/svg">
<path fill-rule="evenodd" clip-rule="evenodd" d="M74.9246 17.4825H33.7158V0H92.407V58.6912H74.9246V17.4825Z" fill="white"/>
<path fill-rule="evenodd" clip-rule="evenodd" d="M42.7352 52.2696C40.0656 50.4859 36.927 49.5338 33.7162 49.5338V32.0513C40.3847 32.0513 46.9034 34.0287 52.448 37.7335C57.9926 41.4383 62.3141 46.704 64.866 52.8649C67.4179 59.0257 68.0856 65.8049 66.7846 72.3452C65.4837 78.8856 62.2725 84.8932 57.5572 89.6085C52.8419 94.3238 46.8342 97.535 40.2939 98.8359C33.7536 100.137 26.9744 99.4691 20.8135 96.9172C14.6527 94.3653 9.38696 90.0438 5.68218 84.4992C1.9774 78.9546 -1.27029e-05 72.4359 0 65.7674L17.4825 65.7675C17.4825 68.9782 18.4346 72.1168 20.2184 74.7865C22.0021 77.4561 24.5375 79.5368 27.5038 80.7655C30.4702 81.9942 33.7342 82.3157 36.8833 81.6893C40.0323 81.0629 42.9249 79.5168 45.1952 77.2465C47.4655 74.9762 49.0117 72.0836 49.6381 68.9346C50.2644 65.7855 49.943 62.5215 48.7143 59.5551C47.4856 56.5888 45.4049 54.0534 42.7352 52.2696Z" fill="white"/>
<path d="M119.88 85.7878V12.4395H147.019C152.887 12.4395 157.742 13.4174 161.584 15.3734C165.426 17.3293 168.29 20.0188 170.176 23.4417C172.062 26.8646 173.005 30.7067 173.005 34.9679C173.005 39.0195 172.097 42.7568 170.281 46.1797C168.464 49.5327 165.635 52.2571 161.793 54.3528C157.951 56.3786 153.026 57.3915 147.019 57.3915H133.292V85.7878H119.88ZM133.292 46.494H146.18C150.861 46.494 154.214 45.4811 156.24 43.4553C158.335 41.3596 159.383 38.5305 159.383 34.9679C159.383 31.3354 158.335 28.5062 156.24 26.4804C154.214 24.3848 150.861 23.3369 146.18 23.3369H133.292V46.494Z" fill="white"/>
<path d="M200.566 87.0452C195.327 87.0452 190.682 85.9275 186.63 83.6921C182.578 81.4567 179.4 78.3132 177.095 74.2616C174.79 70.21 173.637 65.5297 173.637 60.2206C173.637 54.8418 174.755 50.0567 176.99 45.8653C179.295 41.674 182.439 38.4257 186.421 36.1205C190.472 33.7454 195.222 32.5578 200.671 32.5578C205.771 32.5578 210.276 33.6755 214.188 35.9109C218.1 38.1463 221.139 41.2199 223.304 45.1318C225.54 48.9739 226.657 53.27 226.657 58.0202C226.657 58.7886 226.622 59.5919 226.553 60.4302C226.553 61.2685 226.518 62.1417 226.448 63.0498H186.944C187.224 67.1014 188.621 70.2798 191.136 72.5851C193.72 74.8903 196.829 76.0429 200.462 76.0429C203.186 76.0429 205.456 75.4492 207.272 74.2616C209.159 73.0042 210.556 71.3975 211.464 69.4416H225.086C224.108 72.7248 222.466 75.7286 220.161 78.4529C217.925 81.1075 215.131 83.2031 211.778 84.7399C208.495 86.2768 204.758 87.0452 200.566 87.0452ZM200.671 43.4553C197.388 43.4553 194.489 44.3984 191.974 46.2845C189.459 48.1007 187.853 50.8949 187.154 54.6671H213.036C212.826 51.2442 211.569 48.5198 209.263 46.494C206.958 44.4682 204.094 43.4553 200.671 43.4553Z" fill="white"/>
<path d="M232.699 85.7878V33.8152H244.539L245.587 42.617C247.194 39.5434 249.499 37.0985 252.503 35.2822C255.576 33.466 259.174 32.5578 263.295 32.5578C269.722 32.5578 274.717 34.5837 278.279 38.6353C281.842 42.6869 283.623 48.6246 283.623 56.4484V85.7878H270.211V57.7058C270.211 53.2351 269.303 49.8122 267.487 47.4371C265.671 45.062 262.841 43.8744 258.999 43.8744C255.227 43.8744 252.119 45.2017 249.674 47.8562C247.299 50.5107 246.111 54.2131 246.111 58.9632V85.7878H232.699Z" fill="white"/>
<path d="M314.367 85.7878C308.918 85.7878 304.552 84.4605 301.269 81.806C297.986 79.1515 296.344 74.4362 296.344 67.6603V45.0271H287.437V33.8152H296.344L297.916 19.8791H309.756V33.8152H323.797V45.0271H309.756V67.765C309.756 70.2798 310.28 72.0262 311.328 73.0042C312.446 73.9123 314.332 74.3664 316.986 74.3664H323.483V85.7878H314.367Z" fill="white"/>
<path d="M347.992 87.0452C343.521 87.0452 339.853 86.3466 336.989 84.9495C334.125 83.4825 331.995 81.5615 330.597 79.1864C329.2 76.8113 328.502 74.1917 328.502 71.3277C328.502 66.5076 330.388 62.5957 334.16 59.5919C337.932 56.5882 343.591 55.0863 351.135 55.0863H364.338V53.8289C364.338 50.2662 363.325 47.6466 361.299 45.9701C359.273 44.2936 356.758 43.4553 353.755 43.4553C351.03 43.4553 348.655 44.1189 346.629 45.4462C344.604 46.7036 343.346 48.5897 342.857 51.1045H329.759C330.108 47.3323 331.366 44.0491 333.531 41.2549C335.767 38.4606 338.631 36.33 342.124 34.8631C345.616 33.3263 349.528 32.5578 353.859 32.5578C361.264 32.5578 367.097 34.409 371.358 38.1114C375.619 41.8137 377.75 47.0529 377.75 53.8289V85.7878H366.329L365.071 77.4051C363.534 80.1993 361.369 82.5046 358.575 84.3208C355.85 86.137 352.323 87.0452 347.992 87.0452ZM351.03 76.5668C354.872 76.5668 357.841 75.3094 359.937 72.7946C362.102 70.2798 363.465 67.1713 364.023 63.4689H352.602C349.039 63.4689 346.49 64.1325 344.953 65.4598C343.416 66.7172 342.648 68.289 342.648 70.1751C342.648 72.2009 343.416 73.7726 344.953 74.8903C346.49 76.008 348.515 76.5668 351.03 76.5668Z" fill="white"/>
</svg>
