<svg width="405" height="111" viewBox="0 0 405 111" fill="none" xmlns="http://www.w3.org/2000/svg">
<path d="M151.931 19.9879H166.343L150.639 87.5748H125.294L109.59 19.9879H124.002L135.73 75.6477H140.203L151.931 19.9879Z" fill="white"/>
<path d="M180.083 68.392C180.15 71.4401 180.945 73.6598 182.469 75.0513C184.059 76.3766 186.312 77.0392 189.227 77.0392C195.39 77.0392 200.889 76.8404 205.727 76.4428L208.51 76.1447L208.708 85.9845C201.088 87.8399 194.197 88.7675 188.035 88.7675C180.547 88.7675 175.114 86.7797 171.734 82.804C168.355 78.8283 166.665 72.3677 166.665 63.4224C166.665 45.598 173.987 36.6858 188.631 36.6858C203.076 36.6858 210.299 44.1734 210.299 59.1485L209.305 68.392H180.083ZM197.179 58.254C197.179 54.2783 196.549 51.5284 195.29 50.0044C194.031 48.4141 191.812 47.619 188.631 47.619C185.517 47.619 183.297 48.4473 181.972 50.1038C180.713 51.6941 180.05 54.4108 179.984 58.254H197.179Z" fill="white"/>
<path d="M217.829 87.5748V37.8785H231.048V43.1463C236.614 39.8332 241.915 37.6797 246.951 36.6858V50.1038C241.584 51.2303 236.979 52.3898 233.136 53.5825L231.148 54.2783V87.5748H217.829Z" fill="white"/>
<path d="M280.354 49.2093H268.129V69.5847C268.129 71.5726 268.162 72.9972 268.228 73.8586C268.361 74.6538 268.725 75.3495 269.321 75.9459C269.984 76.5422 270.978 76.8404 272.303 76.8404L279.857 76.6416L280.453 87.2766C276.014 88.2706 272.635 88.7675 270.315 88.7675C264.352 88.7675 260.277 87.4423 258.09 84.7918C255.903 82.0751 254.81 77.1054 254.81 69.8829V49.2093H248.946V37.8785H254.81V24.0629H268.129V37.8785H280.354V49.2093Z" fill="white"/>
<path d="M287.039 87.5748V37.8785H300.358V87.5748H287.039ZM287.039 31.5174V18H300.358V31.5174H287.039Z" fill="white"/>
<path d="M355.701 93.7371C355.701 99.4356 353.514 103.643 349.141 106.36C344.767 109.077 338.837 110.435 331.349 110.435C323.928 110.435 318.196 109.441 314.155 107.453C310.179 105.465 308.191 101.854 308.191 96.6195C308.191 92.445 310.576 88.5025 315.347 84.7918C312.896 83.1353 311.67 80.6173 311.67 77.238C311.67 75.9127 312.664 73.7261 314.651 70.6781L315.546 69.2866C311.04 66.0397 308.787 61.2689 308.787 54.974C308.787 48.6129 310.676 44.0077 314.453 41.1585C318.296 38.3092 323.365 36.8846 329.66 36.8846C332.509 36.8846 335.325 37.2159 338.108 37.8785L339.698 38.1767L355.701 37.6797V48.3147L348.246 47.7184C349.704 49.9713 350.433 52.2242 350.433 54.4771C350.433 61.1032 348.743 65.6753 345.364 68.1932C341.984 70.7112 336.684 71.9702 329.461 71.9702C327.937 71.9702 326.579 71.8376 325.386 71.5726C324.723 73.2954 324.392 74.72 324.392 75.8465C324.392 76.9067 324.955 77.6355 326.082 78.0331C327.208 78.4307 329.859 78.6626 334.033 78.7289C342.382 78.7951 348.081 79.9216 351.129 82.1082C354.177 84.2286 355.701 88.1049 355.701 93.7371ZM321.311 95.228C321.311 98.0773 324.79 99.5019 331.747 99.5019C338.771 99.5019 342.283 97.8454 342.283 94.5323C342.283 92.7432 341.686 91.5836 340.494 91.0535C339.301 90.5897 336.783 90.3247 332.94 90.2584L323.994 89.5627C322.205 91.3517 321.311 93.2402 321.311 95.228ZM322.106 54.5765C322.106 59.4136 324.624 61.8321 329.66 61.8321C334.762 61.8321 337.313 59.4136 337.313 54.5765C337.313 49.6731 334.762 47.2214 329.66 47.2214C324.624 47.2214 322.106 49.6731 322.106 54.5765Z" fill="white"/>
<path d="M364.465 43.5439C367.977 38.9718 373.841 36.6858 382.057 36.6858C390.274 36.6858 396.138 38.9718 399.65 43.5439C403.162 48.0497 404.918 54.4108 404.918 62.6273C404.918 80.0541 397.298 88.7675 382.057 88.7675C366.817 88.7675 359.197 80.0541 359.197 62.6273C359.197 54.4108 360.953 48.0497 364.465 43.5439ZM374.702 73.8586C376.094 76.244 378.546 77.4368 382.057 77.4368C385.569 77.4368 387.988 76.244 389.313 73.8586C390.705 71.4732 391.4 67.7294 391.4 62.6273C391.4 57.5251 390.705 53.8145 389.313 51.4953C387.988 49.1761 385.569 48.0166 382.057 48.0166C378.546 48.0166 376.094 49.1761 374.702 51.4953C373.377 53.8145 372.715 57.5251 372.715 62.6273C372.715 67.7294 373.377 71.4732 374.702 73.8586Z" fill="white"/>
<path fill-rule="evenodd" clip-rule="evenodd" d="M59.073 16.1971C53.1211 13.7317 46.6818 12.6686 40.2533 13.0899C33.8248 13.5113 27.5794 15.4058 22.0003 18.6269L16.3711 21.8769L9.87109 10.6186L15.5003 7.36861C22.8063 3.15045 30.9848 0.669529 39.4031 0.117767C47.8213 -0.433995 56.2537 0.958192 64.0478 4.18663C71.842 7.41507 78.789 12.3932 84.3514 18.736C89.9139 25.0787 93.9427 32.6161 96.1262 40.765C98.3097 48.9138 98.5893 57.4558 96.9435 65.73C95.2976 74.0042 91.7704 81.7889 86.6347 88.4819C81.499 95.1749 74.8924 100.597 67.3261 104.328C59.7598 108.059 50.0005 110 43.0003 110C36 110 31.9125 108.95 26.5446 106.727C21.3276 104.566 16.5873 101.399 12.5944 97.4056C8.60149 93.4127 5.43413 88.6724 3.27318 83.4554C1.11223 78.2384 0 72.6468 0 67C0 61.3532 1.11223 55.7616 3.27318 50.5446C5.43413 45.3276 8.60149 40.5873 12.5944 36.5944C16.5873 32.6015 21.3276 29.4341 26.5446 27.2732C31.7616 25.1122 37.3532 24 43 24C48.6468 24 54.2384 25.1122 59.4554 27.2732C64.6724 29.4341 69.4127 32.6015 73.4056 36.5944C77.3985 40.5873 80.5659 45.3276 82.7268 50.5446C83.6563 52.7887 84.3918 55.102 84.9282 57.4593C85.1907 52.9843 84.7358 48.4835 83.5691 44.1296C81.9018 37.9068 78.8252 32.151 74.5775 27.3075C70.3298 22.4639 65.0249 18.6624 59.073 16.1971ZM17.0373 82.0313C17.7747 68.0555 29.3405 56.9502 43.5 56.9502C57.1122 56.9502 68.3273 67.2135 69.8291 80.4239C70.1474 79.7877 70.4434 79.1396 70.7164 78.4805C72.224 74.8407 73 70.9397 73 67C73 63.0604 72.224 59.1593 70.7164 55.5195C69.2087 51.8797 66.999 48.5726 64.2132 45.7868C61.4274 43.001 58.1203 40.7913 54.4805 39.2836C50.8407 37.776 46.9397 37 43 37C39.0603 37 35.1593 37.776 31.5195 39.2836C27.8797 40.7913 24.5726 43.001 21.7868 45.7868C19.001 48.5726 16.7913 51.8797 15.2836 55.5195C13.776 59.1593 13 63.0603 13 67C13 70.9397 13.776 74.8407 15.2836 78.4805C15.7904 79.7041 16.3766 80.8901 17.0373 82.0313ZM57 83.4502C57 90.906 50.9558 96.9502 43.5 96.9502C36.0442 96.9502 30 90.906 30 83.4502C30 75.9944 36.0442 69.9502 43.5 69.9502C50.9558 69.9502 57 75.9944 57 83.4502Z" fill="white"/>
</svg>
