<svg width="459" height="91" viewBox="0 0 459 91" fill="none" xmlns="http://www.w3.org/2000/svg">
<path d="M56 10H24V0H56C67.0457 0 76 8.9543 76 20V52H66V20C66 14.4772 61.5229 10 56 10Z" fill="white"/>
<path d="M20 66H52V76H20C8.9543 76 -9.65645e-07 67.0457 0 56L2.06624e-06 24H10L10 56C10 61.5228 14.4772 66 20 66Z" fill="white"/>
<path fill-rule="evenodd" clip-rule="evenodd" d="M58 38C58 49.0457 49.0457 58 38 58C26.9543 58 18 49.0457 18 38C18 26.9543 26.9543 18 38 18C49.0457 18 58 26.9543 58 38ZM48 38C48 43.5229 43.5229 48 38 48C32.4772 48 28 43.5229 28 38C28 32.4772 32.4772 28 38 28C43.5229 28 48 32.4772 48 38Z" fill="white"/>
<path d="M118.675 69.6312C114.887 69.6312 111.478 68.9819 108.448 67.6833C105.418 66.3305 103.037 64.4366 101.305 62.0016C99.5738 59.5666 98.708 56.7258 98.708 53.4791H108.61C108.827 55.9141 109.774 57.9162 111.451 59.4855C113.183 61.0547 115.591 61.8393 118.675 61.8393C121.867 61.8393 124.357 61.0817 126.142 59.5666C127.928 57.9974 128.821 55.9953 128.821 53.5603C128.821 51.6664 128.253 50.1243 127.116 48.9338C126.034 47.7434 124.654 46.8235 122.977 46.1742C121.353 45.5248 119.081 44.8214 116.159 44.0639C112.479 43.0899 109.476 42.1159 107.149 41.1419C104.877 40.1138 102.929 38.5445 101.305 36.4342C99.682 34.3239 98.8703 31.5101 98.8703 27.9929C98.8703 24.7463 99.682 21.9054 101.305 19.4705C102.929 17.0355 105.201 15.1686 108.123 13.87C111.045 12.5713 114.427 11.922 118.269 11.922C123.734 11.922 128.198 13.3018 131.662 16.0615C135.179 18.767 137.127 22.5007 137.506 27.2624H127.279C127.116 25.2062 126.142 23.4476 124.357 21.9866C122.571 20.5256 120.217 19.7951 117.295 19.7951C114.644 19.7951 112.479 20.4715 110.802 21.8243C109.124 23.1771 108.286 25.125 108.286 27.6683C108.286 29.3998 108.8 30.8337 109.828 31.9701C110.91 33.0523 112.263 33.9181 113.886 34.5674C115.509 35.2167 117.728 35.9202 120.542 36.6777C124.275 37.7058 127.306 38.7339 129.632 39.762C132.013 40.7901 134.015 42.3864 135.639 44.5508C137.316 46.6612 138.155 49.502 138.155 53.0733C138.155 55.9412 137.37 58.6467 135.801 61.1899C134.286 63.7332 132.04 65.7894 129.064 67.3586C126.142 68.8737 122.679 69.6312 118.675 69.6312Z" fill="white"/>
<path d="M167.579 23.6099C171.096 23.6099 174.235 24.3404 176.994 25.8014C179.808 27.2624 181.999 29.4269 183.569 32.2947C185.138 35.1626 185.923 38.6257 185.923 42.684V69.0631H176.751V44.0639C176.751 40.0596 175.75 37.0024 173.748 34.8921C171.745 32.7276 169.013 31.6454 165.55 31.6454C162.087 31.6454 159.327 32.7276 157.271 34.8921C155.269 37.0024 154.268 40.0596 154.268 44.0639V69.0631H145.015V24.3404H154.268V29.4539C155.783 27.6141 157.704 26.1802 160.03 25.1521C162.411 24.124 164.927 23.6099 167.579 23.6099Z" fill="white"/>
<path d="M190.583 46.4988C190.583 42.0076 191.502 38.0305 193.342 34.5674C195.236 31.1043 197.779 28.4258 200.972 26.5319C204.219 24.5839 207.79 23.6099 211.686 23.6099C215.203 23.6099 218.26 24.3134 220.858 25.7203C223.509 27.073 225.619 28.7775 227.189 30.8337V24.3404H236.523V69.0631H227.189V62.4074C225.619 64.5178 223.482 66.2764 220.776 67.6833C218.071 69.0901 214.987 69.7936 211.524 69.7936C207.682 69.7936 204.164 68.8196 200.972 66.8716C197.779 64.8695 195.236 62.1098 193.342 58.5926C191.502 55.0213 190.583 50.99 190.583 46.4988ZM227.189 46.6612C227.189 43.5769 226.539 40.8984 225.241 38.6257C223.996 36.3531 222.346 34.6215 220.289 33.4311C218.233 32.2406 216.015 31.6454 213.634 31.6454C211.253 31.6454 209.034 32.2406 206.978 33.4311C204.922 34.5674 203.245 36.2719 201.946 38.5445C200.701 40.7631 200.079 43.4145 200.079 46.4988C200.079 49.5832 200.701 52.2887 201.946 54.6155C203.245 56.9422 204.922 58.7279 206.978 59.9725C209.089 61.1629 211.307 61.7581 213.634 61.7581C216.015 61.7581 218.233 61.1629 220.289 59.9725C222.346 58.782 223.996 57.0505 225.241 54.7778C226.539 52.451 227.189 49.7455 227.189 46.6612Z" fill="white"/>
<path d="M253.871 30.9149C255.44 28.8587 257.577 27.1271 260.283 25.7203C262.988 24.3134 266.046 23.6099 269.455 23.6099C273.351 23.6099 276.895 24.5839 280.088 26.5319C283.334 28.4258 285.877 31.1043 287.717 34.5674C289.557 38.0305 290.477 42.0076 290.477 46.4988C290.477 50.99 289.557 55.0213 287.717 58.5926C285.877 62.1098 283.334 64.8695 280.088 66.8716C276.895 68.8196 273.351 69.7936 269.455 69.7936C266.046 69.7936 263.016 69.1172 260.364 67.7644C257.713 66.3575 255.548 64.626 253.871 62.5698V90.3287H244.618V24.3404H253.871V30.9149ZM281.062 46.4988C281.062 43.4145 280.412 40.7631 279.114 38.5445C277.869 36.2719 276.192 34.5674 274.081 33.4311C272.025 32.2406 269.806 31.6454 267.426 31.6454C265.099 31.6454 262.88 32.2406 260.77 33.4311C258.714 34.6215 257.036 36.3531 255.738 38.6257C254.493 40.8984 253.871 43.5769 253.871 46.6612C253.871 49.7455 254.493 52.451 255.738 54.7778C257.036 57.0505 258.714 58.782 260.77 59.9725C262.88 61.1629 265.099 61.7581 267.426 61.7581C269.806 61.7581 272.025 61.1629 274.081 59.9725C276.192 58.7279 277.869 56.9422 279.114 54.6155C280.412 52.2887 281.062 49.5832 281.062 46.4988Z" fill="white"/>
<path d="M314.156 69.6312C310.368 69.6312 306.959 68.9819 303.929 67.6833C300.899 66.3305 298.518 64.4366 296.786 62.0016C295.055 59.5666 294.189 56.7258 294.189 53.4791H304.091C304.308 55.9141 305.255 57.9162 306.932 59.4855C308.664 61.0547 311.071 61.8393 314.156 61.8393C317.348 61.8393 319.837 61.0817 321.623 59.5666C323.409 57.9974 324.302 55.9953 324.302 53.5603C324.302 51.6664 323.733 50.1243 322.597 48.9338C321.515 47.7434 320.135 46.8235 318.458 46.1742C316.834 45.5248 314.562 44.8214 311.64 44.0639C307.96 43.0899 304.957 42.1159 302.63 41.1419C300.358 40.1138 298.41 38.5445 296.786 36.4342C295.163 34.3239 294.351 31.5101 294.351 27.9929C294.351 24.7463 295.163 21.9054 296.786 19.4705C298.41 17.0355 300.682 15.1686 303.604 13.87C306.526 12.5713 309.908 11.922 313.75 11.922C319.215 11.922 323.679 13.3018 327.142 16.0615C330.66 18.767 332.608 22.5007 332.986 27.2624H322.759C322.597 25.2062 321.623 23.4476 319.837 21.9866C318.052 20.5256 315.698 19.7951 312.776 19.7951C310.125 19.7951 307.96 20.4715 306.283 21.8243C304.605 23.1771 303.767 25.125 303.767 27.6683C303.767 29.3998 304.281 30.8337 305.309 31.9701C306.391 33.0523 307.744 33.9181 309.367 34.5674C310.99 35.2167 313.209 35.9202 316.023 36.6777C319.756 37.7058 322.786 38.7339 325.113 39.762C327.494 40.7901 329.496 42.3864 331.12 44.5508C332.797 46.6612 333.636 49.502 333.636 53.0733C333.636 55.9412 332.851 58.6467 331.282 61.1899C329.767 63.7332 327.521 65.7894 324.545 67.3586C321.623 68.8737 318.16 69.6312 314.156 69.6312Z" fill="white"/>
<path d="M363.628 23.6099C367.037 23.6099 370.067 24.3404 372.719 25.8014C375.424 27.2624 377.534 29.4269 379.05 32.2947C380.619 35.1626 381.403 38.6257 381.403 42.684V69.0631H372.232V44.0639C372.232 40.0596 371.231 37.0024 369.228 34.8921C367.226 32.7276 364.494 31.6454 361.031 31.6454C357.568 31.6454 354.808 32.7276 352.752 34.8921C350.75 37.0024 349.749 40.0596 349.749 44.0639V69.0631H340.496V9H349.749V29.5351C351.318 27.6412 353.293 26.1802 355.674 25.1521C358.109 24.124 360.76 23.6099 363.628 23.6099Z" fill="white"/>
<path d="M408.547 69.7936C404.326 69.7936 400.511 68.8466 397.102 66.9528C393.693 65.0048 391.015 62.2992 389.067 58.8361C387.119 55.3189 386.145 51.2606 386.145 46.6612C386.145 42.1159 387.146 38.0846 389.148 34.5674C391.15 31.0502 393.883 28.3446 397.346 26.4508C400.809 24.5569 404.678 23.6099 408.952 23.6099C413.227 23.6099 417.096 24.5569 420.559 26.4508C424.022 28.3446 426.755 31.0502 428.757 34.5674C430.759 38.0846 431.76 42.1159 431.76 46.6612C431.76 51.2065 430.732 55.2378 428.676 58.755C426.62 62.2722 423.806 65.0048 420.235 66.9528C416.717 68.8466 412.821 69.7936 408.547 69.7936ZM408.547 61.7581C410.927 61.7581 413.146 61.19 415.202 60.0536C417.313 58.9173 419.017 57.2128 420.316 54.9401C421.614 52.6675 422.264 49.9078 422.264 46.6612C422.264 43.4145 421.641 40.6819 420.397 38.4634C419.152 36.1907 417.502 34.4862 415.446 33.3499C413.389 32.2136 411.171 31.6454 408.79 31.6454C406.409 31.6454 404.191 32.2136 402.134 33.3499C400.132 34.4862 398.536 36.1907 397.346 38.4634C396.155 40.6819 395.56 43.4145 395.56 46.6612C395.56 51.4771 396.777 55.2107 399.212 57.8621C401.702 60.4595 404.813 61.7581 408.547 61.7581Z" fill="white"/>
<path d="M447.644 31.8889V56.6446C447.644 58.3221 448.023 59.5396 448.78 60.2971C449.592 61.0006 450.945 61.3523 452.839 61.3523H458.52V69.0631H451.215C447.049 69.0631 443.856 68.0891 441.638 66.1411C439.419 64.1931 438.31 61.0276 438.31 56.6446V31.8889H433.034V24.3404H438.31V13.2206H447.644V24.3404H458.52V31.8889H447.644Z" fill="white"/>
</svg>
