<svg width="248" height="88" viewBox="0 0 248 88" fill="none" xmlns="http://www.w3.org/2000/svg">
<path opacity="0.7" fill-rule="evenodd" clip-rule="evenodd" d="M6.99542 43.7276H35.8556L64.7158 0H35.8556L6.99542 43.7276ZM64.7136 87.4561H35.8534L6.99316 43.7285H35.8534L64.7136 87.4561Z" fill="white"/>
<path d="M28.8619 43.7276H57.7221L28.8619 0H0.00165176L28.8619 43.7276Z" fill="white"/>
<path d="M28.8602 87.4556H0L28.8602 43.728H57.7204L28.8602 87.4556Z" fill="white"/>
<path d="M79.001 43.318C79.001 39.37 79.8826 35.8436 81.6458 32.7388C83.4473 29.5957 85.8813 27.1617 88.9477 25.4369C92.0525 23.6737 95.5214 22.7921 99.3544 22.7921C103.839 22.7921 107.768 23.942 111.141 26.2418C114.514 28.5416 116.871 31.7231 118.213 35.7861H108.956C108.036 33.8696 106.733 32.4322 105.046 31.4739C103.398 30.5157 101.482 30.0365 99.2969 30.0365C96.9588 30.0365 94.8698 30.5923 93.0299 31.7039C91.2284 32.7771 89.8101 34.3104 88.7752 36.3035C87.7786 38.2967 87.2803 40.6349 87.2803 43.318C87.2803 45.9628 87.7786 48.301 88.7752 50.3325C89.8101 52.3257 91.2284 53.878 93.0299 54.9896C94.8698 56.0629 96.9588 56.5995 99.2969 56.5995C101.482 56.5995 103.398 56.1204 105.046 55.1621C106.733 54.1655 108.036 52.709 108.956 50.7924H118.213C116.871 54.8938 114.514 58.0944 111.141 60.3942C107.806 62.6557 103.877 63.7864 99.3544 63.7864C95.5214 63.7864 92.0525 62.924 88.9477 61.1991C85.8813 59.4359 83.4473 57.002 81.6458 53.8972C79.8826 50.7924 79.001 47.266 79.001 43.318Z" fill="white"/>
<path d="M136.932 63.9589C133.866 63.9589 131.106 63.2881 128.653 61.9466C126.2 60.5667 124.264 58.631 122.846 56.1395C121.466 53.648 120.776 50.7733 120.776 47.5152C120.776 44.2571 121.485 41.3823 122.903 38.8908C124.36 36.3994 126.334 34.4829 128.825 33.1413C131.317 31.7614 134.096 31.0714 137.162 31.0714C140.229 31.0714 143.008 31.7614 145.499 33.1413C147.991 34.4829 149.945 36.3994 151.364 38.8908C152.82 41.3823 153.549 44.2571 153.549 47.5152C153.549 50.7733 152.801 53.648 151.306 56.1395C149.85 58.631 147.856 60.5667 145.327 61.9466C142.835 63.2881 140.037 63.9589 136.932 63.9589ZM136.932 56.9445C138.389 56.9445 139.75 56.5995 141.014 55.9095C142.318 55.1813 143.353 54.108 144.119 52.6898C144.886 51.2716 145.269 49.5467 145.269 47.5152C145.269 44.4871 144.464 42.1681 142.854 40.5582C141.283 38.91 139.347 38.0859 137.047 38.0859C134.747 38.0859 132.812 38.91 131.24 40.5582C129.707 42.1681 128.94 44.4871 128.94 47.5152C128.94 50.5433 129.688 52.8814 131.183 54.5296C132.716 56.1395 134.632 56.9445 136.932 56.9445Z" fill="white"/>
<path d="M165.203 57.0595H173.988V63.4415H157.153V20.8945H165.203V57.0595Z" fill="white"/>
<path d="M176.134 47.4C176.134 44.1802 176.767 41.3246 178.031 38.8332C179.335 36.3417 181.079 34.4252 183.264 33.0836C185.487 31.742 187.959 31.0712 190.68 31.0712C193.057 31.0712 195.127 31.5504 196.89 32.5086C198.691 33.4669 200.129 34.6743 201.202 36.1309V31.5887H209.309V63.4413H201.202V58.7841C200.167 60.279 198.73 61.5247 196.89 62.5213C195.088 63.4796 192.999 63.9587 190.623 63.9587C187.94 63.9587 185.487 63.2688 183.264 61.8889C181.079 60.509 179.335 58.5733 178.031 56.0818C176.767 53.552 176.134 50.6581 176.134 47.4ZM201.202 47.515C201.202 45.5601 200.819 43.8928 200.052 42.5129C199.286 41.0946 198.251 40.0214 196.947 39.2931C195.644 38.5265 194.245 38.1432 192.75 38.1432C191.255 38.1432 189.876 38.5073 188.611 39.2356C187.346 39.9639 186.311 41.0372 185.506 42.4554C184.739 43.8353 184.356 45.4835 184.356 47.4C184.356 49.3165 184.739 51.0031 185.506 52.4596C186.311 53.8778 187.346 54.9702 188.611 55.7369C189.914 56.5035 191.294 56.8868 192.75 56.8868C194.245 56.8868 195.644 56.5226 196.947 55.7944C198.251 55.0277 199.286 53.9545 200.052 52.5746C200.819 51.1564 201.202 49.4698 201.202 47.515Z" fill="white"/>
<path d="M222.92 36.2459C223.955 34.7126 225.373 33.4669 227.175 32.5086C229.015 31.5504 231.104 31.0712 233.442 31.0712C236.163 31.0712 238.617 31.742 240.801 33.0836C243.024 34.4252 244.769 36.3417 246.033 38.8332C247.337 41.2863 247.988 44.1419 247.988 47.4C247.988 50.6581 247.337 53.552 246.033 56.0818C244.769 58.5733 243.024 60.509 240.801 61.8889C238.617 63.2688 236.163 63.9587 233.442 63.9587C231.065 63.9587 228.976 63.4988 227.175 62.5788C225.412 61.6206 223.993 60.394 222.92 58.8991V63.4413H214.871V20.8945H222.92V36.2459ZM239.766 47.4C239.766 45.4835 239.364 43.8353 238.559 42.4554C237.792 41.0372 236.757 39.9639 235.454 39.2356C234.189 38.5073 232.809 38.1432 231.315 38.1432C229.858 38.1432 228.478 38.5265 227.175 39.2931C225.91 40.0214 224.875 41.0946 224.07 42.5129C223.304 43.9311 222.92 45.5985 222.92 47.515C222.92 49.4315 223.304 51.0989 224.07 52.5171C224.875 53.9353 225.91 55.0277 227.175 55.7944C228.478 56.5226 229.858 56.8868 231.315 56.8868C232.809 56.8868 234.189 56.5035 235.454 55.7369C236.757 54.9702 237.792 53.8778 238.559 52.4596C239.364 51.0414 239.766 49.3548 239.766 47.4Z" fill="white"/>
</svg>
