<svg width="364" height="93" viewBox="0 0 364 93" fill="none" xmlns="http://www.w3.org/2000/svg">
<path d="M57 18C57 8.05888 65.0589 0 75 0C84.9411 0 93 8.05888 93 18C93 27.9411 84.9411 36 75 36C65.0589 36 57 27.9411 57 18Z" fill="white"/>
<path d="M76.0894 43.9771V56.9305C76.0894 62.6694 76.0862 66.729 75.8228 69.9005C75.5634 73.0242 75.0725 74.9265 74.2972 76.419C72.7869 79.3265 70.4163 81.6971 67.5089 83.2074C66.0164 83.9826 64.1141 84.4736 60.9904 84.733C57.8188 84.9964 53.7592 84.9996 48.0203 84.9996H36.0691C30.3302 84.9996 26.2706 84.9964 23.0991 84.733C19.9754 84.4736 18.073 83.9826 16.5806 83.2074C13.6731 81.6971 11.3025 79.3265 9.79224 76.419C9.01696 74.9265 8.52601 73.0242 8.2666 69.9005C8.00322 66.729 8 62.6694 8 56.9305V44.9793C8 39.2404 8.00322 35.1808 8.2666 32.0092C8.52601 28.8855 9.01696 26.9832 9.79224 25.4907C11.3025 22.5833 13.6731 20.2127 16.5806 18.7024C18.073 17.9271 19.9754 17.4362 23.0991 17.1768C26.2706 16.9134 30.3302 16.9102 36.0691 16.9102H49.0224C49.138 14.1061 49.6977 11.4166 50.633 8.91016L35.8911 8.91016C30.3702 8.91012 25.9785 8.9101 22.437 9.2042C18.8096 9.50544 15.7175 10.1358 12.8928 11.6031C8.52421 13.8724 4.96223 17.4344 2.69293 21.803C1.22562 24.6276 0.595283 27.7198 0.294048 31.3471C-5.79655e-05 34.8886 -3.17516e-05 39.2804 6.79033e-07 44.8013V57.1084C-3.17516e-05 62.6294 -5.79655e-05 67.0211 0.294048 70.5626C0.595283 74.19 1.22562 77.2821 2.69293 80.1068C4.96223 84.4754 8.52421 88.0374 12.8928 90.3067C15.7175 91.774 18.8096 92.4043 22.437 92.7055C25.9784 92.9996 30.3701 92.9996 35.8909 92.9996H48.1982C53.719 92.9996 58.111 92.9996 61.6525 92.7055C65.2798 92.4043 68.372 91.774 71.1966 90.3067C75.5652 88.0374 79.1272 84.4754 81.3965 80.1068C82.8638 77.2821 83.4942 74.19 83.7954 70.5626C84.0895 67.0212 84.0895 62.6295 84.0894 57.1087V42.3665C81.583 43.3018 78.8935 43.8615 76.0894 43.9771Z" fill="white"/>
<path d="M144.485 43.2911C144.485 45.7471 143.893 48.0495 142.709 50.1985C141.568 52.3475 139.748 54.0799 137.248 55.3956C134.792 56.7113 131.679 57.3692 127.907 57.3692H120.21V74.9997H111V29.0814H127.907C131.459 29.0814 134.485 29.6954 136.985 30.9234C139.485 32.1514 141.349 33.8398 142.577 35.9888C143.849 38.1378 144.485 40.5719 144.485 43.2911ZM127.512 49.9354C130.056 49.9354 131.942 49.3653 133.17 48.225C134.398 47.0408 135.012 45.3962 135.012 43.2911C135.012 38.8176 132.512 36.5809 127.512 36.5809H120.21V49.9354H127.512Z" fill="white"/>
<path d="M157.602 44.2121C158.787 42.2823 160.322 40.7693 162.207 39.6728C164.137 38.5764 166.33 38.0282 168.786 38.0282V47.6987H166.352C163.457 47.6987 161.265 48.3785 159.773 49.738C158.326 51.0976 157.602 53.4659 157.602 56.8429V74.9997H148.392V38.5545H157.602V44.2121Z" fill="white"/>
<path d="M188.541 75.5918C185.033 75.5918 181.875 74.8243 179.068 73.2893C176.261 71.7105 174.046 69.4957 172.424 66.645C170.845 63.7943 170.055 60.505 170.055 56.7771C170.055 53.0493 170.867 49.76 172.49 46.9093C174.156 44.0586 176.415 41.8657 179.265 40.3307C182.116 38.7518 185.296 37.9624 188.804 37.9624C192.313 37.9624 195.493 38.7518 198.343 40.3307C201.194 41.8657 203.431 44.0586 205.053 46.9093C206.72 49.76 207.553 53.0493 207.553 56.7771C207.553 60.505 206.698 63.7943 204.988 66.645C203.321 69.4957 201.041 71.7105 198.146 73.2893C195.295 74.8243 192.094 75.5918 188.541 75.5918ZM188.541 67.566C190.208 67.566 191.765 67.1712 193.212 66.3818C194.703 65.5485 195.887 64.3205 196.764 62.6978C197.642 61.0751 198.08 59.1015 198.08 56.7771C198.08 53.3124 197.159 50.659 195.317 48.817C193.519 46.9312 191.304 45.9883 188.673 45.9883C186.041 45.9883 183.827 46.9312 182.028 48.817C180.274 50.659 179.397 53.3124 179.397 56.7771C179.397 60.2418 180.252 62.9171 181.963 64.803C183.717 66.645 185.91 67.566 188.541 67.566Z" fill="white"/>
<path d="M209.309 56.6455C209.309 52.9615 210.033 49.6942 211.48 46.8435C212.972 43.9928 214.989 41.7999 217.533 40.2649C220.076 38.7299 222.905 37.9624 226.019 37.9624C228.387 37.9624 230.646 38.4887 232.795 39.5413C234.944 40.55 236.654 41.9096 237.926 43.62V26.3184H247.268V74.9997H237.926V69.6053C236.786 71.4035 235.185 72.8507 233.124 73.9472C231.063 75.0436 228.672 75.5918 225.953 75.5918C222.883 75.5918 220.076 74.8024 217.533 73.2235C214.989 71.6447 212.972 69.4299 211.48 66.5792C210.033 63.6846 209.309 60.3734 209.309 56.6455ZM237.992 56.7771C237.992 54.5404 237.553 52.6326 236.676 51.0538C235.799 49.431 234.615 48.2031 233.124 47.3698C231.633 46.4926 230.032 46.0541 228.322 46.0541C226.611 46.0541 225.032 46.4707 223.585 47.304C222.138 48.1373 220.954 49.3653 220.033 50.988C219.155 52.5668 218.717 54.4527 218.717 56.6455C218.717 58.8384 219.155 60.7681 220.033 62.4347C220.954 64.0574 222.138 65.3073 223.585 66.1845C225.076 67.0616 226.655 67.5002 228.322 67.5002C230.032 67.5002 231.633 67.0835 233.124 66.2502C234.615 65.3731 235.799 64.1451 236.676 62.5662C237.553 60.9435 237.992 59.0138 237.992 56.7771Z" fill="white"/>
<path d="M288.037 38.5545V74.9997H278.762V70.3947C277.577 71.9736 276.021 73.2235 274.091 74.1445C272.205 75.0217 270.144 75.4602 267.907 75.4602C265.056 75.4602 262.534 74.8682 260.342 73.684C258.149 72.456 256.416 70.6798 255.145 68.3554C253.917 65.9871 253.303 63.1802 253.303 59.9348V38.5545H262.513V58.6191C262.513 61.5137 263.236 63.7504 264.683 65.3292C266.131 66.8642 268.104 67.6317 270.604 67.6317C273.148 67.6317 275.143 66.8642 276.591 65.3292C278.038 63.7504 278.762 61.5137 278.762 58.6191V38.5545H288.037Z" fill="white"/>
<path d="M292.125 56.7771C292.125 53.0054 292.892 49.7161 294.427 46.9093C295.962 44.0586 298.089 41.8657 300.809 40.3307C303.528 38.7518 306.642 37.9624 310.15 37.9624C314.667 37.9624 318.395 39.1027 321.334 41.3833C324.316 43.62 326.311 46.7777 327.32 50.8564H317.387C316.86 49.2775 315.961 48.0496 314.689 47.1724C313.461 46.2514 311.926 45.7909 310.084 45.7909C307.453 45.7909 305.37 46.7558 303.835 48.6855C302.3 50.5713 301.532 53.2685 301.532 56.7771C301.532 60.2418 302.3 62.939 303.835 64.8687C305.37 66.7546 307.453 67.6975 310.084 67.6975C313.812 67.6975 316.246 66.031 317.387 62.6978H327.32C326.311 66.645 324.316 69.7807 321.334 72.1052C318.351 74.4296 314.624 75.5918 310.15 75.5918C306.642 75.5918 303.528 74.8243 300.809 73.2893C298.089 71.7105 295.962 69.5176 294.427 66.7107C292.892 63.86 292.125 60.5488 292.125 56.7771Z" fill="white"/>
<path d="M342.159 46.1198V63.7504C342.159 64.9784 342.444 65.8775 343.014 66.4476C343.628 66.9739 344.637 67.237 346.04 67.237H350.316V74.9997H344.527C336.765 74.9997 332.883 71.228 332.883 63.6846V46.1198H328.541V38.5545H332.883V29.5419H342.159V38.5545H350.316V46.1198H342.159Z" fill="white"/>
<path d="M358.388 75.4607C356.721 75.4607 355.34 74.9564 354.243 73.9476C353.191 72.8951 352.665 71.6013 352.665 70.0663C352.665 68.5313 353.191 67.2594 354.243 66.2507C355.34 65.1982 356.721 64.6719 358.388 64.6719C360.011 64.6719 361.348 65.1982 362.401 66.2507C363.453 67.2594 363.98 68.5313 363.98 70.0663C363.98 71.6013 363.453 72.8951 362.401 73.9476C361.348 74.9564 360.011 75.4607 358.388 75.4607Z" fill="white"/>
</svg>
