<svg width="544" height="78" viewBox="0 0 544 78" fill="none" xmlns="http://www.w3.org/2000/svg">
<path d="M101.483 71.7076V2.13281H114.206L146.906 51.1334V2.13281H159.628V71.7076H146.906L114.206 22.8065V71.7076H101.483Z" fill="white"/>
<path d="M191.802 72.9003C186.832 72.9003 182.426 71.8401 178.583 69.7198C174.739 67.5994 171.724 64.6176 169.538 60.7744C167.351 56.9313 166.258 52.4917 166.258 47.4558C166.258 42.3537 167.318 37.8147 169.438 33.839C171.625 29.8633 174.607 26.7822 178.384 24.5955C182.227 22.3426 186.733 21.2162 191.901 21.2162C196.738 21.2162 201.012 22.2764 204.723 24.3968C208.433 26.5171 211.316 29.4326 213.37 33.1433C215.49 36.7877 216.55 40.8628 216.55 45.3686C216.55 46.0975 216.517 46.8595 216.451 47.6546C216.451 48.4498 216.418 49.278 216.352 50.1394H178.881C179.146 53.9826 180.471 56.9975 182.856 59.1842C185.308 61.3708 188.257 62.4641 191.702 62.4641C194.287 62.4641 196.44 61.9009 198.163 60.7744C199.952 59.5817 201.277 58.0577 202.139 56.2024H215.06C214.132 59.3167 212.575 62.1659 210.388 64.7501C208.268 67.2681 205.617 69.2559 202.437 70.7137C199.322 72.1714 195.777 72.9003 191.802 72.9003ZM191.901 31.553C188.787 31.553 186.037 32.4476 183.652 34.2366C181.266 35.9594 179.742 38.6099 179.079 42.188H203.629C203.431 38.9412 202.238 36.357 200.051 34.4354C197.865 32.5138 195.148 31.553 191.901 31.553Z" fill="white"/>
<path d="M214.212 71.7076L232.103 47.0583L214.212 22.4089H227.829L240.353 39.902L252.777 22.4089H266.493L248.503 47.0583L266.493 71.7076H252.777L240.353 54.2145L227.829 71.7076H214.212Z" fill="white"/>
<path d="M291.594 71.7076C286.426 71.7076 282.284 70.4486 279.17 67.9307C276.056 65.4128 274.499 60.9401 274.499 54.5127V33.0439H266.05V22.4089H274.499L275.99 9.18969H287.221V22.4089H300.54V33.0439H287.221V54.6121C287.221 56.9975 287.718 58.6541 288.712 59.5817C289.772 60.4431 291.561 60.8738 294.079 60.8738H300.241V71.7076H291.594Z" fill="white"/>
<path d="M306.493 71.7076V22.4089H317.724L318.818 29.0682C320.408 26.6828 322.495 24.7943 325.079 23.4028C327.73 21.9451 330.778 21.2162 334.224 21.2162C341.844 21.2162 347.244 24.1648 350.425 30.0621C352.214 27.3454 354.599 25.1919 357.581 23.6016C360.629 22.0113 363.942 21.2162 367.52 21.2162C373.947 21.2162 378.884 23.1378 382.33 26.981C385.775 30.8241 387.498 36.4564 387.498 43.8777V71.7076H374.776V45.0704C374.776 40.8297 373.947 37.5828 372.291 35.3299C370.701 33.077 368.216 31.9506 364.836 31.9506C361.391 31.9506 358.608 33.2096 356.487 35.7275C354.433 38.2454 353.406 41.7573 353.406 46.2631V71.7076H340.684V45.0704C340.684 40.8297 339.856 37.5828 338.199 35.3299C336.543 33.077 333.992 31.9506 330.546 31.9506C327.167 31.9506 324.417 33.2096 322.296 35.7275C320.242 38.2454 319.215 41.7573 319.215 46.2631V71.7076H306.493Z" fill="white"/>
<path d="M418.262 72.9003C413.491 72.9003 409.184 71.807 405.341 69.6204C401.564 67.4337 398.549 64.4188 396.297 60.5757C394.11 56.6662 393.017 52.1604 393.017 47.0583C393.017 41.9561 394.143 37.4834 396.396 33.6403C398.649 29.7308 401.664 26.6828 405.441 24.4961C409.284 22.3095 413.591 21.2162 418.362 21.2162C423.066 21.2162 427.307 22.3095 431.084 24.4961C434.927 26.6828 437.942 29.7308 440.129 33.6403C442.382 37.4834 443.508 41.9561 443.508 47.0583C443.508 52.1604 442.382 56.6662 440.129 60.5757C437.942 64.4188 434.927 67.4337 431.084 69.6204C427.241 71.807 422.967 72.9003 418.262 72.9003ZM418.262 61.8678C421.575 61.8678 424.458 60.6419 426.909 58.1902C429.361 55.6723 430.587 51.9616 430.587 47.0583C430.587 42.1549 429.361 38.4774 426.909 36.0257C424.458 33.5077 421.608 32.2488 418.362 32.2488C414.982 32.2488 412.067 33.5077 409.615 36.0257C407.23 38.4774 406.037 42.1549 406.037 47.0583C406.037 51.9616 407.23 55.6723 409.615 58.1902C412.067 60.6419 414.949 61.8678 418.262 61.8678Z" fill="white"/>
<path d="M460.805 71.7076L442.716 22.4089H456.035L468.558 59.6811L481.081 22.4089H494.4L476.211 71.7076H460.805Z" fill="white"/>
<path d="M518.982 72.9003C514.012 72.9003 509.606 71.8401 505.763 69.7198C501.92 67.5994 498.905 64.6176 496.718 60.7744C494.531 56.9313 493.438 52.4917 493.438 47.4558C493.438 42.3537 494.498 37.8147 496.619 33.839C498.805 29.8633 501.787 26.7822 505.564 24.5955C509.407 22.3426 513.913 21.2162 519.081 21.2162C523.918 21.2162 528.192 22.2764 531.903 24.3968C535.614 26.5171 538.496 29.4326 540.55 33.1433C542.67 36.7877 543.731 40.8628 543.731 45.3686C543.731 46.0975 543.698 46.8595 543.631 47.6546C543.631 48.4498 543.598 49.278 543.532 50.1394H506.061C506.326 53.9826 507.651 56.9975 510.037 59.1842C512.488 61.3708 515.437 62.4641 518.883 62.4641C521.467 62.4641 523.62 61.9009 525.343 60.7744C527.132 59.5817 528.457 58.0577 529.319 56.2024H542.24C541.312 59.3167 539.755 62.1659 537.568 64.7501C535.448 67.2681 532.797 69.2559 529.617 70.7137C526.503 72.1714 522.958 72.9003 518.982 72.9003ZM519.081 31.553C515.967 31.553 513.217 32.4476 510.832 34.2366C508.446 35.9594 506.922 38.6099 506.26 42.188H530.81C530.611 38.9412 529.418 36.357 527.232 34.4354C525.045 32.5138 522.328 31.553 519.081 31.553Z" fill="white"/>
<path d="M38.75 0.780274V32.2325C38.75 35.8223 35.8399 38.7325 32.25 38.7325L0.797801 38.7325L0.797802 25.7325H16.5401L0 9.19239L9.19239 0L25.75 16.5576L25.75 0.780273L38.75 0.780274Z" fill="white"/>
<path d="M77.1465 39.1782H45.6943C42.1045 39.1782 39.1943 42.0884 39.1943 45.6782V77.1304L52.1943 77.1304L52.1943 61.3867L68.7356 77.928L77.928 68.7356L61.3706 52.1782H77.1465V39.1782Z" fill="white"/>
</svg>
