<svg width="351" height="64" viewBox="0 0 351 64" fill="none" xmlns="http://www.w3.org/2000/svg">
<path d="M112.555 57.1134C107.494 57.1134 103.019 56.1192 99.1328 54.1307C95.2462 52.097 92.2409 49.2272 90.1168 45.5214C87.9927 41.8155 86.9307 37.4544 86.9307 32.438C86.9307 27.4215 87.9927 23.0604 90.1168 19.3546C92.2409 15.6035 95.2462 12.7338 99.1328 10.7453C103.019 8.71159 107.494 7.69474 112.555 7.69474C115.99 7.69474 119.018 8.05629 121.639 8.77938C124.305 9.45727 126.746 10.5419 128.96 12.0333V21.8628C126.972 20.2358 124.69 19.0608 122.114 18.3377C119.583 17.5694 116.69 17.1853 113.436 17.1853C110.408 17.1853 107.674 17.818 105.234 19.0834C102.839 20.3036 100.941 22.0661 99.5395 24.371C98.1386 26.6758 97.4381 29.3648 97.4381 32.438C97.4381 35.5563 98.0708 38.2905 99.3362 40.6405C100.647 42.9454 102.477 44.7305 104.827 45.9959C107.177 47.2613 109.889 47.894 112.962 47.894C115.764 47.894 118.204 47.3969 120.283 46.4026V37.251H112.623V29.6586H130.248V52.5037C125.774 55.5768 119.876 57.1134 112.555 57.1134Z" fill="white"/>
<path d="M132.628 23.5575H142.525V28.235C143.836 26.6533 145.666 25.4556 148.016 24.6422C150.366 23.7835 153.032 23.3542 156.015 23.3542V31.15C152.897 31.15 150.14 31.6245 147.745 32.5736C145.395 33.5226 143.768 34.9688 142.864 36.9121V56.0966H132.628V23.5575Z" fill="white"/>
<path d="M175.686 57.1134C169.45 57.1134 164.546 55.622 160.976 52.6393C157.406 49.6114 155.621 45.3858 155.621 39.9626C155.621 34.5846 157.202 30.3365 160.366 27.2182C163.575 24.0998 168.139 22.5407 174.059 22.5407C177.946 22.5407 181.245 23.2638 183.957 24.7099C186.668 26.1561 188.725 28.1672 190.126 30.7432C191.527 33.274 192.227 36.1438 192.227 39.3525V43.4877H165.382C166.105 47.6455 169.992 49.7243 177.042 49.7243C179.121 49.7243 181.268 49.5436 183.482 49.182C185.697 48.8205 187.617 48.3233 189.244 47.6906V54.8764C187.663 55.5543 185.629 56.0966 183.143 56.5033C180.658 56.91 178.172 57.1134 175.686 57.1134ZM182.533 36.8443C182.398 34.675 181.584 33.0029 180.093 31.8279C178.601 30.6076 176.545 29.9975 173.924 29.9975C171.348 29.9975 169.314 30.6076 167.823 31.8279C166.331 33.0481 165.518 34.7202 165.382 36.8443H182.533Z" fill="white"/>
<path d="M213.209 57.1134C206.972 57.1134 202.069 55.622 198.499 52.6393C194.928 49.6114 193.143 45.3858 193.143 39.9626C193.143 34.5846 194.725 30.3365 197.889 27.2182C201.097 24.0998 205.662 22.5407 211.582 22.5407C215.469 22.5407 218.768 23.2638 221.479 24.7099C224.191 26.1561 226.247 28.1672 227.648 30.7432C229.049 33.274 229.75 36.1438 229.75 39.3525V43.4877H202.905C203.628 47.6455 207.515 49.7243 214.565 49.7243C216.644 49.7243 218.79 49.5436 221.005 49.182C223.219 48.8205 225.14 48.3233 226.767 47.6906V54.8764C225.185 55.5543 223.152 56.0966 220.666 56.5033C218.18 56.91 215.695 57.1134 213.209 57.1134ZM220.056 36.8443C219.92 34.675 219.107 33.0029 217.615 31.8279C216.124 30.6076 214.068 29.9975 211.447 29.9975C208.871 29.9975 206.837 30.6076 205.345 31.8279C203.854 33.0481 203.041 34.7202 202.905 36.8443H220.056Z" fill="white"/>
<path d="M232.022 23.5575H241.919V27.5571C243.41 25.885 245.173 24.6422 247.207 23.8287C249.285 22.97 251.455 22.5407 253.714 22.5407C258.143 22.5407 261.442 23.7383 263.612 26.1335C265.826 28.4836 266.933 31.6697 266.933 35.6919V56.0966H256.697V36.8443C256.697 32.6413 254.754 30.5399 250.867 30.5399C249.15 30.5399 247.546 30.9692 246.054 31.8279C244.563 32.6413 243.297 33.8616 242.258 35.4885V56.0966H232.022V23.5575Z" fill="white"/>
<path d="M275.965 18.5411C274.384 18.5411 273.05 18.0214 271.966 16.9819C270.881 15.9425 270.339 14.6319 270.339 13.0501C270.339 11.5136 270.881 10.2256 271.966 9.18611C273.05 8.10148 274.384 7.55916 275.965 7.55916C277.547 7.55916 278.88 8.10148 279.965 9.18611C281.05 10.2256 281.592 11.5136 281.592 13.0501C281.592 14.6319 281.05 15.9425 279.965 16.9819C278.88 18.0214 277.547 18.5411 275.965 18.5411ZM270.813 23.5575H281.117V56.0966H270.813V23.5575Z" fill="white"/>
<path d="M298.575 57.1134C296.135 57.1134 293.514 56.8422 290.712 56.2999C287.955 55.8028 285.786 55.0797 284.204 54.1307V46.1315C286.012 47.2161 288.181 48.0974 290.712 48.7753C293.242 49.4532 295.593 49.7921 297.762 49.7921C299.615 49.7921 300.971 49.634 301.829 49.3176C302.688 49.0012 303.117 48.4137 303.117 47.5551C303.117 46.8772 302.869 46.3349 302.372 45.9281C301.874 45.4762 301.106 45.092 300.067 44.7757C299.072 44.4141 297.4 43.8944 295.05 43.2165C292.293 42.4031 290.124 41.5896 288.542 40.7761C287.006 39.9174 285.831 38.8554 285.017 37.59C284.249 36.3246 283.865 34.6976 283.865 32.7091C283.865 29.3196 285.198 26.7888 287.865 25.1167C290.576 23.3993 294.237 22.5407 298.846 22.5407C301.106 22.5407 303.434 22.7892 305.829 23.2864C308.269 23.7383 310.145 24.3484 311.455 25.1167V32.9125C310.145 32.0538 308.427 31.3533 306.303 30.811C304.224 30.2687 302.191 29.9975 300.202 29.9975C298.349 29.9975 296.903 30.1783 295.864 30.5399C294.869 30.9014 294.372 31.5793 294.372 32.5736C294.372 33.4322 294.847 34.0875 295.796 34.5395C296.79 34.9914 298.62 35.5563 301.287 36.2342L302.643 36.5731C305.49 37.3414 307.704 38.2001 309.286 39.1492C310.868 40.053 311.975 41.1602 312.608 42.4708C313.286 43.7362 313.625 45.3406 313.625 47.2839C313.625 50.2667 312.337 52.6619 309.761 54.4696C307.185 56.2321 303.456 57.1134 298.575 57.1134Z" fill="white"/>
<path d="M315.991 6H326.227V27.286C327.764 25.7042 329.504 24.5292 331.447 23.7609C333.39 22.9474 335.469 22.5407 337.684 22.5407C342.113 22.5407 345.412 23.7383 347.581 26.1335C349.795 28.4836 350.903 31.6697 350.903 35.6919V56.0966H340.666V36.8443C340.666 32.6413 338.723 30.5399 334.836 30.5399C333.119 30.5399 331.515 30.9692 330.023 31.8279C328.532 32.6413 327.267 33.8616 326.227 35.4885V56.0966H315.991V6Z" fill="white"/>
<path fill-rule="evenodd" clip-rule="evenodd" d="M51.9723 15.5916C51.9723 24.2026 44.9917 31.1832 36.3807 31.1832C27.7697 31.1832 20.7891 24.2026 20.7891 15.5916C20.7891 6.9806 27.7697 0 36.3807 0C44.9917 0 51.9723 6.9806 51.9723 15.5916ZM0.113326 30.0501C17.1 28.9051 31.9045 41.623 33.2834 58.6456C33.4263 60.4096 33.4194 62.1511 33.2735 63.8577C16.2868 65.0027 1.4824 52.2848 0.103464 35.2622C-0.0394272 33.4983 -0.0325948 31.7567 0.113326 30.0501ZM44.2642 63.2618C61.2867 61.8829 74.0046 47.0785 72.8597 30.0918C71.1531 29.9459 69.4115 29.9391 67.6476 30.082C50.625 31.4609 37.9071 46.2653 39.0521 63.2519C40.7587 63.3978 42.5002 63.4047 44.2642 63.2618Z" fill="white"/>
</svg>
