<svg width="229" height="75" viewBox="0 0 229 75" fill="none" xmlns="http://www.w3.org/2000/svg">
<path d="M74.9238 65.9998C74.9238 67.1044 75.8193 67.9998 76.9238 67.9998H84.3395C85.4441 67.9998 86.3395 67.1044 86.3395 65.9998V8.30469C86.3395 7.20012 85.4441 6.30469 84.3395 6.30469H76.9238C75.8193 6.30469 74.9238 7.20012 74.9238 8.30469V65.9998Z" fill="white"/>
<path fill-rule="evenodd" clip-rule="evenodd" d="M103.119 66.1951C106.56 68.2376 110.561 69.2589 115.122 69.2589C119.655 69.2589 123.642 68.2516 127.083 66.2371C130.553 64.1946 133.253 61.3826 135.183 57.8012C137.142 54.1918 138.121 50.0369 138.121 45.3363C138.121 40.6637 137.156 36.5367 135.225 32.9553C133.295 29.3459 130.595 26.52 127.125 24.4775C123.684 22.4349 119.683 21.4137 115.122 21.4137C110.645 21.4137 106.686 22.421 103.245 24.4355C99.8032 26.45 97.1032 29.262 95.1446 32.8714C93.186 36.4527 92.2067 40.6077 92.2067 45.3363C92.2067 50.0089 93.158 54.1499 95.0606 57.7592C96.9912 61.3406 99.6773 64.1526 103.119 66.1951ZM123.306 54.9053C121.515 57.3675 118.787 58.5986 115.122 58.5986C111.569 58.5986 108.869 57.4095 107.022 55.0312C105.203 52.625 104.294 49.3933 104.294 45.3363C104.294 42.7062 104.672 40.3979 105.427 38.4113C106.211 36.4248 107.4 34.8719 108.994 33.7527C110.589 32.6335 112.632 32.0739 115.122 32.0739C118.731 32.0739 121.445 33.2771 123.264 35.6833C125.111 38.0896 126.034 41.3072 126.034 45.3363C126.034 49.2254 125.125 52.4151 123.306 54.9053Z" fill="white"/>
<path fill-rule="evenodd" clip-rule="evenodd" d="M155.745 69.2589C152.499 69.2589 149.743 68.6433 147.477 67.4122C145.238 66.1531 143.531 64.4883 142.356 62.4178C141.209 60.3194 140.636 58.0111 140.636 55.4929C140.636 53.3944 140.957 51.4778 141.601 49.7431C142.244 48.0083 143.28 46.4834 144.707 45.1684C146.162 43.8254 148.106 42.7062 150.54 41.8108C152.219 41.1953 154.22 40.6497 156.542 40.174C158.864 39.6984 161.494 39.2507 164.432 38.831C166.161 38.5675 167.992 38.2895 169.925 37.9969C169.708 36.1282 169.094 34.6995 168.084 33.7107C166.797 32.4517 164.642 31.8221 161.62 31.8221C159.941 31.8221 158.193 32.2278 156.374 33.0392C154.555 33.8506 153.282 35.2916 152.555 37.3621L142.23 34.0885C143.378 30.3392 145.532 27.2894 148.694 24.9391C151.855 22.5888 156.164 21.4137 161.62 21.4137C165.621 21.4137 169.175 22.0292 172.281 23.2603C175.386 24.4914 177.737 26.6179 179.331 29.6397C180.227 31.3185 180.758 32.9973 180.926 34.676C181.094 36.3548 181.178 38.2295 181.178 40.2999V67.9998H171.189V62.4357C169.386 64.5604 167.469 66.1633 165.439 67.2443C162.893 68.5874 159.662 69.2589 155.745 69.2589ZM158.179 60.2774C160.277 60.2774 162.04 59.9137 163.467 59.1862C164.922 58.4308 166.069 57.5774 166.908 56.6261C167.776 55.6748 168.363 54.8773 168.671 54.2338C169.259 53.0027 169.594 51.5757 169.678 49.9529C169.747 48.9471 169.794 48.0452 169.821 47.2471C167.941 47.5681 166.326 47.8545 164.978 48.1063C162.879 48.47 161.187 48.8058 159.9 49.1135C158.612 49.4213 157.479 49.7571 156.5 50.1208C155.381 50.5685 154.471 51.0581 153.772 51.5897C153.1 52.0934 152.597 52.653 152.261 53.2685C151.953 53.8841 151.799 54.5696 151.799 55.325C151.799 56.3603 152.051 57.2556 152.555 58.0111C153.086 58.7385 153.828 59.2981 154.779 59.6898C155.731 60.0816 156.864 60.2774 158.179 60.2774Z" fill="white"/>
<path fill-rule="evenodd" clip-rule="evenodd" d="M195.322 66.1112C198.456 68.2096 202.107 69.2589 206.276 69.2589C210.781 69.2589 214.544 68.2096 217.566 66.1112C217.897 65.8814 218.219 65.6426 218.532 65.3948V67.9998H228.604V7.56377H217.105V24.1345C214.284 22.3206 210.87 21.4137 206.864 21.4137C202.527 21.4137 198.75 22.4489 195.532 24.5194C192.315 26.5899 189.81 29.4299 188.02 33.0392C186.257 36.6206 185.376 40.7196 185.376 45.3363C185.376 49.869 186.243 53.94 187.978 57.5494C189.74 61.1588 192.189 64.0127 195.322 66.1112ZM218.532 45.3363C218.532 48.0783 218.196 50.4845 217.524 52.555C216.853 54.6255 215.748 56.2344 214.209 57.3815C212.698 58.5287 210.669 59.1023 208.123 59.1023C205.661 59.1023 203.646 58.4867 202.079 57.2556C200.513 56.0245 199.351 54.3737 198.596 52.3032C197.841 50.2047 197.463 47.8824 197.463 45.3363C197.463 42.8181 197.855 40.5238 198.638 38.4533C199.421 36.3548 200.625 34.69 202.247 33.4589C203.898 32.1998 205.997 31.5703 208.543 31.5703C210.921 31.5703 212.838 32.1439 214.293 33.291C215.776 34.4382 216.853 36.047 217.524 38.1175C218.196 40.188 218.532 42.5943 218.532 45.3363Z" fill="white"/>
<path fill-rule="evenodd" clip-rule="evenodd" d="M0.850904 4.26265C0 5.93265 0 8.11879 0 12.4911V62.2323C0 66.6046 0 68.7908 0.850904 70.4607C1.59938 71.9297 2.79369 73.124 4.26265 73.8725C5.93265 74.7234 8.11879 74.7234 12.4911 74.7234H39.9268C44.2991 74.7234 46.4853 74.7234 48.1553 73.8725C49.6242 73.124 50.8185 71.9297 51.567 70.4607C52.4179 68.7908 52.4179 66.6046 52.4179 62.2323V7.13776C52.4179 4.63931 52.4179 3.39008 51.9317 2.4358C51.504 1.59639 50.8215 0.913931 49.9821 0.486231C49.0278 0 47.7786 0 45.2802 0H12.4911C8.11879 0 5.93265 0 4.26265 0.850904C2.79369 1.59938 1.59938 2.79369 0.850904 4.26265ZM28.6281 33.3165C27.4489 34.9928 24.9704 34.9928 23.7912 33.3165L8.35431 11.3729C6.97068 9.40607 8.37298 6.69189 10.7728 6.69189L41.6465 6.6919C44.0463 6.6919 45.4486 9.40607 44.065 11.3729L28.6281 33.3165ZM23.7915 41.4077C24.9708 39.7313 27.4492 39.7313 28.6285 41.4077L44.0653 63.3513C45.449 65.3181 44.0467 68.0323 41.6469 68.0323H10.7732C8.37333 68.0323 6.97104 65.3181 8.35467 63.3513L23.7915 41.4077Z" fill="white"/>
</svg>
