<svg width="343" height="117" viewBox="0 0 343 117" fill="none" xmlns="http://www.w3.org/2000/svg">
<path d="M46.732 1.33974C49.826 -0.446583 53.638 -0.44658 56.732 1.33975L97.6998 24.9925L69.3716 41.5799C64.9865 37.1776 58.9184 34.4531 52.2139 34.4531C45.2413 34.4531 38.9569 37.3999 34.5383 42.1161L5.52753 25.1291L46.732 1.33974Z" fill="white"/>
<path d="M29.0162 51.6964L0 34.7063V82.1997L28.9081 65.2728C28.3146 63.1738 27.9971 60.959 27.9971 58.67C27.9971 56.2458 28.3533 53.9048 29.0162 51.6964Z" fill="white"/>
<path d="M34.2784 74.9421L5.98339 91.5099L46.732 115.036C49.826 116.822 53.638 116.822 56.732 115.036L97.244 91.6465L69.6419 75.4844C65.2377 80.0483 59.0573 82.8869 52.2139 82.8869C45.1034 82.8869 38.7087 79.8224 34.2784 74.9421Z" fill="white"/>
<path d="M75.3057 65.9871L103.462 82.4738C103.463 82.4099 103.464 82.3459 103.464 82.2819V34.4312L75.1871 50.9884C75.9938 53.402 76.4308 55.985 76.4308 58.67C76.4308 61.2203 76.0366 63.6785 75.3057 65.9871Z" fill="white"/>
<path fill-rule="evenodd" clip-rule="evenodd" d="M136.979 85.923C141.037 88.4002 145.913 89.6388 151.605 89.6388C157.297 89.6388 162.172 88.4002 166.231 85.923C170.315 83.4195 173.438 79.9409 175.599 75.4873C177.786 71.0336 178.88 65.8685 178.88 59.9918C178.88 54.1151 177.786 48.9499 175.599 44.4962C173.438 40.0426 170.315 36.5772 166.231 34.1C162.172 31.5965 157.297 30.3447 151.605 30.3447C145.913 30.3447 141.037 31.5965 136.979 34.1C132.921 36.5772 129.798 40.0426 127.611 44.4962C125.45 48.9499 124.369 54.1151 124.369 59.9918C124.369 65.8685 125.45 71.0336 127.611 75.4873C129.798 79.9409 132.921 83.4195 136.979 85.923ZM161.131 78.1357C158.602 79.8487 155.426 80.692 151.605 80.6656C147.784 80.6129 144.595 79.7301 142.039 78.0171C139.509 76.3042 137.611 73.9193 136.347 70.8623C135.082 67.779 134.449 64.1555 134.449 59.9918C134.449 55.828 135.082 52.1913 136.347 49.0816C137.638 45.972 139.548 43.5607 142.078 41.8478C144.608 40.1348 147.784 39.2915 151.605 39.3179C155.426 39.3706 158.602 40.2534 161.131 41.9664C163.688 43.6793 165.598 46.0774 166.863 49.1607C168.155 52.2176 168.8 55.828 168.8 59.9918C168.8 64.1555 168.155 67.7922 166.863 70.9019C165.598 74.0115 163.688 76.4228 161.131 78.1357Z" fill="white"/>
<path d="M183.586 86.4529C183.586 87.5575 184.481 88.4529 185.586 88.4529H191.152C192.257 88.4529 193.152 87.5575 193.152 86.4529V66.7513C193.152 65.1174 193.35 63.6021 193.745 62.2054C194.14 60.7823 194.746 59.5174 195.563 58.4106C196.407 57.3038 197.487 56.3946 198.805 55.683C200.122 54.8925 201.598 54.4313 203.232 54.2995C203.845 54.2509 204.431 54.2363 204.99 54.256C206.323 54.3027 207.62 53.322 207.62 51.9886V47.4554C207.62 46.4778 206.913 45.6297 205.937 45.5753C205.206 45.5345 204.462 45.5438 203.706 45.6031C202.362 45.6821 201.045 45.9325 199.753 46.3541C198.489 46.7494 197.329 47.3028 196.275 48.0144C195.036 48.7786 193.969 49.7536 193.073 50.9395C192.683 51.4599 192.327 52.0068 192.006 52.5802V47.7612C192.006 46.6566 191.11 45.7612 190.006 45.7612H185.586C184.481 45.7612 183.586 46.6566 183.586 47.7612V86.4529Z" fill="white"/>
<path fill-rule="evenodd" clip-rule="evenodd" d="M232.517 89.6388C228.353 89.6388 224.861 88.6505 222.041 86.6741C221.443 86.2549 220.877 85.8038 220.341 85.3206V86.4529C220.341 87.5575 219.446 88.4529 218.341 88.4529H213.922C212.817 88.4529 211.922 87.5575 211.922 86.4529V33.5306C211.922 32.426 212.817 31.5306 213.922 31.5306H219.527C220.632 31.5306 221.527 32.426 221.527 33.5306V47.8297C221.658 47.7314 221.789 47.6349 221.923 47.54C224.69 45.5635 228.102 44.5753 232.161 44.5753C236.193 44.5753 239.685 45.5635 242.636 47.54C245.614 49.4901 247.92 52.1649 249.554 55.5645C251.188 58.9376 252.005 62.7852 252.005 67.107C252.005 71.3762 251.201 75.2106 249.593 78.6101C247.986 82.0096 245.719 84.6976 242.794 86.6741C239.869 88.6505 236.443 89.6388 232.517 89.6388ZM221.409 59.7941C220.697 61.876 220.341 64.3136 220.341 67.107C220.341 69.8741 220.697 72.3117 221.409 74.42C222.147 76.5282 223.293 78.1753 224.848 79.3611C226.429 80.5207 228.498 81.1004 231.054 81.1004C233.531 81.1004 235.573 80.4811 237.181 79.2426C238.789 78.004 239.974 76.3306 240.739 74.2223C241.529 72.0877 241.925 69.716 241.925 67.107C241.925 64.5244 241.529 62.179 240.739 60.0708C239.948 57.9362 238.723 56.2496 237.062 55.011C235.402 53.7461 233.294 53.1136 230.738 53.1136C228.313 53.1136 226.337 53.7066 224.808 54.8925C223.28 56.052 222.147 57.6859 221.409 59.7941Z" fill="white"/>
<path d="M258.346 86.4529C258.346 87.5575 259.241 88.4529 260.346 88.4529H265.872C266.977 88.4529 267.872 87.5575 267.872 86.4529V47.7612C267.872 46.6566 266.977 45.7612 265.872 45.7612H260.346C259.241 45.7612 258.346 46.6566 258.346 47.7612V86.4529Z" fill="white"/>
<path d="M301.573 86.7921C301.573 87.7549 300.888 88.5866 299.935 88.7259C297.68 89.0556 295.459 89.1886 293.272 89.1249C290.584 89.0722 288.173 88.5847 286.038 87.6623C283.903 86.7136 282.283 85.2247 281.176 83.1955C280.201 81.3508 279.687 79.4666 279.634 77.5428C279.582 75.619 279.555 73.4449 279.555 71.0204V53.2322H273.807C272.703 53.2322 271.807 52.3368 271.807 51.2322V47.7612C271.807 46.6566 272.703 45.7612 273.807 45.7612H279.555V35.9024C279.555 34.7978 280.451 33.9024 281.555 33.9024H287.042C288.147 33.9024 289.042 34.7978 289.042 35.9024V45.7612H299.573C300.678 45.7612 301.573 46.6566 301.573 47.7612V51.2322C301.573 52.3368 300.678 53.2322 299.573 53.2322H289.042V70.467C289.042 72.18 289.055 73.6821 289.082 74.9734C289.135 76.2647 289.411 77.3188 289.912 78.1357C290.861 79.7169 292.376 80.5997 294.458 80.7842C295.919 80.9137 297.524 80.9003 299.271 80.7441C300.487 80.6354 301.573 81.5654 301.573 82.7869V86.7921Z" fill="white"/>
<path d="M312.702 86.7136C315.812 88.6637 319.567 89.6388 323.968 89.6388C328.738 89.6388 332.77 88.4793 336.064 86.1602C338.826 84.1941 340.893 81.5243 342.265 78.1508C342.703 77.0735 342.015 75.9034 340.88 75.6497L335.014 74.3383C334.016 74.115 333.028 74.6919 332.577 75.6102C331.893 77.0019 331.013 78.1205 329.937 78.9659C328.488 80.1254 326.498 80.7051 323.968 80.7051C320.384 80.7051 317.683 79.4534 315.865 76.9499C314.046 74.4463 313.137 71.1654 313.137 67.107C313.137 64.4981 313.519 62.1659 314.284 60.1103C315.048 58.0548 316.234 56.4473 317.841 55.2878C319.449 54.1019 321.491 53.5089 323.968 53.5089C326.156 53.5089 328.106 54.1546 329.819 55.4459C331.063 56.3645 332.05 57.5543 332.779 59.015C333.257 59.9705 334.306 60.5627 335.337 60.2835L341.1 58.7226C342.147 58.4391 342.789 57.3672 342.429 56.3438C341.255 53.0031 339.239 50.3057 336.381 48.2515C333.034 45.8007 328.936 44.5753 324.087 44.5753C319.765 44.5753 316.036 45.5504 312.9 47.5005C309.764 49.4242 307.34 52.0859 305.627 55.4854C303.94 58.8586 303.084 62.7324 303.057 67.107C303.084 71.4026 303.914 75.2501 305.548 78.6496C307.208 82.0491 309.593 84.7371 312.702 86.7136Z" fill="white"/>
<path d="M258.118 34.2575L260.802 31.5744C261.973 30.4029 263.873 30.4029 265.044 31.5744L267.727 34.2575C268.899 35.4291 268.899 37.3286 267.727 38.5002L265.044 41.1833C263.873 42.3548 261.973 42.3548 260.802 41.1833L258.118 38.5002C256.947 37.3286 256.947 35.4291 258.118 34.2575Z" fill="white"/>
</svg>
