<svg width="259" height="73" viewBox="0 0 259 73" fill="none" xmlns="http://www.w3.org/2000/svg">
<path d="M90.4254 63.9135C85.6328 63.9135 81.5179 63.0663 78.0808 61.372C74.6437 59.6776 71.8359 57.475 69.6575 54.764C67.5274 52.0531 65.9541 49.1001 64.9375 45.905C63.9209 42.7099 63.4126 39.6359 63.4126 36.6829V35.0854C63.4126 31.7935 63.9209 28.55 64.9375 25.355C66.0025 22.1599 67.6243 19.2553 69.8027 16.6412C71.9812 14.027 74.7405 11.9454 78.0808 10.3963C81.4695 8.79876 85.4633 8 90.0623 8C94.8549 8 99.0181 8.87138 102.552 10.6141C106.134 12.3085 108.991 14.729 111.121 17.8756C113.251 20.9739 114.534 24.6046 114.969 28.7679H104.585C104.198 26.3474 103.327 24.3142 101.971 22.6682C100.664 20.9739 98.9939 19.7152 96.9607 18.8922C94.9275 18.0209 92.628 17.5852 90.0623 17.5852C87.4481 17.5852 85.1245 18.0451 83.0912 18.9649C81.058 19.8362 79.3637 21.0949 78.0082 22.7408C76.6527 24.3868 75.6119 26.3232 74.8858 28.55C74.208 30.7769 73.8691 33.2458 73.8691 35.9568C73.8691 38.5709 74.208 40.9914 74.8858 43.2182C75.6119 45.4451 76.6769 47.4057 78.0808 49.1001C79.4847 50.746 81.2033 52.0289 83.2365 52.9486C85.3181 53.8684 87.7144 54.3283 90.4254 54.3283C94.395 54.3283 97.7353 53.3601 100.446 51.4237C103.206 49.4389 104.876 46.6796 105.457 43.1456H115.841C115.356 46.9216 114.074 50.3829 111.992 53.5296C109.91 56.6762 107.054 59.1935 103.423 61.0815C99.7927 62.9695 95.46 63.9135 90.4254 63.9135Z" fill="white"/>
<path d="M120.112 62.5338V8H130.206V29.8023C131.214 27.3179 132.643 25.3998 134.49 24.0479C136.523 22.5956 139.089 21.8695 142.187 21.8695H142.623C147.125 21.8695 150.538 23.4186 152.862 26.5168C155.185 29.615 156.347 34.1172 156.347 40.0232V62.5338H146.254V39.0792C146.254 36.5619 145.528 34.5771 144.075 33.1248C142.671 31.6725 140.808 30.9463 138.484 30.9463C136.015 30.9463 134.006 31.7693 132.457 33.4152C130.956 35.0128 130.206 37.1186 130.206 39.7327V62.5338H120.112Z" fill="white"/>
<path fill-rule="evenodd" clip-rule="evenodd" d="M187.458 54.9404V62.5338H195.446V38.0626C195.446 34.3834 194.744 31.4062 193.34 29.1309C191.985 26.8557 189.951 25.1855 187.24 24.1205C184.578 23.0555 181.213 22.523 177.147 22.523C175.84 22.523 174.436 22.5472 172.935 22.5956C171.483 22.5956 170.055 22.644 168.651 22.7408C167.247 22.8377 165.988 22.9345 164.875 23.0313V31.5999C166.23 31.503 167.755 31.4304 169.45 31.382C171.192 31.2852 172.911 31.2126 174.605 31.1642C176.3 31.1158 177.752 31.0916 178.962 31.0916C181.286 31.0916 183.004 31.6483 184.118 32.7617C185.231 33.8751 185.788 35.5695 185.788 37.8447V38.2078H177.728C174.242 38.2078 171.192 38.6677 168.578 39.5875C166.013 40.5073 164.004 41.887 162.551 43.7265C161.147 45.5661 160.445 47.9382 160.445 50.8428C160.445 53.5054 161.026 55.7806 162.188 57.6686C163.398 59.5566 165.069 61.0089 167.199 62.0255C169.377 63.0421 171.894 63.5504 174.751 63.5504C177.51 63.5504 179.834 63.0663 181.722 62.0981C183.658 61.0815 185.159 59.6292 186.224 57.7412C186.723 56.8951 187.134 55.9615 187.458 54.9404ZM185.788 47.9382V44.2349H177.583C175.259 44.2349 173.468 44.8158 172.209 45.9776C170.999 47.091 170.394 48.5433 170.394 50.3345C170.394 52.1257 170.999 53.578 172.209 54.6914C173.468 55.8048 175.259 56.3615 177.583 56.3615C178.986 56.3615 180.269 56.1195 181.431 55.6354C182.641 55.1029 183.634 54.2315 184.408 53.0213C185.231 51.7626 185.691 50.0683 185.788 47.9382Z" fill="white"/>
<path d="M204.515 62.5338V22.523H214.608V62.5338H204.515Z" fill="white"/>
<path d="M222.61 22.523V62.5338H232.704V39.3697C232.704 36.8039 233.454 34.7707 234.955 33.27C236.504 31.7209 238.513 30.9463 240.982 30.9463C243.402 30.9463 245.29 31.6967 246.646 33.1974C248.049 34.6981 248.751 36.6587 248.751 39.0792V62.5338H258.845V39.9506C258.845 33.9477 257.635 29.4456 255.214 26.4442C252.794 23.3944 249.236 21.8695 244.54 21.8695H244.104C240.957 21.8695 238.319 22.5472 236.189 23.9027C234.107 25.2582 232.534 27.2914 231.469 30.0023C231.122 30.8698 230.832 31.8092 230.598 32.8205V22.523H222.61Z" fill="white"/>
<path d="M0 45.836C-4.64626e-07 49.3791 2.87286 52.2527 6.41667 52.2527C9.96047 52.2527 12.8333 49.3791 12.8333 45.836C12.8333 43.2382 9.06663 40.7943 9.06663 36.211C9.06663 32.086 12.8333 29.1838 12.8333 26.586C12.8333 23.0429 9.96047 20.1693 6.41667 20.1693C2.87287 20.1693 2.98896e-06 23.0429 2.52433e-06 26.586C2.18367e-06 29.1838 3.7667 32.086 3.7667 36.211C3.7667 40.336 3.40663e-07 43.2382 0 45.836Z" fill="white"/>
<path d="M31.1658 6.41666C31.1658 2.87353 34.0387 -4.64714e-07 37.5825 0C41.1263 4.64714e-07 43.9992 2.87354 43.9992 6.41667C43.9992 7.53244 43.3043 8.61981 42.5115 9.86049C41.4584 11.5084 40.2324 13.4269 40.2324 16.0417C40.2324 18.3415 41.4033 20.2613 42.4395 21.9601C43.2618 23.3082 43.9992 24.5172 43.9992 25.6667C43.9992 25.8207 43.9937 25.9735 43.983 26.1249C43.9937 26.2763 43.9992 26.4291 43.9992 26.5832C43.9992 27.6989 43.3043 28.7863 42.5115 30.027C41.4584 31.6749 40.2324 33.5934 40.2324 36.2082C40.2324 38.508 41.4033 40.4278 42.4395 42.1266C43.2618 43.4747 43.9992 44.6838 43.9992 45.8332C43.9992 45.9873 43.9937 46.1401 43.983 46.2915C43.9937 46.4429 43.9992 46.5957 43.9992 46.7498C43.9992 47.8993 43.2618 49.1083 42.4395 50.4564C41.4034 52.1552 40.2325 54.075 40.2325 56.3748C40.2325 58.9896 41.4584 60.9081 42.5115 62.556C43.3043 63.7967 43.9992 64.8841 43.9992 65.9998C43.9992 69.543 41.1263 72.4165 37.5825 72.4165C34.0387 72.4165 31.1658 69.543 31.1658 65.9998C31.1658 64.8504 31.9032 63.6414 32.7255 62.2933C33.7616 60.5944 34.9325 58.6747 34.9325 56.3748C34.9325 54.075 33.7616 52.1552 32.7255 50.4564C31.9032 49.1083 31.1658 47.8993 31.1658 46.7498C31.1658 46.5957 31.1713 46.4429 31.1819 46.2915C31.1713 46.1401 31.1658 45.9873 31.1658 45.8332C31.1658 44.6837 31.9032 43.4747 32.7255 42.1266C33.7616 40.4278 34.9325 38.508 34.9325 36.2082C34.9325 33.9083 33.7616 31.9886 32.7255 30.2897C31.9032 28.9416 31.1658 27.7326 31.1658 26.5832C31.1658 26.4291 31.1713 26.2763 31.1819 26.1249C31.1713 25.9736 31.1658 25.8207 31.1658 25.6667C31.1658 24.5172 31.9032 23.3082 32.7255 21.9601C33.7616 20.2613 34.9325 18.3415 34.9325 16.0417C34.9325 13.7418 33.7616 11.8221 32.7255 10.1232C31.9032 8.77509 31.1658 7.56608 31.1658 6.41666Z" fill="white"/>
<path d="M21.999 62.3347C18.4552 62.3347 15.5823 59.4612 15.5823 55.918C15.5823 54.7686 16.3197 53.5596 17.142 52.2114C18.1781 50.5126 19.349 48.5929 19.349 46.293C19.349 43.9932 18.1781 42.0734 17.142 40.3746C16.3197 39.0264 15.5823 37.8174 15.5823 36.668C15.5823 36.5139 15.5878 36.3611 15.5985 36.2097C15.5878 36.0583 15.5823 35.9055 15.5823 35.7514C15.5823 34.6019 16.3197 33.3929 17.142 32.0448C18.1781 30.346 19.349 28.4262 19.349 26.1264C19.349 23.8265 18.1781 21.9067 17.142 20.2079C16.3197 18.8598 15.5823 17.6508 15.5823 16.5014C15.5823 12.9582 18.4552 10.0847 21.999 10.0847C25.5428 10.0847 28.4157 12.9582 28.4157 16.5014C28.4157 17.6171 27.7208 18.7045 26.928 19.9452C25.8749 21.5931 24.649 23.5116 24.649 26.1264C24.649 28.4262 25.8199 30.346 26.856 32.0448C27.6783 33.3929 28.4157 34.6019 28.4157 35.7514C28.4157 35.9054 28.4102 36.0583 28.3995 36.2096C28.4102 36.361 28.4157 36.5139 28.4157 36.668C28.4157 37.8174 27.6783 39.0265 26.856 40.3746C25.8199 42.0734 24.649 43.9932 24.649 46.293C24.649 48.9078 25.8749 50.8262 26.928 52.4742C27.7208 53.7149 28.4157 54.8022 28.4157 55.918C28.4157 59.4612 25.5428 62.3347 21.999 62.3347Z" fill="white"/>
</svg>
