<svg width="322" height="74" viewBox="0 0 322 74" fill="none" xmlns="http://www.w3.org/2000/svg">
<path d="M140.285 10.9121C141.405 12.0872 143.111 12.6748 145.406 12.6748C147.7 12.6748 149.379 12.0872 150.442 10.9121C151.505 9.68096 152.037 8.17006 152.037 6.37936C152.037 4.47675 151.505 2.93786 150.442 1.76272C149.379 0.587572 147.7 0 145.406 0C143.111 0 141.405 0.587572 140.285 1.76272C139.222 2.93786 138.691 4.47675 138.691 6.37936C138.691 8.17006 139.222 9.68096 140.285 10.9121Z" fill="white"/>
<path d="M87 18.1308L101.27 63.7096H119.988L132.327 18.1308H121.079L111.795 54.1406H109.813L99.0033 18.1308H87Z" fill="white"/>
<path d="M178.578 65.1366C172.31 65.1366 167.386 63.8216 163.805 61.1915C160.279 58.5054 158.433 54.8121 158.265 50.1115H168.757C168.925 51.6784 169.792 53.1054 171.359 54.3924C172.926 55.6795 175.388 56.323 178.746 56.323C181.544 56.323 183.754 55.8194 185.377 54.8121C187.056 53.8049 187.895 52.4338 187.895 50.6991C187.895 49.1882 187.252 47.9851 185.965 47.0897C184.733 46.1944 182.607 45.6068 179.585 45.327L175.556 44.9073C170.464 44.3477 166.547 42.8928 163.805 40.5425C161.063 38.1922 159.692 35.0585 159.692 31.1413C159.692 28.0076 160.475 25.3775 162.042 23.2511C163.609 21.1246 165.763 19.5298 168.505 18.4666C171.303 17.3474 174.493 16.7878 178.074 16.7878C183.67 16.7878 188.203 18.0189 191.672 20.4811C195.142 22.9433 196.961 26.5527 197.128 31.3092H186.636C186.524 29.7424 185.741 28.3993 184.286 27.2801C182.831 26.161 180.732 25.6014 177.99 25.6014C175.528 25.6014 173.626 26.077 172.282 27.0283C170.939 27.9796 170.268 29.2107 170.268 30.7216C170.268 32.1766 170.8 33.2958 171.863 34.0792C172.982 34.8626 174.773 35.3942 177.235 35.674L181.264 36.0937C186.636 36.6533 190.833 38.1362 193.855 40.5425C196.933 42.9487 198.471 46.1944 198.471 50.2794C198.471 53.3012 197.632 55.9313 195.953 58.1697C194.33 60.3521 192.036 62.0588 189.07 63.2899C186.104 64.521 182.607 65.1366 178.578 65.1366Z" fill="white"/>
<path d="M205.256 10.9121C206.375 12.0872 208.082 12.6748 210.376 12.6748C212.671 12.6748 214.349 12.0872 215.413 10.9121C216.476 9.68096 217.008 8.17006 217.008 6.37936C217.008 4.47675 216.476 2.93786 215.413 1.76272C214.349 0.587572 212.671 0 210.376 0C208.082 0 206.375 0.587572 205.256 1.76272C204.193 2.93786 203.661 4.47675 203.661 6.37936C203.661 8.17006 204.193 9.68096 205.256 10.9121Z" fill="white"/>
<path fill-rule="evenodd" clip-rule="evenodd" d="M248.921 65.3045C244.892 65.3045 241.338 64.6609 238.26 63.3739C235.183 62.0868 232.581 60.3521 230.454 58.1697C228.328 55.9313 226.705 53.4131 225.586 50.6152C224.522 47.8172 223.991 44.9073 223.991 41.8855V40.1228C223.991 36.9891 224.55 34.0232 225.67 31.2253C226.845 28.3714 228.496 25.8532 230.622 23.6708C232.804 21.4324 235.434 19.6977 238.512 18.4666C241.59 17.1795 245.059 16.536 248.921 16.536C252.782 16.536 256.251 17.1795 259.329 18.4666C262.407 19.6977 265.009 21.4324 267.135 23.6708C269.318 25.8532 270.969 28.3714 272.088 31.2253C273.207 34.0232 273.767 36.9891 273.767 40.1228V41.8855C273.767 44.9073 273.207 47.8172 272.088 50.6152C271.025 53.4131 269.43 55.9313 267.303 58.1697C265.177 60.3521 262.575 62.0868 259.497 63.3739C256.419 64.6609 252.894 65.3045 248.921 65.3045ZM248.921 55.3158C251.775 55.3158 254.181 54.7002 256.139 53.4691C258.098 52.182 259.581 50.4753 260.588 48.3488C261.595 46.1664 262.099 43.7042 262.099 40.9622C262.099 38.1642 261.567 35.702 260.504 33.5756C259.497 31.3932 257.986 29.6864 255.972 28.4553C254.013 27.1682 251.663 26.5247 248.921 26.5247C246.179 26.5247 243.8 27.1682 241.786 28.4553C239.827 29.6864 238.316 31.3932 237.253 33.5756C236.19 35.702 235.658 38.1642 235.658 40.9622C235.658 43.7042 236.162 46.1664 237.169 48.3488C238.232 50.4753 239.743 52.182 241.702 53.4691C243.661 54.7002 246.067 55.3158 248.921 55.3158Z" fill="white"/>
<path d="M290.026 26.105C289.625 27.1077 289.29 28.1936 289.019 29.3627V18.1308H279.786V63.7096H291.453V36.9331C291.453 33.9673 292.321 31.617 294.056 29.8823C295.846 28.0916 298.169 27.1962 301.022 27.1962C303.82 27.1962 306.003 28.0636 307.57 29.7983C309.193 31.5331 310.004 33.7994 310.004 36.5974V63.7096H321.671V37.6046C321.671 30.6657 320.272 25.4615 317.475 21.992C314.677 18.4666 310.564 16.7038 305.135 16.7038H304.632C300.995 16.7038 297.945 17.4873 295.483 19.0541C293.076 20.621 291.258 22.9713 290.026 26.105Z" fill="white"/>
<path d="M141.125 26.8605V63.7096H152.792V18.1308H134.745V26.8605H141.125Z" fill="white"/>
<path d="M206.095 26.8605V63.7096H217.763V18.1308H199.716V26.8605H206.095Z" fill="white"/>
<mask id="path-2-inside-1_5_1366" fill="white">
<path fill-rule="evenodd" clip-rule="evenodd" d="M36.5385 73.0769C56.7181 73.0769 73.0769 56.7181 73.0769 36.5385C73.0769 16.3588 56.7181 0 36.5385 0C16.3588 0 0 16.3588 0 36.5385C0 56.7181 16.3588 73.0769 36.5385 73.0769ZM63.4284 32.7469C60.0213 36.731 55.2223 39.2121 49.9054 39.2121C39.5695 39.2121 31.1906 29.8357 31.1906 18.2693C31.1906 15.3594 31.7209 12.5881 32.6794 10.0698C19.7276 12.0369 9.80273 23.22 9.80273 36.7211C9.80273 40.6603 10.6476 44.4022 12.1661 47.7754C13.7065 46.3424 15.8713 45.4506 18.269 45.4506C22.9447 45.4506 26.7352 48.8421 26.7352 53.0257C26.7352 55.8349 25.0261 58.287 22.4875 59.5949C26.6268 62.1833 31.5192 63.6794 36.761 63.6794C51.6496 63.6794 63.7192 51.6097 63.7192 36.7211C63.7192 35.3709 63.62 34.0438 63.4284 32.7469Z"/>
</mask>
<path fill-rule="evenodd" clip-rule="evenodd" d="M36.5385 73.0769C56.7181 73.0769 73.0769 56.7181 73.0769 36.5385C73.0769 16.3588 56.7181 0 36.5385 0C16.3588 0 0 16.3588 0 36.5385C0 56.7181 16.3588 73.0769 36.5385 73.0769ZM63.4284 32.7469C60.0213 36.731 55.2223 39.2121 49.9054 39.2121C39.5695 39.2121 31.1906 29.8357 31.1906 18.2693C31.1906 15.3594 31.7209 12.5881 32.6794 10.0698C19.7276 12.0369 9.80273 23.22 9.80273 36.7211C9.80273 40.6603 10.6476 44.4022 12.1661 47.7754C13.7065 46.3424 15.8713 45.4506 18.269 45.4506C22.9447 45.4506 26.7352 48.8421 26.7352 53.0257C26.7352 55.8349 25.0261 58.287 22.4875 59.5949C26.6268 62.1833 31.5192 63.6794 36.761 63.6794C51.6496 63.6794 63.7192 51.6097 63.7192 36.7211C63.7192 35.3709 63.62 34.0438 63.4284 32.7469Z" fill="white"/>
<path d="M63.4284 32.7469L66.0732 32.3561L65.2145 26.5445L61.3965 31.0093L63.4284 32.7469ZM32.6794 10.0698L35.178 11.0208L36.8078 6.73859L32.2779 7.42659L32.6794 10.0698ZM12.1661 47.7754L9.72819 48.8729L11.2582 52.2717L13.9872 49.7329L12.1661 47.7754ZM22.4875 59.5949L21.263 57.2182L17.0858 59.3703L21.07 61.8617L22.4875 59.5949ZM70.4034 36.5385C70.4034 55.2415 55.2415 70.4034 36.5385 70.4034V75.7505C58.1947 75.7505 75.7505 58.1947 75.7505 36.5385H70.4034ZM36.5385 2.67355C55.2415 2.67355 70.4034 17.8354 70.4034 36.5385H75.7505C75.7505 14.8823 58.1947 -2.67355 36.5385 -2.67355V2.67355ZM2.67355 36.5385C2.67355 17.8354 17.8354 2.67355 36.5385 2.67355V-2.67355C14.8823 -2.67355 -2.67355 14.8823 -2.67355 36.5385H2.67355ZM36.5385 70.4034C17.8354 70.4034 2.67355 55.2415 2.67355 36.5385H-2.67355C-2.67355 58.1947 14.8823 75.7505 36.5385 75.7505V70.4034ZM49.9054 41.8857C56.0903 41.8857 61.6043 38.9935 65.4603 34.4845L61.3965 31.0093C58.4384 34.4684 54.3543 36.5386 49.9054 36.5386V41.8857ZM28.517 18.2693C28.517 31.0216 37.8181 41.8857 49.9054 41.8857V36.5386C41.3209 36.5386 33.8641 28.6499 33.8641 18.2693H28.517ZM30.1807 9.11884C29.1069 11.9402 28.517 15.0338 28.517 18.2693H33.8641C33.8641 15.685 34.335 13.2359 35.178 11.0208L30.1807 9.11884ZM12.4763 36.7211C12.4763 24.5614 21.4158 14.4847 33.0808 12.7131L32.2779 7.42659C18.0393 9.58915 7.12919 21.8786 7.12919 36.7211H12.4763ZM14.604 46.678C13.2378 43.643 12.4763 40.2746 12.4763 36.7211H7.12919C7.12919 41.0461 8.05746 45.1614 9.72819 48.8729L14.604 46.678ZM18.269 42.7771C15.2096 42.7771 12.3903 43.9153 10.345 45.818L13.9872 49.7329C15.0227 48.7695 16.5331 48.1242 18.269 48.1242V42.7771ZM29.4087 53.0257C29.4087 47.0937 24.1339 42.7771 18.269 42.7771V48.1242C21.7556 48.1242 24.0616 50.5905 24.0616 53.0257H29.4087ZM23.7119 61.9715C27.0027 60.2761 29.4087 56.982 29.4087 53.0257H24.0616C24.0616 54.6878 23.0495 56.2978 21.263 57.2182L23.7119 61.9715ZM36.761 61.0058C32.0349 61.0058 27.6317 59.6584 23.905 57.328L21.07 61.8617C25.6219 64.7081 31.0034 66.3529 36.761 66.3529V61.0058ZM61.0457 36.7211C61.0457 50.1332 50.1731 61.0058 36.761 61.0058V66.3529C53.1262 66.3529 66.3928 53.0863 66.3928 36.7211H61.0457ZM60.7835 33.1376C60.9561 34.3056 61.0457 35.5021 61.0457 36.7211H66.3928C66.3928 35.2397 66.2839 33.782 66.0732 32.3561L60.7835 33.1376Z" fill="white" mask="url(#path-2-inside-1_5_1366)"/>
</svg>
