<svg width="401" height="114" viewBox="0 0 401 114" fill="none" xmlns="http://www.w3.org/2000/svg">
<path d="M131 21.7974V8H200.418V21.7974H173.623V103.467H158.073V21.7974H131Z" fill="white"/>
<path d="M242.939 90.9239L246.826 90.5058L247.104 101.795C236.553 103.932 227.204 105 219.059 105C208.785 105 201.381 102.166 196.845 96.4986C192.403 90.8309 190.181 81.772 190.181 69.3218C190.181 44.6073 200.224 32.25 220.309 32.25C239.746 32.25 249.464 42.8884 249.464 64.1652L248.493 75.0359H205.453C205.546 80.7965 206.795 85.0239 209.202 87.7184C211.608 90.4128 216.097 91.7601 222.669 91.7601C229.241 91.7601 235.997 91.4813 242.939 90.9239ZM234.609 63.329C234.609 56.4535 233.498 51.6686 231.277 48.9741C229.148 46.1868 225.492 44.7931 220.309 44.7931C215.125 44.7931 211.331 46.2332 208.924 49.1135C206.61 51.9938 205.407 56.7323 205.314 63.329H234.609Z" fill="white"/>
<path d="M257.074 103.467V33.7831H272.069V42.1451C279.936 37.035 287.803 33.7366 295.671 32.25V47.4411C287.711 49.0206 280.908 51.0647 275.262 53.5733L272.208 54.8276V103.467H257.074Z" fill="white"/>
<path d="M300.298 103.467V33.7831H315.292V42.1451C323.16 37.035 331.027 33.7366 338.895 32.25V47.4411C330.935 49.0206 324.132 51.0647 318.486 53.5733L315.431 54.8276V103.467H300.298Z" fill="white"/>
<path d="M394.891 55.2457V87.0216C394.984 89.0656 395.493 90.5987 396.418 91.6207C397.437 92.5498 398.964 93.1537 401 93.4325L400.583 105C392.624 105 386.468 103.281 382.118 99.8434C374.714 103.281 367.263 105 359.766 105C345.975 105 339.079 97.6135 339.079 82.8405C339.079 75.7792 340.93 70.6691 344.632 67.5101C348.427 64.3511 354.212 62.4464 361.987 61.796L379.897 60.2629V55.2457C379.897 51.5292 379.064 48.9277 377.398 47.4411C375.824 45.9545 373.464 45.2112 370.317 45.2112C364.393 45.2112 356.989 45.5829 348.103 46.3262L343.661 46.6049L343.105 35.8736C353.194 33.4579 362.45 32.25 370.872 32.25C379.388 32.25 385.497 34.1082 389.199 37.8247C392.994 41.4483 394.891 47.2553 394.891 55.2457ZM363.792 72.5273C357.405 73.0848 354.212 76.569 354.212 82.9799C354.212 89.3908 357.035 92.5963 362.681 92.5963C367.309 92.5963 372.215 91.853 377.398 90.3664L379.897 89.5302V70.9943L363.792 72.5273Z" fill="white"/>
<path fill-rule="evenodd" clip-rule="evenodd" d="M89 0C101.081 0 111.161 8.56955 113.492 19.9616C113.825 21.5891 114 23.2741 114 25V89C114 102.807 102.807 114 89 114H25C22.2666 114 19.6356 113.561 17.1737 112.751C7.1998 109.466 0 100.074 0 89V25C0 11.1929 11.1929 0 25 0H89ZM78.8601 8H89C97.2852 8 104.186 13.927 105.694 21.7722C100.882 22.3173 95.3827 21.8122 89.5753 19.3233C84.4286 17.1175 81.0148 13.031 78.8601 8ZM55.1232 8H70.318C72.8424 15.5995 77.6789 22.9286 86.4239 26.6764C93.4388 29.6828 100.101 30.3802 106 29.7944V37.9687C97.9906 40.5041 90.0096 41.5302 83.6234 39.6611C80.4515 38.7327 76.8119 36.2678 72.8952 32.3902C69.0321 28.5657 65.1772 23.6468 61.5371 18.27C59.2749 14.9287 57.1208 11.4481 55.1232 8ZM45.9353 8H35.3493C35.8317 17.0527 33.6988 28.1102 25.7642 39.312C20.5073 46.7334 14.2909 50.8155 8 52.6385V68.5868C11.7907 66.2846 16.2532 63.1408 21.4779 58.8957C33.8228 48.8655 43.5459 44.8747 50.9186 44.1447C58.2491 43.4189 63.4596 45.9616 65.7552 49.1753C68.1648 52.5488 69.5271 57.0699 70.0398 61.8382C70.5587 66.6642 70.2424 72.0468 69.0253 77.3888C66.6055 88.0088 60.463 99.0633 49.3966 105.022C48.7941 105.347 48.1859 105.673 47.5731 106H60.0078C64.8712 99.8263 68.7627 93.6922 70.1584 88.8847C71.7338 83.4584 72.3805 77.7055 72.9852 72.3267L72.9854 72.3257L72.9855 72.3245C73.2027 70.3927 73.4145 68.5088 73.6619 66.7061C74.0908 63.5817 74.6824 60.2717 75.9538 57.885C76.6267 56.6218 77.6955 55.2157 79.416 54.4039C81.2272 53.5493 83.1116 53.6542 84.7647 54.2052C89.3984 55.7498 95.5585 56.0698 106 53.4545V46.3185C97.9482 48.5873 89.1685 49.6196 81.3762 47.339C76.3481 45.8673 71.5751 42.3406 67.2669 38.0754C62.905 33.7572 58.7224 28.3824 54.9125 22.755C51.6536 17.9414 48.62 12.8719 45.9353 8ZM106 61.6822C96.0527 63.959 88.8998 63.864 82.8501 61.9924C82.4029 63.0391 81.9854 64.8954 81.5876 67.7939C81.39 69.2336 81.2065 70.8706 81.0081 72.6405L81.008 72.6419C80.3897 78.1581 79.6266 84.9652 77.8412 91.1152C76.4725 95.8293 73.513 101.008 69.9944 106H78.0432C79.5275 102.308 80.8949 98.7923 81.9686 95.8369C83.1224 92.6613 83.8453 90.3775 84.0778 89.2152C84.5192 87.0079 85.3602 84.6334 87.3327 82.9496C89.3845 81.1981 91.9046 80.8223 94.2657 80.9423C96.5906 81.0605 99.3166 81.6867 102.392 82.5688C103.51 82.8895 104.712 83.2555 106 83.6618V61.6822ZM105.74 91.9791C103.652 91.301 101.814 90.7256 100.186 90.2587C97.2148 89.4064 95.2221 89.0013 93.8595 88.932C92.9796 88.8873 92.6235 88.9956 92.5213 89.0412C92.464 89.1089 92.18 89.4962 91.9224 90.7841C91.5549 92.6219 90.6236 95.4422 89.4878 98.5687C88.6723 100.813 87.7034 103.343 86.655 106H89C97.3725 106 104.331 99.9475 105.74 91.9791ZM30.3117 106C35.5507 103.298 40.8386 100.544 45.6038 97.9783C54.0375 93.4371 59.1449 84.7417 61.2252 75.6116C62.258 71.0787 62.5042 66.5862 62.0856 62.6935C61.6609 58.7431 60.5856 55.7017 59.2453 53.8252C59.0408 53.539 57.0014 51.5816 51.7068 52.1058C46.4546 52.6258 38.1777 55.6349 26.5226 65.1047C19.2267 71.0325 13.1211 75.0943 8 77.7791V86.8014C9.26243 85.6461 10.688 84.6812 12.0053 83.8579C13.3475 83.0191 14.8099 82.194 16.247 81.3881L16.6032 81.1884C17.9458 80.4359 19.2782 79.6891 20.6014 78.8966C23.496 77.1629 26.0987 75.3521 28.1 73.2452C31.565 69.5974 36.5662 65.2435 41.2681 62.2715C43.5878 60.8054 46.0929 59.5084 48.4564 58.913C50.6746 58.3542 54.1142 58.1268 56.5108 60.8666C58.7914 63.4737 59.7367 67.3842 58.0753 72.4594C56.4975 77.2796 52.5345 83.3665 44.8745 91.2818C36.9233 99.498 28.9717 103.614 22.2678 104.926C21.5117 105.074 20.768 105.186 20.0391 105.265C21.6085 105.743 23.2742 106 25 106H30.3117ZM8 44.1738C11.876 42.5663 15.7373 39.6271 19.236 34.6878C26.1442 24.9351 27.8135 15.4781 27.3381 8H25C15.6112 8 8 15.6112 8 25V44.1738ZM92.5135 89.0448C92.4948 89.0538 92.4871 89.0596 92.4879 89.0603C92.4885 89.0608 92.4928 89.059 92.5 89.0544L92.5049 89.0511L92.5135 89.0448ZM45.5425 69.0339C41.514 71.5802 37.0147 75.4762 33.9003 78.7549C31.1521 81.648 27.8175 83.8997 24.7121 85.7597C23.2849 86.6145 21.8539 87.4165 20.5274 88.1599L20.16 88.3658C18.7064 89.1809 17.4031 89.9183 16.2451 90.642C13.7482 92.2025 12.7043 93.2515 12.3771 93.9232C12.2833 94.1158 12.2722 94.2262 12.3011 94.3944C12.3422 94.6338 12.5144 95.1865 13.1995 96.1L13.2661 96.1888L13.3277 96.2812C13.3316 96.2865 13.4216 96.4107 13.7079 96.5858C14.0036 96.7667 14.4613 96.9715 15.1115 97.1314C16.4179 97.4528 18.3197 97.5463 20.7318 97.0744C25.5282 96.136 32.0769 93.0021 39.1257 85.7184C46.4657 78.1337 49.451 73.0905 50.4723 69.9706C51.0804 68.1132 50.9559 67.1071 50.7615 66.5931C50.664 66.6111 50.5478 66.6361 50.4108 66.6706C49.2557 66.9616 47.5881 67.741 45.5425 69.0339ZM51.1918 66.5555C51.1901 66.5576 51.1662 66.5578 51.1256 66.5499C51.1733 66.5494 51.1936 66.5534 51.1918 66.5555Z" fill="white"/>
</svg>
