<svg width="234" height="66" viewBox="0 0 234 66" fill="none" xmlns="http://www.w3.org/2000/svg">
<path d="M48.9087 10.1204C48.9087 15.7098 44.3776 20.2408 38.7883 20.2408C33.199 20.2408 28.6679 15.7098 28.6679 10.1204C28.6679 4.53106 33.199 0 38.7883 0C44.3776 0 48.9087 4.53106 48.9087 10.1204Z" fill="white"/>
<path d="M33.3331 54.6665C14.9237 54.6665 0 39.7427 0 21.3334V5.3335C18.4094 5.3335 33.3339 20.2572 33.3339 38.6666L33.3331 54.6665Z" fill="white"/>
<path d="M70 16C51.5907 16 36.6669 30.9237 36.6669 49.3331V65.333C55.0763 65.333 70 50.4092 70 31.9999V16Z" fill="white"/>
<path d="M131.635 9.94462V50.0765H123.586V23.9735L112.834 50.0765H106.739L95.9302 23.9735V50.0765H87.8809V9.94462H97.0227L109.787 39.7848L122.551 9.94462H131.635Z" fill="white"/>
<path d="M141.376 14.4293C139.957 14.4293 138.769 13.9885 137.811 13.1069C136.891 12.1869 136.431 11.0562 136.431 9.71464C136.431 8.37308 136.891 7.26149 137.811 6.37989C138.769 5.45997 139.957 5 141.376 5C142.794 5 143.963 5.45997 144.883 6.37989C145.841 7.26149 146.32 8.37308 146.32 9.71464C146.32 11.0562 145.841 12.1869 144.883 13.1069C143.963 13.9885 142.794 14.4293 141.376 14.4293ZM145.343 18.224V50.0765H137.293V18.224H145.343Z" fill="white"/>
<path d="M168.647 17.764C172.442 17.764 175.508 18.9714 177.846 21.3862C180.184 23.7627 181.353 27.0975 181.353 31.3905V50.0765H173.304V32.4829C173.304 29.9531 172.672 28.0174 171.407 26.6758C170.142 25.2959 168.417 24.606 166.232 24.606C164.009 24.606 162.246 25.2959 160.942 26.6758C159.678 28.0174 159.045 29.9531 159.045 32.4829V50.0765H150.996V18.224H159.045V22.1912C160.118 20.8113 161.479 19.738 163.127 18.9714C164.814 18.1665 166.654 17.764 168.647 17.764Z" fill="white"/>
<path d="M196.08 24.836V40.2448C196.08 41.318 196.329 42.1038 196.827 42.6021C197.364 43.0621 198.246 43.2921 199.472 43.2921H203.209V50.0765H198.15C191.365 50.0765 187.973 46.7801 187.973 40.1873V24.836H182V18.224H187.973V10.3471H196.08V18.224V24.836Z" fill="white"/>
<path d="M233.388 18.224L213.667 65.1404H205.101L212 49.2716L199.236 18.224H208.263L216.485 40.4748L224.822 18.224H233.388Z" fill="white"/>
</svg>
