<svg width="357" height="76" viewBox="0 0 357 76" fill="none" xmlns="http://www.w3.org/2000/svg">
<path d="M0 50.0763L25.3735 38.7832L39.978 47.253L42.9284 75.0399L24.9309 74.8913L27.5863 55.5742L24.4883 53.7911L9.29377 65.6786L0 50.0763Z" fill="white"/>
<path d="M41.6016 46.0634L64.0246 62.5572L72.8758 46.6577L54.8784 39.3767V35.8104L72.8758 28.3808L64.0246 12.6299L41.6016 29.1237V46.0634Z" fill="white"/>
<path d="M39.978 27.7869L42.9284 0L24.9309 0.297183L27.5863 19.6143L24.4883 21.3974L9.14625 9.50997L0 24.9637L25.3735 36.2567L39.978 27.7869Z" fill="white"/>
<path d="M132.919 34.1899V60.2223H142.604V27.0464H128.499V34.1899H132.919Z" fill="white"/>
<path d="M132.616 22.3849C133.504 23.313 134.856 23.7771 136.672 23.7771C138.488 23.7771 139.82 23.313 140.667 22.3849C141.555 21.4159 141.999 20.2051 141.999 18.7525C141.999 17.259 141.555 16.0482 140.667 15.1201C139.82 14.1515 138.488 13.667 136.672 13.667C134.856 13.667 133.504 14.1515 132.616 15.1201C131.769 16.0482 131.345 17.259 131.345 18.7525C131.345 20.2051 131.769 21.4159 132.616 22.3849Z" fill="white"/>
<path d="M99.1985 59.4955C101.943 60.7468 105.313 61.3727 109.308 61.3727C113.061 61.3727 116.29 60.7872 118.995 59.6169C121.699 58.4465 123.777 56.8116 125.23 54.7132C126.724 52.5738 127.47 50.0917 127.47 47.2665C127.47 44.5222 126.764 42.2015 125.352 40.3044C123.979 38.3673 122.063 36.8537 119.6 35.7643C117.138 34.6339 114.293 33.9276 111.064 33.6454L107.674 33.3427C105.656 33.1808 104.203 32.6364 103.315 31.7078C102.427 30.7797 101.983 29.6898 101.983 28.439C101.983 27.4699 102.226 26.5823 102.709 25.7751C103.194 24.9274 103.92 24.2616 104.889 23.7771C105.898 23.293 107.129 23.0508 108.582 23.0508C110.115 23.0508 111.387 23.333 112.396 23.8984C112.618 24.0179 112.828 24.1456 113.027 24.2811L113.075 24.3147C113.149 24.3659 113.222 24.419 113.293 24.4727C113.906 24.9411 114.394 25.4963 114.757 26.1383C115.281 27.0264 115.544 28.0149 115.544 29.1048H125.23C125.23 26.1987 124.564 23.6762 123.232 21.5373C121.901 19.3579 119.984 17.683 117.482 16.5122C115.019 15.3014 112.052 14.696 108.582 14.696C105.272 14.696 102.407 15.2614 99.9853 16.3913C97.5637 17.4812 95.6665 19.0552 94.2949 21.1132C92.9622 23.1717 92.2963 25.6138 92.2963 28.439C92.2963 32.3537 93.6085 35.5016 96.232 37.8832C98.8554 40.2644 102.367 41.6365 106.766 41.9997L110.096 42.3024C112.799 42.5446 114.757 43.0896 115.968 43.9368C117.178 44.744 117.784 45.8539 117.784 47.2665C117.784 47.9158 117.678 48.5246 117.465 49.0935C117.307 49.5156 117.091 49.9158 116.816 50.2935C116.169 51.1412 115.221 51.8071 113.97 52.2916C112.719 52.7756 111.165 53.0179 109.308 53.0179C107.25 53.0179 105.575 52.7356 104.284 52.1702C102.992 51.5648 102.024 50.7781 101.377 49.8095C100.772 48.8405 100.47 47.7915 100.47 46.6611H90.8438C90.8438 49.5268 91.5496 52.0693 92.9622 54.2891C94.3748 56.469 96.4542 58.2043 99.1985 59.4955Z" fill="white"/>
<path d="M164.217 60.6459C160.867 60.6459 158.163 60.2423 156.105 59.4351C154.046 58.5874 152.533 57.1953 151.564 55.2582C150.636 53.2801 150.172 50.6167 150.172 47.2665V34.1294H145.147V27.0464H150.172V18.0866H159.192V27.0464H168.879V34.1294H159.192V47.6302C159.192 49.2041 159.596 50.4149 160.403 51.2621C161.25 52.0693 162.441 52.4729 163.975 52.4729H168.879V60.6459H164.217Z" fill="white"/>
<path fill-rule="evenodd" clip-rule="evenodd" d="M180.541 59.9196C182.72 60.8881 185.223 61.3727 188.048 61.3727C190.832 61.3727 193.295 60.8881 195.434 59.9196C197.573 58.951 199.349 57.5989 200.761 55.8636C202.174 54.1278 203.123 52.1502 203.606 49.9304H194.707C194.304 50.9394 193.537 51.7871 192.407 52.4729C191.277 53.1592 189.823 53.5024 188.048 53.5024C186.948 53.5024 185.965 53.3722 185.099 53.1119C184.44 52.914 183.849 52.6406 183.326 52.2916C182.115 51.4844 181.227 50.354 180.662 48.9014C180.505 48.4876 180.371 48.0547 180.258 47.6038C180.143 47.1471 180.05 46.6718 179.98 46.1771H204.212V42.9078C204.212 39.8808 203.566 37.096 202.274 34.5535C200.983 31.97 199.106 29.8916 196.644 28.3176C194.223 26.7032 191.236 25.896 187.684 25.896C184.98 25.896 182.558 26.3805 180.419 27.3491C178.321 28.2772 176.566 29.5484 175.153 31.1628C173.74 32.7772 172.651 34.6139 171.883 36.6724C171.157 38.6899 170.794 40.8089 170.794 43.0287V44.2395C170.794 46.3789 171.157 48.4773 171.883 50.5358C172.651 52.5538 173.74 54.39 175.153 56.0449C176.606 57.6593 178.401 58.951 180.541 59.9196ZM180.146 40.1908C180.174 40.0626 180.202 39.9363 180.233 39.812C180.317 39.4698 180.414 39.1418 180.524 38.8284C180.586 38.65 180.652 38.476 180.723 38.3068C181.328 36.8133 182.216 35.6834 183.386 34.9166C183.824 34.63 184.298 34.397 184.807 34.2176C185.663 33.9169 186.623 33.7663 187.684 33.7663C189.34 33.7663 190.711 34.1499 191.801 34.9166C192.931 35.6429 193.779 36.7124 194.344 38.125C194.39 38.2391 194.433 38.3551 194.475 38.4725C194.542 38.6597 194.604 38.8518 194.662 39.0487C194.747 39.3417 194.822 39.6448 194.888 39.9583C194.935 40.1893 194.977 40.4257 195.013 40.668H180.054C180.082 40.5062 180.113 40.3472 180.146 40.1908Z" fill="white"/>
<path d="M208.209 60.2223V27.0464H215.898V35.4021C216.002 34.9054 216.121 34.4287 216.254 33.9715C216.367 33.5864 216.49 33.215 216.624 32.8582C217.472 30.5979 218.743 28.903 220.438 27.7727C222.133 26.6023 224.211 26.0174 226.674 26.0174H227.097C229.6 26.0174 231.678 26.6023 233.333 27.7727C235.028 28.903 236.3 30.5979 237.147 32.8582L237.213 33.0288L237.271 33.1847C237.309 33.0746 237.349 32.9659 237.389 32.8582C238.277 30.5979 239.569 28.903 241.264 27.7727C242.958 26.6023 245.038 26.0174 247.5 26.0174H247.924C250.425 26.0174 252.524 26.6023 254.219 27.7727C255.955 28.903 257.267 30.5979 258.154 32.8582C259.042 35.1184 259.487 37.9437 259.487 41.3338V60.2223H249.8V40.7889C249.8 38.9727 249.316 37.4996 248.347 36.3697C247.419 35.2393 246.087 34.6744 244.352 34.6744C242.616 34.6744 241.244 35.2598 240.235 36.4301C239.226 37.56 238.721 39.0736 238.721 40.9707V60.2223H228.974V40.7889C228.974 38.9727 228.49 37.4996 227.521 36.3697C226.593 35.2393 225.281 34.6744 223.586 34.6744C221.81 34.6744 220.418 35.2598 219.409 36.4301C218.4 37.56 217.895 39.0736 217.895 40.9707V60.2223H208.209Z" fill="white"/>
<path fill-rule="evenodd" clip-rule="evenodd" d="M285.361 53.83V60.2223H293.049V39.8808C293.049 36.8133 292.444 34.3112 291.233 32.3736C290.022 30.3961 288.247 28.923 285.906 27.9545C283.605 26.9859 280.76 26.5014 277.37 26.5014C276.635 26.5014 275.868 26.5092 275.068 26.5253C274.596 26.535 274.111 26.5472 273.616 26.5618C272.284 26.6023 270.992 26.6627 269.742 26.7437L268.786 26.808C268.295 26.8421 267.834 26.8758 267.4 26.9099C267.074 26.9352 266.765 26.9606 266.473 26.9859V35.1589C267.724 35.078 269.116 34.9971 270.65 34.9166C271.079 34.8942 271.504 34.8733 271.926 34.8538C272.536 34.8255 273.137 34.8011 273.732 34.7797C274.202 34.7626 274.668 34.7475 275.13 34.7348C276.582 34.6944 277.753 34.6744 278.641 34.6744C280.417 34.6744 281.708 35.098 282.516 35.9456C283.323 36.7933 283.726 38.0645 283.726 39.7599V39.8808H277.733C274.787 39.8808 272.184 40.2644 269.923 41.0311C267.663 41.7574 265.907 42.9078 264.657 44.4818C263.405 46.0157 262.78 47.9933 262.78 50.4149C262.78 52.6347 263.284 54.5519 264.293 56.1663C265.302 57.7402 266.694 58.951 268.47 59.7982C270.287 60.6459 272.385 61.07 274.766 61.07C277.067 61.07 279.004 60.6459 280.578 59.7982C282.193 58.951 283.444 57.7402 284.332 56.1663C284.488 55.9011 284.634 55.6257 284.77 55.3401C284.962 54.9355 285.133 54.5104 285.284 54.0649L285.361 53.83ZM283.726 47.9329V45.269H277.672C275.977 45.269 274.666 45.6926 273.738 46.5402C272.85 47.3474 272.405 48.4573 272.405 49.87C272.405 50.5348 272.516 51.1393 272.737 51.6837C272.96 52.2297 273.293 52.7147 273.738 53.1392C274.666 53.9465 275.977 54.3501 277.672 54.3501C277.995 54.3501 278.307 54.334 278.608 54.3023C278.854 54.2765 279.093 54.2399 279.324 54.1926C279.768 54.1024 280.187 53.9733 280.578 53.8051C281.467 53.4015 282.193 52.7356 282.757 51.8071C283.323 50.879 283.645 49.5872 283.726 47.9329Z" fill="white"/>
<path d="M298.846 60.2223V27.0464H306.535V37.9968C306.903 34.8708 307.831 32.3502 309.32 30.4365C311.338 27.894 314.243 26.6228 318.038 26.6228H319.309V34.9771H316.887C314.224 34.9771 312.165 35.7034 310.712 37.1564C309.259 38.5691 308.532 40.6275 308.532 43.3314V60.2223H298.846Z" fill="white"/>
<path d="M331.592 44.724H334.801L345.274 60.2223H356.171L342.891 41.1886L353.81 27.0464H343.64L331.592 42.821V16.0282H321.906V60.2223H331.592V44.724Z" fill="white"/>
</svg>
