<svg width="351" height="78" viewBox="0 0 351 78" fill="none" xmlns="http://www.w3.org/2000/svg">
<path fill-rule="evenodd" clip-rule="evenodd" d="M12.8186 19.503C18.7038 11.5869 28.128 6.45833 38.75 6.45833C49.4345 6.45833 58.9069 11.6474 64.7848 19.6429C64.5341 19.9002 64.3062 20.1668 64.1005 20.4331C63.0235 21.8274 62.2139 23.6234 61.5643 25.4472C60.2578 29.1153 59.2607 33.9066 58.338 38.3933L58.255 38.7967C57.3345 43.2751 56.4783 47.4401 55.4435 50.5319C54.9786 51.9212 54.5373 52.9025 54.1468 53.5318C53.7388 52.8981 53.2757 51.904 52.7853 50.4951C51.678 47.3144 50.7478 42.9882 49.7606 38.3689L49.7283 38.2176L49.7283 38.2175C48.7801 33.7805 47.7741 29.0727 46.5196 25.4691C45.8894 23.6589 45.1161 21.8809 44.1048 20.4995C43.1122 19.1438 41.46 17.6138 39.0436 17.6138C36.6423 17.6138 34.9825 19.1272 33.9756 20.4677C32.9447 21.8401 32.141 23.6108 31.4789 25.4219C30.1456 29.069 29.0555 33.8397 28.041 38.3325L27.9362 38.7967L27.9362 38.7967C26.9316 43.2473 25.9925 47.4082 24.9266 50.5061C24.5195 51.689 24.1355 52.5885 23.7879 53.2315C23.4482 52.5915 23.0738 51.6983 22.6779 50.5245C21.6552 47.4932 20.7594 43.4488 19.7971 39.1048L19.6287 38.3446C18.6317 33.849 17.5501 29.0697 16.1979 25.4112C15.5259 23.5933 14.7041 21.8138 13.6406 20.4349C13.3998 20.1228 13.1261 19.806 12.8186 19.503ZM9.25669 25.5813C9.53701 26.1348 9.83348 26.8208 10.1401 27.6503C11.3106 30.817 12.3023 35.1381 13.3235 39.7429L13.5222 40.6401C14.4521 44.8418 15.4192 49.2124 16.5584 52.589C17.1643 54.3849 17.896 56.1442 18.8371 57.5113C19.727 58.8041 21.3235 60.4737 23.7784 60.4737C26.2262 60.4737 27.8265 58.8124 28.7225 57.5248C29.6716 56.1608 30.4153 54.4041 31.0335 52.6074C32.2185 49.1635 33.2274 44.6904 34.193 40.4096L34.1931 40.4093L34.3407 39.755C35.3811 35.1474 36.3827 30.8177 37.5446 27.6395C38.0829 26.167 38.5869 25.1412 39.0256 24.5048C39.4415 25.1357 39.9165 26.1452 40.4203 27.5924C41.5275 30.7731 42.4577 35.0993 43.4449 39.7186L43.4772 39.8699L43.4772 39.8699C44.4254 44.3069 45.4315 49.0148 46.686 52.6184C47.3161 54.4285 48.0894 56.2066 49.1008 57.588C50.0933 58.9437 51.7456 60.4737 54.162 60.4737C56.5906 60.4737 58.2368 58.93 59.2177 57.5623C60.2133 56.174 60.9626 54.3904 61.568 52.5816C62.73 49.1093 63.6556 44.6033 64.536 40.3167L64.536 40.3166L64.6639 39.6942C65.6127 35.0805 66.5237 30.7714 67.6483 27.6142C67.8929 26.9274 68.132 26.3418 68.362 25.8499C70.0856 29.801 71.0417 34.1639 71.0417 38.75C71.0417 56.5842 56.5842 71.0417 38.75 71.0417C20.9158 71.0417 6.45833 56.5842 6.45833 38.75C6.45833 34.0597 7.45831 29.6029 9.25669 25.5813ZM38.75 0C17.349 0 0 17.349 0 38.75C0 60.151 17.349 77.5 38.75 77.5C60.151 77.5 77.5 60.151 77.5 38.75C77.5 17.349 60.151 0 38.75 0ZM39.4882 23.9642C39.4883 23.965 39.4807 23.971 39.4656 23.9798C39.4806 23.9678 39.4882 23.9634 39.4882 23.9642ZM38.5956 23.9686C38.5806 23.9594 38.5732 23.9531 38.5732 23.9523C38.5733 23.9515 38.5807 23.9561 38.5956 23.9686ZM53.6704 54.1453C53.6703 54.1445 53.6775 54.1383 53.692 54.1288C53.6776 54.1414 53.6704 54.1461 53.6704 54.1453ZM54.6099 54.1188C54.6249 54.1281 54.6323 54.1344 54.6323 54.1352C54.6323 54.136 54.6248 54.1314 54.6099 54.1188ZM23.1166 54.2028C23.1165 54.2017 23.1258 54.1929 23.1444 54.1797C23.126 54.1972 23.1167 54.2038 23.1166 54.2028ZM24.4245 54.1859C24.4431 54.1993 24.4522 54.2081 24.4522 54.2092C24.4521 54.2103 24.4428 54.2036 24.4245 54.1859Z" fill="white"/>
<path d="M98.8966 61.6909L89.5 29.5479H97.7302L103.303 52.6831L109.784 29.5479H118.986L125.466 52.6831L131.104 29.5479H139.335L129.873 61.6909H121.254L114.385 37.6485L107.516 61.6909H98.8966Z" fill="white"/>
<path d="M151.412 62.4685C148.647 62.4685 146.379 62.0365 144.607 61.1724C142.836 60.2652 141.518 59.0771 140.654 57.6082C139.79 56.1393 139.358 54.5192 139.358 52.7479C139.358 49.7669 140.525 47.3475 142.858 45.4898C145.191 43.6321 148.69 42.7032 153.356 42.7032H161.521V41.9255C161.521 39.7222 160.895 38.1021 159.642 37.0652C158.389 36.0283 156.834 35.5099 154.976 35.5099C153.291 35.5099 151.822 35.9203 150.569 36.7412C149.317 37.5189 148.539 38.6853 148.237 40.2406H140.136C140.352 37.9077 141.13 35.8771 142.469 34.149C143.851 32.4209 145.623 31.1032 147.783 30.196C149.943 29.2455 152.362 28.7703 155.041 28.7703C159.62 28.7703 163.228 29.9151 165.863 32.2049C168.499 34.4946 169.816 37.7349 169.816 41.9255V61.6909H162.753L161.975 56.5065C161.025 58.2346 159.685 59.6603 157.957 60.7836C156.272 61.9069 154.091 62.4685 151.412 62.4685ZM153.291 55.9881C155.667 55.9881 157.504 55.2104 158.8 53.6551C160.139 52.0998 160.981 50.1773 161.327 47.8875H154.263C152.06 47.8875 150.483 48.298 149.533 49.1188C148.582 49.8965 148.107 50.8685 148.107 52.035C148.107 53.2879 148.582 54.26 149.533 54.9512C150.483 55.6425 151.736 55.9881 153.291 55.9881Z" fill="white"/>
<path d="M182.874 61.6909L171.08 29.5479H179.764L187.929 53.8495L196.095 29.5479H204.778L192.919 61.6909H182.874Z" fill="white"/>
<path d="M221.454 62.4685C218.214 62.4685 215.341 61.7773 212.835 60.3948C210.329 59.0123 208.363 57.0682 206.938 54.5624C205.512 52.0566 204.799 49.162 204.799 45.8786C204.799 42.552 205.49 39.5926 206.873 37.0004C208.299 34.4082 210.243 32.3993 212.705 30.9736C215.211 29.5047 218.149 28.7703 221.519 28.7703C224.672 28.7703 227.459 29.4615 229.878 30.844C232.298 32.2265 234.177 34.1274 235.516 36.5468C236.899 38.9229 237.59 41.5799 237.59 44.5177C237.59 44.993 237.568 45.4898 237.525 46.0082C237.525 46.5267 237.504 47.0667 237.46 47.6283H213.029C213.202 50.1341 214.066 52.0998 215.621 53.5255C217.22 54.9512 219.142 55.6641 221.389 55.6641C223.074 55.6641 224.478 55.2968 225.601 54.5624C226.768 53.7847 227.632 52.7911 228.193 51.5814H236.618C236.013 53.6119 234.998 55.4697 233.572 57.1546C232.19 58.7963 230.462 60.0924 228.388 61.0428C226.357 61.9933 224.046 62.4685 221.454 62.4685ZM221.519 35.5099C219.488 35.5099 217.695 36.0932 216.14 37.2596C214.585 38.3829 213.591 40.111 213.159 42.444H229.166C229.036 40.327 228.258 38.6421 226.833 37.3892C225.407 36.1364 223.636 35.5099 221.519 35.5099Z" fill="white"/>
<path d="M241.975 61.6909V15.0317H250.269V61.6909H241.975Z" fill="white"/>
<path d="M271.771 62.4685C268.531 62.4685 265.658 61.7773 263.152 60.3948C260.646 59.0123 258.68 57.0682 257.255 54.5624C255.829 52.0566 255.116 49.162 255.116 45.8786C255.116 42.552 255.807 39.5926 257.19 37.0004C258.616 34.4082 260.56 32.3993 263.022 30.9736C265.528 29.5047 268.466 28.7703 271.836 28.7703C274.989 28.7703 277.776 29.4615 280.195 30.844C282.615 32.2265 284.494 34.1274 285.833 36.5468C287.216 38.9229 287.907 41.5799 287.907 44.5177C287.907 44.993 287.886 45.4898 287.842 46.0082C287.842 46.5267 287.821 47.0667 287.778 47.6283H263.346C263.519 50.1341 264.383 52.0998 265.938 53.5255C267.537 54.9512 269.46 55.6641 271.706 55.6641C273.391 55.6641 274.795 55.2968 275.918 54.5624C277.085 53.7847 277.949 52.7911 278.51 51.5814H286.935C286.33 53.6119 285.315 55.4697 283.889 57.1546C282.507 58.7963 280.779 60.0924 278.705 61.0428C276.674 61.9933 274.363 62.4685 271.771 62.4685ZM271.836 35.5099C269.805 35.5099 268.012 36.0932 266.457 37.2596C264.902 38.3829 263.908 40.111 263.476 42.444H279.483C279.353 40.327 278.575 38.6421 277.15 37.3892C275.724 36.1364 273.953 35.5099 271.836 35.5099Z" fill="white"/>
<path d="M305.576 62.4685C302.725 62.4685 300.219 62.0149 298.059 61.1076C295.899 60.1572 294.171 58.8611 292.875 57.2194C291.579 55.5777 290.801 53.6767 290.542 51.5166H298.902C299.161 52.7695 299.852 53.8495 300.975 54.7568C302.142 55.6209 303.632 56.0529 305.447 56.0529C307.261 56.0529 308.579 55.6857 309.4 54.9512C310.264 54.2168 310.696 53.3743 310.696 52.4239C310.696 51.0414 310.091 50.1125 308.881 49.6373C307.672 49.1188 305.987 48.622 303.827 48.1468C302.444 47.8443 301.04 47.4771 299.614 47.0451C298.189 46.6131 296.871 46.073 295.661 45.425C294.495 44.7337 293.544 43.8697 292.81 42.8328C292.076 41.7527 291.708 40.435 291.708 38.8797C291.708 36.0283 292.832 33.6306 295.078 31.6865C297.368 29.7423 300.565 28.7703 304.669 28.7703C308.471 28.7703 311.495 29.6559 313.742 31.4272C316.032 33.1986 317.392 35.6395 317.824 38.7501H309.983C309.508 36.374 307.715 35.1859 304.604 35.1859C303.049 35.1859 301.839 35.4883 300.975 36.0932C300.154 36.698 299.744 37.454 299.744 38.3613C299.744 39.3118 300.37 40.0678 301.623 40.6295C302.876 41.1911 304.54 41.7095 306.613 42.1848C308.86 42.7032 310.912 43.2864 312.77 43.9345C314.671 44.5393 316.183 45.4682 317.306 46.7211C318.429 47.9307 318.991 49.6805 318.991 51.9702C319.034 53.9576 318.516 55.7505 317.436 57.349C316.356 58.9475 314.8 60.2004 312.77 61.1076C310.739 62.0149 308.341 62.4685 305.576 62.4685Z" fill="white"/>
<path d="M337.032 62.4685C334.18 62.4685 331.675 62.0149 329.515 61.1076C327.354 60.1572 325.626 58.8611 324.33 57.2194C323.034 55.5777 322.256 53.6767 321.997 51.5166H330.357C330.616 52.7695 331.307 53.8495 332.431 54.7568C333.597 55.6209 335.088 56.0529 336.902 56.0529C338.717 56.0529 340.034 55.6857 340.855 54.9512C341.719 54.2168 342.151 53.3743 342.151 52.4239C342.151 51.0414 341.547 50.1125 340.337 49.6373C339.127 49.1188 337.442 48.622 335.282 48.1468C333.9 47.8443 332.496 47.4771 331.07 47.0451C329.644 46.6131 328.326 46.073 327.117 45.425C325.95 44.7337 325 43.8697 324.265 42.8328C323.531 41.7527 323.164 40.435 323.164 38.8797C323.164 36.0283 324.287 33.6306 326.534 31.6865C328.823 29.7423 332.02 28.7703 336.125 28.7703C339.926 28.7703 342.951 29.6559 345.197 31.4272C347.487 33.1986 348.848 35.6395 349.28 38.7501H341.439C340.963 36.374 339.17 35.1859 336.06 35.1859C334.505 35.1859 333.295 35.4883 332.431 36.0932C331.61 36.698 331.199 37.454 331.199 38.3613C331.199 39.3118 331.826 40.0678 333.079 40.6295C334.332 41.1911 335.995 41.7095 338.069 42.1848C340.315 42.7032 342.367 43.2864 344.225 43.9345C346.126 44.5393 347.638 45.4682 348.761 46.7211C349.885 47.9307 350.446 49.6805 350.446 51.9702C350.49 53.9576 349.971 55.7505 348.891 57.349C347.811 58.9475 346.256 60.2004 344.225 61.1076C342.195 62.0149 339.797 62.4685 337.032 62.4685Z" fill="white"/>
</svg>
