<svg width="270" height="72" viewBox="0 0 270 72" fill="none" xmlns="http://www.w3.org/2000/svg">
<path d="M143.297 34.5893C141.606 36.2333 140.761 38.6288 140.761 41.7759V61.4333H129.488V22.8231H138.436V35.5644C138.864 31.9276 139.945 28.9956 141.677 26.7687C144.025 23.8095 147.407 22.3299 151.823 22.3299H153.302V32.0529H150.484C147.384 32.0529 144.988 32.8984 143.297 34.5893Z" fill="white"/>
<path fill-rule="evenodd" clip-rule="evenodd" d="M177.468 56.7127C177.952 55.8917 178.352 54.9858 178.666 53.9951V61.4333H187.614V37.7599C187.614 34.1901 186.909 31.2779 185.5 29.0233C184.091 26.7217 182.024 25.0072 179.3 23.8799C176.623 22.7526 173.311 22.189 169.366 22.189C168.004 22.189 166.547 22.2125 164.997 22.2594C163.447 22.3064 161.944 22.3769 160.488 22.4708C159.032 22.5647 157.764 22.6587 156.684 22.7526V32.2643C158.14 32.1703 159.76 32.0764 161.545 31.9824C163.33 31.8885 165.068 31.818 166.759 31.7711C168.45 31.7241 169.812 31.7006 170.845 31.7006C172.912 31.7006 174.415 32.1938 175.355 33.1802C176.294 34.1666 176.764 35.6462 176.764 37.619V37.7599H169.788C166.36 37.7599 163.33 38.2061 160.7 39.0985C158.069 39.944 156.026 41.2827 154.57 43.1146C153.114 44.8995 152.386 47.201 152.386 50.0193C152.386 52.6027 152.973 54.8338 154.147 56.7127C155.321 58.5445 156.942 59.9537 159.009 60.9401C161.122 61.9265 163.565 62.4197 166.336 62.4197C169.013 62.4197 171.268 61.9265 173.1 60.9401C174.979 59.9537 176.435 58.5445 177.468 56.7127ZM175.636 51.6398C176.294 50.5595 176.67 49.0564 176.764 47.1306V44.0305H169.718C167.745 44.0305 166.219 44.5237 165.138 45.5101C164.105 46.4495 163.588 47.7412 163.588 49.3852C163.588 50.9352 164.105 52.2035 165.138 53.1898C166.219 54.1293 167.745 54.599 169.718 54.599C170.986 54.599 172.114 54.3876 173.1 53.9649C174.133 53.4952 174.979 52.7201 175.636 51.6398Z" fill="white"/>
<path d="M210.988 62.7719C207.653 62.7719 204.741 62.2318 202.251 61.1514C199.809 60.0241 197.766 58.5211 196.122 56.6422C194.478 54.7634 193.256 52.6497 192.458 50.3011C191.659 47.9056 191.26 45.4396 191.26 42.9032V41.5645C191.26 38.9341 191.683 36.4212 192.528 34.0257C193.374 31.5832 194.619 29.4225 196.263 27.5437C197.906 25.6648 199.95 24.1852 202.392 23.1049C204.882 22.0246 207.723 21.4844 210.917 21.4844C214.393 21.4844 217.47 22.1655 220.147 23.5277C222.825 24.8428 224.962 26.6982 226.559 29.0937C228.156 31.4892 229.048 34.237 229.236 37.3371H218.174C217.987 35.5992 217.282 34.1431 216.061 32.9688C214.887 31.7476 213.172 31.137 210.917 31.137C209.039 31.137 207.465 31.6067 206.197 32.5461C204.976 33.4855 204.06 34.7772 203.449 36.4212C202.838 38.0652 202.533 40.0145 202.533 42.2691C202.533 44.3358 202.815 46.2147 203.379 47.9056C203.942 49.5496 204.835 50.8413 206.056 51.7807C207.324 52.6732 208.968 53.1194 210.988 53.1194C212.491 53.1194 213.759 52.8611 214.793 52.3444C215.873 51.7807 216.718 51.0292 217.329 50.0898C217.987 49.1034 218.386 47.9761 218.527 46.7078H229.518C229.377 49.9019 228.485 52.7201 226.841 55.1626C225.197 57.5582 223.012 59.437 220.288 60.7992C217.564 62.1143 214.464 62.7719 210.988 62.7719Z" fill="white"/>
<path fill-rule="evenodd" clip-rule="evenodd" d="M242.153 61.081C244.689 62.2083 247.601 62.7719 250.889 62.7719C254.13 62.7719 256.996 62.2083 259.485 61.081C261.975 59.9537 264.041 58.3801 265.685 56.3604C267.329 54.3406 268.433 52.0391 268.997 49.4557H258.64C258.17 50.6299 257.277 51.6163 255.962 52.4148C254.647 53.2133 252.956 53.6126 250.889 53.6126C248.635 53.6126 246.803 53.1429 245.394 52.2035C243.985 51.264 242.951 49.9488 242.294 48.2579C241.927 47.2887 241.663 46.2318 241.5 45.0873H269.701V41.2827C269.701 37.7599 268.95 34.5189 267.447 31.5597C265.944 28.5536 263.759 26.1345 260.894 24.3027C258.076 22.4238 254.6 21.4844 250.467 21.4844C247.32 21.4844 244.501 22.0481 242.012 23.1754C239.569 24.2557 237.526 25.7353 235.882 27.6141C234.238 29.493 232.97 31.6302 232.078 34.0257C231.232 36.3742 230.809 38.8402 230.809 41.4236V42.8327C230.809 45.3222 231.232 47.7647 232.078 50.1602C232.97 52.5088 234.238 54.646 235.882 56.5718C237.573 58.4506 239.663 59.9537 242.153 61.081ZM241.587 38.6758C241.763 37.6656 242.022 36.7497 242.364 35.928C243.069 34.1901 244.102 32.8749 245.464 31.9824C246.826 31.09 248.494 30.6438 250.467 30.6438C252.393 30.6438 253.99 31.09 255.258 31.9824C256.573 32.8279 257.559 34.0726 258.217 35.7166C258.573 36.6067 258.833 37.593 258.996 38.6758H241.587Z" fill="white"/>
<path d="M102.647 61.4333V20.0753H88.2031V10H128.716V20.0753H114.202V61.4333H102.647Z" fill="white"/>
<path fill-rule="evenodd" clip-rule="evenodd" d="M35.5583 6.46515C19.4906 6.46515 6.46515 19.4906 6.46515 35.5583C6.46515 51.6261 19.4906 64.6515 35.5583 64.6515C51.6261 64.6515 64.6515 51.6261 64.6515 35.5583C64.6515 19.4906 51.6261 6.46515 35.5583 6.46515ZM0 35.5583C0 15.92 15.92 0 35.5583 0C55.1967 0 71.1167 15.92 71.1167 35.5583C71.1167 55.1967 55.1967 71.1167 35.5583 71.1167C15.92 71.1167 0 55.1967 0 35.5583Z" fill="white"/>
<path fill-rule="evenodd" clip-rule="evenodd" d="M53.2974 23.503C54.2451 20.518 51.4143 17.7144 48.4385 18.6908L28.1688 25.3418C26.9955 25.7268 26.0788 26.6524 25.7052 27.8294L19.4244 47.6136C18.4768 50.5987 21.3076 53.4023 24.2834 52.4258L44.553 45.7749C45.7263 45.3899 46.643 44.4643 47.0167 43.2873L53.2974 23.503ZM36.3572 40.1761C38.9076 40.1761 40.9751 38.1086 40.9751 35.5582C40.9751 33.0078 38.9076 30.9403 36.3572 30.9403C33.8068 30.9403 31.7393 33.0078 31.7393 35.5582C31.7393 38.1086 33.8068 40.1761 36.3572 40.1761Z" fill="white"/>
</svg>
