<svg width="50" height="50" viewBox="0 0 50 50" fill="none" xmlns="http://www.w3.org/2000/svg">
<path d="M25 0C29.9445 0 34.778 1.46622 38.8893 4.21326C43.0005 6.9603 46.2048 10.8648 48.097 15.4329C49.9892 20.0011 50.4843 25.0277 49.5196 29.8773C48.555 34.7268 46.174 39.1814 42.6777 42.6777C39.1814 46.174 34.7268 48.555 29.8773 49.5196C25.0277 50.4843 20.0011 49.9892 15.4329 48.097C10.8648 46.2048 6.96029 43.0005 4.21326 38.8893C1.46622 34.778 -5.8963e-08 29.9445 0 25L18.75 25C18.75 26.2361 19.1166 27.4445 19.8033 28.4723C20.4901 29.5001 21.4662 30.3012 22.6082 30.7742C23.7503 31.2473 25.0069 31.3711 26.2193 31.1299C27.4317 30.8888 28.5453 30.2935 29.4194 29.4194C30.2935 28.5453 30.8888 27.4317 31.1299 26.2193C31.3711 25.0069 31.2473 23.7503 30.7742 22.6082C30.3012 21.4662 29.5001 20.4901 28.4723 19.8033C27.4445 19.1166 26.2361 18.75 25 18.75V0Z" fill="white"/>
</svg>
