<svg width="50" height="50" viewBox="0 0 50 50" fill="none" xmlns="http://www.w3.org/2000/svg">
<path d="M0 0C3.28305 0 6.53424 0.646953 9.56738 1.90332C12.6004 3.15968 15.3564 5.00089 17.6777 7.32227C19.9991 9.64364 21.8403 12.3996 23.0967 15.4326C24.2745 18.2762 24.9165 21.3114 24.9922 24.3848L25 25C25 28.283 24.353 31.5342 23.0967 34.5674C21.8403 37.6004 19.9991 40.3564 17.6777 42.6777C15.3564 44.9991 12.6004 46.8403 9.56738 48.0967C6.53424 49.353 3.28305 50 0 50V0ZM50 50C46.717 50 43.4658 49.353 40.4326 48.0967C37.3996 46.8403 34.6436 44.9991 32.3223 42.6777C30.0009 40.3564 28.1597 37.6004 26.9033 34.5674C25.7255 31.7238 25.0835 28.6886 25.0078 25.6152L25 25C25 21.717 25.647 18.4658 26.9033 15.4326C28.1597 12.3996 30.0009 9.64364 32.3223 7.32227C34.6436 5.00089 37.3996 3.15968 40.4326 1.90332C43.4658 0.646953 46.717 0 50 0V50Z" fill="#FFB75D"/>
</svg>
